<?xml version="1.0" standalone="no"?>
<!DOCTYPE svg PUBLIC "-//W3C//DTD SVG 20010904//EN"
 "http://www.w3.org/TR/2001/REC-SVG-20010904/DTD/svg10.dtd">
<svg version="1.0" xmlns="http://www.w3.org/2000/svg"
 width="1280.000000pt" height="828.000000pt" viewBox="0 0 1280.000000 828.000000"
 preserveAspectRatio="xMidYMid meet">
<metadata>
Created by potrace 1.15, written by Peter Selinger 2001-2017
</metadata>
<g transform="translate(0.000000,828.000000) scale(0.100000,-0.100000)"
fill="#000000" stroke="none">
<path d="M4948 8201 c-170 -88 -210 -128 -230 -228 l-11 -55 -58 6 -58 7 -10
-38 c-6 -21 -11 -46 -11 -55 0 -26 -10 -23 -63 21 l-47 39 -91 -32 c-72 -26
-100 -42 -136 -79 l-47 -46 13 -42 c10 -33 10 -47 0 -71 -11 -26 -16 -29 -43
-24 -29 6 -35 1 -89 -71 -58 -76 -68 -93 -81 -145 -6 -28 -6 -28 43 -28 35 0
51 -4 55 -16 10 -26 7 -62 -10 -103 -12 -31 -24 -42 -57 -55 -23 -9 -78 -38
-122 -64 -69 -42 -81 -54 -89 -85 -8 -32 -6 -40 14 -62 13 -14 34 -25 46 -25
16 0 25 -9 33 -30 5 -17 17 -33 26 -36 18 -7 20 -24 3 -24 -7 0 -26 -10 -42
-23 l-29 -23 44 -37 c40 -35 42 -38 24 -51 -18 -13 -16 -16 30 -45 66 -42 83
-46 105 -26 10 9 43 19 73 22 52 5 58 3 102 -31 26 -20 54 -36 61 -36 8 0 14
-10 14 -21 0 -12 17 -49 39 -83 21 -34 42 -82 46 -106 9 -55 18 -199 17 -260
-1 -28 5 -51 15 -62 20 -22 31 -23 54 -2 17 16 19 15 28 -7 5 -13 18 -33 30
-43 28 -25 27 -41 -1 -22 -12 9 -35 16 -50 16 -30 0 -32 -4 -43 -91 -5 -42 -3
-49 20 -67 22 -17 31 -19 56 -10 17 6 33 17 36 24 9 24 22 15 28 -20 10 -52
-1 -76 -35 -76 -45 0 -60 -39 -60 -153 0 -79 3 -97 19 -111 12 -11 20 -36 24
-72 3 -31 13 -64 21 -73 9 -10 16 -25 16 -35 0 -25 78 -175 105 -202 13 -13
35 -24 49 -24 14 0 41 -14 62 -32 47 -41 61 -32 91 57 18 53 21 76 14 101 -8
30 -6 35 25 59 32 25 34 29 34 91 0 36 4 64 10 64 6 0 10 7 10 15 0 20 32 35
73 35 46 0 95 35 134 95 53 84 103 135 131 135 60 0 292 155 292 196 0 5 -22
17 -50 27 -39 14 -55 15 -72 7 -22 -11 -23 -11 -3 5 12 9 20 28 20 45 0 38 17
36 30 -4 11 -32 50 -54 79 -43 12 5 16 20 16 61 0 47 -4 59 -35 96 -42 50 -43
56 -9 34 22 -15 27 -15 35 -3 14 21 3 89 -16 103 -16 12 -15 14 10 34 15 12
36 22 46 22 26 0 27 67 2 72 -12 3 -6 8 18 16 23 8 39 21 43 35 9 35 7 47 -9
47 -19 0 -19 21 0 46 13 17 14 17 15 2 0 -11 8 -18 20 -18 25 0 25 11 0 41
-14 18 -20 20 -21 9 -1 -8 -5 9 -9 38 -9 62 -33 102 -60 102 -15 0 -20 7 -20
29 0 42 31 63 71 48 24 -10 32 -9 39 3 16 24 12 47 -19 115 -26 56 -28 69 -19
107 5 24 7 60 4 81 -4 25 -1 45 9 60 8 12 25 56 39 97 40 121 72 183 151 286
41 53 75 101 75 106 0 6 -14 29 -30 52 -25 34 -42 46 -87 60 l-56 18 -32 -38
c-30 -35 -34 -37 -58 -27 -25 12 -28 10 -56 -31 -44 -64 -119 -121 -137 -103
-10 10 29 92 66 135 33 40 40 56 40 91 l0 44 -42 -7 c-55 -9 -58 -12 -58 -50
0 -25 -5 -35 -19 -39 -16 -4 -20 3 -25 44 l-7 49 -59 0 c-33 0 -60 4 -60 10 0
6 28 10 63 10 112 0 170 17 216 64 l40 41 -26 41 c-19 29 -41 48 -73 61 -39
16 -48 26 -58 59 -6 23 -30 58 -56 83 l-45 45 -148 17 c-81 10 -155 18 -163
17 -8 0 -81 -35 -162 -77z m336 44 l130 -14 43 -43 c25 -25 49 -59 55 -82 10
-33 20 -43 58 -59 41 -17 92 -71 89 -94 0 -5 -16 -21 -35 -37 -43 -36 -131
-58 -199 -51 -43 5 -54 3 -80 -19 l-30 -25 78 -1 77 0 0 -50 c0 -53 6 -58 58
-44 18 5 22 13 22 44 0 34 3 38 30 42 36 5 40 2 40 -31 0 -16 -17 -47 -43 -79
-38 -46 -84 -148 -72 -160 3 -3 25 3 49 12 42 16 91 61 127 115 13 21 18 22
39 11 22 -12 26 -10 59 28 l36 40 47 -16 c34 -12 56 -29 77 -58 l31 -41 -79
-104 c-77 -102 -131 -207 -157 -302 -7 -27 -19 -58 -27 -70 -8 -13 -16 -60
-19 -116 -5 -88 -4 -99 22 -157 30 -66 31 -111 1 -98 -38 15 -50 14 -75 -8
-22 -19 -26 -28 -20 -55 4 -22 13 -33 27 -35 34 -5 48 -45 44 -118 -2 -36 -7
-73 -12 -82 -5 -14 -2 -18 15 -18 18 0 20 -4 14 -22 -3 -13 -7 -23 -8 -23 0 0
-18 -8 -39 -18 -36 -16 -42 -37 -11 -37 8 0 14 -10 14 -25 0 -19 -5 -25 -23
-25 -14 0 -32 -12 -47 -32 -20 -27 -21 -33 -8 -42 17 -13 28 -59 18 -76 -5 -8
-18 -4 -44 11 -20 12 -39 19 -42 17 -2 -3 18 -33 46 -68 43 -53 50 -69 50
-106 0 -34 -4 -44 -20 -49 -28 -9 -48 10 -60 56 -10 35 -13 38 -30 29 -14 -7
-20 -21 -20 -44 0 -21 -6 -36 -15 -40 -8 -3 -15 -14 -15 -25 0 -18 3 -19 25
-9 19 8 35 8 65 -1 22 -6 40 -16 40 -20 0 -34 -229 -181 -282 -181 -28 0 -77
-50 -131 -134 -42 -65 -71 -85 -135 -93 -35 -4 -57 -12 -65 -23 -6 -10 -16
-16 -24 -13 -10 4 -12 -10 -7 -69 l7 -75 -37 -29 c-34 -27 -36 -32 -31 -69 6
-41 -27 -175 -44 -175 -4 0 -18 11 -31 25 -13 14 -44 31 -67 37 -27 6 -50 20
-62 37 -31 43 -91 169 -91 190 0 10 -6 24 -14 30 -7 6 -16 36 -19 66 -3 33
-14 65 -26 81 -17 22 -21 41 -21 101 0 42 6 89 14 108 13 29 20 35 45 35 36 0
47 27 38 87 -9 54 -22 61 -51 30 -14 -15 -34 -27 -44 -27 -25 0 -48 27 -44 54
10 82 12 86 40 86 15 0 36 -7 46 -15 11 -8 23 -15 27 -15 13 0 -4 45 -28 73
-12 16 -23 32 -23 35 0 4 -4 14 -10 22 -7 12 -12 12 -29 -4 -11 -10 -28 -16
-38 -14 -16 3 -18 16 -18 133 -1 83 -5 138 -13 152 -7 12 -12 36 -12 53 0 18
-14 53 -35 86 -19 30 -35 65 -35 79 0 18 -8 28 -32 38 -18 8 -47 26 -64 40
-27 23 -41 27 -95 27 -50 0 -67 -4 -85 -21 -24 -23 -15 -25 -101 27 -26 16
-26 17 -7 31 18 13 17 16 -24 50 -48 40 -45 54 16 74 l35 12 -30 26 c-17 14
-34 36 -38 49 -4 14 -14 22 -29 22 -12 0 -33 11 -45 24 -36 38 -19 71 65 122
38 24 92 53 121 64 45 19 54 28 72 71 19 42 20 55 11 89 -11 39 -12 40 -56 40
l-46 0 7 33 c4 17 27 59 51 92 74 102 70 98 108 92 34 -5 36 -4 47 34 9 30 9
48 1 77 -11 36 -11 38 33 82 37 38 61 51 130 74 l86 27 49 -41 c27 -23 54 -39
59 -36 5 3 12 23 15 43 13 73 11 71 68 62 28 -5 55 -6 59 -3 4 2 13 30 19 61
22 102 57 137 227 224 97 50 157 74 173 72 14 -2 83 -10 154 -18z"/>
<path d="M3578 8079 c-46 -16 -64 -30 -92 -68 -20 -26 -69 -76 -111 -110 -56
-46 -75 -69 -75 -87 0 -21 -4 -24 -37 -24 -36 0 -40 -3 -65 -53 -42 -80 -33
-165 23 -223 28 -29 40 -34 79 -34 26 0 66 6 91 14 24 8 80 17 124 20 l80 5
-25 -19 c-14 -11 -45 -27 -70 -36 -25 -9 -54 -25 -66 -36 -19 -17 -23 -17 -58
-3 -29 12 -37 13 -41 3 -2 -7 -11 -37 -19 -66 l-15 -53 29 -17 c23 -13 30 -24
30 -48 0 -17 3 -51 6 -76 5 -39 4 -46 -13 -50 -22 -6 -91 -120 -76 -125 6 -2
18 -10 29 -17 17 -13 16 -14 -14 -21 -29 -6 -32 -10 -32 -44 0 -20 5 -42 11
-48 9 -9 2 -20 -25 -43 -30 -26 -36 -39 -36 -71 0 -35 2 -39 33 -44 31 -6 107
-8 181 -5 16 0 37 5 47 10 14 8 21 5 32 -10 13 -19 16 -20 53 -4 21 9 44 23
51 33 32 39 32 47 8 83 l-24 35 25 24 c19 18 24 31 20 51 -5 25 -2 28 33 38
35 9 41 16 55 57 9 26 16 66 16 89 0 24 5 65 10 92 11 47 13 49 58 63 45 14
49 18 99 112 32 60 83 133 132 189 58 67 81 101 81 120 0 17 19 54 50 96 38
53 50 77 50 105 0 22 -5 37 -12 37 -7 0 -35 24 -63 53 -40 42 -69 61 -139 91
-85 36 -93 38 -165 32 -106 -9 -131 -10 -171 -3 -23 4 -54 -1 -92 -14z m135
-9 c18 -6 42 -4 69 6 68 24 119 18 220 -26 72 -31 101 -49 130 -84 21 -25 47
-48 58 -51 36 -11 24 -56 -35 -135 -34 -45 -55 -84 -55 -100 0 -18 -24 -54
-79 -118 -45 -53 -99 -131 -127 -184 -45 -85 -52 -93 -92 -106 -23 -7 -47 -22
-52 -33 -6 -10 -17 -65 -24 -121 -8 -57 -17 -111 -21 -120 -4 -10 -25 -23 -46
-28 -35 -10 -39 -14 -39 -42 0 -19 -9 -41 -22 -55 -20 -21 -21 -26 -9 -46 8
-12 19 -29 24 -38 13 -22 -18 -65 -57 -79 -25 -8 -33 -7 -51 10 -13 12 -25 16
-31 11 -19 -18 -120 -26 -201 -16 -48 6 -53 9 -53 31 0 28 37 84 56 84 22 0
27 20 10 39 -9 10 -16 29 -16 43 0 23 5 26 47 33 51 7 51 7 -11 49 -18 12 -18
14 9 60 15 26 39 53 52 59 18 8 23 16 18 31 -3 12 -8 49 -12 83 -5 52 -9 63
-30 72 -21 10 -24 16 -17 44 3 17 10 42 15 55 8 21 10 22 43 8 32 -13 36 -13
55 8 11 12 42 30 69 39 48 17 122 70 122 87 0 5 -15 4 -32 -1 -18 -6 -71 -15
-118 -20 -47 -5 -115 -12 -153 -17 -67 -7 -68 -7 -97 23 -23 23 -33 47 -41 92
-10 58 -9 64 16 107 20 34 33 46 50 46 38 0 55 11 55 36 0 17 20 40 75 86 42
33 91 82 109 107 28 37 45 49 97 67 35 12 71 20 79 17 8 -3 28 -9 43 -13z"/>
<path d="M8426 7696 c-28 -35 -36 -53 -36 -85 0 -37 -2 -41 -25 -41 -26 0 -50
-32 -41 -55 3 -8 18 -21 35 -29 27 -15 33 -14 75 3 44 19 44 20 34 49 -10 25
-9 35 5 56 9 14 17 38 17 54 0 41 -11 92 -20 92 -4 0 -24 -20 -44 -44z m34
-97 c-17 -31 -19 -42 -10 -60 13 -24 15 -22 -26 -38 -27 -11 -37 -10 -63 4
-26 13 -30 19 -21 35 5 10 22 20 37 22 26 3 28 7 33 55 4 37 13 60 30 78 l25
27 8 -43 c7 -35 5 -49 -13 -80z"/>
<path d="M8657 7636 c-14 -13 -32 -40 -40 -59 -12 -28 -22 -36 -60 -45 -41
-11 -46 -15 -54 -49 -8 -34 -13 -39 -45 -43 -24 -3 -44 -14 -57 -32 -28 -35
-27 -38 15 -38 27 0 41 7 60 29 23 27 26 28 64 19 55 -14 80 7 80 68 0 42 1
43 28 39 17 -4 35 1 50 13 23 18 23 21 11 63 -17 60 -22 63 -52 35z m38 -37
c6 -33 4 -43 -11 -54 -18 -12 -52 -8 -53 8 -2 26 1 37 20 61 28 36 36 33 44
-15z m-85 -107 c0 -52 -23 -72 -68 -60 -31 8 -33 11 -27 41 4 18 8 33 9 33 4
4 63 23 74 23 7 1 12 -13 12 -37z m-146 -87 c-17 -26 -73 -38 -58 -12 17 29
28 37 50 37 24 0 24 -1 8 -25z"/>
<path d="M3055 7568 c-4 -29 -16 -70 -26 -90 -29 -56 -25 -129 9 -180 24 -37
27 -51 27 -127 0 -76 4 -91 29 -134 l28 -48 52 3 51 3 40 82 c22 45 50 93 63
106 17 18 23 34 20 58 -2 28 -8 36 -35 43 -31 10 -32 11 -26 53 3 25 1 55 -7
72 -12 30 -17 33 -71 45 -34 7 -59 46 -73 110 -10 47 -14 51 -43 54 -30 3 -31
2 -38 -50z m70 -14 c16 -73 46 -111 94 -119 48 -8 62 -35 54 -103 -5 -49 -5
-49 26 -55 27 -6 31 -11 31 -37 0 -18 -11 -45 -24 -63 -14 -18 -38 -62 -55
-100 l-30 -67 -49 0 c-48 0 -49 1 -72 47 -22 44 -24 59 -18 166 0 15 -13 49
-31 78 -38 62 -40 108 -6 181 14 29 25 70 25 91 0 34 3 38 22 35 17 -2 24 -14
33 -54z"/>
<path d="M9746 7577 c-25 -24 -46 -50 -46 -59 0 -8 -16 -47 -36 -86 -33 -67
-34 -73 -23 -112 10 -32 21 -46 49 -60 24 -12 42 -32 54 -58 24 -52 125 -108
176 -97 30 7 31 8 29 58 -2 29 1 70 4 92 9 47 -17 98 -58 117 -28 13 -41 58
-30 106 5 25 -1 41 -31 86 -20 31 -38 56 -39 56 -1 0 -23 -19 -49 -43z m80
-25 c24 -37 29 -53 23 -75 -11 -41 8 -93 42 -117 45 -33 60 -69 48 -116 -6
-21 -9 -55 -6 -76 8 -58 -17 -66 -94 -32 -51 23 -64 34 -84 73 -15 31 -34 52
-58 63 -46 22 -63 78 -35 123 10 17 27 55 39 85 17 47 72 120 88 120 4 0 20
-22 37 -48z"/>
<path d="M8015 7500 c-32 -33 -36 -41 -25 -55 7 -8 23 -15 35 -15 18 0 25 -7
30 -29 7 -34 49 -56 88 -46 19 5 27 15 32 43 4 20 15 48 25 63 17 24 18 27 3
42 -15 15 -19 14 -54 -4 -46 -23 -49 -23 -49 -3 0 15 -26 43 -40 44 -3 0 -23
-18 -45 -40z m59 14 c9 -3 16 -17 16 -30 0 -29 1 -29 50 -4 63 32 79 22 40
-27 -11 -14 -20 -38 -20 -54 0 -21 -5 -28 -22 -31 -39 -6 -68 12 -68 44 0 24
-4 28 -29 28 -42 0 -47 17 -15 51 15 16 29 29 30 29 1 0 9 -3 18 -6z"/>
<path d="M7057 7425 c-29 -20 -37 -32 -37 -56 0 -26 -2 -29 -19 -19 -27 14
-27 14 -41 -20 -14 -33 -17 -34 -52 -22 -13 5 -44 4 -73 -2 l-50 -11 2 -93 c2
-90 3 -94 38 -142 28 -38 43 -50 63 -50 l25 0 -23 -25 c-22 -23 -22 -27 -11
-67 19 -63 49 -119 84 -155 38 -40 47 -41 47 -6 0 23 16 88 68 272 10 34 28
37 36 5 4 -15 16 -40 27 -56 19 -26 19 -29 4 -59 -20 -38 -15 -54 23 -67 28
-9 33 -7 73 34 l43 44 -30 32 c-54 58 -72 88 -79 128 -5 32 -14 43 -50 64 -40
24 -55 47 -55 90 0 18 3 17 28 -7 15 -15 54 -36 87 -47 l59 -20 64 67 c58 62
63 70 60 107 -3 40 -5 41 -49 52 -25 6 -60 19 -77 28 -31 16 -34 16 -59 -4
-33 -26 -37 -25 -51 5 -15 31 -28 31 -75 0z m79 -32 c10 -14 14 -13 42 7 31
23 33 23 66 8 19 -9 50 -20 70 -23 34 -7 36 -9 36 -46 0 -32 -8 -47 -52 -94
l-53 -57 -50 13 c-32 8 -64 26 -92 52 l-43 40 0 -52 c0 -43 4 -56 26 -76 14
-13 35 -27 45 -30 12 -4 23 -23 31 -52 6 -27 29 -68 56 -101 l44 -54 -33 -34
c-24 -25 -38 -32 -53 -28 -30 9 -30 10 -16 53 11 35 11 42 -7 68 -11 15 -23
45 -27 66 l-7 38 -27 -21 c-19 -15 -30 -37 -38 -73 -12 -56 -57 -229 -61 -236
-2 -2 -12 4 -24 15 -25 22 -63 94 -77 145 -8 32 -7 40 15 68 l24 31 -29 0
c-21 0 -37 10 -61 40 -27 34 -34 54 -43 125 -8 59 -9 88 -1 96 13 13 99 16
134 5 24 -7 28 -4 38 24 8 25 15 31 28 25 34 -13 38 -10 43 28 4 27 13 43 35
57 27 18 31 19 40 4 6 -9 15 -23 21 -31z"/>
<path d="M8292 7425 c-17 -36 -16 -37 21 -30 42 10 43 11 22 35 -24 26 -29 25
-43 -5z m33 -5 c3 -5 -1 -10 -10 -10 -9 0 -13 5 -10 10 3 6 8 10 10 10 2 0 7
-4 10 -10z"/>
<path d="M2856 7364 c-11 -30 -6 -44 24 -59 41 -21 42 -20 18 30 -24 48 -32
54 -42 29z m34 -43 c0 -11 -3 -11 -14 -1 -8 6 -12 18 -9 27 5 12 7 12 14 1 5
-7 9 -19 9 -27z"/>
<path d="M2620 7215 c-18 -21 -4 -64 26 -77 22 -10 24 -16 19 -47 -8 -49 18
-76 89 -92 45 -10 57 -17 67 -40 12 -31 20 -34 47 -19 9 5 42 14 73 20 51 10
57 14 62 40 4 16 2 42 -4 57 -10 29 -84 89 -93 75 -2 -4 -8 -36 -12 -70 -5
-50 -10 -62 -23 -60 -12 2 -17 19 -21 68 -7 88 -33 125 -95 134 -24 4 -47 11
-50 17 -10 15 -71 11 -85 -6z m86 -10 c10 -8 35 -15 54 -15 45 0 69 -39 77
-128 5 -54 10 -65 30 -75 13 -5 25 -8 28 -5 3 2 8 33 11 67 4 34 10 63 13 66
4 2 21 -10 39 -26 42 -40 45 -94 6 -109 -14 -6 -35 -10 -47 -10 -12 0 -34 -6
-49 -14 -26 -14 -27 -13 -37 15 -5 16 -16 31 -23 33 -7 2 -35 9 -63 15 -71 17
-81 35 -58 98 3 6 -9 19 -26 28 -30 15 -42 51 -24 68 11 12 48 8 69 -8z"/>
<path d="M10007 7213 c-14 -17 -88 -254 -81 -262 1 -2 18 6 37 18 19 11 51 21
71 21 20 0 50 7 66 15 27 14 30 20 30 68 0 54 -11 78 -58 130 -30 32 -43 34
-65 10z m85 -57 c21 -29 28 -51 28 -83 0 -41 -3 -45 -35 -59 -19 -7 -49 -14
-67 -14 -19 0 -43 -7 -55 -15 -21 -15 -21 -15 -12 17 5 18 19 67 30 108 12 41
28 83 37 92 18 21 30 14 74 -46z"/>
<path d="M2405 7073 c-20 -5 -54 -40 -55 -56 0 -4 15 -5 34 -2 20 4 36 2 40
-4 11 -17 61 -13 79 7 23 25 22 29 -13 47 -29 15 -48 17 -85 8z m85 -23 c13
-8 13 -11 -2 -26 -15 -15 -21 -15 -62 -3 -45 13 -53 19 -39 32 10 10 86 8 103
-3z"/>
<path d="M2302 6974 c-18 -12 -20 -19 -12 -35 6 -10 20 -19 30 -19 15 0 20 7
20 29 0 37 -11 44 -38 25z m28 -30 c0 -9 -5 -14 -12 -12 -18 6 -21 28 -4 28 9
0 16 -7 16 -16z"/>
<path d="M2426 6970 c-64 -25 -79 -40 -71 -73 16 -60 115 -34 129 34 13 67 13
67 -58 39z m42 -32 c-6 -61 -98 -91 -98 -31 0 18 9 28 43 43 57 25 59 25 55
-12z"/>
<path d="M2970 6935 l-35 -13 58 -26 c80 -36 99 -37 110 -5 17 45 4 59 -50 58
-26 0 -64 -6 -83 -14z m128 -10 c8 -7 -10 -45 -21 -45 -20 0 -97 32 -97 41 0
12 32 18 75 13 21 -3 41 -7 43 -9z"/>
<path d="M2635 6888 c7 -43 26 -68 53 -68 10 0 12 7 8 26 -4 15 -10 39 -13 55
-4 23 -11 29 -30 29 -24 0 -24 -2 -18 -42z m38 -5 c7 -40 4 -49 -12 -38 -13 7
-15 75 -2 75 4 0 11 -17 14 -37z"/>
<path d="M10036 6864 c-47 -55 -57 -73 -54 -98 2 -25 -1 -31 -17 -32 -46 -2
-52 -5 -51 -26 1 -15 -8 -25 -31 -35 -32 -13 -33 -12 -33 12 l0 24 -46 -19
c-25 -11 -57 -20 -70 -20 -15 0 -35 -11 -49 -27 -12 -16 -50 -39 -84 -52 -49
-19 -69 -34 -102 -77 -41 -53 -45 -75 -28 -133 3 -10 -24 -20 -101 -37 -58
-13 -110 -26 -116 -28 -18 -7 10 -126 34 -145 11 -9 25 -26 31 -38 19 -37 -13
-35 -50 3 -18 19 -42 34 -53 34 -11 0 -28 8 -38 17 -17 15 -20 16 -35 0 -15
-15 -15 -18 -1 -34 16 -17 15 -18 -12 -18 -26 0 -28 4 -33 44 -6 52 -51 108
-63 77 -4 -9 0 -24 9 -34 19 -22 11 -78 -14 -95 -33 -24 -40 -62 -20 -108 18
-38 18 -46 4 -91 -11 -39 -12 -57 -3 -84 6 -19 17 -34 23 -34 18 0 5 -138 -16
-177 -9 -17 -30 -41 -46 -52 -27 -19 -29 -20 -44 -3 -15 16 -12 21 34 67 45
45 49 53 49 96 0 26 -4 51 -10 54 -6 4 -10 55 -10 121 0 82 -4 121 -14 137
-13 19 -12 30 2 85 l17 64 -27 22 c-18 14 -26 28 -23 41 9 34 -10 51 -41 40
-28 -10 -34 -22 -70 -149 -9 -33 -27 -69 -39 -81 -32 -28 -41 -68 -22 -95 12
-17 12 -29 4 -62 -8 -34 -8 -42 6 -50 10 -5 17 -15 17 -22 0 -7 8 -24 19 -37
11 -15 16 -31 12 -43 -7 -17 -9 -16 -24 8 -16 24 -44 41 -192 114 -27 13 -64
38 -82 55 -27 25 -35 28 -48 17 -22 -18 -19 -35 10 -54 14 -9 34 -34 45 -56
l21 -40 -26 -12 c-21 -9 -28 -9 -35 2 -6 10 -15 9 -43 -9 -19 -11 -50 -21 -70
-21 -19 0 -37 -5 -39 -12 -7 -19 -28 2 -28 28 0 13 -4 24 -10 24 -5 0 -54 -27
-110 -61 -87 -53 -100 -64 -100 -88 0 -54 -44 -68 -77 -23 -23 31 -20 52 7 52
10 0 21 4 24 8 9 15 -36 72 -60 77 -13 3 -35 7 -49 10 -28 6 -33 -6 -10 -25
10 -8 15 -31 15 -71 0 -32 5 -61 10 -64 13 -8 13 -52 -1 -60 -5 -4 -23 -2 -39
5 -27 11 -32 9 -75 -27 -46 -38 -50 -49 -30 -96 7 -16 2 -15 -49 4 -45 18 -59
19 -71 9 -22 -18 -19 -36 10 -58 14 -11 25 -25 25 -31 0 -19 -24 -12 -63 20
-35 29 -37 34 -37 88 0 48 -4 61 -25 81 -14 13 -23 25 -22 27 2 1 42 -10 89
-26 l85 -29 49 27 c49 26 49 27 48 76 0 47 -3 51 -65 107 -69 63 -115 91 -167
103 -22 4 -36 15 -42 30 -10 26 -38 39 -64 29 -9 -3 -28 -3 -42 0 l-26 7 26
20 c14 11 26 24 26 27 0 4 -27 24 -60 44 -55 35 -60 36 -72 20 -18 -25 -58
-26 -58 -1 0 26 -12 24 -40 -6 -18 -19 -26 -22 -37 -13 -11 9 -21 4 -46 -20
-35 -33 -75 -52 -112 -52 -15 0 -26 -7 -30 -20 -3 -11 -18 -29 -32 -40 -19
-14 -24 -26 -21 -45 6 -29 -11 -34 -19 -6 -5 19 -7 19 -44 -6 -30 -20 -37 -29
-28 -39 8 -9 5 -16 -13 -25 -22 -12 -49 -41 -44 -47 2 -1 19 5 39 13 49 20 64
20 45 -2 -19 -22 -61 -105 -89 -175 -11 -29 -31 -66 -43 -83 -13 -16 -33 -49
-45 -72 -12 -24 -25 -42 -29 -41 -4 2 -42 -31 -84 -72 -67 -64 -78 -80 -79
-110 -2 -72 8 -143 22 -154 8 -6 14 -20 14 -31 0 -13 13 -26 38 -39 l38 -18
27 25 c36 33 72 51 82 40 4 -4 15 -35 25 -68 9 -33 21 -66 27 -72 15 -19 4
-36 -36 -57 -38 -20 -62 -15 -33 7 14 10 16 22 11 64 l-7 52 -38 -20 c-21 -10
-43 -28 -49 -38 -15 -29 -12 -80 5 -98 9 -9 15 -30 14 -51 -3 -49 -7 -54 -30
-42 -15 9 -21 7 -25 -5 -3 -8 -17 -15 -30 -15 -20 0 -24 -5 -25 -32 -1 -18 -3
-25 -6 -15 -7 27 -25 16 -51 -30 -12 -23 -35 -46 -51 -53 -17 -7 -32 -22 -35
-36 -4 -14 -16 -26 -31 -30 -14 -3 -25 -12 -25 -20 0 -18 -24 -18 -40 1 -18
22 -32 7 -25 -26 7 -31 -10 -40 -32 -18 -15 15 -73 -16 -73 -40 0 -12 12 -22
40 -30 58 -17 93 -72 84 -132 -4 -24 -10 -51 -15 -59 -9 -19 -94 -23 -165 -8
-45 9 -55 8 -76 -8 -24 -18 -24 -21 -22 -151 2 -73 6 -138 10 -144 3 -6 20 -9
38 -6 25 4 35 0 52 -21 l21 -25 -25 -44 c-13 -24 -36 -50 -51 -58 -39 -20 -80
-85 -70 -110 13 -33 10 -43 -21 -79 -19 -21 -43 -36 -64 -40 -25 -5 -37 -14
-46 -36 -7 -17 -16 -30 -21 -30 -5 0 -16 -16 -24 -36 -8 -20 -31 -59 -50 -85
-36 -50 -44 -86 -23 -107 14 -14 19 -49 18 -122 -1 -40 -7 -61 -21 -76 -13
-14 -17 -24 -10 -29 6 -3 11 -23 11 -44 0 -31 5 -40 25 -49 14 -6 25 -18 25
-26 0 -8 16 -28 35 -43 19 -15 40 -40 46 -56 12 -28 143 -128 186 -141 13 -4
35 0 55 10 25 13 48 15 106 11 65 -5 82 -2 129 19 34 15 74 24 105 24 45 0 50
-2 70 -36 20 -34 23 -35 74 -33 30 2 57 0 61 -4 3 -4 1 -7 -5 -7 -7 0 -12 -6
-12 -14 0 -9 7 -12 20 -9 19 5 20 2 16 -50 -3 -31 -9 -65 -15 -76 -17 -30 -15
-34 48 -118 71 -95 93 -137 97 -183 1 -19 8 -50 15 -68 12 -29 11 -36 -3 -60
-31 -48 -58 -113 -64 -151 -5 -31 1 -52 36 -121 27 -54 49 -117 61 -174 10
-49 30 -110 44 -135 60 -110 96 -193 87 -204 -14 -19 5 -77 26 -77 10 0 23 -5
28 -10 7 -7 24 -6 53 5 25 8 69 14 105 12 49 -2 71 3 116 25 46 23 64 41 110
108 30 44 62 82 71 85 20 7 29 35 29 92 0 38 4 44 33 59 73 37 81 62 47 151
l-19 51 56 46 c30 25 61 46 67 46 7 0 29 18 50 39 l39 40 -2 86 c-2 66 -7 94
-22 120 -13 22 -18 42 -14 56 4 13 0 34 -10 53 -17 31 -17 33 8 81 32 64 132
174 195 213 70 46 139 131 179 223 39 90 52 149 34 149 -7 0 -25 -7 -40 -15
-15 -7 -67 -20 -114 -26 -68 -10 -88 -10 -101 0 -28 24 -15 49 35 66 26 8 55
15 64 15 9 0 36 11 59 25 24 14 66 32 95 41 28 8 51 21 51 28 0 7 19 18 43 25
23 7 63 30 89 52 26 21 51 39 57 39 6 0 11 11 11 23 0 13 9 32 21 43 12 10 27
31 35 45 17 35 -1 61 -61 88 -39 17 -45 24 -45 50 0 41 -16 39 -61 -5 -29 -28
-46 -37 -76 -38 -36 -1 -38 1 -43 34 -3 24 -10 35 -22 35 -10 0 -34 27 -57 63
-35 54 -39 65 -29 82 22 35 56 19 82 -39 14 -31 31 -46 78 -71 52 -28 63 -30
90 -21 43 15 46 14 50 -11 4 -29 49 -36 224 -37 l122 -1 11 -27 c13 -31 61
-63 94 -63 22 -1 22 -1 2 -12 -11 -6 -22 -13 -24 -15 -3 -1 6 -14 19 -28 31
-33 82 -34 98 -2 9 19 11 15 11 -28 1 -67 19 -134 80 -296 54 -143 81 -181
110 -156 9 8 24 17 34 20 9 4 17 16 17 27 0 11 3 20 8 20 4 0 7 -28 7 -62 0
-87 6 -100 44 -87 43 15 49 52 14 97 -15 21 -34 42 -42 48 -11 8 -12 21 -6 55
4 24 7 65 6 92 0 31 3 47 11 47 7 0 28 17 48 38 19 21 65 62 102 91 37 28 70
61 73 72 7 23 41 43 49 30 8 -12 75 6 97 25 13 12 17 9 27 -20 7 -18 22 -38
35 -45 29 -16 60 -90 55 -137 -3 -33 0 -38 25 -47 25 -8 33 -5 57 18 l28 27
25 -79 c22 -65 24 -86 17 -128 -14 -81 -12 -112 8 -117 20 -6 47 -56 62 -116
11 -44 25 -63 70 -95 24 -17 24 -17 -10 -1 -19 9 -64 43 -100 76 -58 52 -69
58 -107 58 -24 0 -43 -2 -43 -5 0 -3 17 -23 38 -44 55 -57 85 -93 102 -122 57
-99 172 -224 216 -235 19 -5 22 -9 14 -19 -9 -10 -7 -16 7 -23 64 -33 303 -75
342 -60 l25 9 -25 13 c-13 7 -33 17 -44 23 -59 33 -97 44 -129 37 -22 -4 -54
0 -86 11 -28 9 -58 14 -66 11 -12 -5 -15 -2 -9 11 3 10 9 30 12 46 3 15 10 30
14 33 14 9 10 41 -7 55 -14 11 -18 10 -30 -5 -12 -17 -13 -17 -19 7 -4 15 -15
29 -25 32 -12 4 -16 12 -13 25 4 13 0 20 -10 20 -8 0 -17 7 -21 15 -4 12 0 14
20 9 l25 -6 -15 37 c-9 21 -16 53 -16 72 0 29 -9 43 -55 88 -30 29 -55 57 -55
63 0 6 -10 20 -22 32 l-22 20 20 57 c20 55 44 82 44 49 0 -9 7 -16 15 -16 9 0
29 -16 46 -35 17 -19 39 -37 50 -40 11 -4 19 -15 19 -29 0 -12 3 -25 6 -29 10
-10 64 22 64 37 0 7 20 21 45 30 52 20 59 37 50 117 -6 54 -13 66 -61 122 -30
34 -54 68 -54 75 0 40 54 82 105 82 32 0 34 -31 4 -52 -41 -27 0 -82 41 -56
26 17 45 68 24 68 -27 0 -16 37 14 43 15 3 41 11 57 18 17 7 35 11 42 10 6 -1
14 3 18 9 3 5 19 10 35 10 38 0 113 62 141 119 12 24 36 58 54 76 18 17 36 46
40 63 5 25 2 33 -16 43 -20 10 -20 12 -6 21 10 5 17 15 17 22 0 22 -60 135
-77 144 -13 8 -12 14 8 46 14 20 35 39 49 42 45 10 52 14 48 26 -7 19 -66 27
-100 14 -27 -10 -32 -9 -53 19 -26 32 -19 55 16 55 11 0 19 6 19 13 0 13 59
57 78 57 16 0 15 -11 -1 -35 -7 -11 -14 -30 -15 -43 -1 -22 1 -23 21 -9 57 37
65 40 91 33 23 -6 26 -10 20 -29 -13 -41 -9 -51 25 -63 19 -6 29 -14 23 -18
-8 -5 -8 -15 -2 -32 6 -14 8 -30 4 -35 -3 -5 -3 -23 1 -38 l6 -29 37 15 c56
23 72 41 72 84 0 26 -10 53 -35 89 -19 29 -35 55 -35 60 0 4 18 19 40 34 22
14 40 32 40 39 0 6 15 30 34 52 33 38 35 39 61 25 46 -25 87 9 189 156 90 128
90 128 96 203 4 42 14 92 22 111 l16 35 3 -105 c3 -108 3 -164 -2 -213 -3 -35
9 -47 26 -24 7 10 19 15 29 11 22 -8 21 19 -1 53 -19 29 -19 83 0 95 7 4 20 5
31 2 15 -5 18 -2 14 17 -3 13 -15 71 -28 129 -12 58 -24 115 -26 128 -3 12
-11 22 -20 22 -8 0 -13 -4 -9 -10 3 -5 0 -18 -7 -29 -12 -20 -14 -19 -50 16
l-38 37 -30 -22 c-24 -18 -30 -19 -30 -7 0 8 -7 15 -15 15 -8 0 -15 7 -15 16
0 9 -7 14 -17 12 -32 -5 -20 15 53 92 39 41 96 101 125 132 l54 58 103 3 c69
3 106 8 111 16 6 8 20 10 45 6 31 -6 36 -10 30 -28 -6 -18 -3 -19 32 -12 22 4
59 10 84 14 43 6 44 7 22 19 -26 15 -21 30 37 101 39 48 80 70 115 64 18 -4
22 -10 19 -31 -2 -15 1 -33 6 -41 8 -12 18 -7 55 27 25 23 50 42 55 42 5 0 11
15 13 32 2 24 8 33 23 35 11 2 15 0 8 -3 -7 -3 -17 -31 -24 -63 -9 -49 -15
-59 -38 -68 -16 -6 -54 -45 -91 -93 -38 -50 -74 -87 -92 -94 -18 -7 -26 -16
-23 -25 3 -8 -4 -24 -16 -37 -31 -33 -35 -124 -10 -258 11 -59 22 -111 25
-114 11 -10 47 31 66 76 11 25 28 46 40 49 15 4 20 14 20 38 0 30 4 34 38 42
39 10 40 14 27 72 -7 32 -6 33 18 27 18 -4 27 -1 31 10 8 21 8 20 -11 39 -13
14 -14 21 -4 36 13 22 7 39 -15 39 -19 0 -18 19 2 41 9 10 19 33 23 51 6 27
12 33 33 33 15 0 33 6 39 13 18 17 29 15 29 -5 0 -16 3 -15 18 3 33 42 86 49
107 15 9 -16 35 -13 35 4 0 16 134 119 192 147 43 21 79 23 96 6 8 -8 14 -5
23 14 9 21 8 36 -6 78 -10 29 -26 61 -36 71 -19 19 -19 19 0 19 10 0 29 9 42
20 27 22 14 27 -14 6 -10 -8 -27 -12 -37 -9 -15 4 -20 0 -20 -16 0 -12 6 -24
14 -27 15 -6 62 -121 53 -130 -3 -3 -29 -7 -59 -7 -47 -2 -62 -9 -132 -57 -43
-29 -92 -66 -108 -82 -28 -26 -30 -27 -55 -11 -21 14 -30 15 -57 4 -17 -7 -38
-13 -46 -15 -8 -1 -25 -7 -38 -14 -13 -7 -28 -11 -35 -9 -22 8 -45 -12 -52
-45 -4 -18 -16 -43 -27 -55 -22 -23 -18 -53 6 -53 11 0 13 -8 9 -35 -4 -23 -2
-35 6 -35 6 0 11 -7 11 -16 0 -8 -4 -13 -9 -10 -5 4 -17 3 -26 0 -14 -6 -16
-15 -11 -55 6 -44 5 -49 -13 -49 -38 0 -51 -11 -51 -45 0 -24 -5 -34 -20 -38
-12 -3 -29 -24 -40 -50 -16 -37 -50 -81 -50 -65 0 2 -9 53 -20 114 -25 132
-20 196 18 236 14 15 23 31 19 35 -4 3 6 14 22 24 16 9 53 51 82 92 32 45 67
82 86 91 20 10 34 25 38 41 3 14 8 37 11 52 3 15 12 32 19 37 9 7 11 16 6 24
-12 20 -61 -2 -61 -28 0 -26 -92 -114 -102 -97 -4 6 -4 23 -1 38 5 27 4 27
-39 25 -25 -2 -55 -9 -67 -15 -28 -16 -111 -128 -111 -151 0 -11 -10 -20 -27
-23 -16 -3 -36 -9 -46 -12 -13 -5 -16 -3 -11 8 5 15 -9 30 -35 34 -8 1 -25 4
-38 8 -15 3 -25 1 -29 -9 -4 -10 -24 -14 -75 -14 -134 0 -139 -3 -235 -110
-47 -54 -109 -118 -137 -143 -52 -47 -56 -69 -11 -69 18 0 24 -6 25 -22 0 -13
3 -17 6 -10 8 20 26 14 20 -8 -7 -25 4 -25 36 0 32 25 36 25 67 -5 25 -24 26
-28 18 -82 -5 -32 -13 -93 -17 -135 -9 -77 -10 -80 -98 -205 -99 -142 -141
-177 -172 -149 -10 9 -25 14 -33 11 -18 -7 -71 -71 -81 -97 -3 -10 -22 -28
-41 -40 -43 -27 -45 -48 -10 -93 55 -73 49 -141 -15 -163 l-31 -11 -2 42 c-1
23 -1 54 0 70 2 23 -3 28 -28 33 -32 7 -37 22 -19 55 9 17 5 22 -26 35 -34 14
-39 13 -71 -6 -35 -22 -43 -15 -22 19 13 22 4 51 -16 51 -8 0 -34 -18 -57 -39
-22 -22 -48 -41 -57 -43 -34 -7 -36 -34 -7 -72 22 -29 33 -36 49 -31 12 4 39
9 61 11 l40 3 -37 -15 c-25 -11 -43 -29 -60 -61 -21 -41 -22 -45 -6 -54 19
-11 68 -106 68 -132 0 -9 -9 -19 -20 -22 -27 -9 -25 -23 5 -31 38 -9 32 -46
-14 -93 -21 -21 -41 -50 -45 -64 -3 -13 -27 -45 -53 -70 -45 -44 -72 -55 -146
-62 -11 -1 -22 -7 -26 -13 -3 -6 -27 -16 -53 -22 -28 -7 -49 -19 -51 -29 -4
-13 -5 -13 -6 3 -1 16 -7 18 -51 14 -55 -6 -82 -24 -100 -68 -12 -28 -9 -33
49 -100 l61 -71 0 -68 c0 -74 3 -71 -72 -95 -10 -3 -18 -12 -18 -20 0 -9 -9
-20 -20 -26 -17 -9 -20 -8 -20 9 0 11 -11 26 -24 33 -14 7 -47 34 -74 61 -67
63 -82 62 -105 -11 -9 -31 -17 -62 -17 -69 0 -13 43 -82 61 -98 68 -59 89 -88
89 -121 0 -19 5 -44 10 -55 14 -26 2 -24 -42 6 -31 21 -41 37 -58 94 -13 41
-32 80 -49 96 -26 27 -27 29 -18 102 7 59 5 84 -8 126 -38 119 -44 125 -84 83
-31 -33 -64 -24 -56 14 8 38 -21 109 -60 145 -19 17 -37 43 -40 58 -8 30 -21
34 -45 12 -22 -20 -80 -31 -80 -16 0 19 -58 -16 -65 -39 -3 -11 -40 -46 -81
-77 -41 -32 -74 -61 -74 -65 0 -4 -18 -20 -40 -34 -38 -25 -41 -30 -40 -73 1
-96 -23 -168 -66 -196 -36 -24 -44 -14 -99 129 -60 155 -85 248 -85 313 0 57
-13 69 -32 28 -14 -30 -48 -33 -72 -6 -17 19 -17 20 3 31 28 15 27 30 -3 30
-36 0 -83 30 -98 63 l-14 29 -149 2 c-159 3 -195 11 -195 47 0 14 -5 19 -14
16 -8 -3 -30 -9 -50 -12 -51 -10 -128 34 -152 87 -10 22 -30 46 -47 54 -27 15
-30 14 -53 -11 l-24 -27 52 -84 c29 -46 58 -82 64 -80 6 3 9 -5 7 -17 -10 -55
84 -53 141 2 39 38 46 38 46 6 0 -20 9 -29 38 -42 47 -22 72 -42 72 -60 0 -7
-16 -30 -35 -52 -23 -25 -33 -45 -29 -55 4 -9 1 -16 -6 -16 -7 0 -33 -17 -59
-39 -25 -21 -64 -44 -86 -51 -22 -7 -45 -18 -51 -26 -6 -8 -31 -21 -55 -29
-24 -9 -59 -25 -79 -37 -31 -19 -60 -28 -141 -44 -24 -6 -26 -3 -38 63 -16 86
-33 122 -87 182 -35 39 -44 57 -44 85 0 27 -9 46 -34 73 -56 63 -126 181 -126
212 0 17 -4 41 -9 54 -8 20 -4 40 19 94 15 37 31 94 35 126 l7 57 -38 0 c-28
0 -43 -6 -51 -19 -14 -22 -30 -22 -66 2 -33 21 -47 21 -62 1 -15 -22 -48 -11
-86 28 -30 32 -32 38 -30 75 1 12 -5 26 -15 31 -28 15 -6 32 42 32 30 0 46 5
50 15 4 9 19 15 41 15 21 0 47 9 67 25 42 32 77 32 124 0 68 -46 218 -26 210
28 -2 13 -35 47 -84 87 l-81 64 24 20 c15 11 23 26 20 36 -3 12 4 22 19 29 13
6 24 15 24 21 0 20 -49 9 -119 -26 l-72 -36 21 -23 c22 -23 22 -23 2 -34 -28
-15 -42 -14 -42 4 0 8 -5 15 -11 15 -8 0 -7 5 2 16 10 13 10 17 -2 25 -8 5
-20 9 -26 9 -7 0 -13 7 -13 15 0 24 -44 18 -68 -10 -12 -14 -26 -25 -32 -25
-5 0 -10 -13 -10 -29 0 -17 -4 -33 -10 -36 -5 -3 -10 -13 -10 -21 0 -8 -10
-28 -21 -44 l-22 -29 21 -35 21 -36 -22 0 c-13 0 -29 -6 -35 -12 -10 -10 -17
-10 -32 0 -26 16 -75 15 -92 -1 -7 -8 -19 -12 -26 -9 -27 9 -1 -69 32 -97 23
-19 20 -34 -3 -21 -11 5 -33 10 -49 10 -25 0 -35 8 -61 48 -18 28 -31 62 -31
80 0 27 -10 39 -79 91 -49 37 -81 69 -83 82 -2 12 -12 27 -23 33 -11 6 -23 15
-26 19 -4 5 -17 7 -30 5 -37 -5 -38 -59 -2 -103 15 -19 38 -48 51 -65 13 -16
28 -30 33 -30 5 0 17 -8 27 -17 9 -10 29 -26 42 -36 22 -15 23 -17 5 -15 -16
2 -20 -2 -18 -22 3 -45 -8 -58 -21 -24 -11 29 -84 104 -102 104 -16 0 -81 68
-93 98 -19 46 -61 50 -118 11 -43 -30 -47 -31 -84 -19 -35 12 -41 11 -59 -5
-11 -10 -20 -30 -20 -45 0 -19 -7 -30 -25 -38 -35 -16 -87 -91 -79 -115 4 -14
-5 -30 -32 -58 -32 -32 -45 -39 -78 -39 -23 0 -47 -7 -59 -17 -18 -17 -20 -17
-43 11 -20 23 -30 27 -55 22 -27 -5 -29 -4 -29 27 0 18 -4 37 -9 43 -6 5 -6
28 0 57 5 30 5 65 0 89 -8 36 -7 43 11 58 19 15 28 15 82 4 38 -8 67 -9 77 -3
11 5 27 5 42 0 35 -14 55 12 63 81 9 74 -18 121 -85 150 -43 18 -45 20 -27 34
24 17 43 18 48 3 7 -21 48 1 48 25 0 19 4 22 30 18 18 -2 30 0 30 7 0 6 14 17
30 26 17 9 30 24 30 34 0 12 11 23 30 29 19 7 36 24 47 46 17 37 27 44 38 26
12 -19 33 8 27 35 -4 22 -1 25 22 25 14 0 26 5 26 11 0 6 9 8 20 4 34 -11 49
11 44 63 -2 25 -9 51 -14 56 -6 6 -10 27 -10 48 0 32 5 41 33 58 l32 20 5 -37
c4 -30 0 -44 -17 -66 -30 -37 -29 -45 12 -91 l34 -38 36 22 c19 12 35 17 35
12 0 -5 10 -13 23 -19 17 -8 37 -5 87 14 58 22 65 23 76 9 18 -25 40 -19 73
21 24 29 31 47 31 81 0 24 7 57 16 74 l16 30 23 -22 c36 -34 59 -23 63 28 2
31 0 42 -11 42 -20 0 -32 51 -15 61 7 5 42 9 78 9 44 0 73 5 88 16 13 9 29 13
37 10 8 -3 17 -1 20 4 9 15 -7 40 -25 40 -11 0 -22 5 -25 10 -10 16 -53 12
-126 -12 l-67 -21 -31 23 c-27 19 -31 27 -26 50 3 16 1 47 -6 69 -12 40 -11
43 26 96 20 30 55 75 76 99 45 51 50 87 17 110 -60 42 -132 0 -133 -78 0 -40
-6 -50 -73 -120 l-72 -76 0 -62 c0 -50 5 -67 26 -95 24 -32 25 -36 10 -52 -9
-10 -13 -20 -10 -24 3 -3 -4 -12 -15 -19 -12 -7 -26 -29 -31 -48 -5 -19 -14
-54 -20 -77 -8 -31 -16 -42 -33 -45 -12 -2 -26 -13 -32 -25 -14 -33 -35 -29
-35 6 0 17 -4 32 -9 36 -5 3 -19 39 -32 80 -12 41 -30 82 -40 91 -11 10 -19
12 -19 7 0 -6 -15 -20 -32 -32 -18 -11 -40 -26 -49 -32 -24 -18 -83 7 -74 30
4 9 9 22 12 29 4 9 -1 12 -13 10 -15 -2 -20 4 -22 27 -1 17 -5 53 -8 82 -6 49
-4 54 32 97 21 26 44 46 51 46 7 0 22 13 34 29 12 16 27 27 34 25 6 -3 20 14
31 37 10 23 31 60 46 81 16 21 37 61 48 88 30 76 66 144 94 178 33 38 33 46 1
39 -14 -2 -23 -2 -20 1 2 3 0 11 -7 19 -17 21 20 46 40 27 17 -18 24 -18 48 2
13 11 15 17 7 20 -20 8 -16 17 25 61 25 28 49 42 75 47 20 4 52 20 70 36 23
19 40 27 54 24 14 -4 26 1 36 16 l15 21 6 -26 c5 -21 10 -24 21 -15 10 9 16 7
23 -6 9 -15 12 -13 26 14 9 18 19 32 21 32 4 0 62 -35 94 -57 2 -1 -1 -9 -7
-16 -7 -8 -25 -12 -44 -10 l-33 4 25 -20 c31 -26 80 -41 101 -30 19 10 36 0
40 -25 3 -14 18 -23 49 -31 66 -17 98 -36 167 -101 54 -51 63 -64 65 -99 3
-37 0 -41 -40 -63 l-42 -24 -88 27 c-48 15 -94 33 -102 40 -55 45 -52 21 4
-42 41 -45 45 -55 48 -108 3 -56 5 -61 46 -92 23 -18 49 -30 57 -27 23 9 18
43 -10 67 -16 14 -22 27 -17 35 7 10 23 7 75 -13 37 -14 67 -22 67 -20 0 3 -7
22 -16 43 l-15 37 41 36 c38 33 45 35 71 25 53 -20 91 33 53 75 -13 14 -15 28
-10 59 4 24 2 49 -5 62 -10 19 -9 20 17 14 43 -11 76 -66 40 -66 -26 0 -29
-37 -5 -70 36 -47 99 -35 99 20 0 25 10 34 83 79 108 65 117 68 117 44 0 -11
9 -28 19 -37 18 -17 20 -16 26 3 5 16 15 21 44 21 20 0 46 7 57 15 26 20 32
19 36 -7 4 -27 28 -36 28 -10 0 10 11 24 25 30 14 6 25 16 25 22 0 24 -40 88
-65 104 -19 13 -24 21 -17 28 7 7 24 0 53 -26 23 -20 51 -36 61 -36 11 0 34
-11 51 -24 18 -13 50 -31 72 -40 22 -9 54 -33 72 -53 l32 -37 12 28 c10 21 10
31 1 44 -34 47 -54 104 -48 133 3 18 0 42 -8 57 -16 32 -11 50 19 77 15 13 34
56 54 121 20 66 37 104 48 108 22 9 34 -13 21 -37 -11 -21 -11 -20 20 -36 25
-13 29 -50 10 -113 -9 -29 -9 -41 0 -50 8 -8 12 -52 12 -126 0 -88 4 -120 16
-142 26 -44 11 -96 -42 -147 -24 -24 -44 -46 -44 -50 0 -4 10 -17 21 -29 l22
-23 34 26 c19 15 45 48 59 75 20 40 23 57 18 98 -5 41 -4 51 10 56 24 9 19 24
-9 24 -20 0 -25 6 -31 35 -3 20 -1 56 5 80 9 37 8 52 -4 81 -21 51 -19 67 15
102 32 34 38 68 19 105 -11 21 -11 21 7 5 19 -19 22 -62 9 -134 l-7 -42 57
-21 c32 -12 59 -20 62 -18 9 10 -12 38 -43 56 -34 20 -44 44 -24 56 6 4 18 1
26 -6 25 -21 42 6 19 31 -19 21 -13 42 7 22 7 -7 21 -12 33 -12 12 0 36 -16
55 -35 36 -37 46 -40 69 -26 12 8 12 14 1 40 -7 18 -21 36 -31 41 -15 9 -48
116 -37 124 1 2 52 13 111 26 60 13 111 29 114 36 2 7 -1 22 -7 34 -16 29 -7
58 34 111 26 35 48 51 96 70 37 14 71 35 83 52 14 18 30 27 48 27 14 0 43 7
63 15 l37 15 -7 -25 c-7 -30 -7 -30 50 -5 32 13 46 25 46 39 0 15 8 20 33 23
29 3 32 6 35 42 3 30 15 53 49 93 25 29 49 53 53 53 4 0 18 -9 31 -19 l24 -20
-35 -29 -35 -30 63 -7 c34 -4 62 -10 62 -12 0 -3 -9 -17 -20 -33 -11 -15 -17
-30 -13 -34 13 -13 51 -5 64 13 12 17 21 18 68 12 75 -11 116 -55 126 -136 7
-56 7 -57 -31 -98 -113 -122 -152 -160 -176 -173 -15 -8 -35 -28 -43 -44 l-16
-30 35 0 c54 0 108 27 106 53 -4 48 -2 50 36 28 19 -12 44 -21 55 -21 10 0 27
-5 37 -11 14 -9 25 -8 48 4 23 12 38 13 76 4 40 -10 46 -14 45 -35 -2 -22 5
-27 60 -43 41 -11 73 -15 90 -10 28 8 29 12 22 61 -3 22 0 25 26 28 35 3 139
-39 173 -71 25 -23 29 -71 11 -122 -10 -27 -8 -38 14 -81 35 -68 53 -83 72
-58 8 10 20 36 26 57 7 20 14 37 17 37 2 0 15 -9 29 -20 22 -17 27 -18 46 -6
16 10 49 13 110 11 l89 -3 -8 27 c-4 14 -8 40 -8 56 -1 25 3 30 26 33 20 2 25
7 21 19 -5 11 -1 14 13 10 10 -3 42 -9 69 -13 28 -3 64 -15 81 -25 17 -11 47
-19 67 -19 50 0 67 -9 67 -34 0 -32 28 -66 54 -66 27 0 46 -18 46 -43 0 -15 5
-18 23 -14 62 16 110 18 155 7 65 -15 86 -38 78 -83 -9 -50 9 -60 98 -58 40 1
95 -3 121 -10 47 -12 49 -11 70 14 20 26 55 37 55 17 0 -5 -9 -10 -20 -10 -28
0 -28 -50 -1 -57 11 -3 22 -11 25 -19 7 -17 27 -18 49 -1 14 10 15 17 6 49
-20 63 -14 66 94 52 81 -10 105 -18 157 -49 34 -20 64 -35 66 -32 3 3 -25 23
-63 45 -57 34 -82 42 -159 51 -50 6 -96 11 -104 11 -10 0 -11 -14 -7 -59 5
-47 3 -60 -8 -65 -8 -3 -15 -1 -15 5 0 5 -11 14 -25 19 -27 10 -34 30 -10 30
8 0 19 9 25 20 9 17 7 22 -17 31 -25 9 -30 7 -51 -19 -22 -28 -25 -29 -65 -20
-23 6 -75 10 -115 9 -83 -2 -105 8 -93 42 9 24 0 57 -20 74 -30 24 -122 43
-164 33 -59 -14 -69 -12 -80 13 -6 12 -21 24 -35 25 -35 5 -47 18 -54 56 -7
38 -21 46 -73 46 -20 0 -50 9 -67 19 -30 19 -125 41 -174 41 -17 0 -23 -4 -18
-15 4 -11 -1 -15 -18 -15 -31 0 -40 -24 -25 -67 6 -19 9 -36 7 -38 -6 -7 -112
-7 -134 0 -13 4 -25 1 -33 -9 -20 -24 -38 -19 -63 14 l-22 30 -22 -61 c-12
-33 -24 -63 -27 -66 -11 -10 -28 9 -52 58 -20 38 -23 54 -15 69 15 29 12 103
-6 129 -24 33 -136 81 -191 81 l-46 0 6 -41 c7 -51 -4 -56 -83 -39 -55 12 -60
15 -60 39 0 24 -5 28 -55 39 -47 11 -58 11 -85 -3 l-31 -16 -15 36 c-8 19 -12
46 -8 59 8 34 -30 46 -58 18 l-21 -20 32 -16 c19 -10 31 -24 31 -36 0 -25 -5
-25 -61 4 l-46 23 75 82 75 82 -6 61 c-8 94 -55 144 -145 155 -47 5 -55 3 -74
-17 -27 -28 -36 -11 -13 23 19 30 15 33 -49 42 l-48 8 28 23 29 24 -35 30
c-19 17 -37 30 -41 30 -4 0 -32 -30 -63 -66z m378 -449 c-7 -17 -7 -17 -28 -9
-24 9 -19 24 9 24 18 0 23 -4 19 -15z m-118 -70 c0 -32 -4 -36 -42 -51 -56
-21 -76 -15 -44 15 18 16 79 66 86 71 0 0 0 -16 0 -35z m-1156 -290 c44 -23
31 -29 -19 -9 -43 17 -45 21 -34 50 6 15 7 15 14 -4 4 -11 22 -28 39 -37z
m-1879 -545 c33 -18 23 -56 -35 -128 -29 -37 -63 -82 -74 -101 -19 -31 -19
-36 -6 -74 11 -30 12 -49 5 -69 -9 -26 -7 -31 30 -57 l40 -29 71 24 c84 28
101 29 118 9 7 -9 19 -14 27 -11 7 3 13 1 13 -4 0 -6 -8 -10 -17 -10 -10 0
-27 -7 -38 -15 -13 -11 -33 -14 -65 -10 -25 3 -61 -1 -80 -8 -29 -10 -35 -17
-32 -37 2 -22 1 -23 -8 -7 -16 25 -27 21 -34 -15 -7 -38 -4 -43 22 -29 30 16
52 3 52 -29 0 -37 -13 -44 -35 -20 -39 43 -64 17 -75 -77 -8 -59 -13 -72 -41
-97 l-33 -29 -10 22 c-5 12 -14 20 -20 18 -6 -2 -40 -15 -75 -28 l-64 -23 -15
22 -14 22 -38 -21 -38 -22 -30 34 c-29 32 -28 49 3 49 6 0 4 -4 -4 -9 -8 -5 3
-9 33 -9 37 -1 46 2 46 15 0 13 3 14 12 5 19 -19 38 -14 48 13 6 15 17 25 29
25 27 0 36 16 56 97 12 53 23 76 41 88 13 8 23 19 22 23 -1 4 1 17 6 29 5 17
1 31 -18 56 -20 26 -26 46 -26 85 0 51 1 53 80 136 78 83 90 101 71 108 -14 5
-1 54 20 77 22 23 50 27 80 11z m-437 -744 c-3 -9 -10 -16 -15 -16 -14 0 -11
28 4 33 16 6 19 3 11 -17z m4657 -154 c0 -15 10 -66 22 -114 l23 -86 -28 -6
c-20 -4 -28 -12 -29 -28 -1 -13 -5 2 -9 32 -10 69 -12 225 -4 233 12 12 24 -4
25 -31z m-5 -358 c-28 -14 -30 -11 -21 32 l6 37 18 -29 c17 -28 17 -29 -3 -40z
m-3728 19 c-20 -5 -23 -14 -8 -29 7 -7 5 -16 -7 -26 -24 -22 -67 -26 -87 -8
-16 13 -13 16 36 41 29 16 60 28 68 27 10 0 10 -2 -2 -5z m-209 -39 c26 -13
30 -19 20 -30 -9 -11 -8 -15 5 -20 9 -3 16 -15 16 -25 0 -22 16 -24 50 -4 41
23 74 18 126 -22 60 -44 114 -94 114 -105 0 -16 -61 -38 -107 -38 -35 0 -58 7
-85 25 -23 16 -51 25 -74 25 -24 0 -49 -9 -70 -25 -42 -32 -87 -33 -119 0 -28
27 -33 63 -10 71 8 4 15 18 15 34 0 15 7 33 15 40 8 7 15 19 15 28 0 16 38 62
50 62 4 0 21 -7 39 -16z m-654 -64 c17 15 35 5 35 -19 0 -11 31 -42 75 -76 61
-46 75 -62 75 -85 0 -15 18 -55 40 -89 22 -33 40 -63 40 -66 0 -3 6 -18 15
-34 18 -37 59 -40 51 -5 -5 18 0 24 24 33 17 5 30 13 30 17 0 3 -13 22 -30 41
-34 38 -38 53 -14 53 10 0 14 6 11 14 -4 10 4 15 26 19 40 6 57 -7 57 -43 0
-16 6 -31 13 -34 10 -5 10 -7 0 -12 -18 -8 -16 -34 1 -34 8 0 18 -10 22 -22 4
-13 14 -28 23 -34 13 -10 13 -14 2 -28 -11 -13 -11 -16 1 -16 8 0 19 5 25 11
8 8 17 8 31 0 16 -8 25 -7 44 8 23 19 24 19 48 0 30 -22 68 -25 76 -4 4 9 19
15 35 15 27 0 29 -3 29 -37 0 -21 -12 -68 -27 -106 -31 -79 -54 -95 -106 -73
-27 11 -39 11 -70 0 -32 -11 -49 -11 -106 1 -73 15 -118 32 -139 52 -16 16
-42 16 -79 2 -32 -12 -43 -26 -43 -57 0 -12 -7 -25 -15 -28 -21 -9 -104 26
-136 57 -18 17 -43 29 -75 34 -40 6 -96 26 -112 40 -2 2 4 15 14 30 14 22 16
32 7 56 -6 16 -7 29 -2 29 5 0 9 5 9 10 0 6 -7 10 -15 10 -8 0 -15 5 -15 11 0
7 -7 8 -17 4 -10 -4 -74 -9 -143 -11 -121 -4 -128 -6 -208 -44 -46 -22 -89
-37 -95 -33 -7 4 -23 6 -37 5 -14 -1 -31 2 -39 7 -25 16 6 41 51 41 32 0 47 8
88 46 38 36 48 50 41 63 -14 24 23 83 70 111 29 19 39 31 39 51 0 41 20 52 63
34 34 -14 36 -13 77 16 53 39 89 36 111 -7 15 -31 79 -94 95 -94 15 -1 85 -70
93 -93 14 -39 3 -47 -61 -47 -51 0 -59 -2 -56 -17 3 -19 34 -37 81 -48 21 -6
27 -4 27 9 0 9 16 34 36 55 30 34 34 43 24 60 -12 24 -1 28 31 11 37 -21 21
19 -21 48 -21 15 -39 33 -40 40 0 6 -8 12 -18 12 -20 0 -62 35 -62 52 0 6 -13
26 -30 45 -34 38 -39 70 -12 75 12 2 18 -4 20 -20 3 -19 6 -21 17 -12z m520
-200 c4 -6 -5 -10 -20 -10 -15 0 -24 4 -20 10 3 6 12 10 20 10 8 0 17 -4 20
-10z m-470 -138 c-3 -8 -5 -18 -5 -22 0 -11 -60 8 -78 25 -10 9 -2 11 38 11
37 -1 49 -4 45 -14z m263 -18 c0 -13 -4 -24 -8 -24 -9 0 -30 47 -23 53 11 12
31 -6 31 -29z m-431 -55 c8 -30 7 -43 -3 -56 -32 -43 0 -70 110 -93 33 -7 60
-18 63 -27 8 -21 131 -75 154 -68 12 4 19 16 19 33 0 35 10 49 42 61 26 10 68
5 68 -9 0 -10 74 -36 144 -50 46 -9 68 -9 104 1 35 10 47 10 50 1 2 -7 23 -12
48 -12 39 0 46 -3 55 -27 10 -27 0 -78 -17 -78 -5 0 -17 16 -26 35 -17 34 -36
40 -29 10 1 -8 27 -63 57 -121 30 -58 54 -111 54 -117 0 -6 11 -21 23 -34 16
-15 27 -43 34 -83 7 -39 24 -80 46 -115 38 -58 43 -63 119 -138 31 -29 46 -52
43 -62 -3 -9 5 -26 19 -39 l24 -22 92 15 c51 9 100 21 110 26 34 18 40 12 26
-32 -43 -137 -106 -228 -209 -301 -77 -55 -165 -154 -201 -225 -24 -48 -26
-56 -13 -70 8 -10 17 -37 20 -62 2 -25 12 -63 20 -85 9 -22 16 -69 16 -105 0
-57 -3 -69 -27 -95 -16 -17 -41 -37 -58 -43 -16 -7 -51 -33 -77 -58 l-48 -46
15 -46 c31 -101 30 -106 -43 -147 -28 -16 -36 -27 -37 -50 -1 -79 -5 -94 -21
-99 -10 -4 -42 -42 -71 -85 -69 -101 -105 -122 -227 -133 -49 -4 -103 -10
-120 -13 -44 -9 -78 25 -69 69 6 34 -26 110 -81 195 -25 38 -55 140 -55 185 0
15 -20 67 -45 116 -25 50 -45 104 -45 121 0 39 30 139 42 139 5 0 16 16 24 35
13 31 13 39 -1 66 -9 16 -14 38 -11 47 7 22 -43 128 -81 173 -16 19 -41 52
-56 73 l-26 39 19 38 c11 20 15 39 10 41 -6 2 -6 15 -1 33 5 21 3 40 -8 63
-16 33 -16 33 -72 27 -56 -6 -57 -6 -77 30 -21 34 -23 35 -80 35 -42 0 -77 -8
-117 -25 -49 -22 -62 -24 -91 -15 -24 8 -47 8 -86 0 -29 -6 -64 -14 -78 -16
-32 -7 -173 84 -194 124 -8 15 -30 43 -50 61 -20 19 -36 41 -36 48 0 7 -9 17
-20 23 -12 7 -20 21 -20 38 0 15 -5 34 -10 42 -6 10 -4 20 8 33 13 15 17 37
16 103 0 51 -5 89 -12 96 -20 20 -14 62 14 99 14 19 35 53 46 77 10 23 23 42
27 42 5 0 14 13 21 29 8 21 21 31 45 35 21 4 45 20 65 43 27 30 31 42 26 71
-7 44 22 95 65 117 16 9 38 33 49 55 18 36 23 39 41 30 47 -26 107 -20 186 18
79 37 128 46 289 48 l71 1 10 -38z m878 -351 c1 -2 23 -34 47 -73 25 -38 55
-79 67 -89 15 -14 21 -31 21 -61 0 -33 6 -47 31 -71 57 -53 88 -110 104 -185
9 -39 14 -73 13 -75 -2 -1 -29 23 -61 54 -83 82 -124 151 -138 228 -8 45 -17
69 -30 77 -11 7 -19 17 -19 23 0 7 -20 50 -45 97 l-44 84 25 -3 c14 -1 27 -4
29 -6z m2695 -308 c0 -5 -10 -20 -22 -32 -20 -20 -21 -21 -35 -2 -12 16 -11
20 4 31 20 15 53 17 53 3z m-1038 -460 c-6 -17 -22 -30 -38 -30 -14 0 -26 66
-18 98 6 21 8 21 34 -15 16 -21 25 -44 22 -53z m632 -128 c33 -32 76 -64 94
-71 17 -7 32 -20 32 -27 0 -8 5 -14 10 -14 6 0 10 -9 10 -19 0 -11 9 -22 19
-26 10 -3 22 -17 25 -30 3 -13 15 -27 27 -30 18 -6 20 -12 14 -43 -8 -45 -12
-52 -30 -52 -29 0 -205 199 -205 232 0 12 -9 23 -92 107 l-43 44 39 -6 c29 -5
53 -20 100 -65z m250 -197 c3 -8 1 -15 -4 -15 -6 0 -10 7 -10 15 0 8 2 15 4
15 2 0 6 -7 10 -15z m46 -150 c24 -8 67 -14 96 -13 37 2 58 -3 71 -14 10 -9
30 -20 46 -23 27 -7 38 -25 15 -25 -30 0 -197 32 -245 46 -36 12 -50 20 -46
30 6 18 11 17 63 -1z"/>
<path d="M7046 4907 c-11 -8 -15 -19 -10 -30 9 -24 26 -16 35 16 8 30 2 33
-25 14z"/>
<path d="M6780 4720 c0 -5 9 -10 19 -10 11 0 23 5 26 10 4 6 -5 10 -19 10 -14
0 -26 -4 -26 -10z"/>
<path d="M6700 4065 c-7 -8 -10 -27 -7 -41 3 -16 0 -27 -9 -31 -10 -4 -12 -16
-8 -47 8 -52 27 -74 48 -57 21 18 31 88 15 107 -7 9 -12 31 -10 50 3 36 -9 44
-29 19z m7 -37 c-3 -8 -6 -5 -6 6 -1 11 2 17 5 13 3 -3 4 -12 1 -19z m23 -82
c0 -45 -22 -70 -34 -40 -10 27 -6 72 7 77 24 10 27 6 27 -37z"/>
<path d="M6470 3919 c0 -6 7 -8 16 -5 9 4 13 2 8 -5 -4 -7 -1 -10 6 -7 26 8
22 28 -4 28 -14 0 -26 -5 -26 -11z"/>
<path d="M7226 3731 c-9 -13 33 -31 74 -31 28 0 48 15 36 27 -12 12 -103 15
-110 4z m74 -11 c0 -5 -6 -10 -14 -10 -8 0 -18 5 -21 10 -3 6 3 10 14 10 12 0
21 -4 21 -10z"/>
<path d="M7571 3728 c-38 -8 -42 -12 -29 -24 20 -21 78 -8 78 17 0 11 -1 19
-2 18 -2 -1 -23 -6 -47 -11z m26 -14 c-3 -3 -12 -4 -19 -1 -8 3 -5 6 6 6 11 1
17 -2 13 -5z"/>
<path d="M2228 6891 c-9 -14 -23 -21 -46 -21 -43 0 -115 -53 -137 -101 -9 -20
-28 -42 -41 -50 -28 -15 -29 -20 -9 -59 14 -27 20 -30 65 -30 47 0 50 2 80 45
29 43 32 44 53 30 21 -13 24 -12 51 22 26 32 28 40 19 64 -9 24 -8 33 8 52 18
24 18 25 -6 47 l-24 22 -13 -21z m27 -51 c-15 -17 -16 -24 -7 -45 10 -22 9
-30 -10 -55 -25 -35 -26 -35 -49 -14 -16 15 -20 13 -52 -33 -33 -45 -38 -48
-78 -47 -34 1 -44 6 -55 26 -12 23 -11 26 10 38 13 7 31 29 41 49 23 51 95
104 130 95 20 -5 30 -2 42 16 14 20 17 20 31 6 14 -14 14 -17 -3 -36z"/>
<path d="M2970 6784 c1 -56 38 -99 78 -91 33 7 53 -9 71 -56 7 -19 7 -35 0
-54 -6 -16 -8 -47 -4 -71 8 -54 34 -66 168 -76 86 -6 101 -5 118 10 16 14 24
15 44 6 20 -9 33 -9 59 2 41 17 46 24 52 83 6 47 5 48 -32 68 -37 20 -72 22
-224 13 -49 -3 -101 25 -92 50 2 6 -8 26 -22 43 -14 17 -26 35 -26 40 0 5 -16
9 -36 9 -24 0 -46 8 -66 25 -16 14 -36 25 -43 25 -7 0 -20 3 -29 6 -13 5 -16
-1 -16 -32z m83 -14 c22 -19 46 -30 65 -30 33 0 72 -41 72 -77 1 -23 35 -48
84 -62 30 -8 46 -7 74 5 49 20 140 10 178 -21 27 -22 28 -24 15 -64 -15 -52
-47 -71 -94 -53 -25 10 -34 9 -47 -3 -21 -19 -179 -19 -230 -1 l-35 13 0 91
c-1 82 -3 94 -25 117 -16 17 -34 25 -58 25 -38 0 -71 31 -72 68 0 32 32 29 73
-8z"/>
<path d="M8765 6788 c-11 -6 -34 -27 -51 -46 -27 -32 -36 -36 -94 -40 -63 -5
-64 -5 -132 -73 -38 -38 -80 -76 -93 -85 -18 -12 -25 -25 -25 -48 0 -17 -14
-58 -31 -91 -16 -33 -28 -67 -26 -77 3 -9 -6 -27 -19 -39 -26 -24 -49 -82 -41
-103 3 -8 -3 -22 -14 -32 -51 -46 18 -141 124 -168 82 -21 97 -12 55 31 -32
33 -33 37 -33 116 l0 82 84 143 c96 164 124 192 278 279 l102 58 1 42 c0 57
-36 79 -85 51z m56 -8 c13 -7 19 -21 19 -43 0 -30 -6 -35 -90 -81 -158 -86
-193 -122 -292 -291 l-88 -150 0 -83 c0 -79 2 -85 29 -113 23 -22 26 -29 13
-29 -103 0 -214 113 -157 160 9 7 15 29 15 51 0 29 8 47 31 74 18 20 29 41 25
50 -3 9 8 42 24 74 17 32 30 72 30 89 0 21 8 35 25 46 14 10 56 48 93 85 67
68 67 68 131 73 59 4 67 8 95 40 26 29 61 56 74 58 2 0 12 -5 23 -10z"/>
<path d="M2480 6740 c-29 -37 -31 -43 -18 -58 9 -9 18 -34 21 -54 5 -33 3 -38
-14 -38 -12 0 -31 19 -54 54 -28 44 -43 57 -81 70 -26 9 -51 16 -55 16 -6 0
-45 -86 -75 -165 -4 -9 9 -21 35 -34 48 -25 67 -26 79 -5 8 14 10 14 22 -1 11
-13 10 -18 -4 -34 -21 -24 -11 -48 23 -56 34 -7 70 6 96 35 30 34 49 40 84 30
37 -10 78 4 85 29 3 9 8 37 11 62 l7 46 -51 37 c-38 28 -52 45 -57 72 -3 19
-10 34 -14 34 -5 0 -23 -18 -40 -40z m43 -13 c4 -12 28 -39 55 -59 l49 -36 -8
-53 c-5 -29 -14 -56 -21 -61 -7 -5 -33 -6 -58 -3 -41 6 -49 3 -87 -29 -41 -36
-82 -46 -112 -27 -11 7 -10 12 8 22 26 17 26 20 0 53 l-21 26 -17 -21 c-16
-20 -17 -20 -54 -3 -43 21 -43 25 -2 117 15 34 31 57 40 57 40 0 83 -30 113
-78 26 -42 36 -50 67 -54 33 -4 36 -2 29 16 -3 12 -7 33 -9 48 -1 15 -7 34
-14 42 -10 12 -9 20 4 40 21 32 31 33 38 3z"/>
<path d="M2779 6748 c-6 -12 -15 -33 -18 -46 -7 -24 -7 -23 -34 16 -21 29 -33
38 -48 35 -23 -6 -24 -17 -4 -74 32 -92 62 -129 80 -99 12 20 32 9 48 -25 15
-32 20 -35 61 -35 43 0 44 0 54 43 5 23 8 68 5 100 -5 51 -10 61 -38 82 -41
32 -90 33 -106 3z m76 -2 c44 -19 55 -42 55 -113 0 -89 -6 -103 -46 -103 -29
0 -36 5 -54 40 -23 45 -27 46 -57 25 -20 -14 -22 -13 -37 20 -16 32 -46 113
-46 121 0 2 6 4 13 4 8 0 29 -21 48 -47 l34 -48 5 35 c7 42 27 80 41 80 5 0
25 -6 44 -14z"/>
<path d="M11307 6662 c-37 -39 -44 -95 -18 -154 23 -55 35 -58 107 -27 36 16
52 19 64 11 14 -9 25 -2 60 33 51 52 52 82 1 107 -19 10 -44 26 -55 37 -20 20
-20 20 -38 -11 l-19 -31 -33 32 c-17 17 -34 31 -37 31 -3 0 -17 -12 -32 -28z
m71 -24 c28 -28 35 -30 42 -18 28 46 28 46 52 23 13 -11 32 -23 42 -25 10 -1
24 -11 30 -20 9 -14 4 -25 -28 -57 -28 -29 -43 -38 -54 -32 -10 6 -32 2 -60
-10 -65 -28 -86 -25 -100 14 -19 53 -15 107 10 134 12 13 24 23 27 23 3 0 20
-15 39 -32z"/>
<path d="M2163 6639 c-22 -34 -24 -42 -12 -50 24 -15 36 -10 43 19 3 15 8 37
12 50 10 36 -13 26 -43 -19z m16 -25 c-6 -16 -13 -24 -16 -17 -5 13 16 58 23
50 3 -2 -1 -17 -7 -33z"/>
<path d="M2970 6559 c-12 -23 -20 -42 -18 -44 6 -7 100 -45 109 -45 15 0 10
68 -6 100 -24 46 -59 41 -85 -11z m74 5 c7 -19 8 -74 1 -74 -11 0 -75 29 -75
34 0 3 5 17 12 31 13 28 52 35 62 9z"/>
<path d="M11610 6596 c0 -2 7 -21 16 -42 31 -74 110 -118 134 -75 23 44 13 59
-50 77 -33 9 -65 23 -71 30 -10 13 -29 19 -29 10z m108 -57 c30 -9 41 -17 37
-27 -3 -7 -5 -18 -5 -23 0 -20 -50 -7 -79 20 -34 32 -41 55 -13 47 9 -2 36
-10 60 -17z"/>
<path d="M2671 6549 c-11 -31 -10 -31 17 -24 35 9 36 9 20 34 -17 28 -24 27
-37 -10z m29 1 c0 -5 -5 -10 -11 -10 -5 0 -7 5 -4 10 3 6 8 10 11 10 2 0 4 -4
4 -10z"/>
<path d="M2022 6425 l-53 -24 6 -58 c6 -48 2 -70 -19 -128 l-25 -70 29 -30
c17 -17 30 -36 30 -41 0 -6 6 -18 13 -28 13 -18 15 -18 61 2 37 17 51 30 66
64 11 24 20 51 20 60 0 9 12 29 27 43 32 29 54 34 30 7 -10 -10 -17 -22 -17
-27 0 -5 -10 -29 -22 -53 l-21 -45 22 -18 c15 -13 21 -25 16 -38 -10 -33 38
-61 106 -61 32 0 60 -4 64 -9 9 -15 -29 -31 -73 -31 -49 0 -53 -4 -40 -43 13
-42 43 -67 78 -67 22 0 30 -6 39 -31 10 -28 13 -30 48 -24 76 13 183 48 199
66 16 18 18 18 54 -11 21 -17 47 -30 58 -30 30 0 74 39 67 60 -4 13 0 20 15
25 13 4 20 15 20 31 0 20 -10 29 -56 49 -69 31 -83 48 -84 101 0 22 -7 63 -15
91 -14 48 -14 54 5 98 23 55 19 82 -15 91 -39 10 -63 -4 -76 -44 -23 -71 -27
-76 -56 -57 -14 9 -34 14 -45 12 -11 -3 -31 -1 -44 5 -19 9 -28 8 -43 -6 -19
-17 -20 -17 -23 11 -5 42 -47 44 -99 2 -22 -17 -42 -29 -44 -27 -3 3 16 19 41
38 l46 33 -40 36 c-21 20 -42 46 -46 58 -5 17 -17 22 -54 26 -26 3 -58 8 -72
11 -16 3 -45 -4 -78 -19z m98 0 c14 -8 39 -14 57 -15 23 0 36 -6 44 -22 7 -13
25 -34 42 -48 l29 -26 -71 -52 c-39 -29 -73 -58 -75 -65 -29 -99 -51 -128
-108 -142 -22 -6 -28 -4 -28 9 0 8 -14 31 -31 51 l-31 35 22 61 c23 61 29 116
16 157 -7 20 -1 25 46 47 63 28 57 28 88 10z m554 -104 c3 -5 -4 -32 -16 -60
-20 -50 -21 -53 -4 -115 10 -36 15 -74 11 -85 -11 -35 24 -78 82 -103 56 -23
71 -51 34 -63 -14 -4 -19 -14 -18 -33 2 -20 -5 -29 -26 -40 -27 -13 -31 -12
-67 17 -46 36 -48 37 -74 12 -21 -20 -152 -61 -194 -61 -14 0 -26 8 -31 24
-10 25 -30 36 -66 36 -25 0 -39 13 -49 47 -6 19 -2 23 31 28 21 3 53 13 72 21
l34 15 -29 20 c-20 13 -47 19 -85 19 -60 0 -86 16 -75 46 4 11 -1 22 -14 31
-24 17 -26 42 -5 69 8 10 15 27 15 36 0 19 108 108 132 108 10 0 19 -13 25
-36 l8 -36 25 20 c19 15 29 18 43 10 11 -5 28 -7 40 -4 12 3 32 -3 48 -15 15
-10 30 -19 33 -19 2 0 15 27 27 60 21 57 23 60 55 60 18 0 35 -4 38 -9z"/>
<path d="M11385 6393 c4 -16 6 -43 6 -60 -1 -26 5 -35 29 -48 38 -20 89 -20
97 1 8 21 -54 84 -83 84 -17 0 -20 5 -16 25 3 21 0 25 -18 25 -19 0 -21 -4
-15 -27z m20 7 c3 -5 1 -10 -4 -10 -6 0 -11 5 -11 10 0 6 2 10 4 10 3 0 8 -4
11 -10z m67 -67 c39 -37 37 -57 -4 -48 -41 9 -70 24 -65 33 2 4 7 15 10 25 9
24 26 21 59 -10z"/>
<path d="M3048 6403 c-51 -8 -54 -20 -42 -179 6 -85 4 -104 -10 -126 -24 -37
-48 -126 -40 -151 4 -12 25 -39 47 -59 33 -31 38 -40 28 -52 -8 -9 -10 -27 -6
-44 4 -20 0 -36 -15 -54 -11 -14 -20 -31 -20 -37 0 -14 -13 -14 -28 1 -20 20
-14 54 13 68 14 7 25 18 25 23 0 14 -71 108 -79 105 -4 -2 -24 -22 -45 -45
l-37 -42 28 -17 c15 -10 29 -18 30 -19 1 0 -4 -19 -11 -40 -11 -31 -20 -41
-40 -43 -37 -5 -155 52 -186 90 l-26 31 -48 -16 c-27 -9 -54 -25 -62 -34 -11
-15 -10 -20 8 -34 35 -27 12 -43 -28 -20 -32 19 -38 20 -71 6 -38 -16 -86 -18
-117 -6 -19 7 -18 8 3 23 18 13 21 20 12 36 -15 28 -56 52 -90 52 -30 0 -79
24 -137 67 -42 31 -81 30 -96 -2 -15 -34 -28 -32 -28 5 0 36 -16 39 -32 5 -15
-33 -25 -32 -42 8 -7 17 -28 45 -45 61 l-31 30 -6 -32 c-8 -40 -23 -50 -40
-27 -12 16 -17 14 -72 -24 -47 -34 -65 -41 -86 -35 -30 7 -53 -8 -67 -43 l-8
-23 -63 40 c-35 22 -74 40 -86 40 -13 0 -38 10 -55 23 -22 15 -48 23 -82 24
-70 2 -127 13 -150 29 -11 8 -41 14 -67 14 -37 0 -50 4 -58 20 -7 13 -21 20
-41 20 -19 0 -43 10 -61 25 -16 14 -35 25 -42 25 -7 0 -23 -11 -36 -25 -13
-14 -34 -25 -48 -25 -13 0 -37 -11 -54 -25 -16 -14 -38 -25 -49 -25 -22 0 -64
-61 -74 -107 -5 -28 -11 -32 -53 -40 -43 -7 -47 -11 -50 -40 -3 -26 3 -36 37
-63 22 -18 45 -45 51 -60 6 -15 22 -38 36 -51 33 -31 31 -49 -6 -49 -20 0 -30
5 -30 15 0 24 -43 18 -86 -13 -62 -45 -68 -57 -40 -70 17 -8 23 -17 19 -31 -7
-28 38 -55 81 -48 19 3 39 0 45 -6 7 -7 18 -7 36 1 32 15 31 15 33 0 0 -7 4
-23 7 -35 6 -18 1 -24 -28 -36 -19 -8 -38 -20 -41 -26 -4 -6 -12 -9 -17 -6
-22 14 -48 -9 -74 -66 -14 -33 -24 -66 -22 -73 3 -7 21 -38 41 -69 35 -55 65
-72 81 -47 13 21 25 9 25 -25 0 -35 0 -35 45 -35 31 0 47 -5 55 -17 8 -13 13
-14 16 -5 3 6 14 12 23 12 31 0 11 -64 -37 -120 -30 -35 -54 -53 -83 -60 -22
-6 -42 -17 -45 -24 -3 -8 -23 -22 -45 -31 -26 -12 -38 -23 -34 -33 3 -7 5 -16
5 -18 0 -3 37 15 82 39 46 25 93 48 106 52 13 4 69 51 125 105 86 84 99 100
88 113 -10 13 -7 20 18 43 17 15 31 35 31 44 0 17 40 60 56 60 5 0 -2 -9 -15
-19 -18 -14 -25 -31 -29 -70 -4 -49 -4 -51 20 -51 13 0 35 11 48 25 13 14 29
25 36 25 16 0 34 31 34 59 0 20 1 21 36 6 19 -8 49 -25 67 -37 20 -14 54 -25
92 -29 79 -9 82 -10 115 -39 15 -14 45 -39 67 -57 29 -23 46 -48 64 -95 19
-50 25 -58 27 -38 2 14 8 29 12 34 8 8 7 32 -6 94 -4 21 -6 22 -21 7 -12 -12
-13 -19 -4 -28 6 -6 11 -25 11 -41 -1 -30 -1 -30 -23 14 -14 28 -41 59 -74 84
-29 21 -53 46 -53 55 0 13 -14 17 -77 19 -67 2 -84 7 -134 37 -31 19 -71 38
-89 42 -31 6 -33 5 -27 -17 7 -26 -8 -60 -25 -60 -7 0 -25 -12 -40 -27 -24
-23 -30 -25 -38 -13 -16 25 0 73 33 102 l32 27 -26 1 c-32 0 -79 -35 -79 -60
0 -10 -14 -30 -31 -44 -24 -20 -30 -32 -25 -50 5 -20 -9 -37 -87 -112 -86 -83
-103 -94 -217 -141 -12 -6 -13 -4 -3 9 7 8 30 20 52 26 53 17 128 104 137 162
l7 42 -36 -3 c-20 -2 -39 0 -43 4 -4 4 -25 7 -46 7 -35 0 -39 2 -33 20 3 10 1
28 -5 40 -9 16 -15 18 -30 10 -31 -17 -47 -11 -68 23 -11 19 -27 45 -35 58
-15 23 -15 28 9 79 27 59 39 71 61 63 8 -3 21 2 31 10 9 8 29 18 44 22 28 7
44 43 28 59 -6 6 -10 23 -10 38 0 27 -1 28 -22 14 -15 -9 -45 -13 -85 -12 -67
3 -101 20 -82 42 13 16 4 34 -17 34 -29 0 -13 29 30 54 53 31 66 32 66 6 0
-29 60 -28 78 1 12 18 9 25 -21 59 -19 21 -38 46 -41 57 -3 11 -24 33 -46 49
-26 19 -40 37 -40 52 0 24 5 27 60 36 33 6 37 11 55 64 17 49 25 60 61 77 23
11 51 28 61 38 11 9 30 17 43 17 13 0 36 11 51 26 l26 25 31 -25 c17 -15 42
-26 60 -26 21 0 35 -8 46 -25 14 -22 24 -25 71 -25 29 0 56 -4 59 -9 7 -10 68
-21 145 -26 41 -2 63 -9 87 -29 18 -14 46 -26 61 -26 16 0 54 -17 88 -40 l60
-40 12 30 c16 36 42 52 66 39 13 -8 30 -1 74 30 50 36 57 39 68 25 16 -22 50
-4 59 32 7 25 8 26 26 9 11 -10 24 -33 30 -51 15 -43 45 -62 59 -37 6 10 11
13 11 6 0 -7 9 -17 20 -23 16 -9 22 -6 35 20 19 36 43 38 82 7 49 -41 103 -67
136 -67 19 0 44 -10 62 -24 29 -23 29 -25 12 -43 -24 -28 -21 -42 11 -49 15
-3 33 -8 41 -10 8 -3 36 3 63 13 47 17 48 16 88 -6 l39 -22 7 27 c5 20 2 31
-12 41 -19 14 -19 15 0 28 11 8 35 18 55 21 29 6 38 3 55 -19 31 -39 164 -99
202 -91 26 5 32 13 42 50 16 59 16 59 -14 73 l-26 11 29 34 c15 19 31 35 35
35 4 1 21 -19 37 -43 l30 -43 -24 -13 c-31 -17 -34 -69 -6 -94 20 -18 41 -15
41 6 0 6 11 26 25 44 21 27 24 38 15 54 -8 15 -7 25 5 44 15 22 14 24 -20 50
-19 15 -42 40 -50 56 -13 25 -13 34 5 85 11 32 25 64 31 72 9 10 10 52 5 147
l-6 134 31 7 c35 8 106 -1 129 -15 23 -15 -37 -124 -71 -128 -35 -6 -51 -22
-45 -48 4 -13 1 -34 -5 -47 -9 -20 -4 -37 36 -116 43 -87 45 -94 31 -116 -14
-21 -13 -24 4 -40 11 -10 32 -38 46 -63 25 -42 28 -44 40 -27 7 10 15 23 17
29 3 7 9 6 21 -3 14 -12 16 -24 11 -58 -5 -32 -2 -51 12 -73 23 -40 57 -38 61
3 2 16 10 31 18 34 11 4 14 26 14 89 0 61 4 86 13 90 22 8 65 -13 72 -35 3
-12 15 -21 26 -21 15 0 19 -7 19 -32 0 -17 -7 -39 -15 -48 -16 -18 -8 -61 14
-75 21 -12 11 -45 -25 -77 -52 -47 -59 -50 -85 -30 -13 11 -32 17 -46 14 -26
-5 -29 -12 -12 -29 9 -9 6 -19 -10 -39 -11 -15 -21 -40 -21 -57 0 -40 -44 -97
-75 -97 -28 0 -55 -34 -55 -68 0 -17 -8 -26 -30 -33 -19 -7 -30 -18 -30 -30 0
-10 -5 -19 -10 -19 -20 0 -70 -123 -70 -172 0 -61 7 -78 35 -78 19 0 24 -8 34
-60 13 -63 16 -66 54 -49 19 9 32 7 63 -9 21 -11 48 -30 59 -42 27 -30 88 -60
122 -60 67 0 73 -7 73 -75 0 -59 3 -66 46 -121 45 -59 69 -80 58 -50 -4 9 4
24 20 38 l27 23 -17 74 c-14 64 -15 76 -3 80 25 8 79 68 79 88 0 50 -24 140
-42 160 l-20 21 22 22 c18 18 21 28 14 58 -4 21 -6 48 -5 62 3 31 3 48 -1 80
-3 25 -3 25 67 22 55 -3 78 -9 108 -29 20 -14 36 -33 35 -41 -2 -10 9 -18 30
-24 32 -9 32 -9 32 -72 0 -63 1 -65 40 -96 l41 -32 39 26 c36 24 45 39 41 72
-1 6 5 17 13 23 11 10 23 -5 65 -82 42 -79 49 -100 44 -130 -4 -30 -2 -37 21
-52 14 -10 26 -23 26 -30 0 -8 10 -17 23 -21 39 -12 69 -36 56 -44 -7 -5 2
-14 27 -26 50 -23 48 -20 50 -52 1 -15 5 -34 8 -43 8 -19 -19 -44 -58 -53 -17
-4 -46 -21 -65 -38 -34 -30 -36 -30 -109 -24 -97 9 -159 0 -167 -25 -4 -10
-12 -19 -20 -19 -14 0 -111 -107 -103 -115 2 -3 26 20 52 50 26 30 53 55 60
55 8 0 20 9 27 21 15 22 40 24 184 20 56 -2 62 0 86 29 17 20 35 30 52 30 l27
0 -30 -60 c-16 -33 -30 -65 -30 -71 0 -7 -7 -20 -16 -30 -22 -24 -11 -53 16
-44 26 8 116 -5 100 -15 -8 -5 -9 -10 -2 -14 6 -3 17 1 25 9 21 20 30 19 45
-5 7 -11 17 -20 22 -20 15 0 34 54 21 58 -5 2 -7 10 -4 19 5 12 3 14 -8 8 -11
-6 -12 -5 -1 6 16 17 15 30 -2 23 -17 -7 -30 12 -15 22 14 8 -8 24 -35 24 -10
0 -28 10 -41 22 -20 20 -21 25 -10 52 21 50 6 176 -20 176 -8 0 -15 5 -15 10
0 6 -7 10 -15 10 -8 0 -12 6 -10 13 3 7 -11 21 -32 32 -20 11 -55 37 -76 57
-36 33 -39 40 -30 60 9 20 3 37 -39 118 -66 124 -66 125 -89 104 -11 -10 -19
-29 -19 -44 0 -20 -10 -35 -36 -55 l-36 -28 -29 29 c-24 25 -28 38 -30 93 -2
62 -3 64 -36 77 -18 8 -33 20 -33 27 -1 6 -20 26 -43 43 -32 24 -50 30 -73 27
-17 -3 -47 0 -67 5 -26 7 -39 7 -46 -1 -5 -7 -8 -58 -6 -117 4 -95 2 -106 -16
-123 l-21 -19 25 -27 c18 -19 28 -45 36 -96 11 -70 11 -70 -17 -95 -15 -14
-37 -32 -50 -40 -21 -15 -22 -16 -7 -70 8 -30 15 -64 15 -76 0 -19 -28 -54
-42 -54 -4 0 -21 19 -39 41 -28 36 -30 40 -10 30 24 -13 37 -9 26 8 -3 6 -15
11 -26 11 -17 0 -19 7 -19 58 0 32 -5 63 -12 70 -7 7 -32 12 -55 12 -50 0
-107 26 -143 65 -34 36 -88 58 -127 50 -31 -6 -32 -5 -44 49 -10 48 -15 55
-38 58 -23 3 -26 8 -29 50 -2 36 4 61 30 114 49 101 50 103 80 113 20 7 28 17
28 33 0 36 27 68 58 68 21 0 33 10 55 44 15 24 27 55 27 70 0 15 7 38 16 51 9
14 14 32 10 40 -7 20 9 19 44 -2 28 -16 30 -16 63 10 20 15 42 34 51 43 20 20
21 73 1 80 -20 8 -19 48 1 64 10 9 14 26 12 49 -2 28 -8 37 -25 39 -12 2 -25
12 -28 23 -4 11 -16 24 -28 29 -16 6 -9 8 30 8 38 0 56 -5 69 -19 24 -27 41
-24 74 12 27 30 28 31 35 10 3 -12 18 -29 32 -38 22 -14 24 -22 20 -55 -5 -39
-2 -44 22 -29 22 14 88 -56 96 -102 6 -32 3 -41 -30 -82 -34 -41 -37 -48 -26
-71 17 -37 6 -44 -57 -38 l-57 6 -18 -37 c-10 -21 -15 -46 -11 -57 5 -18 12
-20 63 -15 48 5 64 2 108 -21 33 -16 53 -33 53 -43 0 -19 45 -59 65 -59 6 0
31 -13 56 -29 24 -16 56 -33 72 -36 43 -11 36 30 -15 84 -44 45 -38 46 18 4
43 -32 82 -31 90 3 4 14 1 37 -5 50 -6 14 -11 32 -11 41 0 9 -20 38 -45 64
-33 35 -45 56 -45 79 0 16 3 30 8 29 4 0 29 -28 56 -62 l50 -61 12 31 c7 17
22 33 32 35 12 3 25 23 35 51 l16 46 -66 71 c-58 62 -69 70 -102 70 -20 0 -42
5 -49 12 -17 17 -15 56 5 66 16 9 16 12 -1 36 -9 15 -16 35 -15 44 4 41 -5 57
-63 118 -65 68 -103 94 -136 94 -16 0 -21 10 -26 50 -7 49 -8 50 -40 50 -19 0
-49 6 -67 14 -32 14 -36 13 -59 -8 -34 -32 -80 -43 -80 -19 0 10 -3 36 -5 58
-5 34 -4 37 6 19 17 -33 52 -48 77 -35 11 6 34 8 51 5 l31 -6 0 46 c0 42 -3
48 -32 66 -42 25 -79 25 -111 0 l-26 -20 -6 21 c-10 31 -51 17 -107 -39 -43
-41 -48 -51 -49 -92 -1 -68 -17 -98 -18 -33 -1 61 27 132 59 152 31 18 10 31
-51 31 -43 0 -49 -3 -84 -46 -42 -50 -65 -115 -65 -180 0 -35 9 -58 43 -111
53 -82 65 -93 125 -109 36 -10 40 -13 20 -13 l-28 -1 0 -90 c0 -79 -2 -91 -20
-100 -12 -6 -20 -21 -20 -35 0 -14 -3 -25 -6 -25 -18 0 -33 41 -34 91 0 43 -5
60 -20 74 -20 18 -21 18 -35 -1 -8 -10 -15 -23 -15 -29 0 -5 -11 7 -24 27 -12
21 -31 47 -41 58 -17 19 -17 22 -2 37 14 15 12 24 -33 112 -44 88 -47 99 -35
121 8 16 10 31 4 41 -10 20 5 36 40 41 24 3 48 35 78 106 13 32 13 33 -19 46
-42 17 -86 24 -120 19z m317 -53 c11 -5 14 -9 7 -9 -7 -1 -24 -25 -37 -55 -28
-63 -26 -136 6 -177 19 -24 19 -24 19 61 l0 86 43 41 c23 22 52 46 64 52 25
13 32 1 33 -64 3 -108 4 -125 10 -125 18 1 82 29 100 45 19 17 21 17 59 1 23
-11 48 -15 60 -11 19 6 21 3 21 -43 l0 -50 43 -7 c35 -6 54 -20 115 -79 65
-66 72 -76 72 -112 0 -22 5 -45 12 -52 9 -9 8 -16 -5 -30 -22 -24 -21 -44 2
-70 12 -15 30 -22 52 -22 29 0 45 -10 99 -65 l63 -64 -12 -42 c-8 -26 -20 -43
-33 -46 -11 -3 -24 -17 -29 -30 l-9 -25 -22 28 c-30 41 -81 94 -89 94 -3 0 -9
-14 -13 -31 -7 -36 10 -72 53 -113 17 -17 31 -38 31 -48 0 -10 7 -29 15 -41
17 -26 10 -67 -12 -67 -8 0 -41 18 -73 40 -32 22 -62 40 -65 40 -12 0 25 -57
59 -89 20 -19 36 -39 36 -43 0 -17 -39 -7 -78 22 -22 16 -52 32 -66 36 -29 7
-42 21 -47 48 -3 11 -30 32 -71 53 -54 27 -71 32 -87 24 -28 -15 -68 -14 -74
3 -3 7 3 27 13 44 18 29 21 30 72 25 66 -7 89 11 64 49 -14 22 -13 26 23 72
37 46 38 50 28 90 -6 22 -22 52 -37 66 -15 14 -31 34 -37 45 -10 16 -13 17
-28 5 -15 -12 -16 -11 -10 13 6 22 2 31 -19 48 -15 11 -33 34 -42 51 l-16 30
-33 -37 -34 -36 -29 21 c-20 15 -47 22 -96 25 -37 2 -84 12 -104 22 -46 23
-131 144 -131 188 -1 56 27 135 64 181 37 45 58 52 100 34z m254 -1 c35 -12
51 -35 51 -73 0 -23 -3 -25 -29 -20 -16 3 -38 1 -50 -5 -17 -9 -24 -8 -41 9
-30 30 -25 79 10 93 22 8 24 8 59 -4z m-3019 -1604 c0 -2 -13 -11 -30 -20 -38
-19 -40 -11 -2 9 31 17 32 18 32 11z m3785 -266 c-18 -51 -18 -52 -1 -46 8 3
20 0 26 -8 6 -7 21 -16 33 -19 26 -7 47 -48 40 -77 -5 -19 -11 -21 -51 -15
-25 3 -67 6 -95 6 -44 0 -48 2 -36 16 11 13 31 56 72 157 18 43 28 31 12 -14z
m125 -184 c0 -8 -4 -15 -10 -15 -5 0 -10 7 -10 15 0 8 5 15 10 15 6 0 10 -7
10 -15z"/>
<path d="M2897 6389 c-10 -6 -29 -8 -43 -5 -53 14 -83 -39 -54 -93 8 -16 5
-20 -21 -25 -16 -3 -32 -12 -35 -20 -9 -23 23 -86 44 -86 11 0 27 -15 40 -39
35 -62 44 -66 87 -36 21 14 41 25 46 25 4 0 10 17 14 39 8 47 -10 121 -30 121
-23 0 -27 18 -11 42 20 29 20 41 -1 67 -14 16 -22 18 -36 10z m-22 -21 c6 1
19 2 30 4 26 4 32 -33 11 -64 -21 -30 -20 -33 8 -46 28 -13 46 -62 39 -108 -3
-22 -15 -35 -43 -52 -22 -12 -41 -22 -44 -22 -2 0 -20 23 -40 50 -20 28 -42
50 -50 50 -15 0 -39 54 -29 64 4 3 20 6 36 6 26 0 29 3 23 25 -3 14 -9 37 -12
52 -8 30 20 58 46 47 8 -3 20 -6 25 -6z"/>
<path d="M23 6093 c15 -2 32 -13 37 -23 8 -16 6 -22 -14 -36 -14 -8 -30 -13
-36 -9 -5 3 -10 1 -10 -4 0 -18 36 -12 63 10 25 19 26 21 11 45 -12 18 -24 24
-48 23 -30 -2 -30 -2 -3 -6z"/>
<path d="M12772 6057 c-27 -29 -29 -57 -3 -57 11 0 23 5 26 10 3 6 -3 10 -15
10 l-21 0 21 30 c25 36 22 39 -8 7z"/>
<path d="M6085 6030 c-10 -11 -13 -20 -7 -20 6 0 16 9 22 20 6 11 9 20 7 20
-2 0 -12 -9 -22 -20z"/>
<path d="M8121 5856 c-16 -20 -3 -66 19 -66 9 0 25 9 35 20 17 19 17 21 0 40
-21 24 -38 25 -54 6z m39 -40 c-17 -21 -27 -20 -33 3 -7 28 13 45 32 27 12
-12 12 -18 1 -30z"/>
<path d="M0 5813 c0 -13 52 -60 101 -91 18 -12 45 -37 59 -57 19 -27 32 -35
57 -35 47 0 78 -15 103 -50 21 -30 21 -32 5 -51 -10 -10 -29 -19 -42 -19 -19
0 -23 -5 -23 -33 0 -18 -6 -41 -13 -51 -12 -17 -15 -17 -60 5 -30 15 -47 30
-47 41 0 22 -30 39 -58 31 -21 -5 -28 4 -46 61 -11 34 -34 -1 -33 -50 0 -34 3
-41 9 -29 6 9 7 27 4 41 -9 35 6 29 24 -9 13 -27 20 -32 50 -32 28 0 36 -4 38
-21 2 -13 21 -29 57 -47 l55 -27 17 27 c10 14 18 38 19 52 0 18 7 27 21 29 11
2 31 14 43 27 l23 24 -37 46 c-34 41 -41 45 -81 45 -38 0 -48 5 -77 38 -18 21
-49 49 -68 62 -19 13 -50 37 -67 54 -18 16 -33 25 -33 19z"/>
<path d="M3662 5725 c-7 -14 -12 -39 -12 -55 0 -25 4 -30 23 -30 52 0 87 52
60 89 -20 29 -57 27 -71 -4z m65 -11 c8 -21 -7 -45 -35 -55 -29 -11 -40 12
-24 47 13 28 49 33 59 8z"/>
<path d="M5559 5572 c-8 -9 -19 -29 -26 -44 -14 -32 4 -54 37 -43 30 9 24 -7
-10 -30 -38 -25 -38 -35 -1 -35 29 0 49 -24 31 -35 -21 -13 -10 -35 17 -35 15
0 47 -7 71 -17 l43 -16 78 38 c82 39 111 71 111 119 0 15 -8 30 -20 36 -12 7
-20 21 -20 38 0 25 -3 27 -38 27 -20 0 -44 -4 -52 -10 -14 -9 -40 -13 -97 -16
-17 -1 -23 -7 -23 -25 0 -15 -6 -24 -15 -24 -9 0 -15 9 -15 23 0 22 -17 44
-46 60 -6 3 -17 -2 -25 -11z m61 -64 c0 -37 21 -36 61 3 25 24 38 30 59 25 20
-3 33 1 45 14 14 15 21 17 31 9 8 -6 21 -9 29 -5 11 4 15 -1 15 -18 0 -13 7
-26 15 -30 18 -7 20 -64 2 -87 -7 -9 -45 -33 -84 -52 -69 -35 -73 -36 -107
-22 -19 8 -47 15 -61 15 -22 0 -25 3 -19 24 4 17 0 30 -15 45 l-20 20 20 15
c29 20 14 40 -23 32 -28 -5 -30 -4 -24 17 3 12 6 25 6 30 0 4 7 7 15 7 8 0 15
5 15 12 0 6 9 3 20 -7 11 -10 20 -31 20 -47z"/>
<path d="M3351 5526 c-19 -21 -26 -40 -29 -89 -2 -34 -11 -69 -18 -78 -16 -18
-9 -29 18 -29 10 0 18 -7 18 -15 0 -27 47 -17 70 15 25 35 40 37 65 10 22 -24
33 -25 56 -4 17 16 14 20 -59 93 -42 42 -82 86 -87 99 l-10 24 -24 -26z m100
-97 c63 -61 76 -79 65 -88 -10 -8 -17 -6 -31 9 -26 29 -56 25 -87 -12 l-26
-33 -26 27 c-13 15 -20 30 -15 33 5 4 9 33 9 66 0 61 18 119 28 90 3 -8 40
-50 83 -92z"/>
<path d="M280 5329 c0 -17 4 -20 22 -16 13 4 29 0 38 -8 14 -13 19 -13 35 -1
18 13 17 14 -13 30 -45 23 -82 21 -82 -5z m66 -5 c10 -8 13 -12 6 -9 -8 4 -26
11 -40 15 -22 7 -23 8 -6 9 11 1 29 -6 40 -15z"/>
<path d="M3444 5260 c-12 -4 -24 -15 -27 -24 -10 -26 26 -19 53 9 25 26 15 32
-26 15z"/>
<path d="M3550 5210 c0 -49 13 -52 27 -6 11 37 8 46 -14 46 -9 0 -13 -13 -13
-40z"/>
<path d="M6143 5239 c-26 -10 -30 -24 -8 -33 9 -3 19 3 26 15 13 26 10 29 -18
18z"/>
<path d="M446 5091 c-17 -7 -16 -9 8 -24 20 -14 31 -15 47 -7 42 23 -7 51 -55
31z m54 -11 c0 -5 -7 -10 -16 -10 -8 0 -12 5 -9 10 3 6 10 10 16 10 5 0 9 -4
9 -10z"/>
<path d="M6330 5093 c0 -5 5 -15 10 -23 8 -12 10 -11 10 8 0 12 -4 22 -10 22
-5 0 -10 -3 -10 -7z"/>
<path d="M6270 5000 c20 -13 33 -13 25 0 -3 6 -14 10 -23 10 -15 0 -15 -2 -2
-10z"/>
<path d="M12220 4991 c-15 -28 -13 -33 10 -21 11 6 20 17 20 25 0 21 -17 18
-30 -4z"/>
<path d="M930 4925 c-36 -37 -41 -46 -30 -59 11 -14 16 -13 44 10 32 28 49 64
37 83 -4 7 -23 -6 -51 -34z m15 -29 c-16 -13 -32 -22 -34 -20 -8 7 32 44 48
44 11 0 6 -8 -14 -24z"/>
<path d="M6146 4948 c-18 -25 -21 -48 -7 -48 12 0 27 21 34 48 7 28 -7 28 -27
0z"/>
<path d="M6200 4941 c-6 -16 -20 -31 -31 -34 -24 -6 -25 -25 -1 -35 19 -8 25
-62 9 -74 -12 -7 19 -42 31 -34 4 2 8 -8 7 -22 0 -22 5 -28 28 -30 15 -2 27
-9 27 -17 0 -7 5 -15 11 -17 19 -6 -3 -38 -27 -38 -13 0 -24 -4 -24 -9 0 -5
-3 -16 -6 -25 -4 -11 0 -16 12 -16 16 -1 14 -5 -11 -25 -31 -26 -32 -24 24
-41 9 -3 5 -11 -13 -25 -16 -12 -25 -27 -22 -36 3 -8 2 -11 -3 -8 -5 3 -12 1
-15 -4 -9 -15 14 -25 27 -12 6 6 19 11 29 11 10 0 18 5 18 11 0 7 11 9 30 6
16 -4 32 -2 35 3 3 6 23 10 44 10 40 0 68 21 56 40 -4 6 1 20 10 30 13 15 14
23 5 39 -6 12 -17 21 -25 21 -7 0 -19 15 -25 34 -20 60 -70 145 -90 151 -25 8
-25 14 0 45 11 14 20 35 20 48 0 19 -5 22 -37 22 -34 0 -35 1 -20 18 27 30 20
42 -22 42 -33 0 -40 -4 -51 -29z m60 -6 c-28 -30 -24 -36 24 -38 20 -1 36 -4
36 -6 0 -2 -12 -24 -26 -49 -26 -44 -24 -57 9 -64 24 -4 103 -151 91 -169 -10
-17 7 -31 22 -18 22 18 29 -16 10 -46 -9 -14 -14 -30 -11 -34 6 -10 -32 -20
-97 -26 -24 -2 -54 -7 -68 -11 -22 -7 -23 -6 -12 9 8 9 23 17 35 19 27 4 37
39 10 36 -10 0 -27 0 -37 0 -18 2 -18 3 -2 21 11 12 15 27 11 44 -6 21 -3 26
17 29 29 4 35 38 12 73 -11 18 -23 25 -36 22 -14 -4 -18 1 -18 23 0 16 -7 33
-16 38 -10 5 -15 23 -16 50 0 32 -4 42 -17 42 -15 1 -15 1 0 10 9 5 22 23 29
40 10 24 18 30 43 30 l30 0 -23 -25z"/>
<path d="M1626 4902 c-4 -7 -2 -12 5 -12 7 0 5 -8 -6 -20 -18 -20 -18 -22 10
-75 15 -30 37 -62 47 -71 17 -16 18 -16 18 11 l0 28 25 -27 c14 -15 25 -39 25
-53 0 -25 41 -90 67 -106 7 -4 13 -17 13 -27 0 -11 9 -29 21 -41 20 -20 21
-21 1 -15 -11 4 -23 2 -27 -3 -6 -10 12 -29 57 -63 13 -10 35 -27 50 -38 16
-12 24 -27 22 -37 -2 -10 2 -37 9 -61 10 -32 11 -63 5 -115 -6 -44 -5 -113 1
-177 10 -98 13 -107 41 -132 17 -16 25 -30 19 -34 -7 -4 -5 -12 5 -23 9 -10
13 -21 9 -24 -3 -4 3 -17 14 -30 11 -12 26 -32 32 -44 6 -12 25 -24 43 -28 47
-10 71 -39 103 -123 17 -45 40 -83 57 -98 16 -13 26 -28 23 -34 -4 -6 -11 -8
-16 -5 -5 4 -9 1 -9 -4 0 -10 70 -66 92 -73 6 -2 11 -16 11 -31 0 -20 8 -32
33 -48 19 -11 38 -28 43 -37 8 -14 11 -14 25 -2 15 12 14 16 -12 44 -15 17
-36 48 -45 69 -9 21 -42 70 -72 111 -52 68 -65 99 -47 109 20 12 49 -15 67
-64 12 -32 36 -68 62 -93 23 -21 44 -49 47 -62 3 -12 14 -25 24 -28 18 -6 105
-110 114 -136 3 -8 2 -25 -3 -37 -12 -34 26 -65 152 -126 152 -73 185 -83 207
-64 21 18 34 14 93 -29 50 -37 117 -64 155 -64 33 0 102 -64 106 -98 2 -19 10
-28 25 -30 13 -2 29 -12 36 -22 11 -16 118 -60 147 -60 5 0 9 10 7 22 -1 17 4
24 21 26 14 2 22 -2 22 -11 0 -8 9 -26 20 -40 15 -18 20 -40 20 -81 0 -45 -4
-57 -20 -66 -11 -6 -20 -16 -20 -23 0 -7 -11 -21 -25 -31 -14 -10 -25 -24 -25
-31 0 -6 -9 -20 -20 -30 -24 -22 -26 -62 -5 -85 14 -16 13 -19 -10 -34 -21
-14 -24 -20 -14 -37 6 -11 8 -26 6 -34 -3 -7 5 -18 18 -25 23 -12 75 -96 141
-230 34 -70 43 -80 128 -140 l91 -66 -1 -129 c0 -79 -7 -160 -17 -205 -9 -41
-16 -86 -16 -100 -1 -101 -11 -163 -41 -240 -24 -62 -34 -107 -37 -165 -3 -44
-6 -90 -7 -102 0 -13 -4 -23 -8 -23 -5 0 -8 -21 -8 -46 0 -55 20 -56 35 -2 12
43 25 59 25 32 0 -35 -21 -95 -31 -88 -23 14 -49 -28 -49 -77 0 -26 -5 -51
-10 -54 -5 -3 -10 -13 -10 -21 0 -11 6 -13 22 -9 17 6 20 4 15 -10 -4 -9 -7
-19 -7 -21 0 -2 -7 -4 -15 -4 -14 0 -16 -16 -14 -102 2 -127 12 -166 45 -174
13 -3 24 -10 24 -15 0 -6 -9 -5 -21 1 -11 7 -23 9 -26 7 -2 -3 5 -10 16 -17
12 -6 19 -15 16 -20 -8 -13 6 -40 21 -40 7 0 17 -7 21 -15 14 -24 167 -97 171
-81 2 7 24 19 50 27 49 15 73 49 34 49 -27 0 -77 43 -92 79 -7 17 -21 32 -33
34 -18 4 -17 5 5 6 l27 1 -14 41 c-15 42 -11 64 19 89 9 7 16 21 16 31 0 10
18 33 40 50 47 38 54 74 17 88 -55 21 -59 64 -8 82 32 11 45 32 42 67 -2 16 7
27 28 40 21 11 31 25 31 41 0 17 -4 22 -17 17 -18 -7 -33 9 -33 37 0 14 3 15
18 6 13 -8 28 -9 48 -2 23 8 31 18 37 49 8 37 12 40 58 51 67 16 98 33 123 66
17 23 18 31 8 47 -7 11 -12 27 -12 36 0 9 -7 22 -15 28 -12 8 -1 11 50 12 l64
0 63 69 c77 84 128 173 139 244 5 33 16 63 31 78 26 28 104 66 158 77 55 10
90 29 90 49 0 10 9 35 20 57 11 22 20 48 20 59 0 11 5 23 10 26 6 3 10 43 10
88 l0 82 63 70 c76 84 92 119 83 180 -7 43 -9 45 -40 45 -22 0 -49 12 -84 39
-43 31 -66 40 -129 51 -58 9 -83 18 -99 35 -28 30 -100 51 -119 35 -11 -9 -12
-7 -8 11 6 21 4 22 -38 15 -24 -4 -47 -12 -51 -19 -5 -7 -8 -8 -8 -1 0 6 11
21 25 34 27 26 33 60 11 60 -9 0 -16 12 -18 32 -2 25 -13 39 -51 66 -39 28
-59 35 -113 40 -58 4 -68 9 -102 42 -42 42 -78 64 -92 55 -5 -3 -10 12 -12 32
l-3 38 -65 -2 c-36 -1 -74 -2 -85 -2 -11 0 -39 0 -62 0 -27 0 -43 5 -47 15 -3
7 -11 14 -17 14 -7 0 -21 8 -31 17 -19 17 -20 16 -38 -7 -10 -14 -22 -22 -26
-18 -4 4 -1 14 5 22 22 27 -8 28 -52 2 -24 -15 -55 -26 -70 -26 -20 0 -27 -6
-32 -29 -3 -16 -15 -37 -26 -47 -19 -17 -21 -17 -50 5 -23 17 -39 21 -62 17
-104 -20 -100 -20 -126 15 -23 31 -24 35 -12 95 7 34 10 71 7 82 -10 31 -58
45 -121 37 -82 -10 -82 -10 -39 92 8 17 17 53 21 79 l6 47 -59 -8 c-67 -8 -84
-18 -84 -50 0 -38 -33 -58 -100 -59 -55 -1 -62 1 -85 29 -36 45 -59 126 -50
177 4 24 7 64 6 90 l-1 48 63 40 c62 39 120 52 143 31 5 -5 27 -11 49 -13 36
-3 40 -1 40 22 0 23 4 25 58 28 43 2 59 -1 63 -12 4 -10 15 -13 38 -9 27 4 36
1 50 -18 9 -13 16 -37 16 -53 0 -28 44 -116 58 -116 17 1 33 19 42 48 7 25 3
48 -16 104 -13 39 -24 79 -24 89 0 23 68 89 140 136 65 42 73 55 53 94 -10 23
-10 29 2 39 7 6 21 37 31 68 22 72 27 78 70 86 19 4 32 11 29 15 -6 11 19 21
51 21 15 0 24 6 24 16 0 8 -4 13 -9 9 -15 -8 -23 29 -12 56 5 16 28 34 62 49
30 14 56 28 59 32 8 10 62 29 67 24 3 -2 -5 -9 -16 -16 -22 -11 -29 -54 -10
-66 6 -3 23 2 37 13 15 11 50 28 77 38 28 11 62 31 76 45 25 25 26 28 12 54
-14 26 -15 27 -28 9 -8 -10 -15 -23 -15 -30 0 -16 -17 -26 -31 -18 -6 5 -4 12
8 21 16 12 15 13 -19 14 -24 0 -40 6 -47 18 -10 16 -10 16 -11 -1 0 -10 -4
-15 -10 -12 -5 3 -10 20 -10 37 0 22 -4 29 -15 25 -8 -4 -17 -2 -20 3 -4 6 2
10 12 10 11 0 27 6 37 13 15 11 17 17 7 35 -25 47 -132 14 -190 -58 -18 -22
-36 -38 -41 -35 -5 3 -11 1 -14 -4 -3 -5 1 -11 9 -15 9 -3 28 12 52 41 55 68
155 107 170 67 7 -19 -13 -34 -45 -34 -29 0 -25 -21 6 -35 12 -5 22 -19 22
-29 0 -11 12 -33 27 -48 20 -21 36 -28 65 -28 52 0 48 -15 -8 -30 -26 -7 -59
-24 -74 -37 -19 -15 -31 -20 -35 -13 -8 14 20 47 47 56 19 6 19 6 -1 20 -15
11 -26 12 -40 4 -11 -5 -29 -10 -40 -10 -12 0 -21 -6 -21 -14 0 -8 -11 -17
-25 -20 -75 -19 -117 -72 -100 -127 5 -15 3 -20 -6 -17 -7 2 -35 -3 -63 -12
-46 -15 -52 -21 -64 -58 -8 -24 -18 -39 -24 -36 -7 4 -8 -5 -3 -26 5 -25 4
-31 -6 -28 -8 3 -16 18 -19 34 -6 31 -13 25 -24 -18 -3 -16 -2 -28 3 -28 5 0
7 -9 4 -20 -3 -11 1 -27 8 -36 11 -14 10 -18 -6 -30 -10 -8 -14 -14 -8 -14 19
0 -9 -48 -35 -59 -27 -13 -119 -98 -132 -122 -6 -11 -1 -44 16 -98 25 -83 26
-141 0 -141 -17 0 -43 48 -51 95 -9 48 -51 98 -76 90 -10 -4 -28 0 -41 8 -24
14 -144 17 -166 3 -17 -10 -15 -26 3 -20 9 4 15 0 15 -10 0 -19 -43 -22 -58
-3 -9 11 -29 13 -104 9 -16 -1 -28 -8 -28 -14 0 -7 -20 -25 -44 -41 l-44 -27
-7 -108 c-5 -84 -3 -116 9 -150 34 -96 85 -129 169 -110 62 15 73 24 82 71 7
34 8 35 57 39 27 1 51 0 53 -3 5 -7 -17 -93 -25 -99 -4 -3 -12 -25 -18 -50
-15 -62 -4 -72 67 -59 62 12 106 -1 114 -32 3 -10 -1 -44 -10 -75 -14 -56 -14
-57 13 -95 33 -48 56 -55 112 -35 47 17 76 11 104 -21 11 -11 14 -23 9 -32
-11 -17 -31 -5 -31 19 0 34 -61 42 -83 10 -12 -18 -16 -18 -61 -5 -27 8 -57
26 -68 40 -11 14 -27 24 -36 23 -11 -2 -18 5 -20 22 -6 41 -72 96 -126 104
-48 8 -90 28 -160 78 -41 29 -70 35 -82 17 -12 -19 -71 -2 -187 55 -148 72
-149 73 -152 128 -1 38 -9 55 -51 106 -27 34 -57 64 -66 67 -10 4 -18 13 -18
21 0 19 -51 84 -66 84 -7 0 -24 26 -39 58 -34 71 -52 92 -82 92 -19 0 -23 -5
-23 -32 0 -22 15 -52 55 -104 30 -41 63 -90 72 -111 10 -21 24 -46 32 -55 18
-22 8 -23 -24 -2 -14 9 -25 26 -25 38 0 28 -8 38 -52 65 -39 23 -46 35 -27 47
7 4 -2 20 -24 43 -19 20 -46 67 -61 106 -31 78 -57 109 -101 119 -41 9 -87 75
-89 127 0 21 -6 39 -12 39 -28 0 -71 94 -59 130 4 11 1 36 -5 54 -13 40 2 185
20 196 8 5 6 11 -4 19 -15 13 -33 78 -23 87 2 3 16 0 30 -7 17 -8 23 -17 20
-27 -4 -10 -2 -13 5 -8 7 4 12 20 12 36 0 34 -30 101 -41 94 -4 -2 -38 16 -76
41 -48 32 -71 56 -81 80 -8 19 -18 35 -22 35 -4 0 -19 18 -34 40 -19 29 -24
47 -20 70 5 23 3 30 -9 30 -16 0 -47 41 -47 64 0 14 -37 33 -46 23 -3 -3 2
-19 10 -36 9 -16 16 -33 16 -38 0 -13 -18 11 -43 59 -23 44 -22 68 3 53 15 -9
12 18 -3 40 -10 12 -16 14 -21 7z m267 -436 c31 -12 109 -96 90 -96 -4 0 -25
16 -46 35 -21 19 -51 42 -68 50 -50 26 -32 35 24 11z m126 -83 c7 -14 9 -28 6
-31 -3 -3 -6 -3 -8 -1 -1 2 -12 18 -24 35 -20 29 -20 31 -4 27 10 -3 24 -16
30 -30z m2131 -155 c0 -5 -9 -3 -20 4 -11 7 -20 16 -20 20 0 5 9 3 20 -4 11
-7 20 -16 20 -20z m90 2 c-18 -11 -24 -6 -16 16 5 14 9 15 19 5 9 -9 9 -14 -3
-21z m-1755 -980 c3 -5 1 -10 -4 -10 -6 0 -11 5 -11 10 0 6 2 10 4 10 3 0 8
-4 11 -10z m1359 -442 c-4 -6 -8 -30 -8 -52 -1 -32 3 -41 18 -44 16 -3 18 1
13 30 -5 27 -2 36 18 51 14 10 25 13 25 7 0 -5 9 -10 20 -10 10 0 23 -7 28
-16 7 -12 29 -15 105 -16 70 -1 97 -5 101 -15 3 -7 14 -13 25 -13 11 0 21 -9
24 -21 4 -14 11 -20 20 -16 19 7 77 -29 77 -48 0 -8 6 -15 14 -15 7 0 19 -6
25 -14 7 -8 41 -18 79 -22 96 -10 162 -57 162 -115 0 -10 7 -19 15 -19 22 0
18 -13 -10 -40 -28 -26 -32 -54 -11 -75 12 -12 15 -11 20 10 8 32 56 36 56 5
0 -21 15 -27 25 -10 18 29 111 -7 121 -47 5 -18 10 -21 24 -13 11 6 30 6 51 0
19 -6 46 -10 60 -10 15 0 47 -16 74 -37 27 -20 64 -39 84 -42 29 -5 36 -11 44
-40 12 -47 -5 -83 -80 -167 l-63 -71 0 -77 c0 -42 -4 -84 -9 -94 -16 -31 -51
-127 -51 -139 0 -16 -44 -38 -91 -47 -52 -9 -119 -43 -156 -79 -27 -25 -33
-39 -33 -71 0 -23 -9 -57 -19 -76 -11 -19 -28 -51 -38 -71 -10 -20 -46 -66
-80 -103 -59 -64 -62 -66 -110 -67 -27 -1 -59 4 -71 10 -11 6 -23 11 -26 11
-12 0 -5 -25 12 -44 33 -38 47 -84 32 -111 -15 -28 -85 -55 -141 -55 -30 0
-37 -3 -33 -15 10 -25 -15 -82 -39 -89 -12 -3 -26 -1 -31 4 -6 6 -16 10 -23
10 -15 0 -18 -61 -4 -76 6 -5 5 -20 -4 -39 -7 -16 -16 -42 -19 -56 -4 -17 -20
-35 -41 -48 -45 -26 -47 -59 -5 -94 39 -33 38 -49 -5 -81 -19 -15 -35 -34 -35
-43 0 -8 -12 -29 -26 -46 -26 -31 -28 -56 -9 -101 7 -16 5 -18 -9 -13 -20 8
-65 -37 -66 -65 0 -10 -4 -18 -10 -18 -13 0 -13 6 0 31 13 23 2 24 -27 4 -21
-14 -23 -14 -35 5 -7 11 -18 20 -25 20 -7 0 -13 7 -13 16 0 8 -5 12 -10 9 -6
-3 -10 -1 -10 4 0 6 5 11 10 11 6 0 10 12 10 26 0 17 -4 24 -13 21 -9 -3 -11
6 -9 34 3 24 0 39 -7 39 -6 0 -11 19 -11 48 0 33 3 43 10 32 12 -20 18 -12 26
38 5 35 4 42 -10 42 -11 0 -14 4 -10 12 5 7 9 31 11 53 5 50 10 65 23 65 8 0
8 -6 0 -20 -7 -13 -7 -26 -1 -37 7 -13 14 0 31 58 11 40 23 79 24 84 7 20 -13
55 -28 49 -13 -5 -14 8 -11 89 2 53 8 104 14 114 28 50 60 185 65 269 3 50 10
111 15 135 17 69 29 228 22 294 l-6 60 -91 65 c-77 55 -96 73 -119 120 -61
126 -129 240 -145 245 -11 3 -20 19 -23 38 -4 25 0 36 19 52 30 26 35 49 9 50
-28 0 -31 37 -5 60 11 10 20 24 20 31 0 7 11 21 25 32 14 11 25 25 25 31 0 6
6 11 14 11 20 0 30 35 27 94 -3 54 22 122 51 144 10 7 18 24 18 38 0 20 5 24
33 24 17 0 43 9 57 20 28 22 45 26 34 8z m356 -52 c0 -11 -19 -15 -25 -6 -3 5
1 10 9 10 9 0 16 -2 16 -4z m-420 -2015 c0 -6 -4 -13 -10 -16 -5 -3 -10 1 -10
9 0 9 5 16 10 16 6 0 10 -4 10 -9z m350 -11 c0 -5 -2 -10 -4 -10 -3 0 -8 5
-11 10 -3 6 -1 10 4 10 6 0 11 -4 11 -10z m-380 -470 c0 -5 -7 -10 -16 -10 -8
0 -12 5 -9 10 3 6 10 10 16 10 5 0 9 -4 9 -10z m210 -100 c14 -34 64 -80 86
-80 22 0 16 -18 -8 -25 -13 -3 -40 -11 -60 -17 -32 -9 -41 -9 -56 5 -10 10
-21 14 -25 11 -3 -3 -26 10 -50 30 -24 20 -49 36 -56 36 -6 0 -11 7 -11 16 0
14 6 13 38 -6 20 -13 49 -26 65 -31 23 -6 27 -5 27 12 0 10 5 19 10 19 6 0 10
7 10 15 0 8 -7 15 -15 15 -33 0 -14 21 26 29 4 0 12 -13 19 -29z"/>
<path d="M3562 4838 c-19 -19 -14 -48 8 -48 15 0 20 7 20 24 0 30 -12 40 -28
24z"/>
<path d="M10264 4728 c-34 -74 -118 -178 -142 -178 -9 0 -23 -4 -31 -9 -11 -7
-10 -11 7 -20 26 -14 60 -2 95 33 15 14 30 26 36 26 21 0 70 97 77 153 4 34 3
57 -3 57 -5 0 -23 -28 -39 -62z m30 0 c-11 -59 -47 -120 -86 -145 -21 -13 -38
-28 -38 -33 0 -6 -4 -10 -10 -10 -5 0 13 28 40 62 28 34 60 84 72 110 12 27
23 48 25 48 1 0 0 -15 -3 -32z"/>
<path d="M6102 4744 c-16 -11 -21 -22 -16 -36 4 -14 2 -18 -5 -14 -17 11 -48
-11 -46 -33 1 -10 7 -26 14 -35 11 -13 10 -20 -4 -42 -13 -21 -15 -32 -6 -50
l10 -23 58 20 c32 11 62 24 67 29 5 5 10 31 11 57 0 26 5 56 9 66 8 18 -16 67
-33 67 -5 0 -15 2 -23 5 -7 3 -23 -2 -36 -11z m72 -26 c10 -13 12 -26 6 -33
-5 -6 -10 -35 -12 -64 l-3 -54 -53 -20 c-65 -25 -78 -14 -51 41 15 27 16 38 7
44 -22 13 -15 43 12 48 16 3 25 12 26 25 2 33 3 35 28 35 14 0 32 -10 40 -22z"/>
<path d="M11283 4735 c-3 -9 -3 -19 1 -22 7 -7 36 16 36 28 0 15 -30 10 -37
-6z"/>
<path d="M12305 4730 c10 -11 23 -20 28 -20 6 0 2 9 -8 20 -10 11 -23 20 -28
20 -6 0 -2 -9 8 -20z"/>
<path d="M1655 4677 c-7 -26 25 -88 60 -117 17 -14 18 -13 10 10 -4 14 -10 46
-12 73 -3 26 -9 47 -13 47 -5 0 -15 3 -24 6 -10 4 -17 -2 -21 -19z m43 -43 c2
-39 2 -39 -13 -14 -18 31 -19 63 -2 58 6 -3 13 -22 15 -44z"/>
<path d="M436 4665 c-3 -8 -11 -12 -19 -9 -8 3 -21 -6 -31 -21 -22 -34 -16
-40 15 -17 13 9 36 24 52 31 15 8 27 18 27 23 0 14 -38 9 -44 -7z"/>
<path d="M12548 4603 c7 -3 16 -2 19 1 4 3 -2 6 -13 5 -11 0 -14 -3 -6 -6z"/>
<path d="M180 4569 c0 -5 5 -7 10 -4 6 3 10 8 10 11 0 2 -4 4 -10 4 -5 0 -10
-5 -10 -11z"/>
<path d="M50 4549 c0 -5 5 -7 10 -4 6 3 10 8 10 11 0 2 -4 4 -10 4 -5 0 -10
-5 -10 -11z"/>
<path d="M95 4550 c-3 -5 1 -10 9 -10 8 0 18 5 21 10 3 6 -1 10 -9 10 -8 0
-18 -4 -21 -10z"/>
<path d="M11933 4479 c-7 -7 -13 -22 -13 -33 0 -19 1 -19 16 -4 9 8 14 23 12
32 -2 14 -5 15 -15 5z"/>
<path d="M3224 4446 c-17 -17 -52 -46 -77 -64 -26 -18 -47 -36 -47 -41 0 -5
16 -12 35 -15 27 -5 42 -2 65 14 17 12 30 17 30 13 0 -14 83 -33 96 -22 11 9
69 7 79 -3 3 -3 -19 -9 -50 -13 -54 -6 -56 -8 -77 -52 -16 -33 -18 -47 -9 -52
8 -5 10 -21 5 -47 -6 -41 16 -114 34 -114 5 0 19 11 32 25 23 24 23 28 12 81
-12 58 -8 84 13 84 7 0 16 11 19 25 7 28 17 30 48 14 17 -9 19 -17 13 -55 -6
-43 6 -61 19 -28 5 13 9 14 21 4 8 -7 15 -19 15 -27 0 -13 3 -13 16 -3 8 8 14
25 14 39 -5 64 -2 73 21 60 17 -9 23 -8 30 2 14 22 11 37 -13 59 -17 16 -35
20 -88 20 l-66 0 -22 45 c-12 25 -28 45 -36 45 -8 0 -19 7 -24 16 -5 9 -24 18
-43 19 -27 2 -41 -4 -65 -29z m100 -3 c3 -7 12 -13 20 -13 9 0 25 -19 37 -42
12 -24 16 -38 9 -31 -9 8 -21 8 -47 -4 -46 -19 -87 -10 -78 17 8 26 -2 25 -45
-2 -40 -24 -106 -33 -88 -11 5 7 27 23 47 35 20 12 46 31 58 43 25 24 79 29
87 8z m216 -113 c0 -5 6 -10 14 -10 17 0 29 -27 16 -35 -5 -3 -18 -1 -29 5
-29 15 -29 15 -27 -45 2 -53 -6 -71 -18 -40 -3 8 -12 15 -20 15 -9 0 -12 7 -9
20 3 12 -4 28 -22 45 -23 20 -24 25 -10 25 11 0 15 5 11 15 -4 12 4 15 44 15
28 0 50 -4 50 -10z m-160 -29 c0 -5 -12 -23 -26 -40 -28 -34 -35 -91 -14 -116
10 -12 10 -21 0 -45 -16 -37 -38 -39 -46 -2 -3 15 -7 32 -9 39 -2 6 3 36 11
67 8 31 12 60 10 65 -3 5 9 16 27 25 37 18 47 20 47 7z"/>
<path d="M4100 4440 c0 -13 60 -50 81 -50 l22 0 -22 24 c-21 22 -81 41 -81 26z
m60 -25 c11 -13 10 -14 -4 -9 -9 3 -16 10 -16 15 0 13 6 11 20 -6z"/>
<path d="M8169 4280 c-20 -11 -39 -26 -42 -35 -4 -8 -15 -15 -26 -15 -13 0
-27 -12 -37 -32 -14 -26 -14 -37 -4 -72 20 -67 26 -79 64 -129 34 -45 36 -49
21 -70 -16 -22 -20 -74 -7 -93 27 -39 120 -66 166 -48 33 13 13 154 -21 154
-8 0 -13 6 -10 13 2 6 16 11 30 9 35 -4 42 12 20 48 -20 34 -37 38 -52 13 -9
-15 -10 -13 -11 12 0 20 -12 41 -35 65 -40 39 -44 50 -14 43 18 -5 20 -3 14
16 -6 20 -3 21 44 21 48 0 51 2 51 25 0 33 -47 82 -85 89 -19 3 -43 -2 -66
-14z m108 -22 c11 -13 24 -34 28 -47 7 -22 5 -23 -28 -17 -40 8 -67 0 -67 -20
0 -8 -9 -14 -20 -14 -25 0 -26 -14 -2 -38 40 -43 58 -69 55 -79 -3 -7 1 -22 8
-34 11 -22 12 -22 25 -4 11 15 16 16 29 5 22 -18 18 -28 -12 -32 -20 -2 -29
-9 -31 -25 -2 -14 2 -23 10 -23 17 0 38 -55 38 -97 0 -29 -3 -31 -42 -35 -31
-4 -53 1 -80 16 -49 28 -59 66 -28 109 23 30 23 31 4 46 -28 23 -66 88 -86
146 -14 43 -15 53 -2 77 8 16 20 25 28 22 7 -3 22 5 32 19 41 51 106 63 141
25z"/>
<path d="M3734 4275 c-10 -8 -38 -24 -60 -34 -25 -11 -48 -31 -56 -47 -7 -16
-22 -30 -33 -33 -11 -2 -33 -13 -50 -25 -16 -11 -38 -25 -49 -31 -31 -16 -29
-32 3 -38 39 -8 54 -2 119 46 39 29 52 46 50 61 -3 17 2 21 30 22 40 1 69 26
74 65 5 33 0 35 -28 14z m-5 -51 c-7 -9 -21 -13 -34 -10 -12 3 -32 -2 -46 -11
-24 -17 -24 -17 -6 4 10 12 34 24 53 27 19 4 34 12 35 19 0 9 2 8 6 -1 3 -7
-1 -20 -8 -28z m-89 -63 c0 -4 -19 -21 -42 -37 -24 -16 -44 -32 -46 -36 -5
-12 -62 -10 -62 2 0 6 5 10 12 10 6 0 21 9 33 20 12 11 31 22 43 25 12 2 30 8
39 14 22 13 23 13 23 2z"/>
<path d="M11795 4280 c-3 -5 -1 -10 4 -10 6 0 11 5 11 10 0 6 -2 10 -4 10 -3
0 -8 -4 -11 -10z"/>
<path d="M8543 4259 c-18 -5 -33 -14 -33 -19 0 -6 -7 -10 -15 -10 -19 0 -35
-31 -35 -69 0 -47 9 -61 42 -61 40 0 64 14 81 49 12 25 13 33 2 48 -9 13 -10
24 -4 34 11 17 12 39 2 38 -5 0 -23 -5 -40 -10z m22 -29 c-4 -12 -2 -27 4 -34
16 -20 -14 -74 -46 -82 -40 -10 -65 33 -47 80 3 9 11 16 16 16 5 0 21 9 35 20
33 26 46 25 38 0z"/>
<path d="M9022 4252 c-25 -17 -29 -54 -7 -72 13 -11 16 -8 21 18 7 36 23 43
107 47 95 4 87 21 -11 21 -61 1 -95 -4 -110 -14z m16 -23 c-13 -18 -24 -25
-27 -18 -2 7 6 21 19 31 32 26 34 22 8 -13z"/>
<path d="M11724 4225 c-10 -8 -14 -14 -9 -14 6 0 19 6 29 14 11 8 15 15 10 15
-6 0 -19 -7 -30 -15z"/>
<path d="M11434 4199 c-3 -6 -7 -29 -8 -51 -2 -23 -9 -44 -17 -48 -39 -23 -47
-35 -42 -68 5 -28 8 -32 27 -26 20 6 20 5 5 -12 -9 -11 -22 -40 -29 -66 -7
-26 -28 -65 -46 -85 -28 -32 -35 -36 -44 -23 -9 13 -12 12 -26 -5 -8 -11 -17
-29 -20 -41 -4 -15 -14 -21 -38 -22 -49 -2 -82 -17 -137 -64 -44 -39 -64 -78
-39 -78 6 0 10 -16 10 -35 0 -58 51 -38 65 25 6 25 9 29 21 19 11 -9 15 -8 20
5 3 9 14 16 25 16 10 0 22 7 27 16 8 14 12 14 30 3 17 -10 23 -10 36 0 9 8 16
19 16 25 0 7 15 11 36 10 23 -1 37 3 41 13 5 12 7 12 15 1 14 -22 44 25 52 83
4 28 14 59 23 67 12 12 14 29 10 74 -3 32 -11 65 -17 73 -7 8 -9 15 -5 15 4 0
2 7 -5 15 -11 13 -8 15 17 15 16 0 34 -5 41 -12 9 -9 18 -6 39 14 16 14 42 29
58 33 21 6 25 9 13 12 -22 5 -23 19 -3 27 24 9 17 25 -7 19 -44 -10 -63 -4
-94 31 -34 39 -39 42 -50 25z m46 -39 c12 -16 32 -33 45 -36 24 -6 43 -34 23
-34 -7 0 -22 -10 -35 -22 -19 -18 -26 -20 -45 -10 -16 9 -33 9 -55 3 -20 -6
-33 -6 -33 0 0 5 11 11 24 15 19 4 26 15 33 47 4 23 7 48 6 55 -2 21 15 13 37
-18z m-85 -130 c3 -5 1 -10 -4 -10 -6 0 -11 5 -11 10 0 6 2 10 4 10 3 0 8 -4
11 -10z m39 -85 c8 -40 1 -72 -20 -93 -8 -7 -14 -29 -14 -47 0 -43 -19 -94
-28 -77 -6 8 -17 6 -40 -8 -25 -15 -38 -18 -52 -10 -26 14 -28 13 -32 -17 -4
-35 -28 -43 -28 -9 0 21 -5 26 -26 26 -14 0 -35 -5 -46 -11 -11 -6 -34 -15
-51 -20 l-30 -8 23 24 c27 28 91 49 121 40 15 -5 22 0 29 22 7 19 23 33 49 44
44 19 83 72 101 138 13 50 35 53 44 6z m-224 -255 c0 -5 -12 -10 -27 -10 -22
0 -25 2 -13 10 20 13 40 13 40 0z m-107 -35 c-3 -9 -8 -14 -10 -11 -3 3 -2 9
2 15 9 16 15 13 8 -4z m72 5 c-4 -6 -10 -8 -15 -5 -5 3 -15 -2 -24 -10 -8 -9
-17 -11 -21 -6 -7 12 23 30 48 31 10 0 15 -5 12 -10z m-101 -15 c11 -12 12
-23 5 -47 -5 -18 -9 -34 -9 -34 0 -1 -7 -5 -16 -8 -14 -5 -16 -1 -11 29 4 27
2 38 -9 42 -11 4 -12 9 -3 19 15 18 24 18 43 -1z"/>
<path d="M11645 4180 c-16 -16 -25 -30 -19 -30 10 1 64 46 64 55 0 13 -18 3
-45 -25z"/>
<path d="M5375 3870 c3 -5 11 -10 16 -10 6 0 7 5 4 10 -3 6 -11 10 -16 10 -6
0 -7 -4 -4 -10z"/>
<path d="M5470 3840 c0 -5 5 -10 10 -10 6 0 10 5 10 10 0 6 -4 10 -10 10 -5 0
-10 -4 -10 -10z"/>
<path d="M5895 3451 c-13 -26 -13 -31 -1 -31 7 0 17 12 20 26 10 38 0 41 -19
5z"/>
<path d="M5801 3441 c-8 -5 -10 -14 -6 -21 6 -9 10 -8 17 4 12 21 7 28 -11 17z"/>
<path d="M10995 3430 c-3 -5 -2 -10 4 -10 5 0 13 5 16 10 3 6 2 10 -4 10 -5 0
-13 -4 -16 -10z"/>
<path d="M5830 3420 c0 -5 5 -10 10 -10 6 0 10 5 10 10 0 6 -4 10 -10 10 -5 0
-10 -4 -10 -10z"/>
<path d="M3595 3371 c11 -4 26 -6 33 -4 6 3 12 -2 12 -11 0 -9 5 -16 11 -16 6
0 9 8 7 18 -2 12 -14 18 -43 19 -29 2 -35 0 -20 -6z"/>
<path d="M10946 3365 c-9 -26 -7 -32 5 -12 6 10 9 21 6 23 -2 3 -7 -2 -11 -11z"/>
<path d="M3672 3310 c14 -22 24 -19 15 5 -4 8 -11 15 -17 15 -6 0 -6 -7 2 -20z"/>
<path d="M3604 3307 c-6 -17 12 -57 26 -57 16 0 12 46 -5 60 -12 10 -16 9 -21
-3z"/>
<path d="M10719 3313 c-26 -6 -51 -60 -44 -93 4 -16 10 -32 14 -34 8 -5 57
122 50 128 -2 1 -11 1 -20 -1z m-9 -58 c-8 -25 -15 -34 -22 -27 -7 7 -4 20 8
41 23 39 29 33 14 -14z"/>
<path d="M3490 3289 c0 -5 5 -7 10 -4 6 3 10 8 10 11 0 2 -4 4 -10 4 -5 0 -10
-5 -10 -11z"/>
<path d="M3700 3290 c0 -5 5 -10 11 -10 5 0 7 5 4 10 -3 6 -8 10 -11 10 -2 0
-4 -4 -4 -10z"/>
<path d="M3710 3252 c0 -5 7 -15 15 -22 8 -7 15 -8 15 -2 0 5 -7 15 -15 22 -8
7 -15 8 -15 2z"/>
<path d="M3406 3219 c-37 -29 -32 -42 10 -24 22 9 41 12 48 6 6 -4 29 -12 51
-15 61 -11 126 -47 120 -65 -4 -14 4 -15 53 -13 61 4 88 17 56 28 -10 4 -26
13 -34 20 -26 22 -204 84 -241 84 -22 0 -47 -8 -63 -21z m184 -25 c52 -20 100
-42 105 -49 6 -6 17 -14 25 -18 8 -3 -5 -6 -29 -6 -34 -1 -42 2 -37 14 3 10
-1 15 -13 15 -10 0 -24 6 -30 14 -6 7 -38 21 -71 30 -33 9 -62 21 -65 26 -11
17 18 11 115 -26z"/>
<path d="M3750 3215 c0 -8 5 -15 10 -15 6 0 10 7 10 15 0 8 -4 15 -10 15 -5 0
-10 -7 -10 -15z"/>
<path d="M684 3184 c-17 -14 -17 -15 -1 -10 10 3 23 6 28 6 5 0 9 5 9 10 0 14
-13 12 -36 -6z"/>
<path d="M3430 3180 c0 -5 9 -10 21 -10 11 0 17 5 14 10 -3 6 -13 10 -21 10
-8 0 -14 -4 -14 -10z"/>
<path d="M3816 3181 c-3 -5 5 -8 19 -8 14 0 22 3 19 8 -3 5 -11 9 -19 9 -8 0
-16 -4 -19 -9z"/>
<path d="M747 3174 c-8 -8 1 -24 14 -24 5 0 9 7 9 15 0 15 -12 20 -23 9z"/>
<path d="M3782 3168 c-16 -16 -15 -28 3 -28 8 0 15 9 15 20 0 23 -2 24 -18 8z"/>
<path d="M808 3133 c7 -3 16 -2 19 1 4 3 -2 6 -13 5 -11 0 -14 -3 -6 -6z"/>
<path d="M824 3105 c-10 -25 14 -47 38 -34 19 10 19 11 2 30 -21 23 -33 24
-40 4z m31 -15 c3 -5 2 -10 -4 -10 -5 0 -13 5 -16 10 -3 6 -2 10 4 10 5 0 13
-4 16 -10z"/>
<path d="M3780 3111 c0 -6 5 -13 10 -16 18 -11 11 -25 -12 -25 -38 0 -52 -15
-26 -27 33 -16 104 -23 116 -11 5 5 28 11 51 12 52 3 60 11 33 36 -32 31 -172
55 -172 31z m135 -32 l30 -19 -42 0 c-23 0 -43 -4 -45 -9 -1 -4 -23 -5 -48 -1
-30 5 -36 8 -17 9 29 1 35 18 15 40 -20 20 70 4 107 -20z"/>
<path d="M3605 3059 c-9 -14 -7 -15 37 -23 46 -8 58 8 16 23 -39 14 -45 14
-53 0z"/>
<path d="M4002 3054 c2 -14 10 -18 28 -16 43 7 42 16 -4 28 -24 6 -27 4 -24
-12z"/>
<path d="M10686 3054 c-3 -9 -6 -29 -6 -45 0 -16 -4 -29 -10 -29 -5 0 -10 -16
-10 -35 0 -26 4 -35 16 -35 13 0 15 -7 11 -29 -7 -32 13 -68 31 -57 7 4 12 16
12 28 0 17 2 18 15 8 9 -7 18 -10 22 -7 3 3 18 0 34 -8 23 -12 27 -21 26 -50
-2 -34 -17 -51 -17 -18 0 9 -3 14 -6 10 -3 -3 -14 3 -25 14 -30 30 -49 24 -49
-16 0 -24 5 -35 15 -35 8 0 12 -6 9 -13 -3 -8 2 -20 11 -27 14 -12 13 -16 -12
-36 -22 -18 -26 -25 -15 -35 9 -10 15 -10 24 -1 19 19 50 15 44 -6 -4 -13 3
-23 25 -36 l31 -18 24 28 c29 36 31 85 4 109 -20 18 -21 18 -45 -5 -14 -13
-31 -20 -39 -17 -19 8 -21 27 -3 27 26 1 59 40 64 78 5 37 3 40 -26 50 -17 6
-31 17 -31 25 0 16 -21 27 -52 27 -19 0 -20 4 -14 43 16 93 17 132 5 120 -8
-8 -19 -9 -34 -3 -17 7 -25 5 -29 -6z m56 -33 c2 -9 -2 -31 -9 -49 -7 -18 -11
-43 -7 -56 3 -13 1 -27 -5 -30 -7 -4 -11 1 -11 12 0 11 -9 22 -20 25 -20 5
-29 37 -10 37 6 0 10 10 10 23 0 44 11 65 30 60 11 -3 21 -12 22 -22z m-27
-171 c3 -5 1 -10 -4 -10 -6 0 -11 5 -11 10 0 6 2 10 4 10 3 0 8 -4 11 -10z
m145 -40 c0 -11 -2 -20 -4 -20 -2 0 -6 9 -9 20 -3 11 -1 20 4 20 5 0 9 -9 9
-20z m-82 -34 c3 -13 -1 -17 -14 -14 -11 2 -20 11 -22 22 -3 13 1 17 14 14 11
-2 20 -11 22 -22z m27 -26 c3 -5 -1 -10 -9 -10 -9 0 -16 -5 -16 -12 0 -6 -3
-9 -6 -5 -9 8 3 37 15 37 5 0 13 -4 16 -10z m85 -66 c14 -35 13 -42 -7 -40
-13 1 -17 -5 -16 -21 2 -13 -3 -23 -10 -23 -42 1 -54 58 -17 89 33 27 39 26
50 -5z m-90 -13 c0 -5 -11 -11 -25 -13 -20 -4 -23 -3 -14 8 13 16 39 19 39 5z"/>
<path d="M4190 2970 c0 -5 7 -7 15 -4 8 4 15 8 15 10 0 2 -7 4 -15 4 -8 0 -15
-4 -15 -10z"/>
<path d="M9690 2840 c0 -16 2 -30 4 -30 2 0 6 14 8 30 3 17 1 30 -4 30 -4 0
-8 -13 -8 -30z"/>
<path d="M3935 2830 c3 -5 11 -10 16 -10 6 0 7 5 4 10 -3 6 -11 10 -16 10 -6
0 -7 -4 -4 -10z"/>
<path d="M8290 2830 c0 -12 8 -12 35 0 18 8 17 9 -7 9 -16 1 -28 -3 -28 -9z"/>
<path d="M10611 2740 c-24 -28 -41 -53 -39 -55 2 -2 23 13 47 33 27 24 42 44
40 55 -3 13 -14 5 -48 -33z"/>
<path d="M10517 2600 c-19 -22 -41 -40 -49 -40 -8 0 -27 -13 -43 -30 -16 -16
-37 -30 -48 -30 -11 0 -21 -9 -24 -21 -5 -16 -12 -20 -32 -16 -31 6 -50 -16
-51 -60 0 -22 6 -36 19 -42 10 -6 22 -26 25 -46 6 -28 11 -35 31 -35 13 0 27
-5 30 -10 4 -6 23 -7 45 -4 31 5 41 3 46 -10 3 -9 14 -16 24 -16 20 0 60 49
60 74 0 23 59 106 76 106 19 0 18 3 -11 46 -31 46 -31 47 2 80 24 24 25 27 9
36 -10 6 -27 21 -39 34 -11 13 -24 24 -28 24 -4 0 -23 -18 -42 -40z m60 7 c4
-8 16 -18 27 -24 18 -10 17 -11 -4 -31 -19 -17 -21 -27 -15 -58 3 -21 14 -44
23 -51 14 -10 15 -12 2 -13 -14 0 -52 -65 -79 -133 -12 -30 -42 -48 -49 -29
-2 7 -23 12 -47 12 -24 0 -47 5 -51 11 -3 6 -17 9 -29 6 -20 -3 -24 1 -30 30
-3 18 -10 33 -15 33 -16 0 -32 41 -25 67 5 22 10 24 39 19 30 -6 34 -4 40 19
4 15 13 25 24 25 10 0 31 14 47 30 16 17 36 30 44 30 9 0 29 16 44 35 30 38
42 42 54 22z"/>
<path d="M9815 2480 c3 -5 8 -10 11 -10 2 0 4 5 4 10 0 6 -5 10 -11 10 -5 0
-7 -4 -4 -10z"/>
<path d="M10942 2450 c-17 -29 -15 -54 9 -81 l20 -24 -6 22 c-4 13 0 32 9 44
11 17 12 25 3 40 -15 24 -19 24 -35 -1z m9 -37 c-8 -15 -10 -15 -11 -2 0 17
10 32 18 25 2 -3 -1 -13 -7 -23z"/>
<path d="M10815 2444 c-15 -11 -33 -14 -68 -9 -58 7 -73 -5 -99 -79 -20 -57
-23 -96 -8 -96 6 0 10 -16 10 -35 0 -28 4 -35 19 -35 17 0 20 8 23 47 l3 46
15 -29 c17 -33 49 -63 68 -64 15 0 16 32 0 48 -6 6 -17 28 -24 48 -11 33 -11
39 4 50 9 8 20 14 25 14 9 0 10 30 1 30 -4 0 -24 -5 -45 -11 -47 -14 -77 -6
-59 16 9 11 33 15 85 15 57 0 75 4 88 18 13 14 14 21 5 30 -15 15 -19 15 -43
-4z m30 -14 c-3 -5 -14 -10 -23 -10 -15 0 -15 2 -2 10 20 13 33 13 25 0z m-99
-89 c-15 -16 -16 -25 -6 -60 6 -22 15 -43 20 -46 6 -3 10 -11 10 -17 0 -6 -13
5 -30 23 -16 19 -30 40 -30 47 0 6 -7 12 -15 12 -11 0 -15 -12 -15 -44 0 -25
-4 -48 -10 -51 -6 -4 -10 8 -10 27 0 19 -5 39 -10 44 -7 7 -7 21 1 42 8 24 16
31 29 27 9 -3 28 -1 41 4 37 15 44 13 25 -8z"/>
<path d="M9850 2436 c0 -2 7 -9 15 -16 12 -10 15 -10 15 4 0 9 -7 16 -15 16
-8 0 -15 -2 -15 -4z"/>
<path d="M3120 2371 c0 -12 6 -21 15 -21 8 0 15 4 15 9 0 5 -7 14 -15 21 -13
10 -15 9 -15 -9z"/>
<path d="M11048 2383 c7 -3 16 -2 19 1 4 3 -2 6 -13 5 -11 0 -14 -3 -6 -6z"/>
<path d="M11075 2370 c-18 -20 -18 -21 3 -40 12 -11 29 -20 39 -21 15 0 15 -2
-3 -11 -22 -10 -22 -10 -2 -30 11 -11 26 -17 33 -14 21 8 162 -60 175 -83 8
-17 7 -24 -10 -41 -28 -28 -16 -43 29 -35 30 5 41 2 56 -14 12 -14 30 -21 54
-21 40 0 51 6 67 35 18 30 54 20 94 -25 32 -36 84 -59 138 -60 21 0 13 20 -13
32 -14 6 -25 15 -25 20 0 5 -16 26 -34 46 -25 26 -32 39 -23 45 9 6 7 11 -7
20 -11 7 -36 28 -57 49 -20 20 -49 43 -65 51 -37 19 -190 67 -213 67 -10 0
-35 -13 -55 -30 -31 -24 -41 -27 -56 -18 -10 7 -21 27 -25 45 -10 52 -66 71
-100 33z m66 0 c10 -6 19 -20 19 -30 0 -25 -44 -27 -68 -4 -15 15 -14 18 3 30
23 17 21 17 46 4z m286 -76 c81 -23 99 -33 143 -76 27 -26 54 -48 59 -48 6 0
8 -7 5 -15 -4 -8 6 -30 22 -49 16 -18 37 -43 47 -56 l18 -22 -33 7 c-20 4 -46
21 -68 46 -52 58 -112 61 -133 7 -9 -24 -48 -23 -79 1 -13 11 -42 21 -64 23
-34 3 -36 5 -17 13 20 9 20 12 8 43 -12 26 -29 39 -92 68 -43 19 -85 33 -95
31 -9 -3 -19 1 -22 8 -8 21 43 29 63 10 24 -20 30 -19 75 15 22 17 47 28 55
26 9 -3 58 -17 108 -32z"/>
<path d="M11220 2355 c7 -8 16 -12 21 -9 13 8 1 24 -18 24 -13 0 -13 -3 -3
-15z"/>
<path d="M9914 2344 c3 -9 6 -18 6 -20 0 -3 4 -3 10 1 11 7 2 35 -12 35 -6 0
-7 -7 -4 -16z"/>
<path d="M10930 2336 c0 -9 7 -16 16 -16 17 0 14 22 -4 28 -7 2 -12 -3 -12
-12z"/>
<path d="M10820 2330 c0 -5 9 -10 20 -10 11 0 20 5 20 10 0 6 -9 10 -20 10
-11 0 -20 -4 -20 -10z"/>
<path d="M11620 2310 c0 -5 5 -10 10 -10 6 0 10 5 10 10 0 6 -4 10 -10 10 -5
0 -10 -4 -10 -10z"/>
<path d="M10220 2290 c0 -11 6 -20 14 -20 21 0 31 21 15 31 -22 14 -29 11 -29
-11z"/>
<path d="M11770 2302 c0 -6 9 -16 20 -22 24 -13 26 -30 5 -30 -8 0 -14 -3 -13
-7 0 -5 -2 -16 -6 -25 -6 -14 -20 -18 -59 -18 -49 0 -50 0 -32 -20 27 -30 71
-25 121 13 50 37 52 46 22 73 -43 38 -58 47 -58 36z m29 -98 c-17 -19 -32 -24
-63 -22 l-41 1 41 4 c31 3 44 10 54 28 7 13 17 22 22 19 5 -4 -1 -17 -13 -30z"/>
<path d="M10968 2293 c-31 -8 -19 -22 30 -36 45 -14 47 -13 50 6 6 31 -28 44
-80 30z m72 -23 c0 -6 -11 -8 -27 -4 -40 10 -41 14 -5 14 18 0 32 -5 32 -10z"/>
<path d="M10880 2272 c0 -4 9 -13 20 -19 20 -13 37 -2 25 17 -7 12 -45 14 -45
2z"/>
<path d="M11174 2176 c-8 -35 1 -44 16 -16 8 15 9 25 1 33 -7 7 -12 2 -17 -17z"/>
<path d="M11912 2175 c7 -15 19 -25 33 -25 11 0 26 -5 33 -12 6 -6 14 -9 17
-6 5 5 -79 68 -90 68 -3 0 1 -11 7 -25z"/>
<path d="M11070 2125 c-7 -9 -11 -18 -8 -20 3 -3 11 1 18 10 7 9 11 18 8 20
-3 3 -11 -1 -18 -10z"/>
<path d="M10891 2121 c-7 -5 -10 -14 -7 -20 4 -6 1 -11 -8 -11 -8 0 -18 5 -21
10 -11 18 -38 11 -32 -9 2 -11 -3 -25 -14 -35 -11 -9 -19 -20 -19 -26 0 -21
42 -9 97 28 46 30 53 38 35 40 -13 2 -19 8 -15 18 6 16 3 17 -16 5z m-23 -37
c22 -6 22 -7 -12 -30 -38 -26 -46 -29 -46 -16 0 5 12 15 26 22 23 13 24 15 7
21 -23 9 -6 11 25 3z"/>
<path d="M12030 2125 c0 -2 15 -12 33 -20 l32 -16 -24 21 c-22 19 -41 26 -41
15z"/>
<path d="M10558 2103 c-27 -4 -48 -32 -25 -34 52 -5 217 6 246 16 34 12 30 13
-59 12 -52 -1 -104 1 -115 4 -11 3 -32 4 -47 2z m9 -19 c-3 -3 -12 -4 -19 -1
-8 3 -5 6 6 6 11 1 17 -2 13 -5z"/>
<path d="M11990 2106 c0 -2 8 -10 18 -17 15 -13 16 -12 3 4 -13 16 -21 21 -21
13z"/>
<path d="M12110 2097 c0 -5 5 -17 10 -28 12 -22 11 -23 -25 -9 -20 8 -26 7
-23 -2 5 -13 78 -21 78 -9 -1 10 -40 57 -40 48z"/>
<path d="M10640 2050 c0 -14 39 -32 52 -24 7 5 5 11 -7 21 -22 15 -45 17 -45
3z"/>
<path d="M12150 2015 c33 -19 50 -18 26 0 -11 8 -27 15 -35 15 -10 -1 -7 -6 9
-15z"/>
<path d="M11451 1981 c-16 -22 -21 -44 -21 -90 0 -66 -21 -131 -42 -131 -7 0
-33 14 -58 30 -25 16 -49 30 -54 30 -5 0 -17 7 -26 15 -19 17 -15 75 5 75 7 0
15 9 18 21 6 23 -12 34 -43 26 -11 -3 -42 3 -70 14 -50 19 -50 19 -50 -1 0
-16 -7 -20 -35 -20 -27 0 -38 -5 -45 -22 -5 -13 -18 -34 -29 -48 l-20 -25 -24
24 c-18 16 -32 21 -46 16 -30 -9 -116 -97 -113 -115 2 -11 -2 -10 -12 4 -13
16 -18 17 -31 6 -9 -8 -14 -21 -12 -31 9 -32 -51 -75 -138 -99 -44 -12 -91
-32 -105 -45 -14 -12 -30 -21 -36 -18 -16 5 -33 -79 -30 -142 1 -30 19 -94 46
-163 41 -105 43 -116 31 -148 -11 -31 -11 -38 6 -57 10 -12 23 -25 28 -29 20
-15 64 -7 92 16 20 17 46 25 95 30 48 5 72 13 80 25 23 32 79 52 172 63 81 10
98 9 139 -7 26 -10 47 -23 47 -30 0 -7 7 -15 15 -18 8 -4 18 -21 23 -38 4 -18
12 -34 17 -36 6 -1 23 16 39 38 32 46 45 46 22 0 -21 -39 -20 -51 2 -50 10 0
12 3 5 6 -10 3 -9 11 2 33 17 33 20 70 5 70 -6 0 -23 -18 -38 -40 -29 -42 -42
-50 -42 -24 0 36 -36 77 -88 101 -51 22 -57 23 -145 12 -93 -12 -162 -38 -184
-69 -9 -13 -30 -19 -77 -22 -50 -3 -71 -9 -89 -26 -34 -32 -91 -30 -113 4 -13
19 -14 28 -5 37 20 20 12 71 -25 163 -20 49 -36 103 -36 120 1 17 -3 47 -8 65
-6 22 -6 37 0 43 6 6 10 20 10 33 0 13 4 23 9 23 5 0 22 11 38 24 17 14 63 33
107 45 88 22 146 66 146 109 0 20 2 22 15 12 16 -13 35 -6 35 15 0 7 7 15 15
19 8 3 20 16 26 28 6 13 26 31 45 40 33 17 34 17 49 -6 21 -31 80 -35 72 -5
-3 13 0 22 10 26 8 3 19 16 24 29 6 18 16 24 38 24 16 0 31 6 34 15 5 13 10
13 41 0 20 -8 50 -15 68 -15 30 -1 31 -2 15 -14 -10 -8 -20 -29 -24 -48 -4
-30 -1 -38 22 -56 15 -12 32 -22 37 -22 5 0 26 -11 46 -25 20 -14 49 -25 64
-25 24 0 28 6 42 54 9 30 16 76 16 103 0 44 13 84 23 73 3 -3 11 -27 19 -55
10 -35 19 -51 33 -53 30 -6 45 -22 45 -49 0 -14 8 -48 18 -75 13 -37 27 -55
57 -75 25 -16 46 -40 57 -65 12 -28 22 -38 35 -36 12 2 19 -4 21 -20 2 -13 10
-26 17 -29 8 -2 29 -27 46 -55 30 -46 33 -58 33 -132 0 -80 0 -82 -62 -199
-34 -65 -62 -131 -62 -147 0 -22 -6 -30 -31 -39 -17 -6 -44 -22 -61 -36 l-31
-26 -26 25 -27 26 -21 -21 c-20 -20 -22 -21 -44 -5 -13 9 -33 16 -44 16 -26 0
-60 36 -69 72 -3 15 -15 30 -26 33 -13 4 -20 15 -20 30 0 13 -4 26 -9 29 -12
8 -22 -20 -15 -39 4 -10 0 -15 -14 -15 -12 0 -24 -5 -27 -10 -10 -15 21 -23
43 -11 28 15 51 4 58 -28 9 -37 53 -81 82 -81 13 0 32 -5 43 -11 16 -8 25 -7
39 6 17 16 20 15 49 -6 l30 -22 36 27 c19 15 48 32 65 37 23 9 31 18 35 47 3
21 31 87 63 147 l57 110 0 90 c0 86 -2 93 -34 143 -18 28 -37 52 -42 52 -5 0
-9 8 -9 18 0 23 -19 42 -41 42 -11 0 -22 13 -28 33 -7 20 -26 42 -53 59 -44
28 -62 61 -76 142 -7 37 -17 49 -53 59 -9 3 -21 28 -29 61 -7 32 -17 59 -21
62 -4 2 -17 -9 -28 -25z"/>
<path d="M11036 1982 c-3 -3 -6 -9 -6 -14 0 -11 37 -10 44 1 6 10 -30 22 -38
13z"/>
<path d="M8137 1964 c-4 -4 -7 -15 -7 -24 0 -9 -11 -22 -25 -28 -14 -6 -25
-20 -25 -29 0 -11 -17 -25 -43 -37 -23 -11 -52 -30 -65 -43 -21 -21 -22 -29
-16 -81 5 -47 3 -63 -14 -92 -18 -31 -20 -41 -10 -85 13 -62 41 -95 82 -95 17
0 36 4 42 8 19 11 104 284 104 331 0 8 7 22 16 32 13 14 15 29 10 63 -7 46
-36 93 -49 80z m27 -41 c16 -56 18 -93 4 -93 -10 0 -18 -20 -26 -62 -6 -34
-28 -115 -48 -180 -29 -92 -41 -118 -55 -118 -9 0 -24 -2 -31 -5 -25 -10 -56
31 -63 84 -6 42 -3 57 15 86 19 31 20 41 11 82 -13 62 2 87 75 119 39 17 54
29 54 43 0 11 9 23 20 26 11 3 20 13 20 21 0 20 18 18 24 -3z"/>
<path d="M230 1901 c0 -9 52 -22 59 -15 6 6 -1 11 -31 18 -16 3 -28 2 -28 -3z"/>
<path d="M12330 1846 c0 -14 5 -26 10 -26 6 0 10 -7 10 -15 0 -8 7 -15 15 -15
8 0 15 2 15 5 0 8 -24 48 -37 63 -11 11 -13 9 -13 -12z"/>
<path d="M12763 1803 c-20 -8 -15 -23 7 -23 11 0 20 7 20 15 0 15 -6 17 -27 8z"/>
<path d="M12717 1764 c-16 -16 -6 -35 16 -32 12 2 22 10 22 18 0 16 -26 25
-38 14z"/>
<path d="M1055 1750 c3 -5 11 -10 16 -10 6 0 7 5 4 10 -3 6 -11 10 -16 10 -6
0 -7 -4 -4 -10z"/>
<path d="M8425 1661 c-6 -11 9 -23 19 -14 9 9 7 23 -3 23 -6 0 -12 -4 -16 -9z"/>
<path d="M12240 1650 c0 -14 29 -32 41 -24 7 4 9 3 5 -4 -7 -12 51 -58 61 -48
10 10 -57 74 -83 79 -13 2 -24 1 -24 -3z"/>
<path d="M8355 1620 c3 -5 10 -10 16 -10 5 0 9 5 9 10 0 6 -7 10 -16 10 -8 0
-12 -4 -9 -10z"/>
<path d="M12575 1031 c38 -65 44 -108 19 -145 -14 -23 -14 -25 7 -39 16 -12
20 -22 15 -40 -4 -16 -1 -29 9 -37 21 -17 39 0 60 54 9 23 26 46 38 51 22 10
33 44 23 71 -4 11 -11 12 -22 6 -25 -14 -52 -3 -59 25 -4 19 -11 24 -25 20
-16 -4 -21 2 -26 29 -4 24 -15 39 -35 49 -15 8 -30 15 -33 15 -3 0 10 -27 29
-59z m25 1 c0 -15 -2 -15 -10 -2 -13 20 -13 33 0 25 6 -3 10 -14 10 -23z m67
-88 c11 -10 26 -14 45 -10 20 4 28 2 28 -9 0 -15 -26 -45 -39 -45 -5 0 -18
-22 -29 -50 -24 -57 -42 -65 -42 -19 0 19 -7 37 -17 45 -15 10 -16 15 -5 25 6
7 12 28 12 46 0 37 20 44 47 17z"/>
<path d="M11554 803 c3 -10 10 -39 17 -65 14 -61 27 -71 66 -56 27 10 32 18
37 61 8 59 0 72 -38 57 -21 -8 -34 -6 -57 6 -29 15 -30 14 -25 -3z m106 -53
c0 -28 -5 -39 -24 -49 -30 -16 -42 -10 -49 26 -3 16 -8 35 -11 43 -5 12 3 15
39 16 l45 1 0 -37z"/>
<path d="M12524 798 c-3 -13 -14 -31 -24 -40 -10 -9 -20 -21 -21 -25 -2 -4
-26 -26 -53 -47 -44 -36 -106 -117 -106 -138 0 -5 14 -14 30 -20 25 -8 28 -13
19 -24 -7 -8 -9 -18 -5 -22 4 -4 14 2 22 12 7 11 17 17 20 13 15 -14 61 28 84
76 14 29 35 56 48 62 12 5 22 18 22 28 0 10 12 34 26 53 23 30 25 38 16 59 -7
15 -17 22 -26 19 -8 -3 -17 -1 -21 5 -10 18 -23 13 -31 -11z m56 -13 c19 12
10 -31 -15 -65 -13 -18 -22 -36 -20 -40 3 -4 -7 -15 -21 -25 -14 -9 -36 -40
-49 -69 -13 -30 -31 -56 -40 -60 -21 -8 -95 13 -95 27 0 25 64 105 105 132 25
17 48 38 51 48 3 9 12 17 20 17 8 0 14 8 14 18 0 26 11 34 26 21 7 -6 18 -8
24 -4z"/>
<path d="M85 651 c-6 -11 9 -23 19 -14 9 9 7 23 -3 23 -6 0 -12 -4 -16 -9z"/>
<path d="M8844 385 c1 -29 22 -33 52 -10 19 14 19 14 -3 15 -12 0 -25 5 -28
10 -11 18 -23 10 -21 -15z"/>
<path d="M4238 261 c-13 -15 -14 -22 -5 -30 25 -20 62 -21 87 -2 30 24 20 39
-31 47 -26 4 -38 1 -51 -15z m68 -1 c20 0 17 -17 -5 -29 -13 -7 -23 -6 -36 3
-21 15 -11 40 12 32 8 -3 21 -6 29 -6z"/>
</g>
</svg>
