<?xml version="1.0" encoding="UTF-8"?> <svg xmlns="http://www.w3.org/2000/svg" xmlns:xlink="http://www.w3.org/1999/xlink" width="189px" height="180px" viewBox="0 0 189 180" version="1.1"><title>4C140730-93BF-4E51-99E9-FF972A50271D</title><g id="Page-1" stroke="none" stroke-width="1" fill="none" fill-rule="evenodd"><g id="About-Us-Updated" transform="translate(-869.000000, -1453.000000)"><g id="Group-96" transform="translate(869.000000, 1453.000000)"><g id="Group-95"><g id="Group-75"><g id="Web-development-2" transform="translate(15.156985, 9.963766)" fill-rule="nonzero"><g id="Web-development"><rect id="Rectangle" fill="#FFFFFF" x="0.945213745" y="0.821670353" width="90.9654523" height="78.8803538" rx="3"></rect><path d="M34.1409882,22.1850995 L28.5110536,22.1850995 C28.054337,22.1850995 27.684095,21.8172252 27.684095,21.3634292 C27.684095,20.9096332 28.054337,20.5417588 28.5110536,20.5417588 L34.1409882,20.5417588 C34.5977048,20.5417588 34.9679468,20.9096332 34.9679468,21.3634292 C34.9679468,21.8172252 34.5977048,22.1850995 34.1409882,22.1850995 Z" id="Path" stroke="#00B7FF" stroke-width="0.5" fill="#00B7FF"></path><path d="M23.5493017,22.1850995 L9.62910661,22.1850995 C9.17238995,22.1850995 8.80214795,21.8172252 8.80214795,21.3634292 C8.80214795,20.9096332 9.17238995,20.5417588 9.62910661,20.5417588 L23.5493017,20.5417588 C24.0060183,20.5417588 24.3762603,20.9096332 24.3762603,21.3634292 C24.3762603,21.8172252 24.0060183,22.1850995 23.5493017,22.1850995 Z" id="Path" stroke="#00B7FF" stroke-width="0.5" fill="#00B7FF"></path><path d="M34.1409882,50.9435619 L25.6166983,50.9435619 C25.1599817,50.9435619 24.7897397,50.5756875 24.7897397,50.1218915 C24.7897397,49.6680955 25.1599817,49.3002212 25.6166983,49.3002212 L34.1409882,49.3002212 C34.5977048,49.3002212 34.9679468,49.6680955 34.9679468,50.1218915 C34.9679468,50.5756875 34.5977048,50.9435619 34.1409882,50.9435619 Z" id="Path" stroke="#00B7FF" stroke-width="0.5" fill="#00B7FF"></path><path d="M22.3088637,50.9435619 L9.62910661,50.9435619 C9.17238995,50.9435619 8.80214795,50.5756875 8.80214795,50.1218915 C8.80214795,49.6680955 9.17238995,49.3002212 9.62910661,49.3002212 L22.3088637,49.3002212 C22.7655804,49.3002212 23.1358224,49.6680955 23.1358224,50.1218915 C23.1358224,50.5756875 22.7655804,50.9435619 22.3088637,50.9435619 Z" id="Path" stroke="#00B7FF" stroke-width="0.5" fill="#00B7FF"></path><path d="M34.1409882,68.1986393 L21.8854609,68.1986393 C21.4287442,68.1986393 21.0585022,67.8307649 21.0585022,67.3769689 C21.0585022,66.9231729 21.4287442,66.5552986 21.8854609,66.5552986 L34.1409882,66.5552986 C34.5977048,66.5552986 34.9679468,66.9231729 34.9679468,67.3769689 C34.9679468,67.8307649 34.5977048,68.1986393 34.1409882,68.1986393 Z" id="Path" stroke="#00B7FF" stroke-width="0.5" fill="#00B7FF"></path><path d="M15.9693986,68.1986393 L9.62910661,68.1986393 C9.17238995,68.1986393 8.80214795,67.8307649 8.80214795,67.3769689 C8.80214795,66.9231729 9.17238995,66.5552986 9.62910661,66.5552986 L15.9693986,66.5552986 C16.4261153,66.5552986 16.7963573,66.9231729 16.7963573,67.3769689 C16.7963573,67.8307649 16.4261153,68.1986393 15.9693986,68.1986393 Z" id="Path" stroke="#00B7FF" stroke-width="0.5" fill="#00B7FF"></path><path d="M88.6028314,77.2370131 L4.25304837,77.2370131 C2.42618175,77.2370131 0.945213745,75.7655158 0.945213745,73.9503317 L0.945213745,76.4153428 C0.945213745,78.2305268 2.42618175,79.7020242 4.25304837,79.7020242 L88.6028314,79.7020242 C90.429698,79.7020242 91.910666,78.2305268 91.910666,76.4153428 L91.910666,73.9503317 C91.910666,75.7655158 90.429698,77.2370131 88.6028314,77.2370131 Z" id="Path" fill="#FFFFFF"></path><path d="M88.6028314,0.821670353 L4.25304837,0.821670353 C2.42618175,0.821670353 0.945213745,2.29316774 0.945213745,4.10835176 L0.945213745,12.7358905 L91.910666,12.7358905 L91.910666,4.10835176 C91.910666,2.29316774 90.429698,0.821670353 88.6028314,0.821670353 Z" id="Path" fill="#00B6FF"></path><path d="M74.269157,4.99822058 C73.4883453,4.99788843 72.7842469,5.46501834 72.4852887,6.18171762 C72.1863305,6.8984169 72.3514109,7.72348687 72.9035282,8.27207344 C73.4556455,8.82066 74.2860257,8.98468477 75.0073377,8.68763835 C75.7286496,8.39059194 76.198786,7.69099617 76.1984517,6.91517769 C76.1984517,5.85647161 75.334677,4.99822058 74.269157,4.99822058 Z" id="Path" fill="#FFFFFF"></path><path d="M80.0578676,4.99822058 C79.2770559,4.99788843 78.5729575,5.46501834 78.2739993,6.18171762 C77.9750411,6.8984169 78.1401215,7.72348687 78.6922388,8.27207344 C79.2443561,8.82066 80.0747363,8.98468477 80.7960483,8.68763835 C81.5173602,8.39059194 81.9874966,7.69099617 81.9871623,6.91517769 C81.9871623,5.85647161 81.1233876,4.99822058 80.0578676,4.99822058 Z" id="Path" fill="#D4FBFF"></path><path d="M85.8465782,4.99822075 C85.0658417,4.99822075 84.3619971,5.46556154 84.0632995,6.18228717 C83.7646019,6.8990128 83.9298865,7.723948 84.4820689,8.27236415 C85.0342512,8.8207803 85.8645665,8.98465442 86.5857769,8.68755982 C87.3069874,8.39046522 87.7770342,7.69092141 87.7766999,6.91517769 C87.7762431,5.85633871 86.912232,4.99822075 85.8465782,4.99822075 L85.8465782,4.99822075 Z" id="Path" fill="#FC6E50"></path><path d="M99.5302631,68.1780975 L99.5302631,63.9349918 C99.5302631,63.6216976 99.40495,63.3212471 99.1819142,63.0997917 C98.9588784,62.8783363 98.6564071,62.7540335 98.3410966,62.7542515 L95.472377,62.7542515 C95.0480197,60.6831452 94.2253084,58.7128949 93.0493881,56.9516155 L95.0837064,54.9303064 C95.3069625,54.708956 95.432427,54.4084534 95.432427,54.0950785 C95.432427,53.7817036 95.3069625,53.481201 95.0837064,53.2598506 L92.0653073,50.2599321 C91.8422832,50.0382556 91.5397501,49.9137123 91.2242904,49.9137123 C90.9088307,49.9137123 90.6062975,50.0382556 90.3832734,50.2599321 L88.3489551,52.2812412 C86.5752848,51.112904 84.5911765,50.2959894 82.5056652,49.8753904 L82.5056652,47.0192643 C82.5056652,46.3667056 81.9732572,45.8377023 81.3164987,45.8377023 L77.0469111,45.8377023 C76.3901526,45.8377023 75.8577446,46.3667056 75.8577446,47.0192643 L75.8577446,49.8753904 C73.7735703,50.2966059 71.790881,51.1137932 70.0185895,52.2820629 L67.9842712,50.2607538 C67.7612471,50.0390772 67.458714,49.914534 67.1432543,49.914534 C66.8277946,49.914534 66.5252614,50.0390772 66.3022373,50.2607538 L63.2830113,53.2606723 C62.8189651,53.7220408 62.8189651,54.4697596 63.2830113,54.9311281 L65.3173295,56.9524371 C64.1419213,58.7138959 63.3195106,60.6840984 62.8951676,62.7550732 L60.0214863,62.7550732 C59.7061758,62.7548552 59.4037045,62.879158 59.1806687,63.1006134 C58.9576329,63.3220688 58.8323198,63.6225193 58.8323198,63.9358135 L58.8323198,68.1789192 C58.8323198,68.4922134 58.9576329,68.7926639 59.1806687,69.0141193 C59.4037045,69.2355747 59.7061758,69.3598775 60.0214863,69.3596595 L62.8951676,69.3596595 C63.3195106,71.4306342 64.1419213,73.4008368 65.3173295,75.1622955 L63.2830113,77.1836046 C62.8189651,77.6449731 62.8189651,78.3926919 63.2830113,78.8540604 L66.3022373,81.8539789 C66.5252614,82.0756554 66.8277946,82.2001986 67.1432543,82.2001986 C67.458714,82.2001986 67.7612471,82.0756554 67.9842712,81.8539789 L70.0185895,79.8326698 C71.7906945,81.0012873 73.7734543,81.8185037 75.8577446,82.2393422 L75.8577446,85.0946467 C75.8582011,85.7468845 76.3904754,86.275387 77.0469111,86.275387 L81.3164987,86.275387 C81.9732572,86.275387 82.5056652,85.7463837 82.5056652,85.0938251 L82.5056652,82.2385206 C84.5899067,81.8175232 86.5726368,81.000319 88.3448203,79.8318481 L90.3791386,81.8531572 C90.6021627,82.0748337 90.9046959,82.199377 91.2201556,82.199377 C91.5356153,82.199377 91.8381484,82.0748337 92.0611725,81.8531572 L95.0795716,78.8532387 C95.3028277,78.6318883 95.4282922,78.3313857 95.4282922,78.0180108 C95.4282922,77.7046359 95.3028277,77.4041333 95.0795716,77.1827829 L93.0452533,75.1614738 C94.2211736,73.4001944 95.0438849,71.4299441 95.4682422,69.3588378 L98.3410966,69.3588378 C98.6564071,69.3590558 98.9588784,69.234753 99.1819142,69.0132976 C99.40495,68.7918422 99.5302631,68.4913917 99.5302631,68.1780975 L99.5302631,68.1780975 Z M79.1812914,75.7226747 C73.8085844,75.7222209 69.4534723,71.3943461 69.4537768,66.0559969 C69.4540812,60.7176477 73.809687,56.3904147 79.182394,56.3904147 C84.5551011,56.3904147 88.91046,60.7181954 88.91046,66.0565447 C88.91046,68.6203041 87.8853992,71.0790466 86.0608024,72.8918213 C84.2362056,74.7045959 81.7615513,75.7228926 79.1812914,75.7226747 L79.1812914,75.7226747 Z" id="Shape" fill="#FFD700"></path><g id="Group"><path d="M15.4178172,27.936792 L36.2290588,27.936792 C36.6857754,27.936792 37.0560174,27.5689176 37.0560174,27.1151216 C37.0560174,26.6613256 36.6857754,26.2934513 36.2290588,26.2934513 L15.4178172,26.2934513 C14.9611006,26.2934513 14.5908585,26.6613256 14.5908585,27.1151216 C14.5908585,27.5689176 14.9611006,27.936792 15.4178172,27.936792 Z" id="Path" stroke="#3A2C60" stroke-width="0.5" fill="#3A2C60"></path><path d="M29.824264,32.8668141 C29.824264,33.3206101 30.194506,33.6884845 30.6512226,33.6884845 L75.488921,33.6884845 C75.9456377,33.6884845 76.3158797,33.3206101 76.3158797,32.8668141 C76.3158797,32.4130181 75.9456377,32.0451437 75.488921,32.0451437 L30.6512226,32.0451437 C30.194506,32.0451437 29.824264,32.4130181 29.824264,32.8668141 Z" id="Path" stroke="#3A2C60" stroke-width="0.5" fill="#3A2C60"></path><path d="M15.4178172,33.6884845 L25.6166983,33.6884845 C26.073415,33.6884845 26.443657,33.3206101 26.443657,32.8668141 C26.443657,32.4130181 26.073415,32.0451437 25.6166983,32.0451437 L15.4178172,32.0451437 C14.9611006,32.0451437 14.5908585,32.4130181 14.5908585,32.8668141 C14.5908585,33.3206101 14.9611006,33.6884845 15.4178172,33.6884845 Z" id="Path" stroke="#3A2C60" stroke-width="0.5" fill="#3A2C60"></path><path d="M15.4178172,39.4401769 L75.488921,39.4401769 C75.9456377,39.4401769 76.3158797,39.0723026 76.3158797,38.6185066 C76.3158797,38.1647106 75.9456377,37.7968362 75.488921,37.7968362 L15.4178172,37.7968362 C14.9611006,37.7968362 14.5908585,38.1647106 14.5908585,38.6185066 C14.5908585,39.0723026 14.9611006,39.4401769 15.4178172,39.4401769 Z" id="Path" stroke="#3A2C60" stroke-width="0.5" fill="#3A2C60"></path><path d="M68.8732518,43.5485287 L59.0531177,43.5485287 C58.5964011,43.5485287 58.2261591,43.916403 58.2261591,44.370199 C58.2261591,44.823995 58.5964011,45.1918694 59.0531177,45.1918694 L68.8732518,45.1918694 C69.3299684,45.1918694 69.7002104,44.823995 69.7002104,44.370199 C69.7002104,43.916403 69.3299684,43.5485287 68.8732518,43.5485287 Z" id="Path" fill="#3A2C60"></path><path d="M15.4178172,45.1918694 L54.9050931,45.1918694 C55.3618097,45.1918694 55.7320518,44.823995 55.7320518,44.370199 C55.7320518,43.916403 55.3618097,43.5485287 54.9050931,43.5485287 L15.4178172,43.5485287 C14.9611006,43.5485287 14.5908585,43.916403 14.5908585,44.370199 C14.5908585,44.823995 14.9611006,45.1918694 15.4178172,45.1918694 Z" id="Path" stroke="#3A2C60" stroke-width="0.5" fill="#3A2C60"></path><path d="M57.2958306,55.0519136 L48.6334386,55.0519136 C48.176722,55.0519136 47.80648,55.419788 47.80648,55.873584 C47.80648,56.32738 48.176722,56.6952543 48.6334386,56.6952543 L57.2958306,56.6952543 C57.7525472,56.6952543 58.1227892,56.32738 58.1227892,55.873584 C58.1227892,55.419788 57.7525472,55.0519136 57.2958306,55.0519136 Z" id="Path" fill="#3A2C60"></path><path d="M15.4178172,56.6952543 L44.0231441,56.6952543 C44.4798608,56.6952543 44.8501028,56.32738 44.8501028,55.873584 C44.8501028,55.419788 44.4798608,55.0519136 44.0231441,55.0519136 L15.4178172,55.0519136 C14.9611006,55.0519136 14.5908585,55.419788 14.5908585,55.873584 C14.5908585,56.32738 14.9611006,56.6952543 15.4178172,56.6952543 Z" id="Path" stroke="#3A2C60" stroke-width="0.5" fill="#3A2C60"></path><path d="M51.50712,60.8036061 L15.4178172,60.8036061 C14.9611006,60.8036061 14.5908585,61.1714804 14.5908585,61.6252764 C14.5908585,62.0790724 14.9611006,62.4469468 15.4178172,62.4469468 L51.50712,62.4469468 C51.9638366,62.4469468 52.3340786,62.0790724 52.3340786,61.6252764 C52.3340786,61.1714804 51.9638366,60.8036061 51.50712,60.8036061 Z" id="Path" stroke="#3A2C60" stroke-width="0.5" fill="#3A2C60"></path><path d="M54.2848741,13.5575608 L61.5207624,13.5575608 C61.977479,13.5575608 62.347721,13.1896865 62.347721,12.7358905 C62.347721,12.2820945 61.977479,11.9142201 61.5207624,11.9142201 L54.2848741,11.9142201 C53.8281574,11.9142201 53.4579154,12.2820945 53.4579154,12.7358905 C53.4579154,13.1896865 53.8281574,13.5575608 54.2848741,13.5575608 Z" id="Path" fill="#3A2C60"></path><path d="M98.3410966,61.9325812 L96.1339439,61.9325812 C95.7134402,60.2164003 95.0280423,58.5752571 94.1021065,57.067471 L95.6733279,55.512049 C96.4599377,54.7290673 96.4599377,53.4610897 95.6733279,52.678108 L92.7467213,49.7710383 L92.7467213,4.10835176 C92.7439872,1.84049792 90.8943778,0.00271653777 88.611928,-4.37873925e-15 L4.26214492,-4.37873925e-15 C1.97969507,0.00271653777 0.130085655,1.84049792 0.127351633,4.10835176 L0.127351633,76.4153428 C0.130085655,78.6831966 1.97969507,80.520978 4.26214492,80.5236946 L63.8031682,80.5236946 L65.7258471,82.4340781 C66.513301,83.2154689 67.7889197,83.2154689 68.5763736,82.4340781 L70.1475951,80.8786561 C71.6650287,81.7982038 73.3163871,82.4791905 75.0431903,82.8975002 L75.0431903,85.0938251 C75.044522,86.1948295 75.9388499,87.0889393 77.0469111,87.0970574 L81.3164987,87.0970574 C82.4294072,87.0956992 83.331257,86.1996166 83.3326239,85.0938251 L83.3326239,82.8975002 C85.0595402,82.4787444 86.7111041,81.7977881 88.2290461,80.8786561 L89.7944788,82.4340781 C90.5819328,83.2154689 91.8575514,83.2154689 92.6450053,82.4340781 L95.6650584,79.4349813 C96.4515732,78.6522813 96.4515732,77.384562 95.6650584,76.601862 L94.0938369,75.0456183 C95.0197727,73.5378322 95.7051706,71.896689 96.1256743,70.1805082 L98.3369618,70.1805082 C99.4498709,70.1796036 100.352091,69.2838886 100.353914,68.1780975 L100.353914,63.9349918 C100.352097,62.830801 99.4523909,61.9357461 98.3410966,61.9325812 L98.3410966,61.9325812 Z M1.7721724,76.4153428 L1.7721724,13.5575608 L50.287356,13.5575608 C50.7440726,13.5575608 51.1143146,13.1896865 51.1143146,12.7358905 C51.1143146,12.2820945 50.7440726,11.9142201 50.287356,11.9142201 L1.7721724,11.9142201 L1.7721724,4.10835176 C1.7721724,2.74696375 2.88289841,1.64334071 4.25304837,1.64334071 L88.6028314,1.64334071 C89.9729814,1.64334071 91.0845344,2.74696375 91.0845344,4.10835176 L91.0845344,11.9142201 L65.668787,11.9142201 C65.2120703,11.9142201 64.8418283,12.2820945 64.8418283,12.7358905 C64.8418283,13.1896865 65.2120703,13.5575608 65.668787,13.5575608 L91.0845344,13.5575608 L91.0845344,49.1054853 C90.5983483,49.1346251 90.1396021,49.3391564 89.7944788,49.6806545 L88.2290461,51.2360765 C86.7113426,50.3166674 85.0596906,49.6359518 83.3326239,49.2180541 L83.3326239,47.0200859 C83.3317126,45.9139735 82.4297297,45.017391 81.3164987,45.0160319 L77.0469111,45.0160319 C75.9336802,45.017391 75.0316972,45.9139735 75.0307859,47.0200859 L75.0307859,49.2180541 C73.3038815,49.6356546 71.6524572,50.3163913 70.1351907,51.2360765 L68.5639692,49.6806545 C67.7765153,48.8992637 66.5008967,48.8992637 65.7134427,49.6806545 L62.6950436,52.6797513 C61.9079782,53.4625457 61.9079782,54.730898 62.6950436,55.5136924 L64.2604764,57.0691143 C63.3348255,58.5770445 62.6494466,60.2181424 62.228639,61.9342245 L60.0214863,61.9342245 C58.909223,61.936034 58.0080092,62.8314847 58.0061881,63.9366351 L58.0061881,68.1797408 C58.0080092,69.2848913 58.909223,70.180342 60.0214863,70.1821515 L62.2327738,70.1821515 C62.6534928,71.8982624 63.3388773,73.5393735 64.2646112,75.0472617 L62.6991784,76.6035053 C62.0965071,77.2036693 61.9410033,78.1165594 62.3113348,78.8803538 L4.25304837,78.8803538 C2.88289841,78.8803538 1.7721724,77.7767308 1.7721724,76.4153428 L1.7721724,76.4153428 Z M98.7041314,68.1780975 C98.7032209,68.3766719 98.5409511,68.5371695 98.3410966,68.5371674 L95.472377,68.5371674 C95.0790389,68.5366969 94.7397979,68.8115769 94.6611305,69.1945037 C94.2604444,71.1625025 93.4788264,73.0344266 92.3597046,74.7062685 C92.1423127,75.0322353 92.1862406,75.4652681 92.4647284,75.7415731 L94.4998736,77.7628822 C94.6411852,77.9036702 94.6411852,78.1315298 94.4998736,78.2723178 L91.4798206,81.2714146 C91.3382224,81.4112771 91.1095313,81.4112771 90.9679332,81.2714146 L88.9336149,79.2501055 C88.6556571,78.973835 88.2203625,78.930206 87.8924739,79.1457534 C86.2092723,80.2567731 84.3255479,81.0335698 82.3452353,81.4332836 C81.9601485,81.5113865 81.6835881,81.8480064 81.6836683,82.2385206 L81.6836683,85.0930034 C81.6832136,85.2915786 81.5213137,85.4524432 81.3214604,85.452895 L77.0469111,85.452895 C76.8468692,85.452895 76.6847033,85.291766 76.6847033,85.0930034 L76.6847033,82.2385206 C76.6847835,81.8480064 76.4082231,81.5113865 76.0231363,81.4332836 C74.0427317,81.0338686 72.1589512,80.2570488 70.4758977,79.1457534 C70.1480091,78.930206 69.7127145,78.973835 69.4347567,79.2501055 L67.3996114,81.2714146 C67.2580133,81.4112771 67.0293222,81.4112771 66.887724,81.2714146 L63.8693249,78.2723178 C63.7280133,78.1315298 63.7280133,77.9036702 63.8693249,77.7628822 L65.9036432,75.7415731 C66.182131,75.4652681 66.2260589,75.0322353 66.008667,74.7062685 C64.8892909,73.0344699 64.1073935,71.1625495 63.7064141,69.1945037 C63.6278086,68.8118796 63.2890221,68.5370877 62.8959946,68.5371674 L60.0214863,68.5371674 C59.8219011,68.5371674 59.6601054,68.3764064 59.6601054,68.1780975 L59.6601054,63.9349918 C59.6601054,63.7366829 59.8219011,63.5759219 60.0214863,63.5759219 L62.8951676,63.5759219 C63.2881951,63.5760016 63.6269816,63.3012097 63.7055871,62.9185856 C64.1073104,60.9505106 64.889146,59.078459 66.00784,57.4059992 C66.2247747,57.0802074 66.1808649,56.6476965 65.9028163,56.3715162 L63.868498,54.3502071 C63.7271864,54.2094191 63.7271864,53.9815595 63.868498,53.8407715 L66.8868971,50.8416747 C67.0284952,50.7018122 67.2571863,50.7018122 67.3987845,50.8416747 L69.4339297,52.8629838 C69.7118875,53.1392544 70.1471821,53.1828833 70.4750707,52.9673359 C72.1579899,51.8559618 74.0418415,51.0793917 76.0223094,50.6806273 C76.4077008,50.602463 76.6843499,50.2653915 76.6838763,49.8745687 L76.6838763,47.0200859 C76.6836566,46.9244944 76.7217207,46.8327434 76.7896717,46.7650728 C76.8576227,46.6974022 76.9498772,46.6593726 77.0460842,46.6593726 L81.3156717,46.6593726 C81.5158473,46.6598257 81.6778801,46.8211899 81.6778796,47.0200859 L81.6778796,49.8753904 C81.6774061,50.2662132 81.9540552,50.6032847 82.3394466,50.681449 C84.3198549,51.079962 86.2037027,51.8562515 87.8866852,52.9673359 C88.2145738,53.1828833 88.6498684,53.1392544 88.9278262,52.8629838 L90.9621445,50.8416747 C91.1037426,50.7018122 91.3324337,50.7018122 91.4740319,50.8416747 L94.4940849,53.8407715 C94.6353965,53.9815595 94.6353965,54.2094191 94.4940849,54.3502071 L92.4589396,56.3715162 C92.1804519,56.6478212 92.136524,57.080854 92.3539159,57.4068209 C93.4730377,59.0786627 94.2546557,60.9505868 94.6553418,62.9185856 C94.7340092,63.3015124 95.0732502,63.5763924 95.4665883,63.5759219 L98.3394427,63.5759219 C98.5392971,63.5759198 98.701567,63.7364174 98.7024775,63.9349918 L98.7041314,68.1780975 Z" id="Shape" stroke="#37474F" stroke-width="0.9" fill="#334750"></path><path d="M79.1812914,55.5687443 C73.3519754,55.5691981 68.6268181,60.2647802 68.6268181,66.0568185 C68.6268181,71.8488568 73.3525267,76.544345 79.1818428,76.544345 C85.0111588,76.544345 89.736962,71.8494046 89.7374187,66.0573663 C89.7314929,60.2671009 85.0088232,55.5746321 79.1812914,55.5687443 L79.1812914,55.5687443 Z M79.1812914,74.9010043 C74.2651934,74.9005505 70.2802788,70.9403832 70.2807355,66.055723 C70.2811922,61.1710628 74.2668473,57.2116313 79.1829454,57.2120851 C84.0990434,57.2125388 88.0839581,61.1727062 88.0835014,66.0573663 C88.0780308,70.939961 84.0953116,74.8964759 79.1812914,74.9010043 L79.1812914,74.9010043 Z" id="Shape" fill="#3A2C60"></path></g></g></g><g id="Expertise"><rect id="Rectangle" x="0.195700519" y="0" width="188.526316" height="180"></rect><g id="Group-16" transform="translate(1.129928, 8.040712)"><path d="M35.1910201,80.2869923 C35.1910201,45.5743076 63.173048,17.4339163 97.6908479,17.4339163 C132.208648,17.4339163 160.190676,45.5743076 160.190676,80.2869923 C160.190676,114.999677 132.208648,143.140068 97.6908479,143.140068 C63.173048,143.140068 35.1910201,114.999677 35.1910201,80.2869923" id="Fill-1" fill="#FFFFFF"></path><path d="M156.091463,138.811394 C156.424918,138.471327 156.964527,138.472381 157.296713,138.813747 C157.628898,139.155113 157.627869,139.707524 157.294414,140.047591 C156.332523,141.028552 155.346936,141.984824 154.338482,142.915588 C153.988902,143.238238 153.450014,143.209683 153.134841,142.851809 C152.819669,142.493935 152.847562,141.942262 153.197143,141.619613 C154.184577,140.708249 155.14962,139.77191 156.091463,138.811394 Z" id="Stroke-9" stroke="#37474F" stroke-width="0.9" fill="#37474F" fill-rule="nonzero"></path><path d="M146.897756,146.583841 C140.436881,151.348737 133.303963,155.140599 125.718116,157.820447 C125.264865,157.980567 125.027538,158.476949 125.188029,158.929149 C125.348521,159.381348 125.846057,159.618126 126.299308,159.458006 C134.048166,156.720571 141.333934,152.847455 147.9328,147.98079 C148.319454,147.695633 148.401195,147.15175 148.115376,146.765993 C147.829556,146.380237 147.284409,146.298684 146.897756,146.583841 Z" id="Stroke-11" stroke="#37474F" stroke-width="0.9" fill="#37474F" fill-rule="nonzero"></path><path d="M101.722917,162.782795 C102.210969,162.757618 102.626067,163.152295 102.650064,163.66433 C102.674062,164.176366 102.297872,164.611863 101.80982,164.63704 C100.40564,164.709477 98.9965992,164.745813 97.5835507,164.745813 C97.0949093,164.745813 96.6987871,164.330225 96.6987871,163.817571 C96.6987871,163.304917 97.0949093,162.889329 97.5835507,162.889329 C98.9676124,162.889329 100.347677,162.853739 101.722917,162.782795 Z" id="Stroke-13" stroke="#37474F" stroke-width="0.9" fill="#37474F" fill-rule="nonzero"></path><path d="M125.855972,0.987201227 C126.032249,0.532479422 126.566258,0.298539905 127.048715,0.46468269 C128.442478,0.944650039 129.821236,1.45684098 131.184014,2.00081987 C131.656996,2.18961966 131.878036,2.70405747 131.677721,3.14984889 C131.477406,3.5956403 130.93159,3.80397318 130.458608,3.61517339 C129.12456,3.08266276 127.774829,2.58125492 126.410361,2.11137601 C125.927904,1.94523323 125.679696,1.44192303 125.855972,0.987201227 Z" id="Stroke-15" stroke="#37474F" stroke-width="0.9" fill="#37474F" fill-rule="nonzero"></path><path d="M137.500956,7.95585173 C144.967102,12.044243 151.761368,17.2630342 157.636829,23.4096453 C157.973573,23.7619302 158.533436,23.7757602 158.887318,23.4405354 C159.2412,23.1053106 159.255093,22.5479738 158.918348,22.1956889 C152.917982,15.9184078 145.979122,10.5885513 138.353559,6.41286467 C137.925543,6.1784874 137.387707,6.33389649 137.152267,6.7599806 C136.916827,7.18606471 137.072941,7.72147445 137.500956,7.95585173 Z M172.141898,44.204569 C175.856613,51.8068459 178.377459,59.9511713 179.594475,68.4011038 C179.663805,68.8824737 180.112005,69.2167516 180.595557,69.1477343 C181.079109,69.078717 181.414902,68.63254 181.345572,68.1511701 C180.102419,59.5197703 177.527261,51.1999736 173.732685,43.4342589 C173.519006,42.9969574 172.989674,42.8148943 172.55039,43.0276095 C172.111107,43.2403248 171.928218,43.7672675 172.141898,44.204569 Z" id="Stroke-17" stroke="#37474F" stroke-width="0.9" fill="#37474F" fill-rule="nonzero"></path><path d="M15.6346432,89.0982747 C23.1007894,93.186666 29.8950547,98.4054571 35.7705156,104.552068 C36.10726,104.904353 36.6671232,104.918183 37.0210051,104.582958 C37.3748869,104.247734 37.3887796,103.690397 37.0520353,103.338112 C31.0516687,97.0608308 24.1128091,91.7309743 16.4872458,87.5552876 C16.0592303,87.3209104 15.5213935,87.4763195 15.2859538,87.9024036 C15.0505141,88.3284877 15.2066277,88.8638974 15.6346432,89.0982747 Z M50.2755848,125.346992 C53.9903002,132.949269 56.5111461,141.093594 57.7281623,149.543527 C57.7974924,150.024897 58.2456919,150.359175 58.7292438,150.290157 C59.2127958,150.22114 59.5485889,149.774963 59.4792588,149.293593 C58.2361064,140.662193 55.6609484,132.342397 51.866372,124.576682 C51.6526925,124.13938 51.1233612,123.957317 50.6840774,124.170033 C50.2447937,124.382748 50.0619053,124.90969 50.2755848,125.346992 Z" id="Stroke-17" stroke="#37474F" stroke-width="0.9" fill="#37474F" fill-rule="nonzero" transform="translate(37.332302, 118.872645) scale(1, -1) rotate(-111.000000) translate(-37.332302, -118.872645) "></path><path d="M180.923438,75.0503122 C181.44062,75.026556 181.880494,75.3989612 181.905924,75.8821025 C181.9792,77.2742547 182.016012,78.6690818 182.016012,80.0658502 C182.016012,80.5495752 181.596247,80.9417119 181.078441,80.9417119 C180.560634,80.9417119 180.140869,80.5495752 180.140869,80.0658502 C180.140869,78.6978209 180.104813,77.3316784 180.033043,75.9681316 C180.007613,75.4849902 180.406256,75.0740685 180.923438,75.0503122 Z" id="Stroke-19" stroke="#37474F" stroke-width="0.9" fill="#37474F" fill-rule="nonzero"></path></g><g id="Group-81" transform="translate(127.443810, 141.543944) scale(-1, 1) translate(-127.443810, -141.543944) translate(70.601705, 112.649207)" fill="#37474F" stroke="#37474F"><path d="M104.394128,44.5459469 L104.386259,44.5459469 L104.373668,44.5459469 C103.330205,44.5459469 102.485047,43.7061938 102.485047,42.6694037 C102.485047,41.6326136 103.330205,40.7928606 104.373668,40.7928606 L104.408293,40.7928606 C105.451756,40.7928606 106.293766,41.6404326 106.290627,42.6772227 C106.285896,43.7108852 105.440739,44.5459469 104.401997,44.5459469 L104.394128,44.5459469 Z M97.8802754,46.6414201 C97.0665947,45.9940127 96.9597303,44.8133543 97.5892705,44.0048769 L97.5892705,44.0033132 C98.2188107,43.1948358 99.4242228,43.0634778 100.23932,43.7093214 C101.054732,44.3567288 101.184417,45.5373872 100.532843,46.3474283 C100.159841,46.8118727 99.6118258,47.0526958 99.0578304,47.0526958 C98.6439077,47.0526958 98.2295129,46.9182102 97.8802754,46.6414201 L97.8802754,46.6414201 Z M108.229602,46.3630662 C107.581176,45.5514613 107.718101,44.3708029 108.536503,43.726523 C109.353331,43.083807 110.541588,43.2198564 111.190015,44.0314613 C111.836867,44.8430662 111.699942,46.0237246 110.883114,46.6680044 C110.535293,46.941667 110.12137,47.0745888 109.710595,47.0745888 C109.153452,47.0745888 108.602605,46.8306382 108.229602,46.3630662 L108.229602,46.3630662 Z M95.8937613,51.3061936 C95.6639791,50.2944241 96.3013886,49.2904735 97.3196699,49.0621607 C98.3363773,48.833848 99.3483632,49.4671813 99.5781454,50.4789508 C99.8079276,51.4891566 99.1689443,52.4946709 98.1522368,52.7229837 C98.0121641,52.7542594 97.8720914,52.7683335 97.7335926,52.7683335 C96.8711225,52.7683335 96.0920664,52.1772224 95.8937613,51.3061936 L95.8937613,51.3061936 Z M110.580935,52.7480043 C109.564227,52.5150002 108.931539,51.507922 109.164469,50.4977163 C109.398973,49.4875105 110.412533,48.8588686 111.42924,49.0903089 C112.445948,49.323313 113.080209,50.3303912 112.845706,51.3405969 C112.644253,52.2084981 111.866771,52.7964816 111.007448,52.7964816 C110.867375,52.7964816 110.724155,52.7808438 110.580935,52.7480043 L110.580935,52.7480043 Z M100.58541,57.1719548 L100.58541,57.1719548 C99.645821,56.7200206 99.2926489,55.5972223 99.7474917,54.6652059 C100.202492,53.7316256 101.366512,53.3422429 102.310822,53.7941771 L102.310822,53.7957409 C102.310822,54.2461112 103.601852,55.3689095 103.147166,56.3024898 C102.821222,56.9702264 102.128255,57.3611729 101.426318,57.3611729 C101.150894,57.3611729 100.851391,57.3001852 100.58541,57.1719548 L100.58541,57.1719548 Z M105.609141,56.3071811 C105.157446,55.3720371 105.55563,54.2523664 106.495219,53.8035598 C107.436381,53.356317 108.564832,53.7503911 109.014953,54.6839713 C109.466648,55.6191153 109.068464,56.7403498 108.128875,57.1875926 C107.866042,57.3142593 107.587471,57.3721194 107.313621,57.3721194 C106.61011,57.3721194 105.933354,56.9796091 105.609141,56.3071811 L105.609141,56.3071811 Z" id="Fill-19"></path><path d="M8.796042,4.06747798 L8.78817275,4.06747798 L8.77558194,4.06747798 C7.73211902,4.06747798 6.88696128,3.22772492 6.88696128,2.19093483 C6.88696128,1.15414473 7.73211902,0.31439167 8.77558194,0.31439167 L8.81020666,0.31439167 C9.85366957,0.31439167 10.6956796,1.16196366 10.6925407,2.19875376 C10.6878104,3.23241628 9.84265262,4.06747798 8.80391125,4.06747798 L8.796042,4.06747798 Z M2.28218932,6.16295118 C1.46850858,5.51554379 1.36164413,4.33488538 1.99118435,3.52640804 L1.99118435,3.52484426 C2.62072457,2.71636691 3.82613671,2.58500889 4.64123392,3.23085249 C5.45664589,3.87825988 5.58633118,5.05891829 4.93475705,5.86895942 C4.56175446,6.33340385 4.0137397,6.57422689 3.4597443,6.57422689 C3.04582161,6.57422689 2.63142676,6.43974129 2.28218932,6.16295118 L2.28218932,6.16295118 Z M12.6315158,5.88459728 C11.9830894,5.07299236 12.1200144,3.89233396 12.9384167,3.24805414 C13.7552451,2.60533811 14.9435023,2.74138749 15.5919287,3.5529924 C16.2387813,4.36459732 16.1018563,5.54525572 15.2850278,6.18953554 C14.9372069,6.46319808 14.5232842,6.59611989 14.1125092,6.59611989 C13.5553661,6.59611989 13.0045184,6.35216928 12.6315158,5.88459728 L12.6315158,5.88459728 Z M0.295675147,10.8277247 C0.0658929654,9.81595519 0.703302441,8.8120046 1.72158375,8.58369185 C2.73829121,8.3553791 3.75027712,8.98871241 3.9800593,10.0004819 C4.20984148,11.0106877 3.57085815,12.016202 2.55415069,12.2445148 C2.414078,12.2757905 2.2740053,12.2898646 2.13550645,12.2898646 C1.27303634,12.2898646 0.493980317,11.6987535 0.295675147,10.8277247 L0.295675147,10.8277247 Z M14.9828485,12.2695354 C13.9661411,12.0365313 13.3334532,11.0294531 13.566383,10.0192474 C13.8008868,9.00904163 14.8144465,8.38039967 15.831154,8.61184 C16.8478614,8.84484411 17.4821232,9.85192227 17.2476195,10.862128 C17.0461666,11.7300292 16.2686844,12.3180127 15.409362,12.3180127 C15.2692893,12.3180127 15.1260689,12.3023749 14.9828485,12.2695354 L14.9828485,12.2695354 Z M4.98732365,16.6934859 L4.98732365,16.6934859 C4.04773487,16.2415517 3.69456281,15.1187534 4.14940562,14.186737 C4.60440581,13.2531567 5.76842569,12.863774 6.71273602,13.3157082 L6.71273602,13.317272 C6.71273602,13.7676423 8.00376563,14.8904406 7.54908021,15.8240209 C7.22313575,16.4917575 6.53016936,16.882704 5.82823201,16.882704 C5.55280816,16.882704 5.2533044,16.8217163 4.98732365,16.6934859 L4.98732365,16.6934859 Z M10.0110546,15.8287122 C9.55935952,14.8935682 9.95754371,13.7738975 10.8971325,13.3250909 C11.8382951,12.8778481 12.966746,13.2719222 13.4168672,14.2055024 C13.8685623,15.1406464 13.4703782,16.2618809 12.5307894,16.7091237 C12.2679563,16.8357904 11.9893848,16.8936505 11.7155348,16.8936505 C11.0120236,16.8936505 10.3352678,16.5011402 10.0110546,15.8287122 L10.0110546,15.8287122 Z" id="Fill-19" stroke-width="0.8"></path></g></g></g><g id="Customer-Satisfaction" transform="translate(31.952153, 19.980861)"><path d="M56.0450231,75.3081622 L38.0016436,75.3081622 C36.7988516,75.3081622 35.9968236,74.5061342 35.9968236,73.3033422 L35.9968236,53.2551427 C35.9968236,52.0523507 36.7988516,51.2503228 38.0016436,51.2503228 L56.0450231,51.2503228 C57.2478151,51.2503228 58.0498431,52.0523507 58.0498431,53.2551427 L58.0498431,73.3033422 C58.0498431,74.5061342 57.2480651,75.3081622 56.0450231,75.3081622 Z" id="Path" fill="#FC6E50" fill-rule="nonzero"></path><g id="Group" transform="translate(26.335487, 0.008535)"></g><path d="M118.595706,98.3637166 C121.969823,98.3637166 124.610165,101.004059 124.610165,104.378176 C124.610165,107.752294 121.969823,110.392636 118.595706,110.392636 L16.3493881,110.392636 C12.9772704,110.392636 10.3349282,107.752294 10.3349282,104.378176 C10.3349282,101.004059 12.9772704,98.3637166 16.3493881,98.3637166 L118.595706,98.3637166 Z M73.4869282,100.367717 L73.4876317,101.370822 C73.4871317,103.113132 72.2220876,104.378176 70.4797768,104.378176 L64.4653169,104.378176 C62.7230061,104.378176 61.457962,103.113132 61.457962,101.370822 L61.4579282,100.367717 L16.3493881,100.368537 C14.1000596,100.368537 12.3397482,102.130848 12.3397482,104.378176 C12.3397482,106.625505 14.1000596,108.387816 16.3493881,108.387816 L118.595706,108.387816 C120.843034,108.387816 122.605346,106.625505 122.605346,104.378176 C122.605346,102.130848 120.843034,100.368537 118.595706,100.368537 L73.4869282,100.367717 Z M71.4819282,100.367717 L63.4629282,100.367717 L63.463032,101.370822 C63.463032,102.016344 63.8197944,102.373357 64.4655669,102.373357 L70.4800268,102.373357 C71.1255493,102.373357 71.4825618,102.016594 71.4825618,101.370822 L71.4819282,100.367717 Z M82.5086965,30.1995883 C83.0619658,30.1995883 83.5112315,30.6486039 83.5112315,31.2021232 C83.5112315,31.7553925 83.0622158,32.2046582 82.5086965,32.2046582 L25.3712029,32.2046582 C23.1218744,32.2046582 21.361563,33.9649696 21.361563,36.2142981 L21.361563,95.3568617 C21.361563,95.909881 20.9122973,96.3588967 20.359028,96.3588967 C19.8057587,96.3588967 19.356493,95.909881 19.356493,95.3563617 L19.356493,36.2140481 C19.356493,32.8419305 21.9988352,30.1995883 25.3709529,30.1995883 L82.5086965,30.1995883 Z M110.576426,47.2404328 C111.129945,47.2404328 111.578961,47.6894485 111.578961,48.2429678 L111.578268,61.9381685 L116.068967,61.9383243 C116.537487,61.9383243 116.971496,62.0298012 117.355675,62.1974368 L122.835203,53.390026 C123.719234,52.2052347 125.026529,51.5134605 126.293573,51.5134605 C128.464899,51.5134605 130.102706,53.1515177 130.102706,55.3225934 L130.102706,61.9385743 L140.52782,61.9385743 C142.360134,61.9385743 143.873937,63.2296193 144.126446,65.0059313 C144.126446,65.0119315 144.128446,65.0179317 144.128446,65.0219319 C144.2567,66.0604681 143.96194,67.0447525 143.298417,67.7965287 C143.067909,68.0570378 142.801149,68.2797955 142.508389,68.4580518 C143.019657,69.1838271 143.242165,70.0558575 143.123911,70.899887 C142.945404,71.9784246 142.323883,72.8727058 141.465853,73.4119746 C142.007122,74.1497504 142.24563,75.0460316 142.121376,75.9120618 C141.942869,76.9905995 141.321348,77.8848807 140.463318,78.4241495 C141.004587,79.1619252 141.243095,80.0582065 141.118841,80.9242367 C140.82458,82.7105491 139.311028,83.9915938 137.520715,83.9915938 L118.073787,83.9915938 C117.807755,83.9915938 117.565769,83.8877798 117.386212,83.7184515 C116.995462,83.8949642 116.550433,83.9915938 116.068967,83.9915938 L111.578268,83.9911685 L111.578961,95.3566117 C111.578961,95.909881 111.129695,96.3588967 110.576426,96.3588967 C110.023157,96.3588967 109.573891,95.909881 109.573891,95.3563617 L109.573358,83.9582746 C108.084096,83.7478904 107.047152,82.5616699 107.047152,80.9842388 L107.047152,64.9456792 C107.047152,63.3682481 108.084096,62.1820276 109.573358,61.9716434 L109.573891,48.2429678 C109.573891,47.6896985 110.022907,47.2404328 110.576426,47.2404328 Z M82.5086965,36.2137981 C83.0619658,36.2137981 83.5112315,36.6628138 83.5112315,37.2163331 C83.5112315,37.7696024 83.0622158,38.2188681 82.5086965,38.2188681 L28.3783078,38.2188681 C27.7327853,38.2188681 27.3757728,38.5756305 27.3757728,39.2214031 L27.3757728,87.3373319 C27.3757728,87.9828544 27.7325353,88.3398669 28.3783078,88.3398669 L102.557146,88.3398669 C103.202669,88.3398669 103.559681,87.9831044 103.559681,87.3373319 L103.559681,48.2429678 C103.559681,47.6896985 104.008697,47.2404328 104.562216,47.2404328 C105.115735,47.2404328 105.564751,47.6894485 105.564751,48.2429678 L105.564751,87.3370819 C105.564751,89.0793927 104.299457,90.3444368 102.557146,90.3444368 L28.3783078,90.3444368 C26.635997,90.3444368 25.3709529,89.0793927 25.3709529,87.3370819 L25.3709529,39.221153 C25.3709529,37.4508413 26.607996,36.2137981 28.3783078,36.2137981 L82.5086965,36.2137981 Z M10.2322057,78.7810045 C10.5469667,79.0857652 10.6272195,79.5587817 10.4327127,79.9497953 L9.22792065,82.3556292 C8.76690456,83.2799115 8.76690456,84.3424486 9.22792065,85.2687309 L10.4307126,87.6745648 C10.6232193,88.0595783 10.5489667,88.5265946 10.242206,88.8313552 C10.0516994,89.025612 9.79519044,89.1258655 9.53443134,89.1258655 C9.38217603,89.1258655 9.22967071,89.0918643 9.08541567,89.0196118 L6.67958173,87.8168198 C5.75529948,87.3538036 4.69476248,87.3538036 3.76648009,87.8168198 L1.52915202,88.8353553 C1.14613866,89.0118615 0.687122643,88.9236084 0.392362358,88.6188478 C0.0996021436,88.3120871 0.0275996313,87.8550711 0.21785627,87.4740578 L1.42064824,85.0682239 C1.88366439,84.1419416 1.88366439,83.0814046 1.42064824,82.1571223 L0.233856828,79.9817964 C0.0253495528,79.596783 0.0896017947,79.1217664 0.394362428,78.8070054 C0.695122922,78.4902444 1.17213957,78.4099916 1.56315321,78.6064984 L3.96898715,79.8092904 C4.89126933,80.2703065 5.95180634,80.2703065 6.88008873,79.8092904 L9.05541463,78.622499 C9.43842799,78.4119916 9.91544463,78.4762439 10.2322057,78.7810045 Z M3.43196842,81.7658587 C3.93523597,83.1051554 3.87898401,84.5504558 3.27346288,85.8417509 C3.89698464,85.5892421 4.55450758,85.4609876 5.21603066,85.4609876 C5.92580543,85.4609876 6.63533019,85.6072427 7.31110376,85.9000029 C6.7418339,84.5889572 6.72958347,83.1374065 7.2691023,81.8201106 C6.0080583,82.2931271 4.65876122,82.2711263 3.43196842,81.7658587 Z M126.293073,53.5182805 C125.665552,53.5182805 124.937776,53.9212946 124.490761,54.5208155 L119.077822,63.2278693 L119.077822,81.9870238 L137.520465,81.9870238 C138.476749,81.9870238 139.028018,81.276999 139.138272,80.6194761 C139.188273,80.2607136 139.048018,79.8336987 138.757258,79.498687 C138.470498,79.1679255 138.093735,78.9794189 137.720722,78.9794189 C137.167453,78.9794189 136.718187,78.5304032 136.718187,77.9768839 C136.718187,77.4236146 137.167203,76.9743489 137.720722,76.9743489 L138.52275,76.9743489 C139.479033,76.9743489 140.030303,76.2645741 140.140557,75.6070512 C140.190558,75.2482887 140.050303,74.8212738 139.759543,74.4862621 C139.472783,74.1555006 139.09602,73.966994 138.723007,73.966994 C138.169738,73.966994 137.720472,73.5179783 137.720472,72.964459 C137.720472,72.4111897 138.169488,71.961924 138.723007,71.961924 L139.525035,71.961924 C140.481318,71.961924 141.032588,71.2521493 141.142842,70.5946263 C141.192843,70.2358638 141.052588,69.8088489 140.761828,69.4738372 C140.475068,69.1430757 140.098305,68.9545691 139.725292,68.9545691 C139.172023,68.9545691 138.722757,68.5055534 138.722757,67.9520341 C138.722757,67.3987648 139.171773,66.9494991 139.725292,66.9494991 L140.727827,66.9494991 C141.136841,66.9494991 141.525855,66.774993 141.794364,66.4702324 C142.073124,66.1574715 142.193378,65.7344567 142.139126,65.2794409 C142.004872,64.3611588 141.210844,63.9421442 140.52732,63.9421442 L130.102206,63.9421442 C128.941416,63.9421442 128.097386,63.1001148 128.097386,61.9373242 L128.097386,55.3225934 C128.097386,54.278057 127.33761,53.5182805 126.293073,53.5182805 Z M116.068967,63.9433942 L111.578268,63.9431685 L111.578268,81.9861685 L116.068967,81.9870238 C116.706919,81.9870238 117.063089,81.6385799 117.071354,81.0070886 L117.070268,64.9231685 L117.066066,64.8120439 C117.019061,64.2512264 116.668613,63.9433942 116.068967,63.9433942 Z M109.051972,64.9459292 L109.051972,80.9844888 C109.051972,81.4455764 109.233994,81.7594649 109.573346,81.9011899 L109.573455,64.0291844 C109.234121,64.1708512 109.051972,64.4846631 109.051972,64.9459292 Z M56.0450231,50.2477878 C57.8153349,50.2477878 59.0523781,51.4848309 59.0523781,53.2551427 L59.0523781,73.3033422 C59.0523781,75.045653 57.7873339,76.3106972 56.0450231,76.3106972 L38.0016436,76.3106972 C36.2593328,76.3106972 34.9942886,75.045653 34.9942886,73.3033422 L34.9942886,53.2551427 C34.9942886,51.5128319 36.2593328,50.2477878 38.0016436,50.2477878 L56.0450231,50.2477878 Z M56.0450231,52.2526077 L38.0016436,52.2526077 C37.356121,52.2526077 36.9991086,52.6093702 36.9991086,53.2551427 L36.9991086,73.3033422 C36.9991086,73.9488647 37.355871,74.3058772 38.0016436,74.3058772 L56.0450231,74.3058772 C56.6905456,74.3058772 57.0475581,73.9491148 57.0475581,73.3033422 L57.0475581,53.2551427 C57.0475581,52.6096202 56.6907957,52.2526077 56.0450231,52.2526077 Z M96.1416722,68.6919313 C96.6949415,68.6919313 97.1442071,69.140947 97.1442071,69.6944663 C97.1442071,70.2479856 96.6949415,70.6970013 96.1416722,70.6970013 L66.0691229,70.6970013 C65.5158536,70.6970013 65.0665879,70.2479856 65.0665879,69.6944663 C65.0665879,69.141197 65.5156036,68.6919313 66.0691229,68.6919313 L96.1416722,68.6919313 Z M70.0790128,54.2571777 C72.8418592,54.2571777 75.0911877,56.5045061 75.0911877,59.2693526 C75.0909377,62.034199 72.8416092,64.2815274 70.0790128,64.2815274 C67.3164164,64.2815274 65.0668379,62.034199 65.0668379,59.2693526 C65.0668379,56.5047561 67.3161664,54.2571777 70.0790128,54.2571777 Z M91.1297473,60.2716375 C91.6830166,60.2716375 92.1322823,60.7206532 92.1322823,61.2741725 C92.1320323,61.8276918 91.6830166,62.2767075 91.1297473,62.2767075 L80.1031126,62.2767075 C79.5498432,62.2767075 79.1005776,61.8276918 79.1005776,61.2741725 C79.1005776,60.7209032 79.5495932,60.2716375 80.1031126,60.2716375 L91.1297473,60.2716375 Z M70.0790128,56.2622476 C68.4209549,56.2622476 67.0716579,57.6115447 67.0716579,59.2696026 C67.0716579,60.9276604 68.4209549,62.2769575 70.0790128,62.2769575 C71.7370706,62.2769575 73.0863677,60.9276604 73.0863677,59.2696026 C73.0861177,57.6115447 71.7368206,56.2622476 70.0790128,56.2622476 Z M96.1416722,56.2619976 C96.6949415,56.2619976 97.1442071,56.7110133 97.1442071,57.2645326 C97.1442071,57.8180519 96.6949415,58.2670676 96.1416722,58.2670676 L80.1031126,58.2670676 C79.5498432,58.2670676 79.1005776,57.8180519 79.1005776,57.2645326 C79.1005776,56.7112633 79.5495932,56.2619976 80.1031126,56.2619976 L96.1416722,56.2619976 Z M29.3808428,22.1798084 C29.9341121,22.1798084 30.3833778,22.6288241 30.3833778,23.1823434 C30.3833778,23.7358627 29.9341121,24.1848784 29.3808428,24.1848784 L27.3760228,24.1848784 C26.8227535,24.1848784 26.3734878,23.7358627 26.3734878,23.1823434 C26.3734878,22.6290741 26.8225035,22.1798084 27.3760228,22.1798084 L29.3808428,22.1798084 Z M64.4653169,22.1798084 C65.0185862,22.1798084 65.4678519,22.6288241 65.4678519,23.1823434 C65.4678519,23.7358627 65.0185862,24.1848784 64.4653169,24.1848784 L33.3904827,24.1848784 C32.8372134,24.1848784 32.3879477,23.7358627 32.3879477,23.1823434 C32.3879477,22.6290741 32.8369634,22.1798084 33.3904827,22.1798084 L64.4653169,22.1798084 Z M76.4944866,18.1701685 C77.0477559,18.1701685 77.4970216,18.6191842 77.4970216,19.1727035 C77.4970216,19.7262228 77.0477559,20.1752385 76.4942366,20.1752385 L38.4026576,20.1752385 C37.8493883,20.1752385 37.4001226,19.7262228 37.4001226,19.1727035 C37.4001226,18.6191842 37.8491382,18.1701685 38.4026576,18.1701685 L76.4944866,18.1701685 Z" id="Combined-Shape" stroke="#37474F" stroke-width="0.5" fill="#37474F" fill-rule="nonzero"></path><rect id="Rectangle" fill="#FFD700" x="108.516746" y="63.8181818" width="8.61244019" height="18.0861244" rx="1"></rect></g></g><g id="Group-4" transform="translate(119.368421, 21.789474)" fill-rule="nonzero"><g id="timestamp"><path d="M16.773503,27.9095952 C15.5854676,27.9095952 14.6193672,26.9434947 14.6193672,25.7554594 L14.6193672,18.2159841 C14.6193672,17.0284747 15.5854676,16.0618483 16.773503,16.0618483 C17.9615383,16.0618483 18.9276388,17.0284747 18.9276388,18.2159841 L18.9276388,25.7554594 C18.9276388,26.9434947 17.9615383,27.9095952 16.773503,27.9095952 Z M16.773503,17.1389162 C16.1802742,17.1389162 15.6964351,17.6227553 15.6964351,18.2159841 L15.6964351,25.7554594 C15.6964351,26.349214 16.1802742,26.8325273 16.773503,26.8325273 C17.3667318,26.8325273 17.8505709,26.349214 17.8505709,25.7554594 L17.8505709,18.2159841 C17.8505709,17.6227553 17.3667318,17.1389162 16.773503,17.1389162 Z" id="Shape" stroke="#37474F" stroke-width="0.5" fill="#37474F"></path><path d="M21.0817745,5.82970327 L12.4652314,5.82970327 C11.5743363,5.82970327 10.8496295,5.10499652 10.8496295,4.21410142 L10.8496295,2.05996563 C10.8496295,1.16959655 11.5743363,0.444363783 12.4652314,0.444363783 L21.0817745,0.444363783 C21.9726696,0.444363783 22.6973764,1.16959655 22.6973764,2.05996563 L22.6973764,4.21410142 C22.6973764,5.10499652 21.9726696,5.82970327 21.0817745,5.82970327 Z M12.4652314,1.52143168 C12.1680911,1.52143168 11.9266974,1.76282535 11.9266974,2.05996563 L11.9266974,4.21410142 C11.9266974,4.51176771 12.1680911,4.75263537 12.4652314,4.75263537 L21.0817745,4.75263537 C21.3778631,4.75263537 21.6203085,4.51176771 21.6203085,4.21410142 L21.6203085,2.05996563 C21.6203085,1.76282535 21.3778631,1.52143168 21.0817745,1.52143168 L12.4652314,1.52143168 Z" id="Shape" stroke="#394750" stroke-width="0.5" fill="#37474F"></path><path d="M13.5422993,7.44530511 C13.245159,7.44530511 13.0037653,7.20443746 13.0037653,6.90677116 L13.0037653,5.29116932 C13.0037653,4.99402904 13.245159,4.75263537 13.5422993,4.75263537 C13.8394395,4.75263537 14.0808332,4.99402904 14.0808332,5.29116932 L14.0808332,6.90677116 C14.0808332,7.20443746 13.8394395,7.44530511 13.5422993,7.44530511 Z" id="Path" stroke="#394750" stroke-width="0.5" fill="#37474F"></path><path d="M20.0047066,7.44530511 C19.7075664,7.44530511 19.4661727,7.20443746 19.4661727,6.90677116 L19.4661727,5.29116932 C19.4661727,4.99402904 19.7075664,4.75263537 20.0047066,4.75263537 C20.3018469,4.75263537 20.5432406,4.99402904 20.5432406,5.29116932 L20.5432406,6.90677116 C20.5432406,7.20443746 20.3018469,7.44530511 20.0047066,7.44530511 Z" id="Path" stroke="#394750" stroke-width="0.5" fill="#37474F"></path><path d="M16.773503,9.06090696 C7.8508789,9.06090696 0.617484504,16.2948274 0.617484504,25.2169254 C0.617484504,34.1395495 7.8508789,41.3729439 16.773503,41.3729439 C25.696127,41.3729439 32.9295214,34.1395495 32.9295214,25.2169254 C32.9295214,16.2948274 25.696127,9.06090696 16.773503,9.06090696 Z M16.773503,38.1417402 C9.63582449,38.1417402 3.84868819,32.3551299 3.84868819,25.2169254 C3.84868819,18.0792469 9.63582449,12.2921106 16.773503,12.2921106 C23.9111814,12.2921106 29.6983177,18.0792469 29.6983177,25.2169254 C29.6983177,32.3551299 23.9111814,38.1417402 16.773503,38.1417402 Z" id="Shape" stroke="#37474F" fill="#00C8FF"></path><path d="M16.773503,41.9114778 C7.56793828,41.9114778 0.0789505558,34.423016 0.0789505558,25.2169254 C0.0789505558,16.0113607 7.56793828,8.52237301 16.773503,8.52237301 C25.9790676,8.52237301 33.4680554,16.0113607 33.4680554,25.2169254 C33.4680554,34.423016 25.9790676,41.9114778 16.773503,41.9114778 Z M16.773503,9.59944091 C8.16221884,9.59944091 1.15601845,16.6061673 1.15601845,25.2169254 C1.15601845,33.8282095 8.16221884,40.8344099 16.773503,40.8344099 C25.3847871,40.8344099 32.3909875,33.8282095 32.3909875,25.2169254 C32.3909875,16.6061673 25.3847871,9.59944091 16.773503,9.59944091 Z M16.773503,38.6802741 C9.34920245,38.6802741 3.31015425,32.641226 3.31015425,25.2169254 C3.31015425,17.7931508 9.34920245,11.7535767 16.773503,11.7535767 C24.1978035,11.7535767 30.2368517,17.7931508 30.2368517,25.2169254 C30.2368517,32.641226 24.1978035,38.6802741 16.773503,38.6802741 Z M16.773503,12.8306446 C9.94400903,12.8306446 4.38722214,18.3874315 4.38722214,25.2169254 C4.38722214,32.0469454 9.94400903,37.6032062 16.773503,37.6032062 C23.6029969,37.6032062 29.1597838,32.0469454 29.1597838,25.2169254 C29.1597838,18.3874315 23.6029969,12.8306446 16.773503,12.8306446 Z" id="Shape" stroke="#37474F" stroke-width="0.5" fill="#37474F"></path><g id="Group" transform="translate(0.000000, 8.684211)" fill="#37474F" stroke-width="0.5"><path d="M31.2439733,5.64791303 C31.1061843,5.64791303 30.9683954,5.59532183 30.8626871,5.49066529 C30.6528481,5.28082648 30.6528481,4.93950946 30.8626871,4.72914463 L32.0065457,3.58686364 L29.720932,1.30230165 L28.5781251,2.44510866 C28.3682862,2.65494747 28.0269693,2.65494747 27.8166044,2.44510866 C27.6067655,2.23474384 27.6067655,1.89342681 27.8166044,1.683588 L29.3396458,0.160546676 C29.5494846,-0.0498181477 29.8913275,-0.0498181477 30.1011664,0.160546676 L33.1483008,3.20662932 C33.2492759,3.30760444 33.3055486,3.44434144 33.3055486,3.58791553 C33.3055486,3.73096361 33.2482242,3.86770075 33.1483008,3.96920174 L31.6242077,5.49276894 C31.5184993,5.59532183 31.3817622,5.64791303 31.2439733,5.64791303 Z" id="Path" stroke="#394750"></path><path d="M2.30303262,5.64791303 C2.16524373,5.64791303 2.0274547,5.59532183 1.92174641,5.49066529 L0.398705088,3.96657221 C0.188866142,3.75673327 0.188866142,3.41541638 0.398705088,3.20557743 L3.44478773,0.159494784 C3.65462668,-0.0508700392 3.99646945,-0.0508700392 4.20630839,0.159494784 L5.73040147,1.68253611 C5.94024042,1.89237505 5.94024042,2.23369195 5.73040147,2.44405677 C5.52003665,2.65389571 5.17871976,2.65389571 4.96888081,2.44405677 L3.82607394,1.3012499 L1.54151196,3.585286 L2.68431883,4.72809287 C2.89415777,4.9384577 2.89415777,5.27977459 2.68431883,5.48961354 C2.57861054,5.59532183 2.44082165,5.64791303 2.30303262,5.64791303 Z" id="Path" stroke="#394750"></path><path d="M7.07989189,17.0712488 L3.84868819,17.0712488 C3.55154792,17.0712488 3.31015425,16.8303812 3.31015425,16.5327149 C3.31015425,16.2355746 3.55154792,15.9941809 3.84868819,15.9941809 L7.07989189,15.9941809 C7.37703216,15.9941809 7.61842583,16.2355746 7.61842583,16.5327149 C7.61842583,16.8303812 7.37703216,17.0712488 7.07989189,17.0712488 Z" id="Path" stroke="#37474F"></path><path d="M29.6983177,17.0712488 L26.467114,17.0712488 C26.1699737,17.0712488 25.9285801,16.8303812 25.9285801,16.5327149 C25.9285801,16.2355746 26.1699737,15.9941809 26.467114,15.9941809 L29.6983177,15.9941809 C29.995458,15.9941809 30.2368517,16.2355746 30.2368517,16.5327149 C30.2368517,16.8303812 29.995458,17.0712488 29.6983177,17.0712488 Z" id="Path" stroke="#37474F"></path><path d="M16.773503,29.9960636 C16.4763627,29.9960636 16.234969,29.7551959 16.234969,29.4575296 L16.234969,26.226326 C16.234969,25.9291857 16.4763627,25.687792 16.773503,25.687792 C17.0706432,25.687792 17.3120369,25.9291857 17.3120369,26.226326 L17.3120369,29.4575296 C17.3120369,29.7551959 17.0706432,29.9960636 16.773503,29.9960636 Z" id="Path" stroke="#37474F"></path></g></g></g></g></g></g></svg> 