<?xml version="1.0" encoding="UTF-8"?> <svg xmlns="http://www.w3.org/2000/svg" xmlns:xlink="http://www.w3.org/1999/xlink" width="190px" height="180px" viewBox="0 0 190 180" version="1.1"><title>CCBF31F4-0AA0-472C-8F47-E030150B4C66</title><g id="Page-1" stroke="none" stroke-width="1" fill="none" fill-rule="evenodd"><g id="About-Us-Updated" transform="translate(-869.000000, -881.000000)"><g id="HQed-in-US" transform="translate(869.000000, 881.000000)"><rect id="Rectangle" x="0" y="0.210526316" width="189.473684" height="179.052632"></rect><circle id="Oval" stroke="#37474F" stroke-width="3" stroke-linecap="round" cx="95.0951848" cy="89.3057111" r="83.6730123"></circle><path d="M41.5229563,24.9832027 L48.868981,35.7334826 C49.5387471,36.5965915 49.8003002,37.7081924 49.5856663,38.7793953 L46.181411,59.2049272 C45.9659404,61.1413458 46.5481463,63.0820318 47.793953,64.5800672 L65.1735722,83.7513998 C65.9385354,84.641005 67.0464273,85.1623659 68.2194849,85.1847704 L70.3695409,85.1847704 L72.1612542,74.0761478 C72.5276788,71.8000159 74.2217734,69.9647467 76.4613662,69.4176932 L95.0951848,65.1175812 L106.024636,52.0380739" id="Path" stroke="#FC6E50" stroke-width="3" stroke-linecap="round"></path><path d="M58.9025756,13.8745801 L63.7402016,21.0414334 C64.7120053,22.4116546 66.5380297,22.8681607 68.0403135,22.1164614 L75.0279955,18.3538634 C75.7497531,17.9896325 76.5488452,17.8052266 77.3572228,17.8163494 L90.4367301,18.174692 C92.1255923,18.7692001 93.0653054,20.5703169 92.5867861,22.2956327 C92.15148,23.8397639 91.0272837,25.0962184 89.5408735,25.699888 L83.2698768,28.387458 C82.9444881,28.5964956 82.7337373,28.9439611 82.6987227,29.3291214 C82.6637082,29.7142817 82.8083463,30.0940553 83.0907055,30.3583427 L94.0201568,37.7043673 C94.4168142,37.952018 94.901442,38.0152855 95.3483829,37.8777652 C95.7953238,37.7402449 96.1605576,37.4154816 96.3493841,36.987682 L100.470325,27.6707727 C100.658249,27.3358579 100.972709,27.0903612 101.343212,26.9893147 C101.713716,26.8882683 102.109272,26.9401244 102.441209,27.1332587 L120.537514,39.8544233 C120.834042,40.0357395 120.998933,40.3722088 120.960551,40.7176523 C120.922168,41.0630958 120.687439,41.3551629 120.358343,41.4669653 L111.578947,45.2295633" id="Path" stroke="#FC6E50" stroke-width="3" stroke-linecap="round"></path><path d="M150.638298,42.0044793 C150.638298,42.0044793 168.913774,62.7883539 167.838746,89.6640538" id="Path" stroke="#40C4FF" stroke-width="3" stroke-linecap="round" fill-rule="nonzero"></path><line x1="95.0951848" y1="65.1175812" x2="95.0951848" y2="74.9720045" id="Path" stroke="#FC6E50" stroke-width="3" stroke-linecap="round"></line><line x1="85.2631579" y1="66.8421053" x2="95.0951848" y2="74.9720045" id="Path" stroke="#FC6E50" stroke-linecap="round"></line><path d="M70.3695409,85.1847704 L83.0907055,84.6472564 C83.9269996,84.6067003 84.751094,84.8602678 85.4199328,85.3639418 L97.6035834,95.7558791 L99.5744681,92.3516237 C100.412014,91.117492 101.851043,90.4322402 103.337066,90.5599104 L125.912654,93.7849944 C126.578021,93.7938432 127.216447,94.0492138 127.704367,94.5016797 L147.592385,110.6271 C148.20035,111.116876 148.582265,111.833421 148.649898,112.611193 C148.71753,113.388964 148.465028,114.160676 147.950728,114.74804 L109.787234,160.257559 C109.502119,160.637712 109.077666,160.889034 108.60725,160.956236 C108.136834,161.023439 107.658989,160.901017 107.278835,160.615901 L104.770437,158.645017 C103.73621,157.764485 103.256851,156.394887 103.516237,155.06159 L107.278835,131.590146 C107.420707,130.577784 107.163736,129.549901 106.56215,128.723404 L100.291153,119.585666" id="Path" stroke="#FC6E50" stroke-width="3" stroke-linecap="round"></path><path d="M96.3493841,112.418813 L95.0951848,110.447928 C94.4031483,109.455768 94.2049937,108.200788 94.5576708,107.043673 L97.6035834,95.7558791" id="Path" stroke="#FC6E50" stroke-width="3" stroke-linecap="round"></path><path d="M52.4524076,13.5162374 C49.5856663,12.9787234 31.4893617,16.5621501 33.6394177,33.225084 C35.6103024,46.8421053 47.4356103,58.1298992 51.3773796,61.5341545 C52.0478818,62.10766 53.0361048,62.10766 53.7066069,61.5341545 C57.6483763,58.1298992 69.2945129,46.8421053 71.2653975,33.225084 C73.4154535,16.7413214 55.3191489,12.9787234 52.4524076,13.5162374 Z" id="Path" stroke="#37474F" stroke-width="3" fill="#40C4FF" fill-rule="nonzero"></path><circle id="Oval" stroke="#37474F" stroke-width="3" fill="#FFFFFF" fill-rule="nonzero" stroke-linecap="round" cx="52.6315789" cy="33.225084" r="7.1668533"></circle><path d="M93.3655991,32.4548668 C90.9966266,32.0106844 76.0424874,34.9719001 77.8192168,48.741553 C79.4478855,59.9941726 89.2198972,69.3220019 92.4772344,72.1351568 C93.0313135,72.6090812 93.8479456,72.6090812 94.4020246,72.1351568 C97.6593619,69.3220019 107.283313,59.9941726 108.911981,48.741553 C110.688711,35.1199609 95.7345717,32.0106844 93.3655991,32.4548668 Z" id="Path" stroke="#37474F" stroke-width="3" fill="#40C4FF" fill-rule="nonzero"></path><circle id="Oval" stroke="#37474F" stroke-width="3" fill="#FFFFFF" fill-rule="nonzero" stroke-linecap="round" cx="93.6842105" cy="48.1634938" r="5.26315789"></circle><path d="M22.3516237,84.6472564 C22.3516237,84.6472564 23.2474804,135.531915 64.0985442,155.240761" id="Path" stroke="#40C4FF" stroke-width="3" stroke-linecap="round" fill-rule="nonzero"></path></g></g></g></svg> 