<?xml version="1.0" encoding="UTF-8"?> <svg xmlns="http://www.w3.org/2000/svg" xmlns:xlink="http://www.w3.org/1999/xlink" width="90px" height="90px" viewBox="0 0 90 90" version="1.1"><title>DFFF04B4-B488-4FBB-AABA-443A8B7A4513</title><g id="Page-1" stroke="none" stroke-width="1" fill="none" fill-rule="evenodd"><g id="About-Us-Updated" transform="translate(-793.000000, -4804.000000)"><g id="Group-18" transform="translate(793.000000, 4804.000000)"><rect id="Rectangle" x="0" y="0" width="90" height="90"></rect><g id="growth2" transform="translate(5.000000, 5.000000)" fill-rule="nonzero"><path d="M41.5,9.8 L41.5,36.5 C41.5527246,37.2891383 42.2091043,37.9017594 43,37.9 L69.7,37.9 C70.0994202,37.9358763 70.4930422,37.7854001 70.766671,37.4922263 C71.0402999,37.1990525 71.1633046,36.7960002 71.1,36.4 C70.4,21.7 57.8,9.1 43,8.3 C42.1715729,8.3 41.5,8.97157288 41.5,9.8" id="Path" fill="#40C4FF"></path><path d="M69.7,38.7 L43,38.7 C41.7849736,38.7 40.8,37.7150264 40.8,36.5 L40.8,9.8 C40.8241205,9.19768383 41.0740135,8.62649981 41.5,8.2 C41.9364904,7.80194787 42.5094044,7.58710512 43.1,7.6 C58.2,8.4 71.1,21.3 71.8,36.4 C71.8903293,36.9820023 71.7056457,37.5729899 71.3,38 C70.8735002,38.4259865 70.3023162,38.6758795 69.7,38.7 M43,9.1 C42.8,9.1 42.6,9.1 42.5,9.3 C42.3775555,9.43854629 42.3068825,9.6152289 42.3,9.8 L42.3,36.5 C42.3,36.8865993 42.6134007,37.2 43,37.2 L69.7,37.2 L70.2,37 C70.3,36.8 70.4,36.7 70.4,36.5 C69.7,22.1 57.4,9.8 43,9.1 L43,9.1" id="Shape" fill="#334750"></path><path d="M28.9,80.9 L4.3,80.9 C1.92517558,80.9 0,78.9748244 0,76.6 L0,57.8 C0,55.4251756 1.92517558,53.5 4.3,53.5 L28.9,53.5 C31.2748244,53.5 33.2,55.4251756 33.2,57.8 L33.2,76.6 C33.2,78.9748244 31.2748244,80.9 28.9,80.9 M4.3,54.9 C2.69837423,54.9 1.4,56.1983742 1.4,57.8 L1.4,76.6 C1.4,77.3691278 1.70553484,78.1067542 2.24939033,78.6506097 C2.79324583,79.1944652 3.53087218,79.5 4.3,79.5 L28.9,79.5 C29.6691278,79.5 30.4067542,79.1944652 30.9506097,78.6506097 C31.4944652,78.1067542 31.8,77.3691278 31.8,76.6 L31.8,57.8 C31.8,56.1983742 30.5016258,54.9 28.9,54.9 L4.3,54.9 Z" id="Shape" fill="#334750"></path><path d="M17.9,72.2 L17.9,72.2 L17.4,72 L11.8,66.4 L7.2,71 C6.92385762,71.2761424 6.47614239,71.2761423 6.20000002,71 C5.92385765,70.7238576 5.92385764,70.2761424 6.2,70 L11.3,64.9 C11.4316623,64.7656228 11.6118719,64.6898979 11.8,64.6898979 C11.9881281,64.6898979 12.1683377,64.7656228 12.3,64.9 L17.9,70.5 L26,62.4 C26.3085042,62.10793 26.7914958,62.10793 27.1,62.4 C27.3022247,62.7026622 27.3022247,63.0973378 27.1,63.4 L18.4,72 L17.9,72.2" id="Path" fill="#334750"></path><path d="M26.5,67.900025 C26.1134007,67.900025 25.8,67.5865993 25.8,67.2 L25.8,63.6 L22.2,63.6 C21.8134007,63.6 21.5,63.2865993 21.5,62.9 C21.5,62.5134007 21.8134007,62.199975 22.2,62.199975 L26.5,62.199975 C26.90555,62.1968206 27.2493171,62.4976169 27.3,62.9 L27.3,67.2 C27.2493171,67.6023831 26.90555,67.9031794 26.5,67.900025" id="Path" fill="#334750"></path><path d="M9.4,0.9 L0.7,9.6 L5.8,9.6 L5.8,16.8 C5.8,17.5731986 6.42680135,18.2 7.2,18.2 L11.6,18.2 C12.3731986,18.2 13,17.5731986 13,16.8 L13,9.6 L18.1,9.6 L9.4,0.9 Z" id="Path" fill="#FC6E50"></path><path d="M11.6,19.0000014 L7.2,19.0000014 C6.62527831,19.000652 6.07540263,18.7657288 5.67857099,18.3500004 C5.28173935,17.934272 5.07263191,17.3740701 5.1,16.8 L5.1,10.3 L0.7,10.3 C0.404052029,10.3041349 0.149300592,10.091842 0.1,9.8 C-0.0656854249,9.5790861 -0.0209138999,9.26568542 0.2,9.1 L8.9,0.4 C9.03166227,0.265622761 9.21187187,0.189897949 9.4,0.189897949 C9.58812813,0.189897949 9.76833773,0.265622761 9.9,0.4 L18.6,9.1 C18.7818909,9.2868186 18.8223061,9.56972469 18.7,9.8 C18.6506994,10.091842 18.395948,10.3041349 18.1,10.3 L13.7,10.3 L13.7,16.8 C13.7273681,17.3740701 13.5182607,17.934272 13.121429,18.3500004 C12.7245974,18.7657288 12.1747217,19.000652 11.6,19.0000014 M2.5,8.9 L5.8,8.9 C6.18659932,8.9 6.5,9.21340068 6.5,9.6 L6.5,16.8 C6.5,17.1865993 6.81340068,17.5 7.2,17.5 L11.6,17.5 C11.9865993,17.5 12.3,17.1865993 12.3,16.8 L12.3,9.6 C12.3,9.21340068 12.6134007,8.9 13,8.9 L16.3,8.9 L9.4,1.9 L2.5,8.9 Z" id="Shape" fill="#334750"></path><path d="M74.8,68.6 C74.8405243,73.3006499 72.0401135,77.5610251 67.7088567,79.3880353 C63.3775999,81.2150454 58.3719205,80.2474342 55.0335773,76.9378699 C51.6952341,73.6283055 50.6843207,68.6311911 52.4737631,64.2842787 C54.2632054,59.9373663 58.4991754,57.1 63.2,57.1 C69.567653,57.0997634 74.7451064,62.2325836 74.8,68.6" id="Path" fill="#FFD740"></path><path d="M63.2,80.9 C56.4068976,80.9 50.9,75.3931024 50.9,68.6 C50.9,61.8068976 56.4068976,56.3 63.2,56.3 C69.9931024,56.3 75.5,61.8068976 75.5,68.6 C75.5,75.3931024 69.9931024,80.9 63.2,80.9 M63.2,57.8 C58.7823014,57.8001859 54.8015857,60.4668358 53.1205002,64.552177 C51.4394147,68.6375182 52.3904479,73.3335437 55.5285945,76.4429 C58.6667412,79.5522562 63.3713323,80.4599687 67.4410064,78.7413025 C71.5106805,77.0226363 74.1405293,73.0175127 74.1,68.6 C74.1001235,65.7182513 72.9485528,62.955965 70.9014801,60.9276728 C68.8544075,58.8993807 66.0816252,57.7733171 63.2,57.8" id="Shape" fill="#334750"></path><path d="M63.9,54.9 L63.5,54.9 C63.1663008,54.6868452 63.03874,54.2616426 63.2,53.9 C64.7798457,50.7114154 65.7305077,47.2482894 66,43.7 C66,43.5 65.9,43.4 65.8,43.2 L65.3,43 L41.5,43 C38.7224766,42.9455283 36.4994659,40.6780575 36.5,37.9 L36.5,14.2 C36.5175923,13.9862395 36.3968909,13.7850706 36.2,13.7 C36.1,13.5 35.9,13.5 35.7,13.5 C21.1067856,14.694101 9.85507126,26.8581166 9.8,41.5 C9.79442442,44.7668202 10.3352165,48.0115729 11.4,51.1 C11.6,51.4 11.4,51.8 11,52 C10.8142935,52.0613684 10.6113816,52.0422447 10.4404106,51.9472609 C10.2694397,51.852277 10.1460039,51.6900964 10.1,51.5 C8.90585339,48.3013941 8.29616607,44.9142424 8.29998203,41.5 C8.400867,26.0860029 20.2399837,13.2928182 35.6,12 C36.1905956,11.9871051 36.7635096,12.2019479 37.2,12.6 C37.6661648,12.9979043 37.9241494,13.5875833 37.9,14.2 L37.9,37.9 C37.9,39.8882251 39.5117749,41.5 41.5,41.5 L65.3,41.5 C65.9023162,41.5241205 66.4735002,41.7740135 66.9,42.2 C67.2929163,42.6343869 67.4756647,43.2191815 67.4,43.8 C67.1328867,47.5203909 66.1481048,51.1538965 64.5,54.5 C64.4113684,54.7520518 64.1667523,54.9151292 63.9,54.9" id="Path" fill="#334750"></path><path d="M37.9,71.2 L35.3,71 C35.1219253,71.0024939 34.9519449,70.9257513 34.8360441,70.7905337 C34.7201432,70.655316 34.6703005,70.4755983 34.7,70.3 C34.7506829,69.8976169 35.09445,69.5968206 35.5,69.6 L37.9,69.6 C41.5266603,69.5950963 45.1208935,68.916939 48.5,67.6 C48.6829533,67.5007038 48.9006084,67.4879841 49.0938825,67.5652937 C49.2871566,67.6426033 49.4359967,67.8019212 49.5,68 C49.5572052,68.3528123 49.4002146,68.706041 49.1,68.9 C45.5376884,70.3292859 41.7382713,71.0756 37.9,71.1" id="Path" fill="#334750"></path><path d="M63.2,65.7 C62.8134007,65.7 62.5,65.3865993 62.5,65 L62.5,62.9 C62.5,62.5134007 62.8134007,62.2 63.2,62.2 C63.5865993,62.2 63.9,62.5134007 63.9,62.9 L63.9,65 C63.9,65.3865993 63.5865993,65.7 63.2,65.7" id="Path" fill="#334750"></path><path d="M63.2,75.1 C62.8134007,75.1 62.5,74.7865993 62.5,74.4 L62.5,72.2 C62.5,71.8134007 62.8134007,71.5 63.2,71.5 C63.5865993,71.5 63.9,71.8134007 63.9,72.2 L63.9,74.4 C63.9,74.5856515 63.8262502,74.7636993 63.6949747,74.8949747 C63.5636993,75.0262502 63.3856515,75.1 63.2,75.1" id="Path" fill="#334750"></path><path d="M64.3,73 L60.3,73 C59.8976169,72.9493171 59.5968206,72.60555 59.599975,72.2 C59.599975,72.0143485 59.6737498,71.8363007 59.8050253,71.7050253 C59.9363007,71.5737498 60.1143485,71.5 60.3,71.5 L64.3,71.5 C64.9075132,71.5 65.4,71.0075132 65.4,70.4 C65.4014214,70.1165122 65.282452,69.845743 65.0726854,69.6550461 C64.8629188,69.4643492 64.58207,69.3716473 64.3,69.4 L62.1,69.4 C60.7032564,69.3462397 59.5989658,68.1977774 59.599975,66.8 C59.599975,65.4192881 60.7192881,64.3 62.1,64.3 L65.4,64.3 C65.7865993,64.3 66.1,64.6134007 66.1,65 C66.1,65.3865993 65.7865993,65.7 65.4,65.7 L62.1,65.7 C61.4924868,65.7 61,66.1924868 61,66.8 C61,67.4075132 61.4924868,67.9 62.1,67.9 L64.3,67.9 C65.6807119,67.9 66.8000007,69.0192881 66.8000007,70.4 C66.8010342,71.7977774 65.6967436,72.9462397 64.3,73" id="Path" fill="#334750"></path><path d="M75.9,17.300025 L75.9,17.300025 C75.49445,17.3031794 75.1506829,17.0023831 75.1,16.6 L75.1,10.8 C75.1506829,10.3976169 75.49445,10.0968206 75.9,10.099975 C76.2865993,10.099975 76.6,10.4134007 76.6,10.8 L76.6,16.6 C76.6,16.9865993 76.2865993,17.300025 75.9,17.300025" id="Path" fill="#334750"></path><path d="M78.8,14.4 L73,14.4 C72.59445,14.4031794 72.2506829,14.1023831 72.2,13.7 C72.2506829,13.2976169 72.59445,12.9968206 73,13 L78.8,13 C79.1865993,13 79.5,13.3134007 79.5,13.7 C79.5,14.0865993 79.1865993,14.4 78.8,14.4" id="Path" fill="#334750"></path><path d="M62.9,7.20002497 C62.49445,7.20317936 62.1506829,6.90238314 62.1,6.5 L62.1,0.7 C62.1506829,0.297616859 62.49445,-0.00317936158 62.9,-2.49693648e-05 C63.2865993,-2.49693648e-05 63.6,0.313400675 63.6,0.7 L63.6,6.5 C63.6,6.88659932 63.2865993,7.20002497 62.9,7.20002497" id="Path" fill="#334750"></path><path d="M65.7,4.3 L60,4.3 C59.59445,4.30317936 59.2506829,4.00238314 59.2,3.6 C59.2506829,3.19761686 59.59445,2.89682064 60,2.9 L65.7,2.9 C66.10555,2.89682064 66.4493171,3.19761686 66.5,3.6 C66.4493171,4.00238314 66.10555,4.30317936 65.7,4.3" id="Path" fill="#334750"></path></g></g></g></g></svg> 