<?xml version="1.0" encoding="UTF-8"?> <svg xmlns="http://www.w3.org/2000/svg" xmlns:xlink="http://www.w3.org/1999/xlink" width="90px" height="90px" viewBox="0 0 90 90" version="1.1"><title>66B12E42-1859-4E8E-BEF1-D37B17F07F71</title><g id="Page-1" stroke="none" stroke-width="1" fill="none" fill-rule="evenodd"><g id="About-Us-Updated" transform="translate(-794.000000, -4602.000000)"><g id="Group-17" transform="translate(794.000000, 4602.000000)"><rect id="Rectangle" x="0" y="0" width="90" height="90"></rect><g id="Value" transform="translate(8.000000, 4.000000)" fill-rule="nonzero"><polygon id="Path" fill="#40C4FF" points="36.6204545 71.3772727 11.7409091 40.4409091 18.45 28.2340909 54.7909091 28.2340909 61.5 40.4409091"></polygon><path d="M36.6204545,72.0295455 C36.4050301,72.0118942 36.2047393,71.9117488 36.0613636,71.75 L11.1818182,40.8136364 C11.0186664,40.6001098 10.9830651,40.3152988 11.0886364,40.0681818 L17.8909091,27.9545455 C17.9940198,27.7364842 18.2090547,27.5931276 18.45,27.5818182 L54.7909091,27.5818182 C55.0318544,27.5931276 55.2468893,27.7364842 55.35,27.9545455 L62.1522727,40.0681818 C62.257844,40.3152988 62.2222427,40.6001098 62.0590909,40.8136364 L37.1795455,71.75 C37.0361698,71.9117488 36.835879,72.0118942 36.6204545,72.0295455 M12.4863636,40.3477273 L36.6204545,70.2590909 L60.7545455,40.3477273 L54.4181818,28.9795455 L18.8227273,28.9795455 L12.4863636,40.3477273 Z" id="Shape" fill="#334750"></path><path d="M36.6204545,72.0295455 C36.3309277,72.0143001 36.0765037,71.8325687 35.9681818,71.5636364 L25.2522727,40.6272727 C25.1524008,40.4542894 25.1524008,40.2411651 25.2522727,40.0681818 L30.8431818,27.9545455 C30.9986705,27.7442779 31.2353605,27.6090265 31.4954545,27.5818182 L42.3977273,27.5818182 C42.6872541,27.5970635 42.9416781,27.7787949 43.05,28.0477273 L47.9886364,40.1613636 C48.0976592,40.2975331 48.0976592,40.4911032 47.9886364,40.6272727 L37.2727273,71.5636364 C37.1644054,71.8325687 36.9099814,72.0143001 36.6204545,72.0295455 M26.5568182,40.4409091 L36.6204545,69.3272727 L46.6840909,40.4409091 L41.9318182,28.9795455 L31.9613636,28.9795455 L26.5568182,40.4409091 Z" id="Shape" fill="#334750"></path><path d="M61.5,41.0931818 L11.7409091,41.0931818 C11.4310424,41.2081995 11.0824366,41.1054411 10.8844999,40.8407385 C10.6865632,40.5760359 10.6865632,40.2126005 10.8844999,39.9478979 C11.0824366,39.6831953 11.4310424,39.5804369 11.7409091,39.6954545 L61.5,39.6954545 C61.8419954,39.7360982 62.1116291,40.0057319 62.152296,40.3477273 C62.1552353,40.7256262 61.8749479,41.0459546 61.5,41.0931818" id="Path" fill="#334750"></path><path d="M66.2522727,24.8795455 C65.9627459,24.8643001 65.7083219,24.6825687 65.6,24.4136364 L64.8545455,22.1772727 C64.5627745,21.2434878 63.8315122,20.5122255 62.8977273,20.2204545 L60.6613636,19.475 C60.3011234,19.475 60.0090909,19.1829676 60.0090909,18.8227273 C60.0090909,18.462487 60.3011234,18.1704545 60.6613636,18.1704545 L62.8977273,17.425 C63.8315122,17.133229 64.5627745,16.4019667 64.8545455,15.4681818 L65.6,13.2318182 C65.7312886,12.9945282 65.9810842,12.8472553 66.2522727,12.8472553 C66.5234613,12.8472553 66.7732569,12.9945282 66.9045455,13.2318182 L67.65,15.4681818 C67.941771,16.4019667 68.6730333,17.133229 69.6068182,17.425 L71.8431818,18.1704545 C72.2034221,18.1704545 72.4954545,18.462487 72.4954545,18.8227273 C72.4954545,19.1829676 72.2034221,19.475 71.8431818,19.475 L69.6068182,20.2204545 C68.6730333,20.5122255 67.941771,21.2434878 67.65,22.1772727 L66.9045455,24.4136364 C66.7962236,24.6825687 66.5417996,24.8643001 66.2522727,24.8795455 M62.9909091,18.8227273 L63.2704545,18.8227273 C64.6474282,19.3090389 65.7167267,20.4128309 66.1590909,21.8045455 L66.1590909,21.8045455 C66.6177534,20.4755696 67.6413178,19.4178864 68.9545455,18.9159091 L68.9545455,18.9159091 C67.6539848,18.4452177 66.6297823,17.4210152 66.1590909,16.1204545 L66.1590909,16.1204545 C65.6802605,17.448803 64.6137843,18.4808767 63.2704545,18.9159091 L62.9909091,18.8227273 Z" id="Shape" fill="#334750"></path><path d="M6.98863636,65.3204545 C6.69910949,65.3052092 6.44468553,65.1234778 6.33636364,64.8545455 L5.59090909,62.6181818 C5.29913813,61.6843969 4.56787584,60.9531346 3.63409091,60.6613636 L1.39772727,59.9159091 C1.03748699,59.9159091 0.745454545,59.6238766 0.745454545,59.2636364 C0.745454545,58.9033961 1.03748699,58.6113636 1.39772727,58.6113636 L3.63409091,57.8659091 C4.56787584,57.5741381 5.29913813,56.8428758 5.59090909,55.9090909 L6.33636364,53.6727273 C6.46765223,53.4354373 6.71744782,53.2881644 6.98863636,53.2881644 C7.25982491,53.2881644 7.5096205,53.4354373 7.64090909,53.6727273 L8.38636364,55.9090909 C8.6781346,56.8428758 9.40939689,57.5741381 10.3431818,57.8659091 L12.5795455,58.6113636 C12.9397857,58.6113636 13.2318182,58.9033961 13.2318182,59.2636364 C13.2318182,59.6238766 12.9397857,59.9159091 12.5795455,59.9159091 L10.3431818,60.6613636 C9.40939689,60.9531346 8.6781346,61.6843969 8.38636364,62.6181818 L7.64090909,64.8545455 C7.5325872,65.1234778 7.27816324,65.3052092 6.98863636,65.3204545 M3.72727273,59.2636364 L4.00681818,59.2636364 C5.35014798,59.6986688 6.41662412,60.7307425 6.89545455,62.0590909 L6.89545455,62.0590909 C7.37428497,60.7307425 8.44076111,59.6986688 9.78409091,59.2636364 L9.78409091,59.2636364 C8.41204666,58.8223983 7.33669264,57.7470443 6.89545455,56.375 L6.89545455,56.375 C6.45421645,57.7470443 5.37886243,58.8223983 4.00681818,59.2636364 L3.72727273,59.2636364 Z" id="Shape" fill="#334750"></path><path d="M8.29318182,77.4340909 L6.98863636,77.4340909 C6.62839608,77.4340909 6.33634037,77.1420585 6.33634037,76.7818182 C6.33340105,76.4039193 6.61368844,76.0835908 6.98863636,76.0363636 L8.29318182,76.0363636 C8.68631138,76.0780826 8.99691744,76.3886886 9.03863636,76.7818182 C8.99140916,77.1567661 8.67108072,77.4370535 8.29318182,77.4340909" id="Path" fill="#334750"></path><path d="M25.8113636,77.4340909 L10.9954545,77.4340909 C10.6352143,77.4340909 10.3431586,77.1420585 10.3431586,76.7818182 C10.3402192,76.4039193 10.6205066,76.0835908 10.9954545,76.0363636 L25.8113636,76.0363636 C26.2044932,76.0780826 26.5150993,76.3886886 26.5568182,76.7818182 C26.509591,77.1567661 26.1892625,77.4370535 25.8113636,77.4340909" id="Path" fill="#334750"></path><path d="M31.2159091,81.4409091 L13.6977273,81.4409091 C13.337487,81.4409091 13.0454545,81.1488766 13.0454545,80.7886364 C13.0454545,80.4283961 13.337487,80.1363636 13.6977273,80.1363636 L31.2159091,80.1363636 C31.5761494,80.1363636 31.8681818,80.4283961 31.8681818,80.7886364 C31.8681818,81.1488766 31.5761494,81.4409091 31.2159091,81.4409091" id="Path" fill="#334750"></path><path d="M66.2522727,77.4340909 L64.8545455,77.4340909 C64.4943052,77.4340909 64.2022495,77.1420585 64.2022495,76.7818182 C64.1993101,76.4039193 64.4795975,76.0835908 64.8545455,76.0363636 L66.2522727,76.0363636 C66.6272207,76.0835908 66.907508,76.4039193 66.9045687,76.7818182 C66.9045687,76.9548117 66.8358241,77.1207198 66.7134992,77.2430447 C66.5911743,77.3653695 66.4252662,77.4340909 66.2522727,77.4340909" id="Path" fill="#334750"></path><path d="M62.1522727,77.4340909 L47.4295455,77.4340909 C47.0516466,77.4370535 46.7313181,77.1567661 46.6840909,76.7818182 C46.7258098,76.3886886 47.0364159,76.0780826 47.4295455,76.0363636 L62.1522727,76.0363636 C62.5454023,76.0780826 62.8560084,76.3886886 62.8977273,76.7818182 C62.8505001,77.1567661 62.5301716,77.4370535 62.1522727,77.4340909" id="Path" fill="#334750"></path><path d="M59.5431818,81.4409091 L42.025,81.4409091 C41.6647597,81.4409091 41.3727273,81.1488766 41.3727273,80.7886364 C41.3727273,80.4283961 41.6647597,80.1363636 42.025,80.1363636 L59.5431818,80.1363636 C59.9034221,80.1363636 60.1954545,80.4283961 60.1954545,80.7886364 C60.1954545,81.1488766 59.9034221,81.4409091 59.5431818,81.4409091" id="Path" fill="#334750"></path><path d="M47.4295455,10.0636364 C47.4673114,14.179955 45.0167705,17.912002 41.2245742,19.5134864 C37.4323779,21.1149708 33.0485543,20.2691479 30.1243722,17.3717931 C27.2001901,14.4744384 26.3140001,10.0985965 27.8804661,6.29180129 C29.4469321,2.48500613 33.1562354,-1.6552416e-15 37.2727273,-1.6552416e-15 C42.8459939,-0.00023455024 47.3784146,4.49060431 47.4295455,10.0636364" id="Path" fill="#FFD740"></path><path d="M35.4090909,13.8840909 L34.9431818,13.6977273 L31.1227273,9.87727273 C30.8654128,9.61995824 30.8654128,9.20276905 31.1227273,8.94545457 C31.3800418,8.68814009 31.797231,8.68814008 32.0545455,8.94545455 L35.4090909,12.3 L42.025,5.59090909 C42.2823145,5.33359463 42.6995037,5.33359464 42.9568182,5.59090911 C43.2141326,5.84822359 43.2141326,6.26541278 42.9568182,6.52272727 L35.875,13.6977273 L35.4090909,13.8840909" id="Path" fill="#334750"></path></g></g></g></g></svg> 