<svg width="39" height="37" viewBox="0 0 39 37" fill="none" xmlns="http://www.w3.org/2000/svg">
<path fill-rule="evenodd" clip-rule="evenodd" d="M30.089 11.45C31.309 9.483 35.304 8.642 36.774 7.172C38.17 5.775 37.962 3.482 36.604 2.123C35.245 0.765002 32.951 0.556002 31.554 1.953C30.084 3.423 29.244 7.419 27.277 8.637C25.311 9.857 20.743 6.711 20.743 6.711L16.817 10.637L28.14 21.96L32.067 18.034C32.067 18.034 28.871 13.416 30.09 11.449L30.089 11.45Z" stroke="#2998FF" stroke-width="1.4" stroke-linejoin="round"/>
<path d="M27.078 20.898L21.063 26.913L11.863 17.714L17.879 11.699M18.531 24.381L21.361 21.551M14.041 19.892L16.518 17.416M16.573 22.424L18.343 20.655M34.896 3.88L33.481 5.296M9.29599 20.282L5.10599 24.472M18.495 29.481L14.233 33.743M12.362 23.348L10.487 25.224M15.429 26.415L12.342 29.502" stroke="#2998FF" stroke-width="1.4" stroke-linejoin="round"/>
<path d="M13.885 10.086H1.818C1.366 10.086 1 10.453 1 10.905V35.45C1 35.902 1.366 36.268 1.818 36.268H30.454C30.907 36.268 31.272 35.902 31.272 35.45V23.45M2.636 14.995H9.898M3.455 12.541H5.091M5.909 12.541H7.545" stroke="#2998FF" stroke-width="1.4" stroke-linejoin="round"/>
</svg>
