<svg width="37" height="40" viewBox="0 0 37 40" fill="none" xmlns="http://www.w3.org/2000/svg">
<path d="M11 36H1V1H36V36H29.333M1 6H36M3.5 3.5H5.167M6.833 3.5H8.5" stroke="#2998FF" stroke-width="1.4"/>
<path d="M14.333 22.667H5.16699V10.167H31.833V22.667H21" stroke="#2998FF" stroke-width="1.4"/>
<path d="M4.33301 26H10.167M4.33301 29.333H7.66701M25.563 27.693C24.906 27.423 19.333 25.992 19.333 25.992V21C19.333 20.08 18.587 19.334 17.667 19.334C16.746 19.334 16 20.079 16 21V31H15.167C15.167 31 12.979 28.734 11.833 28.5C10.688 28.265 9.39801 29.477 10.841 31.45C11.294 32.069 15.713 38.051 16.001 38.5H26.001C26.025 38.5 26.833 36.885 26.833 35.167V29.334C26.833 28.487 26.218 27.963 25.563 27.693Z" stroke="#2998FF" stroke-width="1.4"/>
</svg>
