<svg width="40" height="35" viewBox="0 0 40 35" fill="none" xmlns="http://www.w3.org/2000/svg">
<path d="M21.767 17.769L27.512 12.467M15.14 23.071L17.349 21.304M18.674 0.999001C15.805 1.133 13.105 1.919 10.721 3.214M28.395 3.216C26.012 1.921 23.312 1.134 20.442 1M27.788 8.048C29.806 9.502 31.425 11.478 32.451 13.777L29.531 15.79L39 20.318L38.2 9.815L36.149 11.229C34.757 8.452 32.689 6.073 30.161 4.308M20.442 5.424C22.337 5.542 24.129 6.032 25.747 6.824M12.708 7.164C14.494 6.172 16.519 5.557 18.674 5.424M22.21 19.536C22.21 21.001 21.022 22.188 19.558 22.188C18.094 22.188 16.907 21.001 16.907 19.536C16.907 18.072 18.094 16.886 19.558 16.886C21.022 16.886 22.21 18.072 22.21 19.536Z" stroke="#2998FF" stroke-width="1.4" stroke-linejoin="round"/>
<path d="M33.45 22.188C32.208 28.729 26.462 33.676 19.558 33.676C11.748 33.676 5.418 27.345 5.418 19.536C5.418 14.804 7.743 10.614 11.314 8.048M8.953 4.305C4.146 7.659 1 13.23 1 19.537" stroke="#2998FF" stroke-width="1.4" stroke-linejoin="round"/>
</svg>
