<svg xmlns="http://www.w3.org/2000/svg" width="40" height="38" viewBox="0 0 40 38">
    <g fill="none" fill-rule="evenodd" stroke="#33CAC0" stroke-linejoin="round" stroke-width="1.362">
        <path d="M21.667 17.5L24.167 17.5 24.167 23.333 38.333 11.667 24.167 0 24.167 5 8.333 5M27.5 30.833L17.5 30.833 17.5 35.833 5 25 9.167 20.833M32.5 20.833L40 20.833M36.667 25.833L26.667 25.833M6.667 5L5 5M3.333 5L1.667 5M2.5 18.333v-6.666c0-.92.747-1.667 1.667-1.667H5c.92 0 1.667.747 1.667 1.667v6.666M2.5 15L6.667 15" transform="translate(0 1)"/>
        <path d="M10 15h2.5c.92 0 1.667-.747 1.667-1.667v-1.666c0-.92-.747-1.667-1.667-1.667H10v8.333M18.333 10L18.333 17.5M16.667 10L20 10M16.667 17.5L20 17.5M10 .833L0 .833M29.167 30.833L30.833 30.833M32.5 30.833L34.167 30.833" transform="translate(0 1)"/>
    </g>
</svg>
