<svg xmlns="http://www.w3.org/2000/svg" width="36" height="41" viewBox="0 0 36 41">
    <g fill="none" fill-rule="evenodd" stroke="#33CAC0" stroke-width="1.4">
        <path d="M5.143 3.429L5.143 0 35.143 0 35.143 18.857" transform="translate(0 1)"/>
        <path d="M.857 32.571L.857 5.143 30.857 5.143 30.857 25.714M.857 10.286L30.857 10.286M3.429 7.714L5.143 7.714M6.857 7.714L8.571 7.714M10.286 7.714L12 7.714M30.857 27.429L30.857 29.143M30.857 30.857L30.857 32.571M35.143 24L35.143 25.714M35.143 20.571L35.143 22.286M6.857 26.571L6.857 35.143M24.857 23.143L24.857 32.571M6.857 36.857L6.857 38.571M12.857 24L12.857 32.571M12.857 34.286L12.857 36M18.857 30L18.857 39.429M.857 34.286L.857 36" transform="translate(0 1)"/>
    </g>
</svg>
