<svg xmlns="http://www.w3.org/2000/svg" width="37" height="36" viewBox="0 0 37 36">
    <g fill="none" fill-rule="evenodd" stroke="#33CAC0" stroke-linejoin="round" stroke-width="1.4">
        <path d="M0 35.143L7.714 35.143 7.714.857 0 .857zM12 4.286L12 .857 16.286.857M35.143 4.286L35.143.857 30.857.857M18 .857L20.571.857M22.286.857L24.857.857M26.571.857L29.143.857M12 14.571L12 18 16.286 18M35.143 14.571L35.143 18 30.857 18M18 18L20.571 18M22.286 18L24.857 18M26.571 18L29.143 18M12 6L12 8.571M12 10.286L12 12.857M35.143 6L35.143 8.571M35.143 10.286L35.143 12.857M14.571 14.571L20.571 8.571 26.571 14.571" transform="translate(1)"/>
        <path d="M24 12L26.571 9.429 32.571 15.429M28.286 6L30 6M12 25.714L12 22.286 16.286 22.286M35.143 25.714L35.143 22.286 30.857 22.286M18 22.286L20.571 22.286M22.286 22.286L24.857 22.286M26.571 22.286L29.143 22.286M12 31.714L12 35.143 16.286 35.143M35.143 31.714L35.143 35.143 30.857 35.143M18 35.143L20.571 35.143M22.286 35.143L24.857 35.143M26.571 35.143L29.143 35.143M12 27.429L12 30M35.143 27.429L35.143 30M16.286 26.571L30.857 26.571M16.286 30L25.714 30" transform="translate(1)"/>
    </g>
</svg>
