<svg width="52" height="52" viewBox="0 0 52 52" fill="none" xmlns="http://www.w3.org/2000/svg">
<g clip-path="url(#clip0_5_30)">
<path d="M26 51C39.8071 51 51 39.8071 51 26C51 12.1929 39.8071 1 26 1C12.1929 1 1 12.1929 1 26C1 39.8071 12.1929 51 26 51Z" stroke="#2998FF" stroke-width="1.4" stroke-linejoin="round"/>
<path d="M12 12H40V40H12V12ZM37.706 33.322C37.502 32.045 36.67 30.972 34.202 29.97C33.344 29.567 32.39 29.288 32.104 28.641C31.998 28.256 31.983 28.047 32.051 27.818C32.227 27.066 33.12 26.84 33.82 27.048C34.276 27.188 34.696 27.538 34.958 28.1C36.164 27.311 36.164 27.311 37.006 26.787C36.69 26.299 36.533 26.086 36.323 25.876C35.587 25.054 34.607 24.634 33.016 24.67L32.194 24.774C31.406 24.967 30.653 25.389 30.198 25.947C28.868 27.453 29.253 30.077 30.863 31.164C32.454 32.354 34.784 32.616 35.081 33.736C35.361 35.102 34.067 35.539 32.787 35.382C31.843 35.17 31.317 34.699 30.74 33.822L28.606 35.049C28.85 35.607 29.13 35.853 29.55 36.343C31.58 38.39 36.656 38.286 37.566 35.17C37.598 35.066 37.846 34.349 37.653 33.246L37.706 33.322ZM27.226 24.869H24.603C24.603 27.129 24.593 29.377 24.593 31.642C24.593 33.079 24.665 34.398 24.43 34.804C24.046 35.609 23.052 35.506 22.603 35.363C22.141 35.136 21.906 34.82 21.633 34.366C21.56 34.244 21.506 34.139 21.486 34.139L19.358 35.452C19.714 36.187 20.234 36.819 20.904 37.22C21.901 37.816 23.24 38.009 24.644 37.695C25.558 37.43 26.347 36.887 26.756 36.047C27.353 34.963 27.226 33.632 27.221 32.144C27.234 29.747 27.221 27.349 27.221 24.934L27.226 24.869Z" fill="url(#paint0_linear_5_30)"/>
</g>
<defs>
<linearGradient id="paint0_linear_5_30" x1="12" y1="2812" x2="2812" y2="12" gradientUnits="userSpaceOnUse">
<stop stop-color="#2998FF"/>
<stop offset="1" stop-color="#0BBCE8"/>
</linearGradient>
<clipPath id="clip0_5_30">
<rect width="52" height="52" fill="white"/>
</clipPath>
</defs>
</svg>
