<svg width="52" height="52" viewBox="0 0 52 52" fill="none" xmlns="http://www.w3.org/2000/svg">
<path d="M26 51C39.8071 51 51 39.8071 51 26C51 12.1929 39.8071 1 26 1C12.1929 1 1 12.1929 1 26C1 39.8071 12.1929 51 26 51Z" stroke="#2998FF" stroke-width="1.4" stroke-linejoin="round"/>
<path d="M19.016 24.38C19.016 24.776 19.063 25.094 19.136 25.328C19.219 25.562 19.329 25.818 19.475 26.094C19.525 26.166 19.551 26.251 19.553 26.339C19.553 26.448 19.485 26.553 19.35 26.662L18.678 27.105C18.598 27.165 18.502 27.2 18.402 27.204C18.293 27.204 18.188 27.152 18.084 27.053C17.938 26.9 17.809 26.733 17.699 26.553C17.579 26.35 17.469 26.142 17.371 25.928C16.538 26.907 15.496 27.397 14.241 27.397C13.345 27.397 12.632 27.142 12.111 26.631C11.59 26.115 11.325 25.438 11.325 24.584C11.325 23.683 11.643 22.943 12.294 22.391C12.945 21.839 13.804 21.563 14.903 21.563C15.262 21.563 15.637 21.594 16.028 21.646C16.424 21.698 16.83 21.787 17.252 21.88V21.104C17.252 20.297 17.085 19.729 16.752 19.401C16.413 19.073 15.841 18.911 15.018 18.911C14.648 18.911 14.263 18.953 13.867 19.046C13.477 19.141 13.094 19.263 12.721 19.411C12.596 19.468 12.471 19.51 12.346 19.552C12.292 19.568 12.236 19.579 12.179 19.583C12.028 19.583 11.955 19.474 11.955 19.25V18.729C11.955 18.562 11.976 18.432 12.028 18.359C12.106 18.26 12.208 18.183 12.325 18.135C12.751 17.922 13.2 17.762 13.664 17.656C14.206 17.516 14.764 17.448 15.325 17.453C16.596 17.453 17.518 17.739 18.117 18.318C18.7 18.891 18.997 19.761 18.997 20.933V24.381L19.016 24.38ZM14.698 26C15.047 26 15.412 25.937 15.792 25.807C16.182 25.675 16.532 25.441 16.802 25.13C16.974 24.927 17.104 24.703 17.167 24.448C17.23 24.193 17.271 23.88 17.271 23.521V23.073C16.948 22.993 16.621 22.933 16.292 22.891C15.96 22.849 15.626 22.828 15.292 22.828C14.578 22.828 14.058 22.969 13.709 23.255C13.355 23.541 13.188 23.948 13.188 24.479C13.188 24.979 13.313 25.349 13.579 25.604C13.834 25.87 14.208 26 14.698 26ZM23.245 27.151C23.052 27.151 22.922 27.12 22.839 27.042C22.756 26.979 22.678 26.828 22.615 26.631L20.115 18.402C20.066 18.264 20.035 18.121 20.021 17.975C20.021 17.803 20.104 17.709 20.271 17.709H21.318C21.521 17.709 21.657 17.74 21.729 17.813C21.818 17.876 21.88 18.027 21.943 18.23L23.735 25.277L25.396 18.23C25.448 18.016 25.511 17.876 25.594 17.813C25.722 17.735 25.871 17.698 26.021 17.709H26.87C27.073 17.709 27.214 17.74 27.297 17.813C27.38 17.876 27.458 18.027 27.5 18.23L29.182 25.36L31.021 18.23C31.089 18.016 31.162 17.876 31.235 17.813C31.359 17.735 31.505 17.698 31.652 17.709H32.642C32.814 17.709 32.908 17.792 32.908 17.975C32.908 18.027 32.898 18.079 32.887 18.147C32.87 18.237 32.845 18.327 32.814 18.413L30.246 26.637C30.183 26.851 30.111 26.991 30.022 27.054C29.903 27.132 29.762 27.169 29.621 27.158H28.704C28.501 27.158 28.365 27.127 28.277 27.054C28.194 26.981 28.121 26.84 28.079 26.627L26.428 19.762L24.787 26.616C24.735 26.83 24.672 26.97 24.584 27.043C24.501 27.116 24.35 27.147 24.157 27.147L23.245 27.151ZM36.917 27.438C36.365 27.438 35.813 27.37 35.282 27.245C34.751 27.12 34.334 26.979 34.058 26.818C33.886 26.724 33.772 26.62 33.73 26.521C33.687 26.428 33.663 26.327 33.662 26.224V25.682C33.662 25.458 33.751 25.349 33.907 25.349C33.97 25.349 34.037 25.359 34.1 25.38C34.163 25.406 34.261 25.448 34.366 25.489C34.731 25.65 35.121 25.775 35.538 25.859C35.965 25.948 36.377 25.989 36.804 25.989C37.476 25.989 37.997 25.869 38.356 25.635C38.71 25.421 38.924 25.036 38.913 24.625C38.917 24.349 38.815 24.082 38.627 23.88C38.434 23.682 38.07 23.5 37.549 23.328L36.007 22.849C35.231 22.604 34.653 22.245 34.304 21.766C33.96 21.323 33.772 20.78 33.768 20.219C33.768 19.771 33.867 19.38 34.06 19.037C34.253 18.698 34.508 18.402 34.826 18.167C35.156 17.916 35.531 17.729 35.93 17.615C36.357 17.485 36.805 17.433 37.274 17.433C37.508 17.433 37.753 17.443 37.988 17.475C38.233 17.506 38.457 17.548 38.681 17.595C38.889 17.647 39.092 17.699 39.285 17.762C39.478 17.825 39.629 17.892 39.733 17.955C39.858 18.019 39.966 18.11 40.051 18.221C40.122 18.325 40.157 18.449 40.15 18.575V19.075C40.15 19.299 40.061 19.414 39.905 19.414C39.763 19.399 39.625 19.357 39.499 19.289C38.857 19.003 38.159 18.861 37.457 18.872C36.848 18.872 36.368 18.966 36.04 19.169C35.707 19.372 35.54 19.679 35.54 20.117C35.54 20.414 35.644 20.669 35.858 20.872C36.072 21.075 36.467 21.278 37.03 21.461L38.54 21.935C39.306 22.18 39.863 22.524 40.191 22.961C40.519 23.393 40.681 23.893 40.681 24.451C40.681 24.904 40.582 25.321 40.405 25.685C40.213 26.047 39.949 26.367 39.629 26.623C39.296 26.889 38.905 27.076 38.447 27.217C37.952 27.367 37.438 27.443 36.921 27.441L36.917 27.438ZM38.932 32.609C35.427 35.198 30.343 36.567 25.968 36.567C19.838 36.567 14.312 34.301 10.14 30.531C9.81201 30.234 10.109 29.828 10.505 30.067C15.015 32.682 20.583 34.27 26.338 34.27C30.223 34.27 34.489 33.457 38.421 31.801C39.004 31.53 39.504 32.181 38.931 32.608L38.932 32.609ZM40.391 30.948C39.943 30.375 37.427 30.672 36.292 30.813C35.953 30.855 35.896 30.553 36.209 30.329C38.209 28.928 41.495 29.329 41.881 29.798C42.261 30.282 41.772 33.569 39.902 35.142C39.616 35.387 39.334 35.262 39.464 34.939C39.891 33.887 40.839 31.517 40.391 30.949V30.948Z" fill="url(#paint0_linear_5_9)"/>
<defs>
<linearGradient id="paint0_linear_5_9" x1="9.99936" y1="1316.15" x2="2668.66" y2="-273.498" gradientUnits="userSpaceOnUse">
<stop stop-color="#2998FF"/>
<stop offset="1" stop-color="#0BBCE8"/>
</linearGradient>
</defs>
</svg>
