<svg width="52" height="52" viewBox="0 0 52 52" fill="none" xmlns="http://www.w3.org/2000/svg">
<path d="M26 51C39.8071 51 51 39.8071 51 26C51 12.1929 39.8071 1 26 1C12.1929 1 1 12.1929 1 26C1 39.8071 12.1929 51 26 51Z" stroke="#2998FF" stroke-width="1.4" stroke-linejoin="round"/>
<path d="M32.839 10C31.595 10.01 30.357 10.19 29.162 10.536L29.079 10.563C28.327 10.433 27.566 10.359 26.803 10.344C25.23 10.317 23.88 10.697 22.792 11.333C21.719 10.964 19.495 10.317 17.151 10.448C15.522 10.536 13.74 11.031 12.416 12.427C11.104 13.818 10.407 15.974 10.552 18.912C10.593 19.719 10.823 21.036 11.208 22.749C11.588 24.458 12.125 26.458 12.797 28.286C13.469 30.109 14.202 31.749 15.349 32.863C15.921 33.42 16.713 33.895 17.645 33.854C18.297 33.827 18.885 33.541 19.396 33.119C19.645 33.447 19.912 33.587 20.151 33.718C20.459 33.885 20.75 33.999 21.058 34.073C21.61 34.213 22.553 34.396 23.657 34.208C24.059 34.136 24.451 34.015 24.824 33.849L24.871 35.156C24.928 36.536 24.966 37.812 25.376 38.932C25.444 39.115 25.627 40.052 26.345 40.885C27.069 41.718 28.474 42.234 30.084 41.89C31.215 41.65 32.657 41.213 33.616 39.849C34.564 38.505 34.991 36.573 35.075 33.437C35.095 33.265 35.122 33.125 35.147 32.989L35.371 33.01H35.398C36.606 33.062 37.919 32.89 39.018 32.379C39.986 31.931 40.721 31.478 41.257 30.671C41.388 30.472 41.538 30.228 41.576 29.811C41.617 29.4 41.377 28.748 40.981 28.447C40.19 27.843 39.69 28.072 39.153 28.187C38.627 28.3 38.092 28.365 37.554 28.379C39.095 25.786 40.199 23.026 40.83 20.587C41.205 19.144 41.414 17.816 41.429 16.655C41.45 15.494 41.352 14.468 40.658 13.578C38.481 10.802 35.423 10.03 33.059 10.005H32.84L32.839 10ZM32.776 10.855C35.011 10.834 37.869 11.459 39.921 14.083C40.385 14.672 40.521 15.531 40.505 16.594C40.489 17.657 40.292 18.922 39.932 20.313C39.24 23.012 37.921 26.146 36.073 28.965C36.137 29.013 36.207 29.052 36.281 29.08C36.666 29.241 37.546 29.376 39.306 29.017C39.749 28.922 40.073 28.861 40.411 29.116C40.577 29.256 40.668 29.466 40.655 29.684C40.637 29.846 40.575 30.001 40.478 30.132C40.139 30.641 39.469 31.127 38.609 31.528C37.849 31.881 36.754 32.064 35.792 32.075C35.303 32.08 34.855 32.043 34.473 31.923L34.453 31.919C34.306 33.33 33.969 36.122 33.749 37.392C33.573 38.417 33.265 39.236 32.677 39.845C32.088 40.46 31.26 40.824 30.14 41.064C28.755 41.361 27.749 41.043 27.099 40.496C26.449 39.949 26.151 39.22 25.974 38.777C25.85 38.47 25.787 38.074 25.725 37.542C25.657 36.907 25.612 36.269 25.589 35.631C25.548 34.511 25.532 33.391 25.548 32.266C24.97 32.796 24.252 33.148 23.48 33.282C22.559 33.438 21.741 33.282 21.252 33.162C21.011 33.1 20.778 33.009 20.559 32.891C20.33 32.771 20.116 32.636 19.971 32.364C19.887 32.208 19.861 32.028 19.898 31.855C19.941 31.679 20.042 31.523 20.185 31.412C20.45 31.197 20.8 31.079 21.325 30.969C22.284 30.77 22.622 30.636 22.825 30.473C22.997 30.338 23.196 30.057 23.538 29.645C23.538 29.63 23.538 29.609 23.533 29.593C22.913 29.574 22.307 29.41 21.762 29.114C21.565 29.322 20.538 30.406 19.294 31.906C18.773 32.53 18.195 32.89 17.581 32.917C16.972 32.942 16.418 32.636 15.95 32.182C15.013 31.27 14.262 29.702 13.611 27.931C12.96 26.16 12.434 24.187 12.054 22.51C11.679 20.827 11.455 19.473 11.423 18.822C11.283 16.046 11.934 14.177 13.048 12.994C14.162 11.811 15.689 11.369 17.179 11.281C19.851 11.13 22.392 12.062 22.903 12.26C23.892 11.588 25.168 11.172 26.762 11.197C27.517 11.208 28.269 11.307 29.002 11.489L29.029 11.473C29.351 11.361 29.68 11.268 30.013 11.193C30.918 10.981 31.843 10.867 32.773 10.854L32.776 10.855ZM32.979 11.745H32.782C32.022 11.754 31.255 11.844 30.511 12.005C32.172 12.74 33.427 13.869 34.312 15.005C34.927 15.786 35.432 16.645 35.817 17.562C35.969 17.917 36.068 18.213 36.12 18.442C36.151 18.557 36.167 18.655 36.177 18.754C36.177 18.806 36.182 18.859 36.156 18.947C36.156 18.952 36.151 18.963 36.151 18.968C36.194 20.135 35.902 20.925 35.864 22.04C35.839 22.848 36.047 23.796 36.099 24.832C36.146 25.805 36.027 26.873 35.396 27.925C35.448 27.988 35.495 28.05 35.547 28.118C37.219 25.482 38.427 22.571 39.068 20.086C39.412 18.747 39.593 17.534 39.609 16.577C39.625 15.618 39.448 14.92 39.218 14.629C37.426 12.342 35.005 11.758 32.978 11.744L32.979 11.745ZM26.588 12.088C25.016 12.093 23.885 12.568 23.027 13.281C22.14 14.021 21.547 15.026 21.162 16.062C20.698 17.286 20.537 18.473 20.474 19.281L20.495 19.27C21.05 18.96 21.646 18.728 22.266 18.583C22.933 18.426 23.657 18.379 24.307 18.635C24.964 18.884 25.5 19.483 25.698 20.384C26.637 24.728 25.407 26.343 24.954 27.561C24.782 28.004 24.631 28.452 24.511 28.91C24.568 28.899 24.626 28.883 24.683 28.878C25.006 28.853 25.255 28.957 25.402 29.019C25.861 29.211 26.173 29.607 26.345 30.06C26.387 30.184 26.418 30.31 26.438 30.44C26.455 30.494 26.464 30.55 26.465 30.607C26.412 32.268 26.418 33.93 26.48 35.591C26.512 36.31 26.559 36.94 26.616 37.44C26.673 37.935 26.751 38.315 26.804 38.445C26.975 38.872 27.225 39.429 27.679 39.809C28.127 40.19 28.772 40.44 29.955 40.19C30.98 39.966 31.611 39.663 32.032 39.226C32.455 38.783 32.704 38.174 32.865 37.242C33.11 35.841 33.594 31.778 33.652 31.018C33.627 30.439 33.709 29.997 33.897 29.658C34.084 29.314 34.376 29.101 34.632 28.986C34.756 28.929 34.876 28.893 34.975 28.861C34.87 28.715 34.763 28.571 34.652 28.429C34.287 27.986 33.987 27.494 33.761 26.966C33.657 26.745 33.542 26.529 33.417 26.319C33.241 26.002 33.017 25.6 32.782 25.147C32.313 24.251 31.803 23.158 31.537 22.095C31.272 21.032 31.236 19.934 31.913 19.163C32.512 18.475 33.569 18.19 35.146 18.351C35.099 18.21 35.074 18.09 34.995 17.908C34.636 17.066 34.169 16.274 33.604 15.553C32.265 13.84 30.093 12.141 26.745 12.084L26.588 12.088ZM17.735 12.156C17.567 12.156 17.398 12.161 17.23 12.172C15.881 12.251 14.61 12.64 13.698 13.604C12.787 14.573 12.189 16.151 12.318 18.771C12.345 19.271 12.558 20.656 12.927 22.307C13.298 23.959 13.823 25.902 14.454 27.62C15.083 29.333 15.845 30.828 16.574 31.536C16.938 31.885 17.255 32.031 17.542 32.021C17.829 32.005 18.178 31.838 18.605 31.328C19.38 30.393 20.185 29.483 21.017 28.599C19.817 27.554 19.232 25.97 19.465 24.396C19.6 23.412 19.621 22.489 19.6 21.76C19.585 21.052 19.537 20.584 19.537 20.287V20.255L19.532 20.246C19.532 18.709 19.804 17.189 20.324 15.746C20.699 14.75 21.252 13.746 22.084 12.927C21.267 12.656 19.813 12.251 18.241 12.172C18.073 12.162 17.903 12.156 17.735 12.156ZM34.265 19.197C33.36 19.213 32.854 19.448 32.584 19.749C32.208 20.182 32.172 20.942 32.407 21.88C32.64 22.817 33.126 23.864 33.579 24.735C33.803 25.172 34.022 25.563 34.198 25.88C34.381 26.203 34.511 26.427 34.589 26.625C34.662 26.802 34.746 26.958 34.829 27.104C35.178 26.364 35.241 25.64 35.204 24.88C35.157 23.943 34.939 22.984 34.975 22.016C35.012 20.88 35.236 20.14 35.252 19.265C34.925 19.222 34.596 19.199 34.267 19.197H34.265ZM23.287 19.355C23.011 19.355 22.735 19.391 22.464 19.454C21.927 19.584 21.41 19.784 20.927 20.053C20.765 20.141 20.61 20.243 20.464 20.356L20.432 20.381C20.443 20.58 20.479 21.048 20.495 21.746C20.511 22.506 20.495 23.474 20.35 24.522C20.027 26.803 21.683 28.689 23.626 28.694C23.741 28.225 23.927 27.75 24.115 27.251C24.656 25.792 25.719 24.73 24.823 20.574C24.678 19.897 24.386 19.621 23.984 19.465C23.76 19.386 23.524 19.349 23.287 19.356V19.355ZM33.844 19.625H33.912C33.995 19.63 34.079 19.636 34.151 19.656C34.216 19.669 34.278 19.693 34.334 19.729C34.387 19.761 34.423 19.814 34.433 19.874V19.885C34.433 19.949 34.417 20.012 34.386 20.068C34.346 20.14 34.298 20.206 34.241 20.265C34.107 20.415 33.924 20.515 33.725 20.546C33.532 20.571 33.337 20.523 33.178 20.411C33.115 20.365 33.058 20.313 33.006 20.254C32.961 20.207 32.932 20.147 32.922 20.082C32.916 20.02 32.935 19.959 32.974 19.911C33.02 19.864 33.074 19.823 33.131 19.791C33.26 19.718 33.432 19.666 33.631 19.639C33.703 19.63 33.776 19.624 33.844 19.619V19.625ZM23.416 19.849C23.484 19.849 23.563 19.854 23.636 19.864C23.844 19.896 24.021 19.948 24.161 20.031C24.23 20.064 24.291 20.113 24.338 20.172C24.39 20.235 24.416 20.315 24.411 20.396C24.397 20.473 24.362 20.545 24.311 20.604C24.256 20.671 24.191 20.729 24.119 20.776C23.946 20.9 23.732 20.954 23.52 20.927C23.306 20.893 23.11 20.787 22.963 20.626C22.902 20.56 22.849 20.486 22.806 20.407C22.759 20.337 22.739 20.251 22.749 20.167C22.77 20.027 22.89 19.948 23.005 19.907C23.136 19.864 23.276 19.85 23.416 19.855V19.849ZM35.495 29.64H35.49C35.298 29.713 35.137 29.74 35.001 29.803C34.863 29.855 34.751 29.957 34.684 30.088C34.595 30.24 34.528 30.511 34.548 30.973C34.608 31.016 34.676 31.048 34.747 31.068C34.971 31.136 35.356 31.183 35.783 31.177C36.632 31.166 37.679 30.969 38.236 30.708C38.691 30.497 39.114 30.222 39.491 29.891C37.632 30.271 36.586 30.172 35.939 29.907C35.78 29.838 35.63 29.748 35.495 29.64ZM24.787 29.765H24.76C24.688 29.77 24.588 29.797 24.385 30.016C23.921 30.536 23.76 30.864 23.38 31.167C22.995 31.474 22.5 31.636 21.505 31.839C21.293 31.877 21.086 31.941 20.89 32.031C20.926 32.063 20.926 32.074 20.983 32.099C21.13 32.183 21.316 32.251 21.468 32.292C21.895 32.396 22.592 32.521 23.327 32.396C24.056 32.271 24.816 31.921 25.468 31.011C25.583 30.855 25.592 30.62 25.499 30.37C25.406 30.126 25.202 29.907 25.062 29.85C24.974 29.81 24.882 29.781 24.786 29.766L24.787 29.765Z" fill="url(#paint0_linear_5_21)"/>
<defs>
<linearGradient id="paint0_linear_5_21" x1="101.409" y1="3209.8" x2="3118" y2="100.825" gradientUnits="userSpaceOnUse">
<stop stop-color="#2998FF"/>
<stop offset="1" stop-color="#0BBCE8"/>
</linearGradient>
</defs>
</svg>
