<svg xmlns="http://www.w3.org/2000/svg" width="24" height="24" viewBox="0 0 24 24">
              <g fill="none">
                <path fill="#FFF" stroke-linecap="round" stroke-linejoin="round" d="M11 1.8c5.081 0 9.2 4.119 9.2 9.2 0 2.108-.709 4.05-1.901 5.601l3.55 3.55c.468.47.468 1.229 0 1.698-.426.426-1.093.464-1.563.116l-.135-.116-3.55-3.55C15.05 19.491 13.108 20.2 11 20.2c-5.081 0-9.2-4.119-9.2-9.2 0-5.081 4.119-9.2 9.2-9.2zm0 2.4c-3.756 0-6.8 3.044-6.8 6.8s3.044 6.8 6.8 6.8c1.827 0 3.486-.72 4.707-1.893.03-.036.06-.072.094-.106.034-.033.069-.064.105-.093C17.079 14.487 17.8 12.828 17.8 11c0-3.756-3.044-6.8-6.8-6.8z"></path>
                <path d="M0 0H24V24H0z"></path>
              </g>
            </svg>