<svg xmlns="http://www.w3.org/2000/svg" width="36" height="40" viewBox="0 0 36 40">
    <g fill="none" fill-rule="evenodd" stroke="#33CAC0" stroke-linejoin="round" stroke-width="1.4">
        <path d="M24.489 3.378v7.6c0 1.399-5.482 2.533-12.245 2.533C5.482 13.511 0 12.377 0 10.978v-7.6M18.578 20.746c-1.848.232-4.016.365-6.334.365C5.482 21.111 0 19.977 0 18.578v-6.756M24.489 11.822L24.489 13.511M15.2 28.637c-.947.049-1.936.074-2.956.074C5.482 28.711 0 27.577 0 26.178v-6.756" transform="translate(1 1)"/>
        <path d="M0 2.533C0 1.134 5.482 0 12.244 0 19.007 0 24.49 1.134 24.49 2.533v.845c0 1.399-5.482 2.533-12.245 2.533C5.482 5.911 0 4.777 0 3.378v-.845zM2.533 9.289L4.222 9.289M2.533 16.889L4.222 16.889M2.533 24.489L4.222 24.489M33.778 37.156c0 .466-.379.844-.845.844h-15.2c-.466 0-.844-.378-.844-.844V26.178c0-.466.378-.845.844-.845h15.2c.466 0 .845.379.845.845v10.978zM20.267 19.422c0-2.331 2.269-4.222 5.066-4.222 2.798 0 5.067 1.89 5.067 4.222v5.911H20.267v-5.91z" transform="translate(1 1)"/>
    </g>
</svg>
