<svg xmlns="http://www.w3.org/2000/svg" width="37" height="39" viewBox="0 0 37 39">
    <g fill="none" fill-rule="evenodd" stroke="#33CAC0" stroke-linejoin="round" stroke-width="1.4">
        <path d="M33.778 24.489L33.778.844 0 .844 0 33.778 18.578 33.778M1.689 5.911L32.089 5.911M2.533 3.378L4.222 3.378M5.067 3.378L6.756 3.378M7.6 3.378L9.289 3.378" transform="translate(1)"/>
        <path d="M21.793 17.373l-1.238-2.989-1.818.606c-.505-.707-1.115-1.31-1.801-1.799l.605-1.82-2.987-1.237-.86 1.715c-.83-.139-1.688-.145-2.544-.002l-.858-1.713-2.989 1.237.606 1.819c-.706.504-1.31 1.114-1.798 1.8l-1.82-.606-1.239 2.989 1.716.859c-.14.83-.145 1.689-.001 2.545l-1.715.857 1.238 2.988 1.818-.605c.505.707 1.116 1.309 1.802 1.799l-.607 1.82 2.989 1.237.859-1.715c.83.139 1.688.145 2.545.002l.858 1.713 2.987-1.238-.604-1.818c.706-.504 1.309-1.114 1.798-1.8l1.82.605 1.238-2.988-1.716-.858c.14-.832.145-1.69.003-2.545l1.713-.858z" transform="translate(1)"/>
        <path d="M15.625 19.623c0 1.703-1.381 3.084-3.083 3.084-1.704 0-3.084-1.381-3.084-3.084 0-1.704 1.38-3.084 3.084-3.084 1.702 0 3.083 1.38 3.083 3.084zM34.46 28.996l-.916-2.21-1.344.448c-.372-.522-.823-.968-1.33-1.33l.447-1.344-2.208-.916-.636 1.269c-.613-.103-1.248-.108-1.88-.002l-.634-1.267-2.21.916.448 1.343c-.522.373-.968.824-1.33 1.332l-1.344-.448-.916 2.209 1.269.634c-.102.615-.107 1.249-.002 1.881l-1.267.634.916 2.21 1.343-.448c.374.522.825.968 1.332 1.329l-.448 1.345 2.209.916.635-1.269c.614.103 1.248.108 1.88.002l.635 1.267 2.208-.916-.447-1.343c.522-.374.968-.824 1.33-1.332l1.344.448.916-2.209-1.269-.634c.103-.615.108-1.249.002-1.882l1.267-.633z" transform="translate(1)"/>
        <path d="M29.9 30.659c0 1.259-1.02 2.279-2.279 2.279-1.258 0-2.28-1.02-2.28-2.28 0-1.258 1.022-2.28 2.28-2.28 1.26 0 2.28 1.022 2.28 2.28z" transform="translate(1)"/>
    </g>
</svg>
