<svg xmlns="http://www.w3.org/2000/svg" width="38" height="38" viewBox="0 0 38 38">
    <g fill="none" fill-rule="evenodd" stroke="#33CAC0" stroke-linejoin="round" stroke-width="1.4">
        <path d="M29.292 22.167h2.375c3.06 0 5.541-2.481 5.541-5.542 0-3.06-2.48-5.542-5.541-5.542-.589 0-1.155.094-1.687.263.066-.342.103-.693.103-1.054 0-3.062-2.48-5.542-5.541-5.542-1.385 0-2.648.51-3.619 1.35-1.08-3.088-4.012-5.308-7.47-5.308-4.372 0-7.917 3.545-7.917 7.918 0 .835.13 1.639.37 2.394-2.86.22-5.114 2.605-5.114 5.521 0 3.06 2.48 5.542 5.541 5.542h2.375M20.936 6.096c.203.578.34 1.187.402 1.818M29.983 11.347c-.125.647-.362 1.254-.691 1.8M5.906 11.1c.687-.053 1.385.02 2.056.227M1.583 34.833L11.083 34.833 11.083 28.5 1.583 28.5zM14.25 34.833L23.75 34.833 23.75 28.5 14.25 28.5zM26.917 34.833L36.417 34.833 36.417 28.5 26.917 28.5zM3.167 37.208L9.5 37.208M6.333 34.833L6.333 37.208M15.833 37.208L22.167 37.208M19 34.833L19 37.208M28.5 37.208L34.833 37.208M31.667 34.833L31.667 37.208M10.292 26.917L10.292 20.583M19 26.917L19 19M27.708 26.917L27.708 21.375M11.875 22.167L17.417 22.167M20.583 22.167L26.125 22.167M10.292 19L10.292 17.417M10.292 15.833L10.292 14.25M19 17.417L19 15.833M19 14.25L19 12.667M27.708 19.792L27.708 18.208M19 11.083L19 9.5"/>
    </g>
</svg>
