<svg xmlns="http://www.w3.org/2000/svg" width="41" height="38" viewBox="0 0 41 38">
    <g fill="none" fill-rule="evenodd" stroke="#33CAC0" stroke-width="1.4">
        <path d="M27.867 9.289L27.867 0.844 0.844 0.844 0.844 37.156 27.867 37.156 27.867 28.711"/>
        <path d="M18.82 29.218c-1.399-2.278-.981-6.426-.484-7.936l1.389-.341s-.355-2.103 1.238-4.141c1.913-2.448 7.374-7.317 17.882-7.894-3.84 4.283-6.58 11.577-7.265 12.65-1.429.97-2.82 1.63-2.82 1.63l1.269 1.236s-6.93 5.964-11.21 4.796zM30.674 14.96C22.663 21.036 18.51 28.73 16.855 33.779M.844 5.911L27.867 5.911M3.378 3.378L5.067 3.378M6.756 3.378L8.444 3.378M10.133 3.378L11.822 3.378M4.222 17.733L13.511 17.733 13.511 9.289 4.222 9.289zM16.044 10.133L24.489 10.133M16.044 14.356L19.422 14.356M3.378 21.956L14.356 21.956M3.378 26.178L14.356 26.178M3.378 30.4L14.356 30.4"/>
    </g>
</svg>
