<svg xmlns="http://www.w3.org/2000/svg" width="36" height="38" viewBox="0 0 36 38">
    <g fill="none" fill-rule="evenodd" stroke="#33CAC0" stroke-width="1.4">
        <path d="M22.958 30.083v4.75c0 1.312-1.063 2.375-2.375 2.375H3.167c-1.312 0-2.375-1.063-2.375-2.375V3.167C.792 1.855 1.855.792 3.167.792h17.416c1.312 0 2.375 1.063 2.375 2.375v4.75M.792 5.542L22.958 5.542M.792 32.458L22.958 32.458M10.292 34.833L13.458 34.833M11.083 3.167L15.833 3.167M7.917 3.167L9.5 3.167"/>
        <path d="M11.875 28.5L34.833 28.5 34.833 9.5 11.875 9.5zM11.875 14.25L34.833 14.25M14.25 11.875L15.833 11.875M17.417 11.875L19 11.875M20.583 11.875L22.167 11.875M8.708 11.083L8.708 27.708M5.542 13.458L5.542 25.333"/>
    </g>
</svg>
