<svg xmlns="http://www.w3.org/2000/svg" width="40" height="35" viewBox="0 0 40 35">
    <g fill="none" fill-rule="evenodd" stroke="#33CAC0" stroke-linejoin="round" stroke-width="1.4">
        <path d="M21.21 18.536c0 1.465-1.188 2.652-2.652 2.652-1.464 0-2.651-1.187-2.651-2.652 0-1.464 1.187-2.65 2.651-2.65 1.464 0 2.651 1.186 2.651 2.65zM20.767 16.769L26.512 11.467M14.14 22.071L16.349 20.304M17.674-.001c-2.869.134-5.569.92-7.953 2.215M27.395 2.216C25.012.921 22.312.134 19.442 0M26.788 7.048c2.018 1.454 3.637 3.43 4.663 5.729l-2.92 2.013L38 19.318 37.2 8.815l-2.051 1.414c-1.392-2.777-3.46-5.156-5.988-6.921M19.442 4.424c1.895.118 3.687.608 5.305 1.4M11.708 6.164c1.786-.992 3.811-1.607 5.966-1.74" transform="translate(1 1)"/>
        <path d="M32.45 21.188c-1.242 6.541-6.988 11.488-13.892 11.488-7.81 0-14.14-6.331-14.14-14.14 0-4.732 2.325-8.922 5.896-11.488M7.953 3.305C3.146 6.659 0 12.23 0 18.537" transform="translate(1 1)"/>
    </g>
</svg>
