<svg xmlns="http://www.w3.org/2000/svg" width="40" height="37" viewBox="0 0 40 37">
    <g fill="none" fill-rule="evenodd" stroke="#33CAC0" stroke-linejoin="round" stroke-width="1.362">
        <path d="M33.398 20.365L33.398 9.775 37.471 9.775 30.14 0 22.808 9.775 26.881 9.775 26.881 28.51M26.881 30.14L26.881 31.769M26.881 33.398L26.881 35.027M33.398 21.994L33.398 26.067M33.398 27.696L33.398 29.325" transform="translate(1 1)"/>
        <g>
            <path d="M36.656 8.96L36.656 18.735M23.623 20.365L23.623 0 17.921 0 17.921 20.365M14.662 20.365L14.662 7.331 8.96 7.331 8.96 20.365M5.702 20.365L5.702 13.848 0 13.848 0 20.365" transform="translate(1 1) translate(0 14.662)"/>
        </g>
    </g>
</svg>
