<svg xmlns="http://www.w3.org/2000/svg" width="36" height="36" viewBox="0 0 36 36">
    <g fill="none" fill-rule="evenodd" stroke="#33CAC0" stroke-linejoin="round" stroke-width="1.4">
        <path d="M10.5 30.75L.75 30.75.75.75 35.25.75 35.25 30.75 25.5 30.75M.75 5.25L35.25 5.25M3 3L4.5 3M6 3L7.5 3M9 3L10.5 3"/>
        <path d="M24 34.5c0 .415-.335.75-.75.75h-10.5c-.415 0-.75-.335-.75-.75V27c0-.415.335-.75.75-.75h10.5c.415 0 .75.335.75.75v7.5zM14.25 22.5c0-2.072 1.678-3.75 3.75-3.75s3.75 1.678 3.75 3.75v3.75h-7.5V22.5zM4.5 16.5L12 16.5 12 9 4.5 9zM15.75 12L31.5 12M15.75 9L31.5 9M15.75 15L26.25 15"/>
    </g>
</svg>
