<svg xmlns="http://www.w3.org/2000/svg" width="38" height="39" viewBox="0 0 38 39">
    <g fill="none" fill-rule="evenodd" stroke="#33CAC0" stroke-width="1.4">
        <path d="M17.348 19.826h0c1.602 0 1.875 1.652 4.13 1.652h7.435c1.033 0 1.446-.981 1.652-1.652.207-.67.826-5.783.826-5.783.256-1.333-.939-2.478-2.478-2.478h-1.652"/>
        <path d="M20.652 16.522c2.374-.78 4.13-1.93 4.13-4.027 0 0 .684-1.434.827-1.876.098-.304.319-.918.319-2.347 0-1.446-.282-1.981-.983-2.779-.71-.805-1.815-.488-1.815.29v.826c0 1.738-1.28 2.203-2.596 3.501 0 0-1.686 1.455-2.36 1.455h-.826M13.217 21.478L17.348 21.478 17.348 9.913 13.217 9.913z"/>
        <path d="M9.913 26.435h15.696l5.198 6.024c.52.52 1.41.152 1.41-.584v-5.44h2.479c1.368 0 2.478-1.11 2.478-2.478V3.304c0-1.368-1.11-2.478-2.478-2.478H9.913c-1.369 0-2.478 1.11-2.478 2.478v20.653c0 1.368 1.11 2.478 2.478 2.478z"/>
        <path d="M5.783 8.26H3.304C1.936 8.26.826 9.37.826 10.74v18.173c0 1.369 1.11 2.478 2.478 2.478h1.653v5.44c0 .737.89 1.105 1.41.585l5.198-6.025h8.261c1.369 0 2.478-1.11 2.478-2.478v-.826"/>
    </g>
</svg>
