<svg xmlns="http://www.w3.org/2000/svg" width="42" height="32" viewBox="0 0 42 32">
    <g fill="none" fill-rule="evenodd" stroke="#33CAC0" stroke-linejoin="round" stroke-width="1.4">
        <path d="M34.783 23.478V21.13l-2.865-.26c-.12-.405-.278-.793-.476-1.157l1.777-2.269-1.968-1.968-2.268 1.778c-.365-.198-.753-.357-1.157-.477l-.348-2.864h-2.782l-.348 2.864c-.405.12-.792.279-1.157.477l-2.268-1.778-1.97 1.968 1.78 2.269c-.198.364-.357.752-.478 1.157l-2.864.26v2.348" transform="translate(1 1)"/>
        <path d="M28.696 23.478v-.87c0-1.441-1.168-2.609-2.609-2.609-1.44 0-2.609 1.168-2.609 2.609v.87M13.913 1.74c0 1.44 1.168 2.608 2.609 2.608 1.44 0 2.608-1.168 2.608-2.609" transform="translate(1 1)"/>
        <path d="M2.609 23.478V1.74C2.609.744 3.388 0 4.348 0h31.304c.96 0 1.74.744 1.74 1.74v21.738M40 25.217H24.348l-.87.87h-6.087l-.87-.87H0v.87c0 1.92 1.557 3.478 3.478 3.478h33.044c1.92 0 3.478-1.557 3.478-3.478v-.87z" transform="translate(1 1)"/>
        <path d="M6.087 1.74v2.608h3.706c.164.636.415 1.236.74 1.79l-2.62 2.62 2.46 2.46 2.62-2.621c.553.326 1.153.576 1.79.74v3.706h3.478V9.337c.636-.164 1.236-.414 1.79-.74l2.62 2.62 2.459-2.46-2.62-2.62c.326-.553.576-1.153.74-1.79h3.707V1.74" transform="translate(1 1)"/>
    </g>
</svg>
