<svg xmlns="http://www.w3.org/2000/svg" width="48" height="37" viewBox="0 0 48 37">
    <g fill="none" fill-rule="evenodd" stroke="#33CAC0" stroke-linejoin="round" stroke-width="1.362">
        <path d="M34 15L34 7 27 7 27 15M27 21L27 33M34 33L34 21M19 11L16 11 16 33M12 33L12 18 5 18 5 33M45 35L0 35" transform="translate(0 1)"/>
        <path d="M40 9.5c0 5.247-4.253 9.5-9.5 9.5S21 14.747 21 9.5 25.253 0 30.5 0 40 4.253 40 9.5zM23 19L23 33" transform="translate(0 1)"/>
        <path d="M38.28 14.952l7.61 7.608c.78.782.78 2.048 0 2.83-.782.78-2.048.78-2.83 0l-7.716-7.717" transform="translate(0 1)"/>
    </g>
</svg>
