<svg xmlns="http://www.w3.org/2000/svg" width="39" height="37" viewBox="0 0 39 37">
    <g fill="none" fill-rule="evenodd" stroke="#33CAC0" stroke-linejoin="round" stroke-width="1.4">
        <path d="M29.089 10.45c1.22-1.967 5.215-2.808 6.685-4.278 1.396-1.397 1.188-3.69-.17-5.049-1.359-1.358-3.653-1.567-5.05-.17-1.47 1.47-2.31 5.466-4.277 6.684-1.966 1.22-6.534-1.926-6.534-1.926l-3.926 3.926L27.14 20.96l3.927-3.926s-3.196-4.618-1.977-6.585z" transform="translate(1 1)"/>
        <path d="M26.078 19.898L20.063 25.913 10.863 16.714 16.879 10.699M17.531 23.381L20.361 20.551M13.041 18.892L15.518 16.416M15.573 21.424L17.343 19.655M33.896 2.88L32.481 4.296M8.296 19.282L4.106 23.472M17.495 28.481L13.233 32.743M11.362 22.348L9.487 24.224M14.429 25.415L11.342 28.502" transform="translate(1 1)"/>
        <path d="M12.885 9.086H.818c-.452 0-.818.367-.818.819V34.45c0 .452.366.818.818.818h28.636c.453 0 .818-.366.818-.818v-12M1.636 13.995L8.898 13.995M2.455 11.541L4.091 11.541M4.909 11.541L6.545 11.541" transform="translate(1 1)"/>
    </g>
</svg>
