<svg xmlns="http://www.w3.org/2000/svg" width="76" height="76" viewBox="0 0 76 76">
    <defs>
        <linearGradient id="prefix__a" x1="0%" x2="100%" y1="100%" y2="0%">
            <stop offset="0%" stop-color="#09B3BF"/>
            <stop offset="100%" stop-color="#5FE3C2"/>
        </linearGradient>
    </defs>
    <g fill="none" fill-rule="evenodd">
        <circle cx="38" cy="38" r="38" fill="url(#prefix__a)" fill-rule="nonzero"/>
        <g stroke="#FFF" stroke-linejoin="round" stroke-width="1.4">
            <path d="M24.348 26.957c1.879 0 3.478-1.787 3.478-3.479v-7.826c0-2.872-4.805-4.348-7.826-4.348-3.02 0-7.826 1.476-7.826 4.348v7.826c0 1.692 1.599 3.479 3.478 3.479M20 8.696c2.027 0 3.478-1.42 3.478-3.479V3.478C23.478 1.42 22.027 0 20 0s-3.478 1.42-3.478 3.478v1.74c0 2.058 1.451 3.478 3.478 3.478zM24.348 40L24.348 17.391M15.652 17.391L15.652 40M20 26.087L20 40M0 20L8.696 20M3.478 23.478L0 20 3.478 16.522M9.565 12.174L3.478 6.087M3.478 10.435L3.478 6.087 7.826 6.087M9.565 27.826L3.478 33.913M3.478 29.565L3.478 33.913 7.826 33.913M40 20L31.304 20M36.522 23.478L40 20 36.522 16.522M30.435 12.174L36.522 6.087M36.522 10.435L36.522 6.087 32.174 6.087M30.435 27.826L36.522 33.913M36.522 29.565L36.522 33.913 32.174 33.913" transform="translate(18 18)"/>
        </g>
    </g>
</svg>
