<svg xmlns="http://www.w3.org/2000/svg" width="76" height="76" viewBox="0 0 76 76">
    <defs>
        <linearGradient id="prefix__a" x1="0%" x2="100%" y1="100%" y2="0%">
            <stop offset="0%" stop-color="#09B3BF"/>
            <stop offset="100%" stop-color="#5FE3C2"/>
        </linearGradient>
    </defs>
    <g fill="none" fill-rule="evenodd">
        <circle cx="38" cy="38" r="38" fill="url(#prefix__a)" fill-rule="nonzero"/>
        <g stroke="#FFF" stroke-linejoin="round" stroke-width="1.4">
            <path d="M14.86 21.734c0 1.714-1.389 3.103-3.102 3.103-1.714 0-3.103-1.39-3.103-3.103 0-1.713 1.39-3.102 3.103-3.102 1.713 0 3.102 1.389 3.102 3.102zM5.996 39.906l2.072-9.667c.342-1.6 1.474-2.41 3.247-2.743l5.318-.886 5.272-4.76s1.748 2.987-.187 4.815l-3.803 3.763-5.813 1.777M13.974 39.906L15.736 31.095M28.634 24.394c0 1.713 1.389 3.102 3.102 3.102 1.713 0 3.102-1.389 3.102-3.102 0-1.714-1.389-3.103-3.102-3.103-1.713 0-3.102 1.39-3.102 3.103zM39.197 39.906l-1.987-6.91c-.343-1.6-1.337-2.84-4.144-2.84H22.429s.59 3.545 3.545 3.545h7.092M32.659 39.906L30.406 33.701M12.329 3.32L.074 8.565 4.109 11.684 3.562 16.712 15.817 11.467M20.729 22.916L10.905.017M23.717 30.149L22.098 26.229M27.747 39.906L25.141 33.597" transform="translate(18 18)"/>
        </g>
    </g>
</svg>
