<?xml version="1.0" encoding="UTF-8"?> <svg xmlns="http://www.w3.org/2000/svg" xmlns:xlink="http://www.w3.org/1999/xlink" width="90px" height="90px" viewBox="0 0 90 90" version="1.1"><title>E0C26E41-077E-4024-8280-1EF29CE93701</title><g id="Page-1" stroke="none" stroke-width="1" fill="none" fill-rule="evenodd"><g id="About-Us-Updated" transform="translate(-109.000000, -4601.000000)"><g id="Communication" transform="translate(109.000000, 4601.000000)"><rect id="Rectangle" x="0" y="0" width="90" height="90"></rect><g id="team-(1)" transform="translate(2.000000, 5.000000)" fill-rule="nonzero"><path d="M38,50.6666667 C38,51.4010417 38.5976563,52 39.3333333,52 C40.0690103,52 40.6666667,51.4010417 40.6666667,50.6666667 L40.6666667,43.3333333 C40.6666667,42.9654948 40.9654948,42.6666667 41.3333333,42.6666667 C41.7011718,42.6666667 42,42.9654948 42,43.3333333 L42,52 C42,52.734375 42.5976563,53.3333333 43.3333333,53.3333333 C44.0690103,53.3333333 44.6666667,52.734375 44.6666667,52 L44.6666667,43.3333333 C44.6666667,42.9654948 44.9654948,42.6666667 45.3333333,42.6666667 C45.7011718,42.6666667 46,42.9654948 46,43.3333333 L46,50 L46,50 C46,50.734375 46.5976563,51.3333333 47.3333333,51.3333333 C48.0690103,51.3333333 48.6666667,50.734375 48.6666667,50 L48.6666667,39.3333333 C48.6666667,38.9654948 48.9654948,38.6666667 49.3333333,38.6666667 C49.7011718,38.6666667 50,38.9654948 50,39.3333333 C50,40.0677083 50.5976563,40.6666667 51.3333333,40.6666667 C52.0690103,40.6666667 52.6666667,40.0677083 52.6666667,39.3333333 L52.6666667,34.7148437 C52.6666667,34.0026042 52.389323,33.3333333 51.8854167,32.829427 L48.8613282,29.8053385 C48.6015625,29.545573 48.6015625,29.1223958 48.8613282,28.8626302 C49.1210937,28.6028647 49.5442708,28.6028647 49.8040365,28.8626302 L52.828125,31.8867187 C53.5826823,32.6425782 54,33.6464843 54,34.7148437 L54,39.3333333 C54,40.8040365 52.8040365,42 51.3333333,42 C50.8483073,42 50.391927,41.8691407 50,41.641276 L50,50 C50,51.4707032 48.8040365,52.6666667 47.3333333,52.6666667 C46.8411458,52.6666667 46.3789063,52.531901 45.9824218,52.2988282 C45.8346353,53.6295573 44.702474,54.6666667 43.3333333,54.6666667 C42.171875,54.6666667 41.1816407,53.9199218 40.8157552,52.8828125 C40.391927,53.1666667 39.8815103,53.3333333 39.3333333,53.3333333 C38.171875,53.3333333 37.1816407,52.5865885 36.8157552,51.5494792 C36.391927,51.8333333 35.8815103,52 35.3333333,52 C33.8626302,52 32.6666667,50.8040365 32.6666667,49.3333333 L32.6666667,29.3333333 C32.6666667,28.9654948 32.9654948,28.6666667 33.3333333,28.6666667 C33.7011718,28.6666667 34,28.9654948 34,29.3333333 L34,49.3333333 C34,50.0677083 34.5976563,50.6666667 35.3333333,50.6666667 C36.0690103,50.6666667 36.6666667,50.0677083 36.6666667,49.3333333 L36.6666667,43.3333333 C36.6666667,42.9654948 36.9654948,42.6666667 37.3333333,42.6666667 C37.7011718,42.6666667 38,42.9654948 38,43.3333333 L38,50.6666667 Z" id="Combined-Shape" fill="#37474F"></path><path d="M50.6666667,20.6666667 L32,20.6666667 C31.6321615,20.6666667 31.3333333,20.3678385 31.3333333,20 L31.3333333,0.666666667 C31.3333333,0.298828167 31.6321615,0 32,0 C32.3678385,0 32.6666667,0.298828167 32.6666667,0.666666667 L32.6666667,19.3333333 L50,19.3333333 L50,0.666666667 C50,0.298828167 50.2988282,0 50.6666667,0 C51.0345052,0 51.3333333,0.298828167 51.3333333,0.666666667 L51.3333333,20 C51.3333333,20.3678385 51.0345052,20.6666667 50.6666667,20.6666667 Z" id="Path" fill="#37474F"></path><path d="M32,20 L50.6666667,20 L50.6666667,25.3333333 C50.6666667,26.0690103 50.0690103,26.6666667 49.3333333,26.6666667 L33.3333333,26.6666667 C32.5976563,26.6666667 32,26.0690103 32,25.3333333 L32,20 Z" id="Path" fill="#FFD740"></path><path d="M49.3333333,27.3333333 L33.3333333,27.3333333 C32.2304687,27.3333333 31.3333333,26.436198 31.3333333,25.3333333 L31.3333333,20 C31.3333333,19.6321615 31.6321615,19.3333333 32,19.3333333 L50.6666667,19.3333333 C51.0345052,19.3333333 51.3333333,19.6321615 51.3333333,20 L51.3333333,25.3333333 C51.3333333,26.436198 50.436198,27.3333333 49.3333333,27.3333333 Z M32.6666667,20.6666667 L32.6666667,25.3333333 C32.6666667,25.7011718 32.9667968,26 33.3333333,26 L49.3333333,26 C49.6998698,26 50,25.7011718 50,25.3333333 L50,20.6666667 L32.6666667,20.6666667 Z" id="Shape" fill="#37474F"></path><path d="M60.7864583,47.4720052 C60.6158853,47.4720052 60.4453125,47.406901 60.3144532,47.2773437 L54.9869792,41.9492187 C54.7265625,41.6894532 54.7265625,41.266927 54.9869792,41.0065103 C55.2467448,40.7467448 55.6692708,40.7467448 55.9290365,41.0065103 L61.2571615,46.3346353 C61.5175782,46.594401 61.5175782,47.0175782 61.2571615,47.2773437 C61.1282552,47.4082032 60.9570313,47.4720052 60.7864583,47.4720052 Z" id="Path" fill="#37474F"></path><path d="M49.4720052,58.7864583 L45.1959635,58.7864583 C44.1269532,58.7864583 43.1223958,58.3704427 42.3678385,57.6158853 L41.7389323,56.9869792 C41.4785157,56.7265625 41.4785157,56.3040365 41.7389323,56.0442708 C41.998698,55.7838542 42.421224,55.7838542 42.6816407,56.0442708 L43.3105468,56.673177 C43.8144532,57.1757813 44.483724,57.453125 45.1959635,57.453125 L49.4720052,57.453125 C49.8398437,57.453125 50.1386718,57.7519532 50.1386718,58.1197917 C50.1386718,58.4882813 49.8411458,58.7864583 49.4720052,58.7864583 Z" id="Path" fill="#37474F"></path><path d="M68.8014323,80 C68.6308593,80 68.4602865,79.9348958 68.329427,79.8053385 L54.6588542,66.1347657 C54.3984375,65.874349 54.3984375,65.451823 54.6588542,65.1920573 L67.8574218,51.9921875 C68.108073,51.7415365 68.5507813,51.7415365 68.8001302,51.9921875 L82.4707032,65.6627603 C82.7304687,65.922526 82.7304687,66.345052 82.4707032,66.6054687 C82.2109375,66.8652343 81.7877603,66.8652343 81.5279948,66.6054687 L68.329427,53.405599 L56.0735677,65.6627603 L69.2721353,78.8613282 C69.531901,79.1210937 69.531901,79.5442708 69.2721353,79.8040365 C69.141276,79.9348958 68.9720052,80 68.8014323,80 L68.8014323,80 Z" id="Path" fill="#37474F"></path><path d="M68.329427,52.4628907 L55.1308593,65.6614583 L51.360026,61.890625 C50.8385417,61.3691407 50.8385417,60.5253907 51.360026,60.0052083 L62.673177,48.6920573 C63.1946615,48.170573 64.0384115,48.170573 64.5585937,48.6920573 L68.329427,52.4628907 Z" id="Path" fill="#FC6E50"></path><path d="M55.1308593,66.329427 C54.9602865,66.329427 54.7890625,66.264323 54.6588542,66.1347657 L50.8867187,62.3626302 C50.108073,61.5826823 50.108073,60.313151 50.8867187,59.5345052 L62.1998698,48.2213542 C62.954427,47.4667968 64.2747397,47.4654948 65.0292968,48.2213542 L68.8001302,51.9921875 C69.0598958,52.2519532 69.0598958,52.6744792 68.8001302,52.9348958 L55.6015625,66.1347657 C55.4720052,66.264323 55.3014323,66.329427 55.1308593,66.329427 L55.1308593,66.329427 Z M63.6145833,48.968099 C63.4440103,48.968099 63.2734375,49.0332032 63.1425782,49.1627603 L51.829427,60.4759115 C51.5709635,60.735677 51.5709635,61.1588542 51.829427,61.4199218 L55.1308593,64.720052 L67.3867187,52.4628907 L64.0865885,49.1627603 C63.9570313,49.0332032 63.7864583,48.968099 63.6145833,48.968099 L63.6145833,48.968099 Z" id="Shape" fill="#37474F"></path><path d="M35.8613282,58.7864583 C35.6907552,58.7864583 35.5201823,58.7213542 35.389323,58.5917968 C35.1295573,58.3320313 35.1295573,57.9095052 35.389323,57.6490885 L38.2454427,54.7936198 C38.5052083,54.5332032 38.9277343,54.5332032 39.188151,54.7936198 C39.4479167,55.0533853 39.4479167,55.4759115 39.188151,55.735677 L36.3320313,58.5917968 C36.2011718,58.7213542 36.030599,58.7864583 35.8613282,58.7864583 L35.8613282,58.7864583 Z" id="Path" fill="#37474F"></path><path d="M24.546875,47.4720052 C24.1783853,47.4720052 23.8802083,47.173177 23.8802083,46.8053385 L23.8802083,42.5292968 C23.8802083,41.4602865 24.296224,40.4557292 25.0507813,39.7011718 L28.3170573,36.4348958 C28.9589843,35.7923177 29.8945313,35.5384115 30.8229167,35.7623698 C31.1816407,35.8496093 31.4010417,36.2096353 31.3144532,36.5677083 C31.2291667,36.9251302 30.8789063,37.1451823 30.5091147,37.0598958 C30.0371093,36.9440103 29.577474,37.061198 29.2584635,37.3789063 L25.9921875,40.6451823 C25.4895833,41.1477865 25.2122397,41.8170573 25.2122397,42.530599 L25.2122397,46.8066407 C25.2135417,47.1744792 24.9160157,47.4720052 24.546875,47.4720052 Z" id="Path" fill="#37474F"></path><path d="M16.531901,80 C16.3613282,80 16.1907552,79.9348958 16.0598958,79.8053385 C15.8001302,79.545573 15.8001302,79.1223958 16.0598958,78.8626302 L29.2584635,65.6640625 L17.0026042,53.406901 L3.8040365,66.6067708 C3.54427083,66.8665365 3.12109367,66.8665365 2.86132817,66.6067708 C2.6015625,66.3463542 2.6015625,65.9238282 2.86132817,65.6640625 L16.531901,51.9934897 C16.782552,51.7428385 17.2252603,51.7428385 17.4746093,51.9934897 L30.673177,65.1933593 C30.9335937,65.453125 30.9335937,65.876302 30.673177,66.1360677 L17.0039063,79.8053385 C16.8730468,79.9348958 16.702474,80 16.531901,80 L16.531901,80 Z" id="Path" fill="#37474F"></path><path d="M30.203776,65.6627603 L17.0052083,52.4641927 L20.7760417,48.6933593 C21.297526,48.171875 22.141276,48.171875 22.6614583,48.6933593 L33.9746093,60.0065103 C34.4960937,60.5279948 34.4960937,61.3717448 33.9746093,61.891927 L30.203776,65.6627603 Z" id="Path" fill="#00C8FF"></path><g id="Group" transform="translate(0.000000, 3.333333)" fill="#37474F"><path d="M30.202474,62.9960937 C30.031901,62.9960937 29.8613282,62.9309897 29.7304687,62.8014323 L16.531901,49.6015625 C16.2721353,49.3411458 16.2721353,48.9186198 16.531901,48.6588542 L20.3027343,44.8880208 C21.0598958,44.1321615 22.3802083,44.1347657 23.1321615,44.8880208 L34.4453125,56.2011718 C35.2239583,56.9798177 35.2239583,58.249349 34.4453125,59.0292968 L30.673177,62.8014323 C30.5442708,62.9309897 30.3730468,62.9960937 30.202474,62.9960937 Z M17.9466147,49.1295573 L30.202474,61.3867187 L33.5039063,58.0865885 C33.7623698,57.826823 33.7623698,57.4042968 33.5039063,57.1438802 L22.1907552,45.8307292 C21.9290365,45.5690103 21.5052083,45.5722657 21.2467448,45.8307292 L17.9466147,49.1295573 Z" id="Shape"></path><path d="M3.33333333,30.6666667 L0.666666667,30.6666667 C0.298828167,30.6666667 0,30.3678385 0,30 C0,29.6321615 0.298828167,29.3333333 0.666666667,29.3333333 L3.33333333,29.3333333 C3.70117183,29.3333333 4,29.6321615 4,30 C4,30.3678385 3.70117183,30.6666667 3.33333333,30.6666667 Z" id="Path"></path><path d="M22.6666667,30.6666667 L6,30.6666667 C5.6321615,30.6666667 5.33333333,30.3678385 5.33333333,30 C5.33333333,29.6321615 5.6321615,29.3333333 6,29.3333333 L22.6666667,29.3333333 C23.0345052,29.3333333 23.3333333,29.6321615 23.3333333,30 C23.3333333,30.3678385 23.0345052,30.6666667 22.6666667,30.6666667 Z" id="Path"></path><path d="M84.6666667,30.6666667 L82,30.6666667 C81.6321615,30.6666667 81.3333333,30.3678385 81.3333333,30 C81.3333333,29.6321615 81.6321615,29.3333333 82,29.3333333 L84.6666667,29.3333333 C85.0345052,29.3333333 85.3333333,29.6321615 85.3333333,30 C85.3333333,30.3678385 85.0345052,30.6666667 84.6666667,30.6666667 Z" id="Path"></path><path d="M79.3333333,30.6666667 L62.6666667,30.6666667 C62.2988282,30.6666667 62,30.3678385 62,30 C62,29.6321615 62.2988282,29.3333333 62.6666667,29.3333333 L79.3333333,29.3333333 C79.7011718,29.3333333 80,29.6321615 80,30 C80,30.3678385 79.7011718,30.6666667 79.3333333,30.6666667 Z" id="Path"></path><path d="M69.3333333,4 L64,4 C63.6321615,4 63.3333333,3.70117183 63.3333333,3.33333333 C63.3333333,2.96549483 63.6321615,2.66666667 64,2.66666667 L69.3333333,2.66666667 C69.7011718,2.66666667 70,2.96549483 70,3.33333333 C70,3.70117183 69.7011718,4 69.3333333,4 Z" id="Path"></path><path d="M66.6666667,6.66666667 C66.2988282,6.66666667 66,6.3678385 66,6 L66,0.666666667 C66,0.298828167 66.2988282,0 66.6666667,0 C67.0345052,0 67.3333333,0.298828167 67.3333333,0.666666667 L67.3333333,6 C67.3333333,6.3678385 67.0345052,6.66666667 66.6666667,6.66666667 Z" id="Path"></path><path d="M78.6666667,12.6666667 L73.3333333,12.6666667 C72.9654948,12.6666667 72.6666667,12.3678385 72.6666667,12 C72.6666667,11.6321615 72.9654948,11.3333333 73.3333333,11.3333333 L78.6666667,11.3333333 C79.0345052,11.3333333 79.3333333,11.6321615 79.3333333,12 C79.3333333,12.3678385 79.0345052,12.6666667 78.6666667,12.6666667 Z" id="Path"></path><path d="M76,15.3333333 C75.6321615,15.3333333 75.3333333,15.0345052 75.3333333,14.6666667 L75.3333333,9.33333333 C75.3333333,8.96549483 75.6321615,8.66666667 76,8.66666667 C76.3678385,8.66666667 76.6666667,8.96549483 76.6666667,9.33333333 L76.6666667,14.6666667 C76.6666667,15.0345052 76.3678385,15.3333333 76,15.3333333 Z" id="Path"></path></g></g></g></g></g></svg> 