<?xml version="1.0" encoding="UTF-8"?> <svg xmlns="http://www.w3.org/2000/svg" xmlns:xlink="http://www.w3.org/1999/xlink" width="190px" height="180px" viewBox="0 0 190 180" version="1.1"><title>5AE8B200-524C-445D-A55A-DDD94171C663</title><g id="Page-1" stroke="none" stroke-width="1" fill="none" fill-rule="evenodd"><g id="About-Us-Updated" transform="translate(-303.000000, -1171.000000)"><g id="innovation-2" transform="translate(303.000000, 1171.000000)"><rect id="Rectangle" x="0" y="0" width="189.473684" height="180"></rect><g id="innovation" transform="translate(94.973684, 90.447368) scale(-1, 1) translate(-94.973684, -90.447368) translate(0.473684, 0.947368)" fill-rule="nonzero"><path d="M64.1835552,20.4205816 L8.75230299,20.4205816 C4.72332618,20.4205816 1.45871716,23.688108 1.45871716,27.7141674 L1.45871716,71.4756823 C1.45871716,75.5046592 4.72332618,78.7692682 8.75230299,78.7692682 L51.4110277,78.7692682 C55.1949401,68.1177154 62.2726358,59.0124029 71.4771411,52.7720109 L71.4771411,27.7141674 C71.4771411,23.688108 68.2125321,20.4205816 64.1835552,20.4205816 Z" id="Path" fill="#40C4FF"></path><path d="M64.1835552,18.9618644 L8.75230299,18.9618644 C3.92686661,18.9618644 0,22.888731 0,27.7141674 L0,71.4756823 C0,76.3011187 3.92686661,80.2279853 8.75230299,80.2279853 L51.4110277,80.2279853 C52.2162396,80.2279853 52.8697449,79.57448 52.8697449,78.7692682 C52.8697449,77.9640563 52.2162396,77.310551 51.4110277,77.310551 L8.75230299,77.310551 C5.53437292,77.310551 2.91743433,74.6936124 2.91743433,71.4756823 L2.91743433,27.7141674 C2.91743433,24.4962373 5.53437292,21.8792988 8.75230299,21.8792988 L64.1835552,21.8792988 C67.4014853,21.8792988 70.0184239,24.4962373 70.0184239,27.7141674 L70.0184239,52.7749283 C70.0184239,53.5801402 70.6719292,54.2336455 71.4771411,54.2336455 C72.2823529,54.2336455 72.9358582,53.5801402 72.9358582,52.7749283 L72.9358582,27.7141674 C72.9358582,22.888731 69.0089916,18.9618644 64.1835552,18.9618644 Z" id="Path" fill="#37474F"></path><path d="M139.555471,19.6270394 C136.748899,20.2163612 134.079447,21.2345458 131.625885,22.6086573 C129.475736,23.8135577 127.486045,25.286862 125.712245,26.9848088 C124.422739,28.2159661 123.244096,29.5667382 122.199654,31.0137856 C121.607415,31.8306672 121.058937,32.6767232 120.554221,33.5519535 C120.16912,34.2171285 119.813193,34.8998082 119.483523,35.5941575 C118.491595,37.6830405 117.74765,39.9002906 117.289612,42.2050637 C115.329096,52.101001 118.404072,61.2413227 124.370225,67.7151095 C128.597588,72.3013163 131.284545,78.089506 131.284545,84.329898 L131.284545,86.062854 L160.458888,86.062854 L160.458888,84.3386503 C160.458888,78.0632491 163.201276,72.2721419 167.440308,67.6421736 C172.154882,62.4987369 175.04606,55.6777755 175.04606,48.1362077 C175.04606,29.9635093 158.425436,15.6680811 139.555471,19.6270394 Z" id="Path" fill="#FFD700"></path><g id="Group" transform="translate(37.926646, 0.000000)" fill="#37474F"><path d="M107.94507,-0.00145871716 C107.139858,-0.00145871716 106.486353,0.652046573 106.486353,1.45725845 L106.486353,10.2095614 C106.486353,11.0147733 107.139858,11.6682786 107.94507,11.6682786 C108.750282,11.6682786 109.403787,11.0147733 109.403787,10.2095614 L109.403787,1.45725845 C109.403787,0.652046573 108.750282,-0.00145871716 107.94507,-0.00145871716 Z" id="Path"></path><path d="M88.8387928,25.9753766 C88.2815628,25.3948071 87.3596536,25.3714676 86.7761667,25.9286976 C85.428312,27.2123687 84.185485,28.6360767 83.0885297,30.1531425 C82.6159053,30.8037304 82.7617771,31.7168873 83.4123649,32.1895117 C83.6720166,32.37331 83.9695949,32.4666679 84.2671732,32.4666679 C84.7193755,32.4666679 85.1657429,32.2595301 85.4487341,31.862759 C86.4435792,30.4886475 87.5697088,29.2020589 88.7891964,28.0350852 C89.3726832,27.4836901 89.3960227,26.5588634 88.8387928,25.9753766 Z" id="Path"></path><path d="M127.243898,24.3474482 C120.037835,18.4950749 110.597018,16.2515679 101.328329,18.2004141 C98.4196471,18.8101578 95.6130753,19.8662691 92.9873844,21.3337385 C92.2842827,21.7275922 92.0333834,22.6144922 92.427237,23.3205113 C92.8210906,24.023613 93.7079907,24.2715949 94.4140098,23.8806587 C96.7829664,22.5561435 99.312382,21.6050599 101.932238,21.0536648 C110.337366,19.2915345 118.891284,21.3191514 125.408832,26.6113772 C131.923463,31.9036031 135.660696,39.748584 135.660696,48.1362077 C135.660696,54.9980133 133.096272,61.5739102 128.437129,66.6589983 C123.620445,71.9191324 121.073525,78.0311573 121.073525,84.3415677 L121.073525,84.6041368 L94.8166157,84.6041368 L94.8166157,84.329898 C94.8166157,78.0836711 92.2230166,71.8316093 87.5142776,66.7260993 C81.4868582,60.1852115 79.0362134,51.3483029 80.7895914,42.4880549 C81.122179,40.8192824 81.6181428,39.1738495 82.2599783,37.6013524 C82.5633915,36.8544892 82.2074645,36.0025983 81.4606013,35.6991852 C80.7254079,35.395772 79.8647648,35.7546164 79.5584342,36.4956447 C78.8436627,38.2431879 78.2951851,40.0665844 77.9275884,41.9162377 C75.9874945,51.7013125 78.7007085,61.4659652 85.3670459,68.7012023 C89.5769036,73.266987 91.8962639,78.8188646 91.8962639,84.3269806 L91.8962639,86.062854 C91.8962639,86.8680659 92.5497692,87.5215712 93.3549811,87.5215712 L122.529324,87.5215712 C123.334536,87.5215712 123.988042,86.8680659 123.988042,86.062854 L123.988042,84.3386503 C123.988042,77.3076336 127.573568,71.9132975 130.584361,68.6282664 C135.739467,63.0063705 138.578131,55.7302893 138.578131,48.1362077 C138.578131,38.8646014 134.447044,30.196904 127.243898,24.3474482 Z" id="Path"></path><path d="M107.94507,26.2554502 C107.139858,26.2554502 106.486353,26.9089555 106.486353,27.7141674 C106.486353,28.5193793 107.139858,29.1728846 107.94507,29.1728846 C118.401155,29.1728846 126.908393,37.6801231 126.908393,48.1362077 C126.908393,48.9414196 127.561899,49.5949249 128.36711,49.5949249 C129.172322,49.5949249 129.825828,48.9414196 129.825828,48.1362077 C129.825828,36.0696993 120.011579,26.2554502 107.94507,26.2554502 Z" id="Path"></path><path d="M122.532242,84.6041368 L93.3578985,84.6041368 C92.5526867,84.6041368 91.8991814,85.2576421 91.8991814,86.062854 L91.8991814,100.650026 C91.8991814,109.495687 99.0964919,116.695914 107.94507,116.695914 C116.793649,116.695914 123.990959,109.495687 123.990959,100.650026 L123.990959,86.062854 C123.990959,85.2576421 123.337454,84.6041368 122.532242,84.6041368 Z M121.073525,100.650026 C121.073525,107.88818 115.183225,113.77848 107.94507,113.77848 C100.706916,113.77848 94.8166157,107.88818 94.8166157,100.650026 L94.8166157,87.5215712 L121.073525,87.5215712 L121.073525,100.650026 Z" id="Shape"></path><path d="M107.049418,119.619184 C106.28505,119.365367 105.459416,119.776725 105.205599,120.541093 C103.151726,126.68521 100.111759,132.374207 96.1732227,137.438873 L91.117309,143.941834 C88.9379855,146.739653 87.7360026,150.237657 87.7360026,153.791092 L87.7360026,176.503318 C87.7360026,177.30853 88.3895079,177.962035 89.1947197,177.962035 C89.9999316,177.962035 90.6534369,177.30853 90.6534369,176.503318 L90.6534369,153.794009 C90.6534369,150.888245 91.6336948,148.026242 93.4191647,145.733138 L98.4750783,139.230177 C102.617835,133.90586 105.815343,127.928037 107.971327,121.46592 C108.225144,120.701552 107.813786,119.875918 107.049418,119.619184 Z" id="Path"></path><path d="M73.4026477,49.3090163 C69.8929742,48.5329788 66.371631,48.1362077 62.9348934,48.1362077 C36.3920758,48.1362077 14.7972269,69.7310566 14.7972269,96.2767916 L14.7972269,98.7303539 L0.805211875,118.551403 C-0.140036848,119.890505 -0.259651655,121.629296 0.495963836,123.088013 C1.25157933,124.543813 2.73947084,125.451135 4.38198636,125.451135 L17.7146612,125.451135 L17.7146612,142.955741 C17.7146612,151.801402 24.9119717,159.00163 33.7605501,159.00163 L41.0541359,159.00163 C44.2720659,159.00163 46.8890045,161.618568 46.8890045,164.836498 L46.8890045,176.506236 C46.8890045,177.311448 47.5425098,177.964953 48.3477217,177.964953 C49.1529336,177.964953 49.8064389,177.311448 49.8064389,176.506236 L49.8064389,164.836498 C49.8064389,160.011062 45.8795723,156.084195 41.0541359,156.084195 L33.7605501,156.084195 C26.5223955,156.084195 20.6320956,150.193895 20.6320956,142.955741 L20.6320956,123.9895 C20.6320956,123.184288 19.9785903,122.530783 19.1733784,122.530783 L4.38198636,122.530783 C3.82767384,122.530783 3.34337974,122.236122 3.08664552,121.743076 C2.83282873,121.250029 2.87075538,120.684047 3.19167316,120.228927 L17.4491747,100.028612 C17.6242208,99.7835476 17.7146612,99.4888868 17.7146612,99.188391 L17.7146612,96.2738741 C17.7146612,71.3385629 37.9995821,51.0507246 62.9348934,51.0507246 C66.1586583,51.0507246 69.4699462,51.4212388 72.7695645,52.1564322 C73.5601892,52.3343957 74.3362267,51.8384319 74.5112728,51.0478072 C74.6834014,50.2630173 74.1874376,49.4840624 73.4026477,49.3090163 Z" id="Path"></path><path d="M122.532242,99.1913085 L93.3578985,99.1913085 C92.5526867,99.1913085 91.8991814,99.8448138 91.8991814,100.650026 C91.8991814,101.455238 92.5526867,102.108743 93.3578985,102.108743 L122.532242,102.108743 C123.337454,102.108743 123.990959,101.455238 123.990959,100.650026 C123.990959,99.8448138 123.337454,99.1913085 122.532242,99.1913085 Z" id="Path"></path><path d="M91.473236,12.094224 L87.3479838,7.96897187 C86.7790841,7.40007218 85.8542574,7.40007218 85.2853577,7.96897187 C84.7164581,8.53787156 84.7164581,9.46269825 85.2853577,10.0315979 L89.4106099,14.1568501 C89.693601,14.4427586 90.0670326,14.5857129 90.4404642,14.5857129 C90.8138958,14.5857129 91.1873274,14.4427586 91.473236,14.1597675 C92.0421357,13.5879504 92.0421357,12.6660411 91.473236,12.094224 Z" id="Path"></path><path d="M130.6077,7.96897187 C130.0388,7.40007218 129.113974,7.40007218 128.545074,7.96897187 L124.419822,12.094224 C123.850922,12.6631237 123.850922,13.5879504 124.419822,14.1568501 C124.702813,14.4427586 125.076245,14.5857129 125.449676,14.5857129 C125.823108,14.5857129 126.196539,14.4427586 126.482448,14.1597675 L130.6077,10.0345154 C131.1766,9.46269825 131.1766,8.540789 130.6077,7.96897187 Z" id="Path"></path><path d="M77.3120097,23.3380159 L68.5597067,23.3380159 C67.7544949,23.3380159 67.1009896,23.9915212 67.1009896,24.7967331 C67.1009896,25.601945 67.7544949,26.2554502 68.5597067,26.2554502 L77.3120097,26.2554502 C78.1172216,26.2554502 78.7707269,25.601945 78.7707269,24.7967331 C78.7707269,23.9915212 78.1172216,23.3380159 77.3120097,23.3380159 Z" id="Path"></path><path d="M147.330434,23.3380159 L138.578131,23.3380159 C137.772919,23.3380159 137.119413,23.9915212 137.119413,24.7967331 C137.119413,25.601945 137.772919,26.2554502 138.578131,26.2554502 L147.330434,26.2554502 C148.135646,26.2554502 148.789151,25.601945 148.789151,24.7967331 C148.789151,23.9915212 148.135646,23.3380159 147.330434,23.3380159 Z" id="Path"></path><path d="M107.94507,67.0995309 C107.139858,67.0995309 106.486353,67.7530361 106.486353,68.558248 L106.486353,86.062854 C106.486353,86.8680659 107.139858,87.5215712 107.94507,87.5215712 C108.750282,87.5215712 109.403787,86.8680659 109.403787,86.062854 L109.403787,68.558248 C109.403787,67.7530361 108.750282,67.0995309 107.94507,67.0995309 Z" id="Path"></path><path d="M117.228346,59.274972 C116.659447,58.7060723 115.73462,58.7060723 115.16572,59.274972 L107.94507,66.4956219 L100.72442,59.274972 C100.155521,58.7060723 99.2306938,58.7060723 98.6617941,59.274972 C98.0928945,59.8438717 98.0928945,60.7686984 98.6617941,61.3375981 L106.912298,69.5881023 C107.198207,69.8740109 107.571639,70.0169652 107.94507,70.0169652 C108.318502,70.0169652 108.691933,69.8740109 108.977842,69.5910198 L117.231264,61.3405155 C117.797246,60.7686984 117.797246,59.8467891 117.228346,59.274972 Z" id="Path"></path></g><path d="M182.532196,151.255842 L181.872856,150.876575 C182.126673,149.732941 182.269627,148.55138 182.269627,147.331892 C182.269627,146.112405 182.126673,144.930844 181.872856,143.78721 L182.532196,143.407943 L184.764034,141.447427 C185.286254,140.98939 185.411704,140.225022 185.064529,139.624031 L182.176269,134.620631 C181.829095,134.016722 181.105571,133.745401 180.446231,133.967126 L177.633824,134.918209 L176.965732,135.303311 C175.224023,133.704557 173.14681,132.470482 170.836202,131.744041 L170.836202,130.991343 L170.252715,128.079743 C170.115596,127.397064 169.514604,126.906935 168.820255,126.906935 L163.043735,126.906935 C162.349386,126.906935 161.748394,127.397064 161.614192,128.079743 L161.030705,130.991343 L161.030705,131.741123 C158.720097,132.467564 156.642884,133.704557 154.901176,135.300393 L154.233083,134.915292 L151.420677,133.964208 C150.761336,133.739566 150.037813,134.013805 149.690638,134.617714 L146.802378,139.621113 C146.455203,140.222105 146.580653,140.986473 147.102874,141.44451 L149.334711,143.405026 L149.994051,143.784292 C149.740234,144.927926 149.59728,146.109487 149.59728,147.328975 C149.59728,148.545545 149.740234,149.730023 149.994051,150.873658 L149.334711,151.252924 L147.105791,153.21344 C146.58357,153.671477 146.458121,154.435845 146.805295,155.036836 L149.693555,160.040236 C150.04073,160.641228 150.764254,160.915467 151.423594,160.693742 L154.236001,159.742658 L154.904093,159.357557 C156.645801,160.956311 158.723015,162.190385 161.033623,162.916827 L161.033623,163.666607 L161.61711,166.578207 C161.748394,167.260886 162.346468,167.751015 163.043735,167.751015 L168.820255,167.751015 C169.514604,167.751015 170.115596,167.260886 170.249798,166.578207 L170.833285,163.666607 L170.833285,162.916827 C173.143893,162.190385 175.221106,160.953393 176.962814,159.357557 L177.630907,159.742658 L180.443313,160.693742 C181.102653,160.915467 181.826177,160.644145 182.173352,160.040236 L185.061612,155.036836 C185.408786,154.435845 185.283337,153.671477 184.761116,153.21344 L182.532196,151.255842 Z M165.931995,157.131554 C160.517237,157.131554 156.129416,152.743733 156.129416,147.328975 C156.129416,141.914217 160.517237,137.526396 165.931995,137.526396 C171.346753,137.526396 175.734574,141.914217 175.734574,147.328975 C175.734574,152.743733 171.346753,157.131554 165.931995,157.131554 Z" id="Shape" fill="#D9FFFF"></path><g id="Group" transform="translate(18.963323, 33.550495)" fill="#37474F"><path d="M146.968672,102.520101 C140.760372,102.520101 135.707375,107.57018 135.707375,113.77848 C135.707375,119.989698 140.757454,125.039777 146.968672,125.039777 C153.179889,125.039777 158.229968,119.989698 158.229968,113.77848 C158.229968,107.57018 153.176972,102.520101 146.968672,102.520101 Z M146.968672,122.122342 C142.367878,122.122342 138.62481,118.379274 138.62481,113.77848 C138.62481,109.180604 142.367878,105.437535 146.968672,105.437535 C151.569466,105.437535 155.312534,109.180604 155.312534,113.77848 C155.312534,118.379274 151.569466,122.122342 146.968672,122.122342 Z M166.760546,118.568907 L164.531626,116.608391 C164.68625,115.660225 164.765021,114.712059 164.765021,113.77848 C164.765021,112.844901 164.68625,111.896735 164.531626,110.948569 L166.760546,108.99097 C167.80207,108.077813 168.055887,106.540326 167.364455,105.338343 L164.473278,100.334943 C163.781846,99.1387947 162.328964,98.590317 161.013201,99.0308496 L158.215381,100.005273 C156.721655,98.7799502 155.073304,97.8201143 153.299504,97.1432696 L152.721852,94.2433399 C152.447613,92.8838155 151.24563,91.8977227 149.859849,91.8977227 L144.083329,91.8977227 C142.697548,91.8977227 141.495565,92.8838155 141.224244,94.2462573 L140.672848,97.1345173 C138.896131,97.8055272 137.247781,98.7653631 135.754054,99.9906855 L132.929978,99.033767 C131.617132,98.5932344 130.16425,99.1387947 129.466983,100.33786 L126.578723,105.344177 C125.887291,106.543243 126.141108,108.080731 127.179715,108.993888 L129.414469,110.922312 C129.256928,111.882148 129.17524,112.839066 129.17524,113.77848 C129.17524,114.709142 129.254011,115.660225 129.408635,116.611309 L127.176797,118.571825 C126.135273,119.484982 125.884374,121.02247 126.575806,122.218618 L129.461148,127.2191 C130.155498,128.426918 131.62005,128.975396 132.924143,128.526111 L135.72488,127.554605 C137.218606,128.779927 138.864039,129.739763 140.637839,130.413691 L141.218409,133.316538 C141.48973,134.673145 142.69463,135.659238 144.077494,135.659238 L149.854014,135.659238 C151.239796,135.659238 152.444696,134.673145 152.716017,133.31362 L153.267412,130.42536 C155.041213,129.754351 156.69248,128.794515 158.189124,127.569192 L161.007366,128.523193 C162.331881,128.960808 163.781846,128.421083 164.473278,127.2191 L167.361538,122.2157 C168.055887,121.016635 167.80207,119.482064 166.760546,118.568907 Z M161.943862,125.760383 L159.396942,124.931832 L158.72885,124.543813 C158.177454,124.22873 157.47727,124.298748 157.010481,124.730529 C155.370883,126.235925 153.492055,127.327045 151.429429,127.968881 C150.822603,128.158514 150.405409,128.724496 150.405409,129.363414 L150.434584,129.830204 L149.851097,132.738886 L144.074577,132.741803 L143.520264,130.116112 L143.520264,129.363414 C143.520264,128.724496 143.105989,128.161431 142.496245,127.968881 C140.433619,127.32121 138.554791,126.233007 136.918111,124.730529 C136.640954,124.476712 136.287945,124.345427 135.932018,124.345427 C135.681118,124.345427 135.430219,124.409611 135.202659,124.540895 L131.984729,125.757465 L129.096469,120.756983 L131.097829,118.962761 L131.757169,118.580577 C132.305647,118.262577 132.585721,117.623659 132.448601,117.005162 C132.206454,115.916959 132.086839,114.828756 132.086839,113.775563 C132.086839,112.722369 132.209371,111.634166 132.448601,110.545963 C132.585721,109.924549 132.302729,109.285631 131.751334,108.967631 L129.099387,106.79706 L131.987646,101.79366 L134.537484,102.625129 L135.205577,103.013147 C135.756972,103.32823 136.454238,103.258212 136.923945,102.826432 C138.560626,101.323953 140.436536,100.229915 142.50208,99.5822447 C143.108906,99.3926114 143.523182,98.8295466 143.523182,98.1906285 L143.494007,97.7267564 L144.077494,94.815157 L149.854014,94.815157 L150.405409,97.4408479 L150.405409,98.1906285 C150.405409,98.8295466 150.819685,99.389694 151.426511,99.5822447 C153.492055,100.232833 155.367965,101.323953 157.007563,102.826432 C157.474353,103.258212 158.174537,103.331148 158.725932,103.013147 L161.940945,101.79366 L164.83504,106.79706 L162.839515,108.588364 L162.180174,108.967631 C161.628779,109.285631 161.345788,109.927467 161.482908,110.54888 C161.725055,111.634166 161.847587,112.719451 161.847587,113.775563 C161.847587,114.831674 161.725055,115.916959 161.482908,117.002245 C161.345788,117.623659 161.625862,118.262577 162.177257,118.580577 L164.83504,120.7599 L161.943862,125.760383 Z" id="Shape"></path><path d="M33.5504948,5.83340994 L1.45871716,5.83340994 C0.65350529,5.83340994 0,6.48691523 0,7.29212711 C0,8.09733898 0.65350529,8.75084427 1.45871716,8.75084427 L33.5504948,8.75084427 C34.3557067,8.75084427 35.009212,8.09733898 35.009212,7.29212711 C35.009212,6.48691523 34.3557067,5.83340994 33.5504948,5.83340994 Z" id="Path"></path><path d="M3.52134324,7.29212711 L8.32344014,2.4900302 C8.89233984,1.92113051 8.89233984,0.996303823 8.32344014,0.427404129 C7.75454045,-0.141495565 6.82971376,-0.141495565 6.26081407,0.427404129 L0.425945412,6.26227279 C-0.142954282,6.83117248 -0.142954282,7.75599916 0.425945412,8.32489886 L6.26081407,14.1597675 C6.54672263,14.4427586 6.92015423,14.5857129 7.29358582,14.5857129 C7.66701742,14.5857129 8.04044901,14.4427586 8.32635758,14.1597675 C8.89525727,13.5908678 8.89525727,12.6660411 8.32635758,12.0971414 L3.52134324,7.29212711 Z" id="Path"></path><path d="M33.5504948,23.3380159 L1.45871716,23.3380159 C0.65350529,23.3380159 0,23.9915212 0,24.7967331 C0,25.601945 0.65350529,26.2554502 1.45871716,26.2554502 L33.5504948,26.2554502 C34.3557067,26.2554502 35.009212,25.601945 35.009212,24.7967331 C35.009212,23.9915212 34.3557067,23.3380159 33.5504948,23.3380159 Z" id="Path"></path><path d="M34.5832665,23.7639613 L28.7483979,17.9290927 C28.1794982,17.360193 27.2546715,17.360193 26.6857718,17.9290927 C26.1168721,18.4979924 26.1168721,19.422819 26.6857718,19.9917187 L31.4878687,24.7938156 L26.6857718,29.5959126 C26.1168721,30.1648122 26.1168721,31.0896389 26.6857718,31.6585386 C26.9687629,31.9473646 27.3421945,32.0903189 27.7156261,32.0903189 C28.0890577,32.0903189 28.4624893,31.9473646 28.7483979,31.6643735 L34.5832665,25.8295048 C35.1521662,25.2576877 35.1521662,24.3357785 34.5832665,23.7639613 Z" id="Path"></path></g><circle id="Oval" fill="#FFD700" cx="100.86154" cy="90.4390055" r="11.6697373"></circle><g id="Group" transform="translate(72.935858, 77.312010)" fill="#37474F"><path d="M27.9256814,-0.00145871716 C20.6875268,-0.00145871716 14.7972269,5.88884119 14.7972269,13.1269958 C14.7972269,20.3651503 20.6875268,26.2554502 27.9256814,26.2554502 C35.163836,26.2554502 41.0541359,20.3651503 41.0541359,13.1269958 C41.0541359,5.88884119 35.163836,-0.00145871716 27.9256814,-0.00145871716 Z M27.9256814,23.3380159 C22.2950331,23.3380159 17.7146612,18.757644 17.7146612,13.1269958 C17.7146612,7.49634751 22.2950331,2.91597561 27.9256814,2.91597561 C33.5563297,2.91597561 38.1367016,7.49634751 38.1367016,13.1269958 C38.1367016,18.757644 33.5534122,23.3380159 27.9256814,23.3380159 Z" id="Shape"></path><path d="M52.5138179,11.6682786 L45.4302874,11.6682786 C44.6250755,11.6682786 43.9715702,12.3217839 43.9715702,13.1269958 C43.9715702,13.9322076 44.6250755,14.5857129 45.4302874,14.5857129 L52.5138179,14.5857129 C53.3190298,14.5857129 53.9725351,13.9322076 53.9725351,13.1269958 C53.9725351,12.3217839 53.3190298,11.6682786 52.5138179,11.6682786 Z" id="Path"></path><path d="M10.4210754,11.6682786 L1.66877244,11.6682786 C0.863560561,11.6682786 0.210055272,12.3217839 0.210055272,13.1269958 C0.210055272,13.9322076 0.863560561,14.5857129 1.66877244,14.5857129 L10.4210754,14.5857129 C11.2262873,14.5857129 11.8797926,13.9322076 11.8797926,13.1269958 C11.8797926,12.3217839 11.2262873,11.6682786 10.4210754,11.6682786 Z" id="Path"></path></g></g></g></g></g></svg> 