<?xml version="1.0" encoding="UTF-8"?> <svg xmlns="http://www.w3.org/2000/svg" xmlns:xlink="http://www.w3.org/1999/xlink" width="90px" height="90px" viewBox="0 0 90 90" version="1.1"><title>BC6E2CC0-3523-4164-8B9D-A36BEA7EEA93</title><g id="Page-1" stroke="none" stroke-width="1" fill="none" fill-rule="evenodd"><g id="About-Us-Updated" transform="translate(-109.000000, -4806.000000)"><g id="Group-15" transform="translate(109.000000, 4806.000000)"><rect id="Rectangle" x="0" y="0" width="90" height="90"></rect><g id="support-(4)" transform="translate(7.000000, 0.000000)" fill-rule="nonzero"><g id="Group" transform="translate(0.000000, 6.259341)" fill="#334750"><path d="M37.9051456,38.2515285 C30.6120897,38.2515285 24.3486735,33.4177905 22.4707354,26.4256121 C21.6170037,26.3977657 20.7992686,26.1070758 20.0969946,25.5773138 C19.923124,25.4448733 19.8212466,25.2404396 19.8212466,25.0217429 L19.8212466,19.4904849 C19.8212466,19.2717884 19.923124,19.0659963 20.0969946,18.9349142 C20.7992686,18.4051522 21.6170037,18.1131039 22.4707354,18.0866159 C24.3486735,11.0930791 30.6120897,6.25934103 37.9051456,6.25934103 C45.1968433,6.25934103 51.4602595,11.0930791 53.3381976,18.0852575 C54.190571,18.1131039 55.0083061,18.4037938 55.7105802,18.9321974 C55.8844507,19.064638 55.9863281,19.2690717 55.9863281,19.4870891 L55.9863281,25.0217429 C55.9863281,25.2404396 55.8844507,25.4462316 55.7105802,25.5773138 C55.0083061,26.1057173 54.190571,26.3977657 53.3381976,26.4242536 C51.4602595,33.4177905 45.1968433,38.2515285 37.9051456,38.2515285 L37.9051456,38.2515285 Z M22.9135621,25.0095177 C23.245682,25.0095177 23.6104029,25.2166682 23.6837545,25.5352045 C25.2166682,32.2034131 31.0644248,36.8605639 37.9051456,36.8605639 C44.7445082,36.8605639 50.5922648,32.2034131 52.1265369,25.5352045 C52.2060012,25.1888218 52.5184251,24.9497497 52.8885792,25.0013675 C53.0665248,25.0264972 53.1351221,25.0373641 53.2057571,25.0373641 C53.6940889,25.0373641 54.168158,24.9049236 54.5953635,24.6536264 L54.5953635,19.8586017 C54.1056733,19.56927 53.5453482,19.4191709 52.9986066,19.4945601 C52.6481487,19.5543281 52.2087181,19.326123 52.1265369,18.9756651 C50.5922648,12.3074564 44.7445082,7.65030571 37.9051456,7.65030571 C31.0644248,7.65030571 25.2166682,12.3074564 23.6823961,18.9756651 C23.6015735,19.3220478 23.2816788,19.5611199 22.920354,19.509502 C22.7424082,19.4843723 22.6751692,19.4735054 22.6045342,19.4735054 C22.1148441,19.4735054 21.6407751,19.6073042 21.2122113,19.8586017 L21.2122113,24.6509096 C21.7032599,24.9402411 22.271056,25.0903404 22.8089681,25.0163094 C22.8436063,25.010876 22.8768863,25.0095177 22.9135621,25.0095177 Z" id="Shape"></path><path d="M41.381199,42.4244226 L37.9037874,42.4244226 C37.5200496,42.4244226 37.208305,42.112678 37.208305,41.7289402 C37.208305,41.3452024 37.5200496,41.0334579 37.9037874,41.0334579 L41.381199,41.0334579 C48.6667841,41.0334579 54.5953635,35.1048785 54.5953635,27.8192935 C54.5953635,27.4355557 54.907108,27.1238111 55.2908458,27.1238111 C55.6745836,27.1238111 55.9863281,27.4355557 55.9863281,27.8192935 C55.9863281,35.8730332 49.4349388,42.4244226 41.381199,42.4244226 Z" id="Path"></path><path d="M12.8664232,73.0256454 C12.4826855,73.0256454 12.1709409,72.7139008 12.1709409,72.330163 L12.1709409,54.1708748 C12.1709409,49.7134035 14.817713,45.6987588 18.9158971,43.941715 L32.0662183,38.3058631 C32.4153179,38.1571222 32.8269021,38.31673 32.9797182,38.6712629 C33.1298173,39.0251168 32.9674928,39.4339843 32.613639,39.5854419 L19.4639968,45.2219731 C15.877916,46.7576035 13.5619056,50.2710118 13.5619056,54.1708748 L13.5619056,72.330163 C13.5619056,72.7139008 13.250161,73.0256454 12.8664232,73.0256454 Z" id="Path"></path><path d="M62.9411515,73.0256454 C62.5574137,73.0256454 62.2456692,72.7139008 62.2456692,72.330163 L62.2456692,54.1708748 C62.2456692,50.2710118 59.9296587,46.758962 56.3449362,45.2219731 L50.077445,42.5358084 C49.7242704,42.3843508 49.5612667,41.974804 49.7113659,41.6216294 C49.8648611,41.2670965 50.275087,41.1074887 50.6255449,41.2562296 L56.8930361,43.941715 C60.9885033,45.6987588 63.6366338,49.7134035 63.6366338,54.1708748 L63.6366338,72.330163 C63.6366338,72.7139008 63.3248893,73.0256454 62.9411515,73.0256454 Z" id="Path"></path><path d="M37.9037874,47.9882812 C37.671507,47.9882812 37.4541688,47.871462 37.3251243,47.6778951 L31.7612656,39.3321071 C31.6845181,39.2180045 31.6444463,39.0835264 31.6444463,38.9470109 L31.6444463,36.4972015 C31.6444463,36.2683172 31.7585489,36.0523372 31.949399,35.9232927 C32.1382117,35.7922107 32.3827172,35.7684393 32.594622,35.8492619 C36.0122656,37.1913255 39.7966676,37.1913255 43.2143112,35.8492619 C43.426216,35.767081 43.6693631,35.7922107 43.8602132,35.9232927 C44.0503841,36.0523372 44.1644867,36.2683172 44.1644867,36.4972015 L44.1644867,38.9470109 C44.1644867,39.3307486 43.8527423,39.6424932 43.4690043,39.6424932 C43.0852666,39.6424932 42.773522,39.3307486 42.773522,38.9470109 L42.773522,37.484053 C39.6146468,38.5021466 36.1956447,38.5021466 33.0367693,37.484053 L33.0367693,38.7357852 L37.9051456,46.0383498 L39.1820077,44.1244151 C39.3966294,43.8045203 39.8299474,43.7209809 40.145767,43.9308481 C40.4643033,44.1434322 40.5519179,44.576071 40.3393338,44.8946073 L38.4838089,47.6765367 C38.3534059,47.871462 38.1360677,47.9882812 37.9037874,47.9882812 Z" id="Path"></path><path d="M18.7780231,37.853528 L6.25934103,37.853528 C5.87560326,37.853528 5.5638587,37.5424626 5.5638587,37.1580456 C5.5638587,36.7743077 5.87560326,36.4625633 6.25934103,36.4625633 L18.7780231,36.4625633 C19.1617609,36.4625633 19.4735054,36.7743077 19.4735054,37.1580456 C19.4735054,37.5424626 19.1617609,37.853528 18.7780231,37.853528 Z" id="Path"></path><path d="M3.47741168,37.853528 L0.695482337,37.853528 C0.311744568,37.853528 0,37.5424626 0,37.1580456 C0,36.7743077 0.311744568,36.4625633 0.695482337,36.4625633 L3.47741168,36.4625633 C3.86114945,36.4625633 4.17289402,36.7743077 4.17289402,37.1580456 C4.17289402,37.5424626 3.86114945,37.853528 3.47741168,37.853528 Z" id="Path"></path><path d="M69.5482337,37.853528 L57.0295516,37.853528 C56.6458139,37.853528 56.3340693,37.5424626 56.3340693,37.1580456 C56.3340693,36.7743077 56.6458139,36.4625633 57.0295516,36.4625633 L69.5482337,36.4625633 C69.9319715,36.4625633 70.243716,36.7743077 70.243716,37.1580456 C70.243716,37.5424626 69.9319715,37.853528 69.5482337,37.853528 Z" id="Path"></path><path d="M75.1120924,37.853528 L72.330163,37.853528 C71.9464253,37.853528 71.6346807,37.5424626 71.6346807,37.1580456 C71.6346807,36.7743077 71.9464253,36.4625633 72.330163,36.4625633 L75.1120924,36.4625633 C75.4958302,36.4625633 75.8075747,36.7743077 75.8075747,37.1580456 C75.8075747,37.5424626 75.4958302,37.853528 75.1120924,37.853528 Z" id="Path"></path><path d="M42.7721637,82.7623981 C42.388426,82.7623981 42.0766814,82.4506535 42.0766814,82.0669158 L42.0766814,75.8075747 L35.121858,75.8075747 L35.121858,82.0669158 C35.121858,82.4506535 34.8101134,82.7623981 34.4263757,82.7623981 C34.0426379,82.7623981 33.7308933,82.4506535 33.7308933,82.0669158 L33.7308933,75.1120924 C33.7308933,74.7283546 34.0426379,74.4166101 34.4263757,74.4166101 L42.7721637,74.4166101 C43.1559015,74.4166101 43.4676461,74.7283546 43.4676461,75.1120924 L43.4676461,82.0669158 C43.4676461,82.4506535 43.1559015,82.7623981 42.7721637,82.7623981 Z" id="Path"></path><path d="M54.5953635,79.9804688 L45.5540931,79.9804688 C45.1703553,79.9804688 44.8586107,79.6687242 44.8586107,79.2849864 C44.8586107,78.9012486 45.1703553,78.5895041 45.5540931,78.5895041 L54.5953635,78.5895041 C56.1296356,78.5895041 57.3772928,77.3418468 57.3772928,75.8075747 L57.3772928,54.9431046 C57.3772928,53.4088325 56.1296356,52.1611753 54.5953635,52.1611753 L22.603176,52.1611753 C21.0689038,52.1611753 19.8212466,53.4088325 19.8212466,54.9431046 L19.8212466,75.8075747 C19.8212466,77.3418468 21.0689038,78.5895041 22.603176,78.5895041 L31.6444463,78.5895041 C32.0281841,78.5895041 32.3399287,78.9012486 32.3399287,79.2849864 C32.3399287,79.6687242 32.0281841,79.9804688 31.6444463,79.9804688 L22.603176,79.9804688 C20.3027866,79.9804688 18.4302819,78.1079641 18.4302819,75.8075747 L18.4302819,54.9431046 C18.4302819,52.6427152 20.3027866,50.7702106 22.603176,50.7702106 L54.5953635,50.7702106 C56.8957528,50.7702106 58.7682575,52.6427152 58.7682575,54.9431046 L58.7682575,75.8075747 C58.7682575,78.1079641 56.8957528,79.9804688 54.5953635,79.9804688 Z" id="Path"></path><path d="M38.6644712,68.8527514 C36.7464613,68.8527514 35.1870595,67.2933496 35.1870595,65.3753397 C35.1870595,63.4573298 36.7464613,61.897928 38.6644712,61.897928 C40.5824811,61.897928 42.1418829,63.4573298 42.1418829,65.3753397 C42.1418829,67.2933496 40.5824811,68.8527514 38.6644712,68.8527514 Z M38.6644712,63.2888927 C37.5146161,63.2888927 36.5780242,64.2248053 36.5780242,65.3753397 C36.5780242,66.525874 37.5146161,67.4617867 38.6644712,67.4617867 C39.8150055,67.4617867 40.7509182,66.525874 40.7509182,65.3753397 C40.7509182,64.2248053 39.8150055,63.2888927 38.6644712,63.2888927 Z" id="Shape"></path><path d="M53.8998811,63.2888927 C53.5161433,63.2888927 53.2043988,62.9771481 53.2043988,62.5934103 L53.2043988,57.0295516 C53.2043988,56.6471721 52.8912959,56.3340693 52.5089164,56.3340693 L46.9450577,56.3340693 C46.56132,56.3340693 46.2495754,56.0223247 46.2495754,55.638587 C46.2495754,55.2548492 46.56132,54.9431046 46.9450577,54.9431046 L52.5089164,54.9431046 C53.6594508,54.9431046 54.5953635,55.8790173 54.5953635,57.0295516 L54.5953635,62.5934103 C54.5953635,62.9771481 54.2836189,63.2888927 53.8998811,63.2888927 Z" id="Path"></path><path d="M14.9528702,4.17289402 L9.38901155,4.17289402 C9.00527378,4.17289402 8.69352921,3.86114945 8.69352921,3.47741168 C8.69352921,3.09367392 9.00527378,2.78192935 9.38901155,2.78192935 L14.9528702,2.78192935 C15.336608,2.78192935 15.6483526,3.09367392 15.6483526,3.47741168 C15.6483526,3.86114945 15.336608,4.17289402 14.9528702,4.17289402 Z" id="Path"></path><path d="M12.1709409,6.95482337 C11.7872031,6.95482337 11.4754586,6.6430788 11.4754586,6.25934103 L11.4754586,0.695482337 C11.4754586,0.311744568 11.7872031,0 12.1709409,0 C12.5546787,0 12.8664232,0.311744568 12.8664232,0.695482337 L12.8664232,6.25934103 C12.8664232,6.6430788 12.5546787,6.95482337 12.1709409,6.95482337 Z" id="Path"></path><path d="M9.38901155,11.1277174 L3.82515285,11.1277174 C3.44141508,11.1277174 3.12967052,10.8159728 3.12967052,10.4322351 C3.12967052,10.0484973 3.44141508,9.73675272 3.82515285,9.73675272 L9.38901155,9.73675272 C9.77274932,9.73675272 10.0844939,10.0484973 10.0844939,10.4322351 C10.0844939,10.8159728 9.77274932,11.1277174 9.38901155,11.1277174 Z" id="Path"></path><path d="M6.6070822,13.9096467 C6.22334443,13.9096467 5.91159986,13.5979022 5.91159986,13.2141644 L5.91159986,7.65030571 C5.91159986,7.26656794 6.22334443,6.95482337 6.6070822,6.95482337 C6.99081997,6.95482337 7.30256454,7.26656794 7.30256454,7.65030571 L7.30256454,13.2141644 C7.30256454,13.5979022 6.99081997,13.9096467 6.6070822,13.9096467 Z" id="Path"></path></g><path d="M23.9954989,27.1238111 L23.3000166,27.1238111 L23.3000166,18.0825408 L27.4729106,18.0825408 L27.4729106,23.6463995 C27.4729106,25.5671261 25.9148672,27.1238111 23.9954989,27.1238111 Z" id="Path" fill="#FFD740"></path><path d="M23.9954989,27.8192935 L23.3000166,27.8192935 C22.9162788,27.8192935 22.6045342,27.5075489 22.6045342,27.1238111 L22.6045342,18.0825408 C22.6045342,17.698803 22.9162788,17.3870584 23.3000166,17.3870584 L27.4729106,17.3870584 C27.8566485,17.3870584 28.1683929,17.698803 28.1683929,18.0825408 L28.1683929,23.6463995 C28.1683929,25.9467888 26.2958883,27.8192935 23.9954989,27.8192935 Z M23.9954989,18.7780231 L23.9954989,26.4283288 C25.529771,26.4283288 26.7774282,25.1806716 26.7774282,23.6463995 L26.7774282,18.7780231 L23.9954989,18.7780231 Z" id="Shape" fill="#334750"></path><path d="M48.3373807,18.0132641 L48.3373807,23.6463995 C48.3373807,25.5671261 49.8940659,27.1238111 51.8147924,27.1238111 L52.5102747,27.1238111 L52.5102747,16.0864249 C51.4127167,17.1629285 49.953834,17.8502604 48.3373807,18.0132641 Z" id="Path" fill="#FFD740"></path><path d="M52.5102747,27.8192935 L51.8147924,27.8192935 C49.5144032,27.8192935 47.6418984,25.9467888 47.6418984,23.6463995 L47.6418984,18.0119058 C47.6418984,17.6539769 47.9115337,17.3551368 48.2681042,17.3204987 C49.6991407,17.1758328 51.0330541,16.560494 52.021943,15.5899428 C52.22366,15.392301 52.5211416,15.3352497 52.7785516,15.4452771 C53.0373199,15.5539462 53.2057571,15.8052437 53.2057571,16.0850666 L53.2057571,27.1238111 C53.2057571,27.5075489 52.8940127,27.8192935 52.5102747,27.8192935 L52.5102747,27.8192935 Z M49.032863,18.6150194 L49.032863,23.6463995 C49.032863,25.1806716 50.2805204,26.4283288 51.8147924,26.4283288 L51.8147924,17.523574 C50.9773611,18.0587693 50.0319398,18.4329987 49.032863,18.6150194 Z" id="Shape" fill="#334750"></path><path d="M37.9051456,36.1650815 C35.8601289,36.1650815 33.9394023,35.3697594 32.494103,33.9244602 C32.2231094,33.6527874 32.2231094,33.2119983 32.494103,32.9410047 C32.7657758,32.6693319 33.2065649,32.6693319 33.4775585,32.9410047 C34.6613726,34.1234604 36.2329997,34.7741168 37.9051456,34.7741168 C39.5772917,34.7741168 41.1489187,34.1234604 42.3313747,32.9410047 C42.6023683,32.6693319 43.0431574,32.6693319 43.3148302,32.9410047 C43.5858238,33.2119983 43.5858238,33.6527874 43.3148302,33.9244602 C41.8708892,35.3697594 39.9488043,36.1650815 37.9051456,36.1650815 Z" id="Path" fill="#263238"></path><path d="M47.6418984,18.0825408 L23.3000166,18.0825408 C23.3000166,12.3210401 27.9707511,7.65030571 33.7322516,7.65030571 L40.9723316,7.65030571 C43.9919745,7.65030571 46.9742626,6.99489515 49.7161202,5.7295791 L54.5967217,3.47741168 L54.5967217,11.1277174 C54.5967217,14.9684915 51.4826724,18.0825408 47.6418984,18.0825408 Z" id="Path" fill="#FFD740"></path><path d="M47.6418984,18.7780231 L23.3000166,18.7780231 C22.9162788,18.7780231 22.6045342,18.4662785 22.6045342,18.0825408 C22.6045342,11.9468109 27.5965218,6.95482337 33.7322516,6.95482337 L40.9723316,6.95482337 C43.8724385,6.95482337 46.7949586,6.31231731 49.4240718,5.09793978 L54.3046736,2.84577254 C54.5199742,2.74864947 54.7719508,2.76223311 54.970951,2.89195674 C55.1713098,3.01964312 55.2908462,3.23969791 55.2908462,3.47741168 L55.2908462,11.1277174 C55.2922041,15.3454373 51.8596185,18.7780231 47.6418984,18.7780231 Z M24.0206288,17.3870584 L47.6418984,17.3870584 C51.0928221,17.3870584 53.9012394,14.5786409 53.9012394,11.1277174 L53.9012394,4.5634237 L50.0081685,6.36121841 C47.1970343,7.65981434 44.0727972,8.34578804 40.9723316,8.34578804 L33.7322516,8.34578804 C28.5983152,8.34578804 24.3778784,12.3420948 24.0206288,17.3870584 Z" id="Shape" fill="#334750"></path><path d="M55.2908458,23.6463995 C54.907108,23.6463995 54.5953635,23.3346549 54.5953635,22.9509171 L54.5953635,18.6761457 C54.5953635,18.2034351 54.5756672,17.7361579 54.5383122,17.2743141 C54.507749,16.8919348 54.791647,16.5550606 55.1740265,16.5244972 C55.5523308,16.4952925 55.8932802,16.7791905 55.9238434,17.1602116 C55.9639152,17.6594104 55.9863281,18.1660802 55.9863281,18.6761457 L55.9863281,22.9509171 C55.9863281,23.3346549 55.6745836,23.6463995 55.2908458,23.6463995 Z" id="Path" fill="#263238"></path><path d="M55.2908458,22.9509171 L57.3772928,22.9509171 C59.2980194,22.9509171 60.8547045,24.5076022 60.8547045,26.4283288 L60.8547045,30.6012228 C60.8547045,32.5219494 59.2980194,34.0786345 57.3772928,34.0786345 L55.2908458,34.0786345 L55.2908458,22.9509171 Z" id="Path" fill="#40C4FF"></path><path d="M57.3772928,34.7741168 L55.2908458,34.7741168 C54.907108,34.7741168 54.5953635,34.4623723 54.5953635,34.0786345 L54.5953635,22.9509171 C54.5953635,22.5671794 54.907108,22.2554348 55.2908458,22.2554348 L57.3772928,22.2554348 C59.6776822,22.2554348 61.5501868,24.1279394 61.5501868,26.4283288 L61.5501868,30.6012228 C61.5501868,32.9016122 59.6776822,34.7741168 57.3772928,34.7741168 Z M55.9863281,33.3831522 L57.3772928,33.3831522 C58.9115649,33.3831522 60.1592221,32.1354949 60.1592221,30.6012228 L60.1592221,26.4283288 C60.1592221,24.8940567 58.9115649,23.6463995 57.3772928,23.6463995 L55.9863281,23.6463995 L55.9863281,33.3831522 Z" id="Shape" fill="#334750"></path><path d="M20.5167289,34.0786345 L18.4302819,34.0786345 C16.5095553,34.0786345 14.9528702,32.5219494 14.9528702,30.6012228 L14.9528702,26.4283288 C14.9528702,24.5076022 16.5095553,22.9509171 18.4302819,22.9509171 L20.5167289,22.9509171 L20.5167289,34.0786345 Z" id="Path" fill="#40C4FF"></path><path d="M20.5167289,34.7741168 L18.4302819,34.7741168 C16.1298926,34.7741168 14.2573879,32.9016122 14.2573879,30.6012228 L14.2573879,26.4283288 C14.2573879,24.1279394 16.1298926,22.2554348 18.4302819,22.2554348 L20.5167289,22.2554348 C20.9004667,22.2554348 21.2122113,22.5671794 21.2122113,22.9509171 L21.2122113,34.0786345 C21.2122113,34.4623723 20.9004667,34.7741168 20.5167289,34.7741168 Z M18.4302819,23.6463995 C16.8960098,23.6463995 15.6483526,24.8940567 15.6483526,26.4283288 L15.6483526,30.6012228 C15.6483526,32.1354949 16.8960098,33.3831522 18.4302819,33.3831522 L19.8212466,33.3831522 L19.8212466,23.6463995 L18.4302819,23.6463995 Z" id="Shape" fill="#334750"></path><path d="M55.2908458,23.6463995 C54.907108,23.6463995 54.5953635,23.3346549 54.5953635,22.9509171 L54.5953635,18.0825408 C54.5953635,17.8978033 54.5831383,17.7151034 54.5702338,17.5330826 L54.5505375,17.2240548 C54.530162,16.840317 54.8262853,16.5136303 55.2100231,16.4952925 C55.6304368,16.4511458 55.9224849,16.7723988 55.9387853,17.1547781 L55.9571233,17.4400347 C55.9727445,17.6526186 55.9863281,17.8658817 55.9863281,18.0825408 L55.9863281,22.9509171 C55.9863281,23.3346549 55.6745836,23.6463995 55.2908458,23.6463995 L55.2908458,23.6463995 Z" id="Path" fill="#334750"></path><path d="M20.5167289,23.6463995 C20.1329912,23.6463995 19.8212466,23.3346549 19.8212466,22.9509171 L19.8212466,18.0825408 C19.8212466,8.11214945 27.933396,0 37.9037874,0 C41.4810388,0 44.9448669,1.04729868 47.9176463,3.02983072 C48.2361826,3.24241481 48.3237972,3.67505368 48.110534,3.99358998 C47.8965916,4.31348473 47.4639528,4.39838244 47.1467747,4.18647766 C44.4022005,2.35744066 41.2059702,1.39096467 37.9037874,1.39096467 C28.6995133,1.39096467 21.2122113,8.87826671 21.2122113,18.0825408 L21.2122113,22.9509171 C21.2122113,23.3346549 20.9004667,23.6463995 20.5167289,23.6463995 Z" id="Path" fill="#334750"></path></g></g></g></g></svg> 