<svg width="115" height="59" viewBox="0 0 115 59" fill="none" xmlns="http://www.w3.org/2000/svg">
<path fill-rule="evenodd" clip-rule="evenodd" d="M9.50031 45.2315H9.50817H9.52077C10.5642 45.2315 11.4094 44.3918 11.4094 43.355C11.4094 42.3182 10.5642 41.4785 9.52077 41.4785H9.48614C8.44268 41.4785 7.60067 42.326 7.60381 43.3628C7.60854 44.3965 8.45369 45.2315 9.49244 45.2315H9.50031ZM16.0142 47.327C16.8278 46.6796 16.9347 45.4989 16.3052 44.6905V44.6889C15.6756 43.8804 14.4702 43.7491 13.6551 44.3949C12.8397 45.0423 12.71 46.223 13.3616 47.033C13.7346 47.4975 14.2826 47.7383 14.8366 47.7383C15.2505 47.7383 15.6649 47.6038 16.0142 47.327ZM5.66484 47.0487C6.31326 46.2371 6.17633 45.0564 5.35793 44.4121C4.5411 43.7694 3.35285 43.9054 2.70442 44.7171C2.05757 45.5287 2.19449 46.7093 3.01132 47.3536C3.35914 47.6273 3.77307 47.7602 4.18384 47.7602C4.74098 47.7602 5.29183 47.5162 5.66484 47.0487ZM18.0007 51.9918C18.2305 50.98 17.593 49.9761 16.5748 49.7478C15.5581 49.5194 14.5461 50.1528 14.3163 51.1645C14.0865 52.1747 14.7255 53.1803 15.7422 53.4086C15.8823 53.4399 16.0223 53.4539 16.1608 53.4539C17.0233 53.4539 17.8024 52.8628 18.0007 51.9918ZM3.3135 53.4336C4.33021 53.2006 4.9629 52.1935 4.72997 51.1833C4.49547 50.1731 3.48191 49.5445 2.4652 49.7759C1.44849 50.0089 0.81423 51.016 1.04873 52.0262C1.25019 52.8941 2.02767 53.4821 2.88699 53.4821C3.02706 53.4821 3.17028 53.4664 3.3135 53.4336ZM13.309 57.8575C14.2486 57.4056 14.6018 56.2828 14.1469 55.3508C13.6919 54.4172 12.5279 54.0278 11.5836 54.4798V54.4813C11.5836 54.9317 10.2926 56.0545 10.7473 56.9881C11.0732 57.6558 11.7662 58.0468 12.4681 58.0468C12.7435 58.0468 13.043 57.9858 13.309 57.8575ZM8.2853 56.9928C8.73699 56.0576 8.33881 54.938 7.39922 54.4892C6.45806 54.0419 5.3296 54.436 4.87948 55.3696C4.42779 56.3047 4.82597 57.4259 5.76556 57.8732C6.02839 57.9999 6.30696 58.0577 6.58081 58.0577C7.28433 58.0577 7.96108 57.6652 8.2853 56.9928Z" fill="#14214E" stroke="#14214E"/>
<path fill-rule="evenodd" clip-rule="evenodd" d="M105.098 4.75309H105.106H105.119C106.162 4.75309 107.007 3.91333 107.007 2.87654C107.007 1.83975 106.162 1 105.119 1H105.084C104.041 1 103.199 1.84757 103.202 2.88436C103.207 3.91802 104.052 4.75309 105.091 4.75309H105.098ZM111.612 6.84856C112.426 6.20115 112.533 5.02049 111.903 4.21202V4.21045C111.274 3.40198 110.068 3.27062 109.253 3.91646C108.438 4.56387 108.308 5.74453 108.96 6.55457C109.333 7.01901 109.881 7.25984 110.435 7.25984C110.849 7.25984 111.263 7.12535 111.612 6.84856ZM101.263 6.57021C101.911 5.7586 101.774 4.57794 100.956 3.93366C100.139 3.29095 98.9509 3.427 98.3025 4.2386C97.6557 5.05021 97.7926 6.23086 98.6094 6.87514C98.9572 7.14881 99.3712 7.28173 99.7819 7.28173C100.339 7.28173 100.89 7.03778 101.263 6.57021ZM113.599 11.5133C113.829 10.5016 113.191 9.49761 112.173 9.2693C111.156 9.04099 110.144 9.67432 109.914 10.6861C109.685 11.6963 110.324 12.7018 111.34 12.9301C111.48 12.9614 111.62 12.9755 111.759 12.9755C112.621 12.9755 113.4 12.3844 113.599 11.5133ZM98.9116 12.9551C99.9283 12.7221 100.561 11.7151 100.328 10.7049C100.094 9.69465 99.08 9.06601 98.0633 9.29745C97.0466 9.53045 96.4123 10.5375 96.6468 11.5477C96.8483 12.4156 97.6258 13.0036 98.4851 13.0036C98.6252 13.0036 98.7684 12.988 98.9116 12.9551ZM108.907 17.3791C109.847 16.9272 110.2 15.8044 109.745 14.8723C109.29 13.9388 108.126 13.5494 107.182 14.0013V14.0029C107.182 14.4533 105.891 15.576 106.345 16.5096C106.671 17.1774 107.364 17.5683 108.066 17.5683C108.342 17.5683 108.641 17.5073 108.907 17.3791ZM103.883 16.5143C104.335 15.5792 103.937 14.4595 102.997 14.0107C102.056 13.5635 100.928 13.9575 100.478 14.8911C100.026 15.8263 100.424 16.9475 101.364 17.3947C101.626 17.5214 101.905 17.5793 102.179 17.5793C102.882 17.5793 103.559 17.1867 103.883 16.5143Z" fill="#14214E" stroke="#14214E" stroke-width="0.8"/>
</svg>
