<svg width="102" height="89" viewBox="0 0 102 89" fill="none" xmlns="http://www.w3.org/2000/svg">
<path d="M89.7833 1.82166H4.81786C3.161 1.82166 1.81786 3.1648 1.81786 4.82166V77.702C1.81786 79.3589 3.161 80.702 4.81786 80.702H89.7833C91.4402 80.702 92.7833 79.3589 92.7833 77.702V4.82166C92.7833 3.1648 91.4402 1.82166 89.7833 1.82166Z" fill="white"/>
<path d="M35.0136 23.1851H29.3837C28.927 23.1851 28.5567 22.8172 28.5567 22.3634C28.5567 21.9096 28.927 21.5417 29.3837 21.5417H35.0136C35.4704 21.5417 35.8406 21.9096 35.8406 22.3634C35.8406 22.8172 35.4704 23.1851 35.0136 23.1851Z" fill="#14214E" stroke="#14214E" stroke-width="0.5"/>
<path d="M24.4219 23.1851H10.5017C10.045 23.1851 9.67479 22.8172 9.67479 22.3634C9.67479 21.9096 10.045 21.5417 10.5017 21.5417H24.4219C24.8787 21.5417 25.2489 21.9096 25.2489 22.3634C25.2489 22.8172 24.8787 23.1851 24.4219 23.1851Z" fill="#14214E" stroke="#14214E" stroke-width="0.5"/>
<path d="M35.0136 51.9436H26.4893C26.0326 51.9436 25.6624 51.5757 25.6624 51.1219C25.6624 50.6681 26.0326 50.3002 26.4893 50.3002H35.0136C35.4703 50.3002 35.8406 50.6681 35.8406 51.1219C35.8406 51.5757 35.4703 51.9436 35.0136 51.9436Z" fill="#14214E" stroke="#14214E" stroke-width="0.5"/>
<path d="M23.1815 51.9436H10.5017C10.045 51.9436 9.67479 51.5757 9.67479 51.1219C9.67479 50.6681 10.045 50.3002 10.5017 50.3002H23.1815C23.6382 50.3002 24.0085 50.6681 24.0085 51.1219C24.0085 51.5757 23.6382 51.9436 23.1815 51.9436Z" fill="#14214E" stroke="#14214E" stroke-width="0.5"/>
<path d="M35.0136 69.1986H22.7581C22.3014 69.1986 21.9312 68.8308 21.9312 68.377C21.9312 67.9232 22.3014 67.5553 22.7581 67.5553H35.0136C35.4704 67.5553 35.8406 67.9232 35.8406 68.377C35.8406 68.8308 35.4704 69.1986 35.0136 69.1986Z" fill="#14214E" stroke="#14214E" stroke-width="0.5"/>
<path d="M16.842 69.1986H10.5017C10.045 69.1986 9.67479 68.8308 9.67479 68.377C9.67479 67.9232 10.045 67.5553 10.5017 67.5553H16.842C17.2988 67.5553 17.669 67.9232 17.669 68.377C17.669 68.8308 17.2988 69.1986 16.842 69.1986Z" fill="#14214E" stroke="#14214E" stroke-width="0.5"/>
<path d="M89.4755 78.237H5.12569C3.29882 78.237 1.81786 76.7655 1.81786 74.9503V77.4153C1.81786 79.2305 3.29882 80.702 5.12569 80.702H89.4755C91.3023 80.702 92.7833 79.2305 92.7833 77.4153V74.9503C92.7833 76.7655 91.3023 78.237 89.4755 78.237Z" fill="white"/>
<path d="M89.4755 1.82166H5.12569C3.29882 1.82166 1.81786 3.29315 1.81786 5.10834V13.7359H92.7833V5.10834C92.7833 3.29315 91.3023 1.82166 89.4755 1.82166Z" fill="url(#paint0_linear_64_9)"/>
<path d="M75.1418 5.99823C74.361 5.9979 73.6569 6.46503 73.3579 7.18173C73.059 7.89843 73.2241 8.7235 73.7762 9.27208C74.3283 9.82067 75.1587 9.98469 75.88 9.68765C76.6013 9.3906 77.0714 8.69101 77.0711 7.91519C77.0711 6.85648 76.2073 5.99823 75.1418 5.99823Z" fill="white"/>
<path d="M80.9305 5.99823C80.1497 5.9979 79.4456 6.46503 79.1466 7.18173C78.8477 7.89843 79.0128 8.7235 79.5649 9.27208C80.117 9.82067 80.9474 9.98469 81.6687 9.68765C82.39 9.3906 82.8601 8.69101 82.8598 7.91519C82.8598 6.85648 81.996 5.99823 80.9305 5.99823Z" fill="#D4FBFF"/>
<path d="M86.7192 5.99823C85.9385 5.99823 85.2347 6.46557 84.936 7.1823C84.6373 7.89902 84.8025 8.72396 85.3547 9.27237C85.9069 9.82079 86.7372 9.98466 87.4584 9.68757C88.1796 9.39047 88.6497 8.69093 88.6494 7.91519C88.6489 6.85635 87.7849 5.99823 86.7192 5.99823Z" fill="#14214E"/>
<path d="M100.403 69.1781V64.935C100.403 64.6217 100.278 64.3213 100.055 64.0998C99.8315 63.8783 99.5291 63.754 99.2137 63.7543H96.345C95.9207 61.6832 95.098 59.7129 93.922 57.9516L95.9564 55.9303C96.1796 55.709 96.3051 55.4085 96.3051 55.0951C96.3051 54.7817 96.1796 54.4812 95.9564 54.2599L92.938 51.2599C92.7149 51.0383 92.4124 50.9137 92.0969 50.9137C91.7815 50.9137 91.4789 51.0383 91.2559 51.2599L89.2216 53.2812C87.4479 52.1129 85.4638 51.296 83.3783 50.8754V48.0193C83.3783 47.3667 82.8459 46.8377 82.1891 46.8377H77.9196C77.2628 46.8377 76.7304 47.3667 76.7304 48.0193V50.8754C74.6462 51.2966 72.6635 52.1138 70.8912 53.2821L68.8569 51.2608C68.6339 51.0391 68.3314 50.9145 68.0159 50.9145C67.7004 50.9145 67.3979 51.0391 67.1749 51.2608L64.1557 54.2607C63.6916 54.722 63.6916 55.4698 64.1557 55.9311L66.19 57.9524C65.0146 59.7139 64.1922 61.6841 63.7678 63.7551H60.8941C60.5788 63.7549 60.2764 63.8792 60.0533 64.1006C59.8303 64.3221 59.705 64.6225 59.705 64.9358V69.1789C59.705 69.4922 59.8303 69.7927 60.0533 70.0141C60.2764 70.2356 60.5788 70.3599 60.8941 70.3597H63.7678C64.1922 72.4306 65.0146 74.4008 66.19 76.1623L64.1557 78.1836C63.6916 78.645 63.6916 79.3927 64.1557 79.8541L67.1749 82.854C67.3979 83.0757 67.7004 83.2002 68.0159 83.2002C68.3314 83.2002 68.6339 83.0757 68.8569 82.854L70.8912 80.8327C72.6633 82.0013 74.6461 82.8185 76.7304 83.2393V86.0947C76.7308 86.7469 77.2631 87.2754 77.9196 87.2754H82.1891C82.8459 87.2754 83.3783 86.7464 83.3783 86.0938V83.2385C85.4626 82.8175 87.4453 82.0003 89.2175 80.8319L91.2518 82.8532C91.4748 83.0748 91.7773 83.1994 92.0928 83.1994C92.4083 83.1994 92.7108 83.0748 92.9338 82.8532L95.9522 79.8532C96.1755 79.6319 96.3009 79.3314 96.3009 79.018C96.3009 78.7046 96.1755 78.4041 95.9522 78.1828L93.9179 76.1615C95.0938 74.4002 95.9165 72.43 96.3409 70.3588H99.2137C99.5291 70.3591 99.8315 70.2348 100.055 70.0133C100.278 69.7918 100.403 69.4914 100.403 69.1781ZM80.0539 76.7227C74.6812 76.7222 70.3261 72.3944 70.3264 67.056C70.3267 61.7177 74.6823 57.3904 80.055 57.3904C85.4278 57.3904 89.7831 61.7182 89.7831 67.0565C89.7831 69.6203 88.758 72.0791 86.9334 73.8918C85.1089 75.7046 82.6342 76.7229 80.0539 76.7227Z" fill="#14214E"/>
<path d="M16.2905 28.9368H37.1017C37.5584 28.9368 37.9287 28.5689 37.9287 28.1151C37.9287 27.6613 37.5584 27.2935 37.1017 27.2935H16.2905C15.8337 27.2935 15.4635 27.6613 15.4635 28.1151C15.4635 28.5689 15.8337 28.9368 16.2905 28.9368Z" fill="#14214E" stroke="#14214E" stroke-width="0.5"/>
<path d="M30.6969 33.8668C30.6969 34.3206 31.0672 34.6885 31.5239 34.6885H76.3616C76.8183 34.6885 77.1885 34.3206 77.1885 33.8668C77.1885 33.413 76.8183 33.0452 76.3616 33.0452H31.5239C31.0672 33.0452 30.6969 33.413 30.6969 33.8668Z" fill="#14214E" stroke="#14214E" stroke-width="0.5"/>
<path d="M16.2905 34.6885H26.4893C26.9461 34.6885 27.3163 34.3206 27.3163 33.8668C27.3163 33.413 26.9461 33.0452 26.4893 33.0452H16.2905C15.8337 33.0452 15.4635 33.413 15.4635 33.8668C15.4635 34.3206 15.8337 34.6885 16.2905 34.6885Z" fill="#14214E" stroke="#14214E" stroke-width="0.5"/>
<path d="M16.2905 40.4402H76.3616C76.8183 40.4402 77.1885 40.0723 77.1885 39.6185C77.1885 39.1647 76.8183 38.7968 76.3616 38.7968H16.2905C15.8337 38.7968 15.4635 39.1647 15.4635 39.6185C15.4635 40.0723 15.8337 40.4402 16.2905 40.4402Z" fill="#14214E" stroke="#14214E" stroke-width="0.5"/>
<path d="M69.7459 44.5485H59.9258C59.469 44.5485 59.0988 44.9164 59.0988 45.3702C59.0988 45.824 59.469 46.1919 59.9258 46.1919H69.7459C70.2026 46.1919 70.5729 45.824 70.5729 45.3702C70.5729 44.9164 70.2026 44.5485 69.7459 44.5485Z" fill="#14214E"/>
<path d="M16.2905 46.1919H55.7777C56.2345 46.1919 56.6047 45.824 56.6047 45.3702C56.6047 44.9164 56.2345 44.5485 55.7777 44.5485H16.2905C15.8337 44.5485 15.4635 44.9164 15.4635 45.3702C15.4635 45.824 15.8337 46.1919 16.2905 46.1919Z" fill="#14214E" stroke="#14214E" stroke-width="0.5"/>
<path d="M58.1685 56.0519H49.5061C49.0494 56.0519 48.6791 56.4198 48.6791 56.8736C48.6791 57.3274 49.0494 57.6953 49.5061 57.6953H58.1685C58.6252 57.6953 58.9954 57.3274 58.9954 56.8736C58.9954 56.4198 58.6252 56.0519 58.1685 56.0519Z" fill="#14214E"/>
<path d="M16.2905 57.6953H44.8958C45.3525 57.6953 45.7227 57.3274 45.7227 56.8736C45.7227 56.4198 45.3525 56.0519 44.8958 56.0519H16.2905C15.8337 56.0519 15.4635 56.4198 15.4635 56.8736C15.4635 57.3274 15.8337 57.6953 16.2905 57.6953Z" fill="#14214E" stroke="#14214E" stroke-width="0.5"/>
<path d="M52.3798 61.8036H16.2905C15.8337 61.8036 15.4635 62.1715 15.4635 62.6253C15.4635 63.0791 15.8337 63.4469 16.2905 63.4469H52.3798C52.8365 63.4469 53.2067 63.0791 53.2067 62.6253C53.2067 62.1715 52.8365 61.8036 52.3798 61.8036Z" fill="#14214E" stroke="#14214E" stroke-width="0.5"/>
<path d="M55.1575 14.5576H62.3934C62.8501 14.5576 63.2204 14.1897 63.2204 13.7359C63.2204 13.2821 62.8501 12.9142 62.3934 12.9142H55.1575C54.7008 12.9142 54.3306 13.2821 54.3306 13.7359C54.3306 14.1897 54.7008 14.5576 55.1575 14.5576Z" fill="#14214E"/>
<path d="M99.2137 62.9326H97.0066C96.5861 61.2164 95.9007 59.5753 94.9748 58.0675L96.546 56.5121C97.3326 55.7291 97.3326 54.4611 96.546 53.6781L93.6194 50.771V5.10835C93.6166 2.8405 91.767 1.00272 89.4846 1H5.13479C2.85234 1.00272 1.00273 2.8405 1 5.10835V77.4153C1.00273 79.6832 2.85234 81.521 5.13479 81.5237H64.6758L66.5985 83.4341C67.3859 84.2155 68.6616 84.2155 69.449 83.4341L71.0202 81.8787C72.5377 82.7982 74.189 83.4792 75.9158 83.8975V86.0938C75.9172 87.1948 76.8115 88.0889 77.9196 88.0971H82.1891C83.3021 88.0957 84.2039 87.1996 84.2053 86.0938V83.8975C85.9322 83.4787 87.5838 82.7978 89.1017 81.8787L90.6671 83.4341C91.4546 84.2155 92.7302 84.2155 93.5177 83.4341L96.5377 80.435C97.3242 79.6523 97.3242 78.3846 96.5377 77.6019L94.9665 76.0456C95.8924 74.5378 96.5778 72.8967 96.9983 71.1805H99.2096C100.323 71.1796 101.225 70.2839 101.227 69.1781V64.935C101.225 63.8308 100.325 62.9357 99.2137 62.9326ZM2.64482 77.4153V14.5576H51.16C51.6167 14.5576 51.987 14.1897 51.987 13.7359C51.987 13.2821 51.6167 12.9142 51.16 12.9142H2.64482V5.10835C2.64482 3.74696 3.75555 2.64334 5.1257 2.64334H89.4755C90.8456 2.64334 91.9572 3.74696 91.9572 5.10835V12.9142H66.5414C66.0847 12.9142 65.7145 13.2821 65.7145 13.7359C65.7145 14.1897 66.0847 14.5576 66.5414 14.5576H91.9572V50.1055C91.471 50.1346 91.0123 50.3392 90.6671 50.6807L89.1017 52.2361C87.584 51.3167 85.9323 50.636 84.2053 50.2181V48.0201C84.2044 46.914 83.3024 46.0174 82.1891 46.016H77.9196C76.8063 46.0174 75.9043 46.914 75.9034 48.0201V50.2181C74.1765 50.6357 72.5251 51.3164 71.0078 52.2361L69.4366 50.6807C68.6492 49.8993 67.3735 49.8993 66.5861 50.6807L63.5677 53.6798C62.7806 54.4625 62.7806 55.7309 63.5677 56.5137L65.1331 58.0691C64.2075 59.577 63.5221 61.2181 63.1013 62.9342H60.8941C59.7819 62.936 58.8807 63.8315 58.8788 64.9366V69.1797C58.8807 70.2849 59.7819 71.1803 60.8941 71.1822H63.1054C63.5261 72.8983 64.2115 74.5394 65.1373 76.0473L63.5718 77.6035C62.9692 78.2037 62.8137 79.1166 63.184 79.8804H5.1257C3.75555 79.8804 2.64482 78.7767 2.64482 77.4153ZM99.5768 69.1781C99.5759 69.3767 99.4136 69.5372 99.2137 69.5372H96.345C95.9517 69.5367 95.6125 69.8116 95.5338 70.1945C95.1331 72.1625 94.3515 74.0344 93.2324 75.7063C93.015 76.0322 93.0589 76.4653 93.3374 76.7416L95.3725 78.7629C95.5138 78.9037 95.5138 79.1315 95.3725 79.2723L92.3525 82.2714C92.2109 82.4113 91.9822 82.4113 91.8406 82.2714L89.8063 80.2501C89.5283 79.9738 89.093 79.9302 88.7651 80.1458C87.0819 81.2568 85.1982 82.0336 83.2179 82.4333C82.8328 82.5114 82.5562 82.848 82.5563 83.2385V86.093C82.5559 86.2916 82.394 86.4524 82.1941 86.4529H77.9196C77.7195 86.4529 77.5574 86.2918 77.5574 86.093V83.2385C77.5574 82.848 77.2809 82.5114 76.8958 82.4333C74.9154 82.0339 73.0316 81.257 71.3485 80.1458C71.0207 79.9302 70.5854 79.9738 70.3074 80.2501L68.2723 82.2714C68.1307 82.4113 67.902 82.4113 67.7604 82.2714L64.742 79.2723C64.6007 79.1315 64.6007 78.9037 64.742 78.7629L66.7763 76.7416C67.0548 76.4653 67.0987 76.0322 66.8813 75.7063C65.7619 74.0345 64.98 72.1625 64.5791 70.1945C64.5005 69.8119 64.1617 69.5371 63.7686 69.5372H60.8941C60.6946 69.5372 60.5328 69.3764 60.5328 69.1781V64.935C60.5328 64.7367 60.6946 64.5759 60.8941 64.5759H63.7678C64.1608 64.576 64.4996 64.3012 64.5782 63.9186C64.98 61.9505 65.7618 60.0785 66.8805 58.406C67.0974 58.0802 67.0535 57.6477 66.7755 57.3715L64.7411 55.3502C64.5998 55.2094 64.5998 54.9816 64.7411 54.8408L67.7595 51.8417C67.9011 51.7018 68.1298 51.7018 68.2714 51.8417L70.3066 53.863C70.5845 54.1393 71.0198 54.1829 71.3477 53.9673C73.0306 52.856 74.9145 52.0794 76.895 51.6806C77.2803 51.6025 77.557 51.2654 77.5565 50.8746V48.0201C77.5563 47.9245 77.5944 47.8327 77.6623 47.7651C77.7303 47.6974 77.8225 47.6594 77.9187 47.6594H82.1883C82.3885 47.6598 82.5505 47.8212 82.5505 48.0201V50.8754C82.5501 51.2662 82.8267 51.6033 83.2121 51.6814C85.1925 52.08 87.0764 52.8563 88.7593 53.9673C89.0872 54.1829 89.5225 54.1393 89.8005 53.863L91.8348 51.8417C91.9764 51.7018 92.2051 51.7018 92.3467 51.8417L95.3667 54.8408C95.508 54.9816 95.508 55.2094 95.3667 55.3502L93.3316 57.3715C93.0531 57.6478 93.0092 58.0809 93.2266 58.4068C94.3457 60.0787 95.1273 61.9506 95.528 63.9186C95.6067 64.3015 95.9459 64.5764 96.3392 64.5759H99.2121C99.4119 64.5759 99.5742 64.7364 99.5751 64.935L99.5768 69.1781Z" fill="#334750" stroke="#14214E" stroke-width="0.9"/>
<path d="M80.0539 56.5687C74.2246 56.5692 69.4995 61.2648 69.4995 67.0568C69.4995 72.8488 74.2252 77.5443 80.0545 77.5443C85.8838 77.5443 90.6096 72.8494 90.6101 67.0573C90.6041 61.2671 85.8815 56.5746 80.0539 56.5687ZM80.0539 75.901C75.1378 75.9005 71.1529 71.9404 71.1534 67.0557C71.1538 62.171 75.1395 58.2116 80.0556 58.2121C84.9717 58.2125 88.9566 62.1727 88.9562 67.0573C88.9507 71.9399 84.968 75.8965 80.0539 75.901Z" fill="#14214E"/>
<defs>
<linearGradient id="paint0_linear_64_9" x1="19" y1="19.5" x2="93" y2="-8.49998" gradientUnits="userSpaceOnUse">
<stop stop-color="#1D344A"/>
<stop offset="0.771782" stop-color="#008CFC"/>
<stop offset="1" stop-color="#17EDD3"/>
</linearGradient>
</defs>
</svg>
