<svg width="183" height="166" viewBox="0 0 183 166" fill="none" xmlns="http://www.w3.org/2000/svg">
<path fill-rule="evenodd" clip-rule="evenodd" d="M35.1379 80.8758C35.1379 46.1631 63.12 18.0227 97.6378 18.0227C132.156 18.0227 160.138 46.1631 160.138 80.8758C160.138 115.588 132.156 143.729 97.6378 143.729C63.12 143.729 35.1379 115.588 35.1379 80.8758Z" fill="white"/>
<path d="M156.038 139.4C156.372 139.06 156.911 139.061 157.244 139.403C157.576 139.744 157.575 140.296 157.241 140.636C156.279 141.617 155.294 142.574 154.285 143.504C153.936 143.827 153.397 143.798 153.082 143.441C152.767 143.083 152.794 142.531 153.144 142.208C154.132 141.297 155.097 140.361 156.038 139.4Z" fill="#14214E" stroke="#14214E" stroke-width="0.9"/>
<path d="M146.845 147.173C140.384 151.938 133.251 155.729 125.665 158.409C125.212 158.569 124.974 159.066 125.135 159.518C125.295 159.97 125.793 160.207 126.246 160.047C133.995 157.309 141.281 153.436 147.88 148.57C148.266 148.284 148.348 147.741 148.062 147.355C147.776 146.969 147.231 146.887 146.845 147.173Z" fill="#14214E" stroke="#14214E" stroke-width="0.9"/>
<path d="M101.67 163.372C102.158 163.346 102.573 163.741 102.597 164.253C102.621 164.765 102.245 165.201 101.757 165.226C100.353 165.298 98.9435 165.335 97.5305 165.335C97.0418 165.335 96.6457 164.919 96.6457 164.406C96.6457 163.894 97.0418 163.478 97.5305 163.478C98.9145 163.478 100.295 163.443 101.67 163.372Z" fill="#14214E" stroke="#14214E" stroke-width="0.9"/>
<path d="M125.803 1.57599C125.979 1.12127 126.513 0.887332 126.996 1.05347C128.389 1.53344 129.768 2.04563 131.131 2.58961C131.604 2.77841 131.825 3.29285 131.625 3.73864C131.424 4.18443 130.879 4.39276 130.406 4.20397C129.071 3.67145 127.722 3.17005 126.357 2.70017C125.875 2.53403 125.627 2.03071 125.803 1.57599Z" fill="#14214E" stroke="#14214E" stroke-width="0.9"/>
<path d="M137.448 8.54462C144.914 12.633 151.708 17.8518 157.584 23.9984C157.92 24.3507 158.48 24.3645 158.834 24.0293C159.188 23.6941 159.202 23.1367 158.865 22.7845C152.865 16.5072 145.926 11.1773 138.3 7.00164C137.872 6.76726 137.335 6.92267 137.099 7.34875C136.864 7.77484 137.02 8.31025 137.448 8.54462ZM172.089 44.7933C175.804 52.3956 178.324 60.5399 179.541 68.9899C179.611 69.4712 180.059 69.8055 180.542 69.7365C181.026 69.6675 181.362 69.2213 181.292 68.7399C180.049 60.1085 177.474 51.7887 173.68 44.023C173.466 43.5857 172.937 43.4037 172.497 43.6164C172.058 43.8291 171.875 44.356 172.089 44.7933Z" fill="#14214E" stroke="#14214E" stroke-width="0.9"/>
<path d="M17.2582 88.5348C18.3994 96.9702 20.8367 105.183 24.4695 112.871C24.6777 113.312 24.49 113.84 24.0502 114.05C23.6104 114.26 23.0851 114.073 22.8769 113.633C19.1669 105.781 16.6777 97.3933 15.5121 88.7778C15.4467 88.2942 15.7845 87.8478 16.2667 87.7807C16.7488 87.7136 17.1927 88.0512 17.2582 88.5348ZM38.6851 133.865C44.4512 140.058 51.1512 145.33 58.6037 149.494C59.0283 149.731 59.1797 150.27 58.942 150.696C58.7043 151.123 58.1674 151.277 57.7428 151.039C50.1302 146.786 43.2859 141.4 37.3958 135.074C37.0641 134.718 37.0839 134.159 37.4399 133.825C37.7959 133.491 38.3534 133.509 38.6851 133.865Z" fill="#14214E" stroke="#14214E" stroke-width="0.9"/>
<path d="M180.87 75.6391C181.388 75.6154 181.827 75.9878 181.853 76.4709C181.926 77.8631 181.963 79.2579 181.963 80.6547C181.963 81.1384 181.543 81.5305 181.025 81.5305C180.508 81.5305 180.088 81.1384 180.088 80.6547C180.088 79.2866 180.052 77.9205 179.98 76.557C179.955 76.0738 180.353 75.6629 180.87 75.6391Z" fill="#14214E" stroke="#14214E" stroke-width="0.9"/>
</svg>
