<svg width="35" height="43" viewBox="0 0 35 43" fill="none" xmlns="http://www.w3.org/2000/svg">
<path d="M17.6946 28.4652C16.5065 28.4652 15.5404 27.4991 15.5404 26.3111V18.7716C15.5404 17.5841 16.5065 16.6175 17.6946 16.6175C18.8826 16.6175 19.8487 17.5841 19.8487 18.7716V26.3111C19.8487 27.4991 18.8826 28.4652 17.6946 28.4652ZM17.6946 17.6946C17.1013 17.6946 16.6175 18.1784 16.6175 18.7716V26.3111C16.6175 26.9049 17.1013 27.3882 17.6946 27.3882C18.2878 27.3882 18.7716 26.9049 18.7716 26.3111V18.7716C18.7716 18.1784 18.2878 17.6946 17.6946 17.6946Z" fill="#14214E" stroke="#14214E" stroke-width="0.5"/>
<path d="M22.0028 6.38534H13.3863C12.4954 6.38534 11.7707 5.66063 11.7707 4.76974V2.6156C11.7707 1.72523 12.4954 1 13.3863 1H22.0028C22.8937 1 23.6184 1.72523 23.6184 2.6156V4.76974C23.6184 5.66063 22.8937 6.38534 22.0028 6.38534ZM13.3863 2.07707C13.0891 2.07707 12.8477 2.31846 12.8477 2.6156V4.76974C12.8477 5.0674 13.0891 5.30827 13.3863 5.30827H22.0028C22.2989 5.30827 22.5414 5.0674 22.5414 4.76974V2.6156C22.5414 2.31846 22.2989 2.07707 22.0028 2.07707H13.3863Z" fill="#14214E" stroke="#14214E" stroke-width="0.5"/>
<path d="M14.4634 8.00096C14.1662 8.00096 13.9248 7.76009 13.9248 7.46242V5.84682C13.9248 5.54968 14.1662 5.30829 14.4634 5.30829C14.7605 5.30829 15.0019 5.54968 15.0019 5.84682V7.46242C15.0019 7.76009 14.7605 8.00096 14.4634 8.00096Z" fill="#14214E" stroke="#14214E" stroke-width="0.5"/>
<path d="M20.9258 8.00096C20.6286 8.00096 20.3872 7.76009 20.3872 7.46242V5.84682C20.3872 5.54968 20.6286 5.30829 20.9258 5.30829C21.2229 5.30829 21.4643 5.54968 21.4643 5.84682V7.46242C21.4643 7.76009 21.2229 8.00096 20.9258 8.00096Z" fill="#14214E" stroke="#14214E" stroke-width="0.5"/>
<path d="M17.6945 9.61652C8.77192 9.61652 1.53853 16.8504 1.53853 25.7725C1.53853 34.6952 8.77192 41.9286 17.6945 41.9286C26.6172 41.9286 33.8506 34.6952 33.8506 25.7725C33.8506 16.8504 26.6172 9.61652 17.6945 9.61652ZM17.6945 38.6973C10.5569 38.6973 4.76973 32.9107 4.76973 25.7725C4.76973 18.6349 10.5569 12.8477 17.6945 12.8477C24.8322 12.8477 30.6194 18.6349 30.6194 25.7725C30.6194 32.9107 24.8322 38.6973 17.6945 38.6973Z" fill="#008CFC" stroke="#14214E"/>
<path d="M17.6946 42.4671C8.48899 42.4671 1 34.9786 1 25.7726C1 16.567 8.48899 9.078 17.6946 9.078C26.9001 9.078 34.3891 16.567 34.3891 25.7726C34.3891 34.9786 26.9001 42.4671 17.6946 42.4671ZM17.6946 10.1551C9.08327 10.1551 2.07707 17.1618 2.07707 25.7726C2.07707 34.3838 9.08327 41.39 17.6946 41.39C26.3058 41.39 33.312 34.3838 33.312 25.7726C33.312 17.1618 26.3058 10.1551 17.6946 10.1551ZM17.6946 39.2359C10.2703 39.2359 4.2312 33.1969 4.2312 25.7726C4.2312 18.3488 10.2703 12.3092 17.6946 12.3092C25.1189 12.3092 31.1579 18.3488 31.1579 25.7726C31.1579 33.1969 25.1189 39.2359 17.6946 39.2359ZM17.6946 13.3863C10.8651 13.3863 5.30827 18.9431 5.30827 25.7726C5.30827 32.6026 10.8651 38.1588 17.6946 38.1588C24.524 38.1588 30.0808 32.6026 30.0808 25.7726C30.0808 18.9431 24.524 13.3863 17.6946 13.3863Z" fill="#14214E" stroke="#14214E" stroke-width="0.5"/>
<path d="M32.165 14.8878C32.0272 14.8878 31.8894 14.8352 31.7837 14.7305C31.5739 14.5207 31.5739 14.1794 31.7837 13.969L32.9276 12.8267L30.642 10.5421L29.4992 11.685C29.2893 11.8948 28.948 11.8948 28.7376 11.685C28.5278 11.4746 28.5278 11.1333 28.7376 10.9234L30.2607 9.40039C30.4705 9.19002 30.8124 9.19002 31.0222 9.40039L34.0693 12.4465C34.1703 12.5474 34.2266 12.6842 34.2266 12.8278C34.2266 12.9708 34.1693 13.1075 34.0693 13.209L32.5452 14.7326C32.4395 14.8352 32.3028 14.8878 32.165 14.8878Z" fill="#14214E" stroke="#14214E" stroke-width="0.5"/>
<path d="M3.22408 14.8878C3.08629 14.8878 2.9485 14.8352 2.84279 14.7305L1.31975 13.2064C1.10991 12.9966 1.10991 12.6553 1.31975 12.4454L4.36583 9.39935C4.57567 9.18899 4.91751 9.18899 5.12735 9.39935L6.65144 10.9224C6.86128 11.1322 6.86128 11.4735 6.65144 11.6839C6.44108 11.8938 6.09976 11.8938 5.88992 11.6839L4.74712 10.5411L2.46255 12.8251L3.60536 13.9679C3.8152 14.1783 3.8152 14.5196 3.60536 14.7295C3.49965 14.8352 3.36186 14.8878 3.22408 14.8878Z" fill="#14214E" stroke="#14214E" stroke-width="0.5"/>
<path d="M8.00094 26.3111H4.76974C4.47259 26.3111 4.2312 26.0702 4.2312 25.7725C4.2312 25.4754 4.47259 25.234 4.76974 25.234H8.00094C8.29808 25.234 8.53947 25.4754 8.53947 25.7725C8.53947 26.0702 8.29808 26.3111 8.00094 26.3111Z" fill="#14214E" stroke="#14214E" stroke-width="0.5"/>
<path d="M30.6194 26.3111H27.3882C27.091 26.3111 26.8496 26.0702 26.8496 25.7725C26.8496 25.4754 27.091 25.234 27.3882 25.234H30.6194C30.9165 25.234 31.1579 25.4754 31.1579 25.7725C31.1579 26.0702 30.9165 26.3111 30.6194 26.3111Z" fill="#14214E" stroke="#14214E" stroke-width="0.5"/>
<path d="M17.6945 39.2359C17.3974 39.2359 17.156 38.9951 17.156 38.6974V35.4662C17.156 35.1691 17.3974 34.9277 17.6945 34.9277C17.9917 34.9277 18.2331 35.1691 18.2331 35.4662V38.6974C18.2331 38.9951 17.9917 39.2359 17.6945 39.2359Z" fill="#14214E" stroke="#14214E" stroke-width="0.5"/>
</svg>
