<svg width="146" height="94" viewBox="0 0 146 94" fill="none" xmlns="http://www.w3.org/2000/svg">
<path d="M119.483 81.1936C122.858 81.1936 125.498 83.8339 125.498 87.208C125.498 90.5821 122.858 93.2225 119.483 93.2225H17.2371C13.865 93.2225 11.2227 90.5821 11.2227 87.208C11.2227 83.8339 13.865 81.1936 17.2371 81.1936H119.483ZM74.3747 83.1975L74.3754 84.2007C74.3749 85.943 73.1098 87.208 71.3675 87.208H65.3531C63.6107 87.208 62.3457 85.943 62.3457 84.2007L62.3457 83.1975L17.2371 83.1984C14.9878 83.1984 13.2275 84.9607 13.2275 87.208C13.2275 89.4553 14.9878 91.2177 17.2371 91.2177H119.483C121.731 91.2177 123.493 89.4553 123.493 87.208C123.493 84.9607 121.731 83.1984 119.483 83.1984L74.3747 83.1975ZM72.3697 83.1975H64.3507L64.3508 84.2007C64.3508 84.8462 64.7075 85.2032 65.3533 85.2032H71.3678C72.0133 85.2032 72.3703 84.8464 72.3703 84.2007L72.3697 83.1975ZM83.3964 13.0294C83.9497 13.0294 84.399 13.4784 84.399 14.032C84.399 14.5852 83.95 15.0345 83.3964 15.0345H26.2589C24.0096 15.0345 22.2493 16.7948 22.2493 19.0441V78.1867C22.2493 78.7397 21.8 79.1887 21.2468 79.1887C20.6935 79.1887 20.2442 78.7397 20.2442 78.1862V19.0439C20.2442 15.6718 22.8866 13.0294 26.2587 13.0294H83.3964ZM111.464 30.0703C112.018 30.0703 112.467 30.5193 112.467 31.0728L112.466 44.768L116.957 44.7682C117.425 44.7682 117.859 44.8596 118.243 45.0273L123.723 36.2199C124.607 35.0351 125.914 34.3433 127.181 34.3433C129.353 34.3433 130.99 35.9814 130.99 38.1524V44.7684H141.416C143.248 44.7684 144.762 46.0595 145.014 47.8358C145.014 47.8418 145.016 47.8478 145.016 47.8518C145.144 48.8903 144.85 49.8746 144.186 50.6264C143.956 50.8869 143.689 51.1096 143.396 51.2879C143.907 52.0137 144.13 52.8857 144.012 53.7297C143.833 54.8083 143.212 55.7025 142.354 56.2418C142.895 56.9796 143.133 57.8759 143.009 58.7419C142.831 59.8204 142.209 60.7147 141.351 61.254C141.892 61.9918 142.131 62.888 142.007 63.7541C141.712 65.5404 140.199 66.8214 138.408 66.8214H118.962C118.695 66.8214 118.454 66.7176 118.274 66.5483C117.883 66.7248 117.438 66.8214 116.957 66.8214L112.466 66.821L112.467 78.1864C112.467 78.7397 112.017 79.1887 111.464 79.1887C110.911 79.1887 110.462 78.7397 110.462 78.1862L110.461 66.7881C108.972 66.5777 107.935 65.3915 107.935 63.8141V47.7755C107.935 46.1981 108.972 45.0119 110.461 44.8015L110.462 31.0728C110.462 30.5195 110.911 30.0703 111.464 30.0703ZM83.3964 19.0436C83.9497 19.0436 84.399 19.4926 84.399 20.0462C84.399 20.5994 83.95 21.0487 83.3964 21.0487H29.266C28.6205 21.0487 28.2635 21.4055 28.2635 22.0512V70.1672C28.2635 70.8127 28.6203 71.1697 29.266 71.1697H103.445C104.09 71.1697 104.447 70.8129 104.447 70.1672V31.0728C104.447 30.5195 104.896 30.0703 105.45 30.0703C106.003 30.0703 106.452 30.5193 106.452 31.0728V70.1669C106.452 71.9092 105.187 73.1743 103.445 73.1743H29.266C27.5237 73.1743 26.2587 71.9092 26.2587 70.1669V22.051C26.2587 20.2807 27.4957 19.0436 29.266 19.0436H83.3964ZM11.1199 61.6108C11.4347 61.9156 11.515 62.3886 11.3204 62.7796L10.1157 65.1855C9.65464 66.1097 9.65464 67.1723 10.1157 68.0986L11.3184 70.5044C11.511 70.8894 11.4367 71.3564 11.1299 71.6612C10.9394 71.8554 10.6829 71.9557 10.4222 71.9557C10.2699 71.9557 10.1174 71.9217 9.97315 71.8494L7.56731 70.6467C6.64303 70.1836 5.58249 70.1836 4.65421 70.6467L2.41688 71.6652C2.03387 71.8417 1.57485 71.7534 1.28009 71.4487C0.987334 71.1419 0.915331 70.6849 1.10559 70.3039L2.30838 67.8981C2.7714 66.9718 2.7714 65.9112 2.30838 64.987L1.12159 62.8116C0.913081 62.4266 0.977333 61.9516 1.28209 61.6368C1.58285 61.3201 2.05987 61.2398 2.45088 61.4363L4.85672 62.6391C5.779 63.1001 6.83954 63.1001 7.76782 62.6391L9.94315 61.4523C10.3262 61.2418 10.8032 61.3061 11.1199 61.6108ZM4.3197 64.5957C4.82297 65.935 4.76672 67.3803 4.16119 68.6716C4.78472 68.4191 5.44224 68.2908 6.10376 68.2908C6.81354 68.2908 7.52306 68.4371 8.19884 68.7298C7.62957 67.4188 7.61731 65.9672 8.15683 64.6499C6.89579 65.123 5.54649 65.101 4.3197 64.5957ZM127.181 36.3481C126.553 36.3481 125.826 36.7511 125.378 37.3506L119.966 46.0577V64.8169H138.408C139.364 64.8169 139.916 64.1068 140.026 63.4493C140.076 63.0905 139.936 62.6635 139.645 62.3285C139.358 61.9978 138.981 61.8092 138.608 61.8092C138.055 61.8092 137.606 61.3602 137.606 60.8067C137.606 60.2534 138.055 59.8042 138.608 59.8042H139.41C140.367 59.8042 140.918 59.0944 141.028 58.4369C141.078 58.0781 140.938 57.6511 140.647 57.3161C140.361 56.9853 139.984 56.7968 139.611 56.7968C139.057 56.7968 138.608 56.3478 138.608 55.7943C138.608 55.241 139.057 54.7918 139.611 54.7918H140.413C141.369 54.7918 141.92 54.082 142.031 53.4245C142.081 53.0657 141.94 52.6387 141.65 52.3037C141.363 51.9729 140.986 51.7844 140.613 51.7844C140.06 51.7844 139.61 51.3354 139.61 50.7819C139.61 50.2286 140.06 49.7793 140.613 49.7793H141.616C142.025 49.7793 142.414 49.6048 142.682 49.3001C142.961 48.9873 143.081 48.5643 143.027 48.1093C142.893 47.191 142.099 46.772 141.415 46.772H130.99C129.829 46.772 128.985 45.9299 128.985 44.7672V38.1524C128.985 37.1079 128.225 36.3481 127.181 36.3481ZM116.957 46.7732L112.466 46.773V64.816L116.957 64.8169C117.595 64.8169 117.951 64.4684 117.959 63.8369L117.958 47.753L117.954 47.6419C117.907 47.0811 117.556 46.7732 116.957 46.7732ZM109.94 47.7758V63.8143C109.94 64.2754 110.122 64.5893 110.461 64.731L110.461 46.859C110.122 47.0007 109.94 47.3145 109.94 47.7758ZM56.9328 33.0776C58.7031 33.0776 59.9401 34.3147 59.9401 36.085V56.1332C59.9401 57.8755 58.6751 59.1405 56.9328 59.1405H38.8894C37.1471 59.1405 35.882 57.8755 35.882 56.1332V36.085C35.882 34.3427 37.1471 33.0776 38.8894 33.0776H56.9328ZM56.9328 35.0824H38.8894C38.2439 35.0824 37.8868 35.4392 37.8868 36.085V56.1332C37.8868 56.7787 38.2436 57.1357 38.8894 57.1357H56.9328C57.5783 57.1357 57.9353 56.779 57.9353 56.1332V36.085C57.9353 35.4395 57.5785 35.0824 56.9328 35.0824ZM97.0294 51.5218C97.5827 51.5218 98.0319 51.9708 98.0319 52.5243C98.0319 53.0778 97.5827 53.5268 97.0294 53.5268H66.9569C66.4036 53.5268 65.9543 53.0778 65.9543 52.5243C65.9543 51.971 66.4033 51.5218 66.9569 51.5218H97.0294ZM70.9667 37.087C73.7296 37.087 75.9789 39.3343 75.9789 42.0992C75.9787 44.864 73.7293 47.1114 70.9667 47.1114C68.2041 47.1114 65.9546 44.864 65.9546 42.0992C65.9546 39.3346 68.2039 37.087 70.9667 37.087ZM92.0175 43.1015C92.5707 43.1015 93.02 43.5505 93.02 44.104C93.0198 44.6575 92.5707 45.1065 92.0175 45.1065H80.9908C80.4376 45.1065 79.9883 44.6575 79.9883 44.104C79.9883 43.5507 80.4373 43.1015 80.9908 43.1015H92.0175ZM70.9667 39.0921C69.3087 39.0921 67.9594 40.4414 67.9594 42.0994C67.9594 43.7575 69.3087 45.1068 70.9667 45.1068C72.6248 45.1068 73.9741 43.7575 73.9741 42.0994C73.9738 40.4414 72.6246 39.0921 70.9667 39.0921ZM97.0294 39.0918C97.5827 39.0918 98.0319 39.5408 98.0319 40.0944C98.0319 40.6479 97.5827 41.0969 97.0294 41.0969H80.9908C80.4376 41.0969 79.9883 40.6479 79.9883 40.0944C79.9883 39.5411 80.4373 39.0918 80.9908 39.0918H97.0294ZM30.2686 5.00964C30.8218 5.00964 31.2711 5.45866 31.2711 6.01217C31.2711 6.56569 30.8218 7.01471 30.2686 7.01471H28.2638C27.7105 7.01471 27.2612 6.56569 27.2612 6.01217C27.2612 5.45891 27.7102 5.00964 28.2638 5.00964H30.2686ZM65.3531 5.00964C65.9063 5.00964 66.3556 5.45866 66.3556 6.01217C66.3556 6.56569 65.9063 7.01471 65.3531 7.01471H34.2782C33.7249 7.01471 33.2757 6.56569 33.2757 6.01217C33.2757 5.45891 33.7247 5.00964 34.2782 5.00964H65.3531ZM77.3822 1C77.9355 1 78.3848 1.44902 78.3848 2.00253C78.3848 2.55605 77.9355 3.00507 77.382 3.00507H39.2904C38.7371 3.00507 38.2879 2.55605 38.2879 2.00253C38.2879 1.44902 38.7369 1 39.2904 1H77.3822Z" fill="#14214E" stroke="#14214E" stroke-width="0.5"/>
<path d="M117.017 46.648H110.404C109.852 46.648 109.404 47.0957 109.404 47.648V63.7341C109.404 64.2864 109.852 64.7341 110.404 64.7341H117.017C117.569 64.7341 118.017 64.2864 118.017 63.7341V47.648C118.017 47.0957 117.569 46.648 117.017 46.648Z" fill="#2570AC"/>
</svg>
