<svg width="189" height="180" viewBox="0 0 189 180" fill="none" xmlns="http://www.w3.org/2000/svg">
<path d="M103.872 10.7854H18.9065C17.2496 10.7854 15.9065 12.1286 15.9065 13.7854V86.6658C15.9065 88.3226 17.2496 89.6658 18.9065 89.6658H103.872C105.529 89.6658 106.872 88.3226 106.872 86.6658V13.7854C106.872 12.1286 105.529 10.7854 103.872 10.7854Z" fill="white"/>
<path d="M49.1022 32.1489H43.4723C43.0156 32.1489 42.6454 31.781 42.6454 31.3272C42.6454 30.8734 43.0156 30.5055 43.4723 30.5055H49.1022C49.559 30.5055 49.9292 30.8734 49.9292 31.3272C49.9292 31.781 49.559 32.1489 49.1022 32.1489Z" fill="#14214E" stroke="#14214E" stroke-width="0.5"/>
<path d="M38.5106 32.1489H24.5904C24.1337 32.1489 23.7634 31.781 23.7634 31.3272C23.7634 30.8734 24.1337 30.5055 24.5904 30.5055H38.5106C38.9673 30.5055 39.3375 30.8734 39.3375 31.3272C39.3375 31.781 38.9673 32.1489 38.5106 32.1489Z" fill="#14214E" stroke="#14214E" stroke-width="0.5"/>
<path d="M49.1023 60.9073H40.578C40.1213 60.9073 39.751 60.5395 39.751 60.0857C39.751 59.6319 40.1213 59.264 40.578 59.264H49.1023C49.559 59.264 49.9292 59.6319 49.9292 60.0857C49.9292 60.5395 49.559 60.9073 49.1023 60.9073Z" fill="#14214E" stroke="#14214E" stroke-width="0.5"/>
<path d="M37.2701 60.9073H24.5904C24.1337 60.9073 23.7634 60.5395 23.7634 60.0857C23.7634 59.6319 24.1337 59.264 24.5904 59.264H37.2701C37.7269 59.264 38.0971 59.6319 38.0971 60.0857C38.0971 60.5395 37.7269 60.9073 37.2701 60.9073Z" fill="#14214E" stroke="#14214E" stroke-width="0.5"/>
<path d="M49.1023 78.1624H36.8467C36.39 78.1624 36.0198 77.7945 36.0198 77.3407C36.0198 76.8869 36.39 76.5191 36.8467 76.5191H49.1023C49.559 76.5191 49.9292 76.8869 49.9292 77.3407C49.9292 77.7945 49.559 78.1624 49.1023 78.1624Z" fill="#14214E" stroke="#14214E" stroke-width="0.5"/>
<path d="M30.9307 78.1624H24.5904C24.1337 78.1624 23.7634 77.7945 23.7634 77.3407C23.7634 76.8869 24.1337 76.5191 24.5904 76.5191H30.9307C31.3874 76.5191 31.7576 76.8869 31.7576 77.3407C31.7576 77.7945 31.3874 78.1624 30.9307 78.1624Z" fill="#14214E" stroke="#14214E" stroke-width="0.5"/>
<path d="M103.564 87.2008H19.2143C17.3875 87.2008 15.9065 85.7293 15.9065 83.9141V86.3791C15.9065 88.1943 17.3875 89.6658 19.2143 89.6658H103.564C105.391 89.6658 106.872 88.1943 106.872 86.3791V83.9141C106.872 85.7293 105.391 87.2008 103.564 87.2008Z" fill="white"/>
<path d="M103.564 10.7854H19.2143C17.3875 10.7854 15.9065 12.2569 15.9065 14.0721V22.6997H106.872V14.0721C106.872 12.2569 105.391 10.7854 103.564 10.7854Z" fill="url(#paint0_linear_68_2)"/>
<path d="M89.2304 14.962C88.4496 14.9617 87.7455 15.4288 87.4466 16.1455C87.1476 16.8622 87.3127 17.6873 87.8648 18.2359C88.4169 18.7844 89.2473 18.9485 89.9686 18.6514C90.6899 18.3544 91.1601 17.6548 91.1597 16.879C91.1597 15.8203 90.296 14.962 89.2304 14.962Z" fill="white"/>
<path d="M95.0191 14.962C94.2383 14.9617 93.5342 15.4288 93.2353 16.1455C92.9363 16.8622 93.1014 17.6873 93.6535 18.2359C94.2056 18.7844 95.036 18.9485 95.7573 18.6514C96.4786 18.3544 96.9488 17.6548 96.9484 16.879C96.9484 15.8203 96.0847 14.962 95.0191 14.962Z" fill="#D4FBFF"/>
<path d="M100.808 14.962C100.027 14.962 99.3233 15.4293 99.0246 16.1461C98.7259 16.8628 98.8912 17.6877 99.4434 18.2361C99.9955 18.7846 100.826 18.9484 101.547 18.6513C102.268 18.3543 102.738 17.6547 102.738 16.879C102.738 15.8201 101.874 14.962 100.808 14.962Z" fill="#14214E"/>
<path d="M114.492 78.1419V73.8988C114.492 73.5855 114.366 73.285 114.143 73.0636C113.92 72.8421 113.618 72.7178 113.302 72.718H110.434C110.009 70.6469 109.187 68.6767 108.011 66.9154L110.045 64.8941C110.268 64.6727 110.394 64.3722 110.394 64.0589C110.394 63.7455 110.268 63.445 110.045 63.2236L107.027 60.2237C106.804 60.002 106.501 59.8775 106.186 59.8775C105.87 59.8775 105.568 60.002 105.345 60.2237L103.31 62.245C101.537 61.0767 99.5524 60.2598 97.4669 59.8392V56.983C97.4669 56.3305 96.9345 55.8015 96.2778 55.8015H92.0082C91.3514 55.8015 90.819 56.3305 90.819 56.983V59.8392C88.7348 60.2604 86.7521 61.0776 84.9799 62.2458L82.9455 60.2245C82.7225 60.0029 82.42 59.8783 82.1045 59.8783C81.7891 59.8783 81.4865 60.0029 81.2635 60.2245L78.2443 63.2245C77.7802 63.6858 77.7802 64.4335 78.2443 64.8949L80.2786 66.9162C79.1032 68.6777 78.2808 70.6479 77.8564 72.7189H74.9827C74.6674 72.7186 74.365 72.8429 74.1419 73.0644C73.9189 73.2858 73.7936 73.5863 73.7936 73.8996V78.1427C73.7936 78.456 73.9189 78.7564 74.1419 78.9779C74.365 79.1994 74.6674 79.3237 74.9827 79.3234H77.8564C78.2808 81.3944 79.1032 83.3646 80.2786 85.1261L78.2443 87.1474C77.7802 87.6087 77.7802 88.3565 78.2443 88.8178L81.2635 91.8178C81.4865 92.0394 81.7891 92.164 82.1045 92.164C82.42 92.164 82.7225 92.0394 82.9455 91.8178L84.9799 89.7965C86.752 90.9651 88.7347 91.7823 90.819 92.2031V95.0584C90.8195 95.7107 91.3517 96.2392 92.0082 96.2392H96.2778C96.9345 96.2392 97.4669 95.7102 97.4669 95.0576V92.2023C99.5512 91.7813 101.534 90.9641 103.306 89.7956L105.34 91.8169C105.563 92.0386 105.866 92.1632 106.181 92.1632C106.497 92.1632 106.799 92.0386 107.022 91.8169L110.041 88.817C110.264 88.5957 110.39 88.2952 110.39 87.9818C110.39 87.6684 110.264 87.3679 110.041 87.1466L108.007 85.1253C109.182 83.364 110.005 81.3937 110.429 79.3226H113.302C113.618 79.3228 113.92 79.1985 114.143 78.9771C114.366 78.7556 114.492 78.4552 114.492 78.1419ZM94.1425 85.6865C88.7698 85.686 84.4147 81.3581 84.415 76.0198C84.4153 70.6814 88.7709 66.3542 94.1437 66.3542C99.5164 66.3542 103.872 70.682 103.872 76.0203C103.872 78.5841 102.847 81.0428 101.022 82.8556C99.1975 84.6684 96.7228 85.6867 94.1425 85.6865Z" fill="#14214E"/>
<path d="M30.3791 37.9006H51.1903C51.647 37.9006 52.0173 37.5327 52.0173 37.0789C52.0173 36.6251 51.647 36.2572 51.1903 36.2572H30.3791C29.9224 36.2572 29.5521 36.6251 29.5521 37.0789C29.5521 37.5327 29.9224 37.9006 30.3791 37.9006Z" fill="#14214E" stroke="#14214E" stroke-width="0.5"/>
<path d="M44.7855 42.8306C44.7855 43.2844 45.1558 43.6523 45.6125 43.6523H90.4502C90.9069 43.6523 91.2771 43.2844 91.2771 42.8306C91.2771 42.3768 90.9069 42.0089 90.4502 42.0089H45.6125C45.1558 42.0089 44.7855 42.3768 44.7855 42.8306Z" fill="#14214E" stroke="#14214E" stroke-width="0.5"/>
<path d="M30.3791 43.6523H40.578C41.0347 43.6523 41.4049 43.2844 41.4049 42.8306C41.4049 42.3768 41.0347 42.0089 40.578 42.0089H30.3791C29.9224 42.0089 29.5521 42.3768 29.5521 42.8306C29.5521 43.2844 29.9224 43.6523 30.3791 43.6523Z" fill="#14214E" stroke="#14214E" stroke-width="0.5"/>
<path d="M30.3791 49.404H90.4502C90.9069 49.404 91.2771 49.0361 91.2771 48.5823C91.2771 48.1285 90.9069 47.7606 90.4502 47.7606H30.3791C29.9224 47.7606 29.5521 48.1285 29.5521 48.5823C29.5521 49.0361 29.9224 49.404 30.3791 49.404Z" fill="#14214E" stroke="#14214E" stroke-width="0.5"/>
<path d="M83.8345 53.5123H74.0144C73.5577 53.5123 73.1874 53.8802 73.1874 54.334C73.1874 54.7878 73.5577 55.1556 74.0144 55.1556H83.8345C84.2913 55.1556 84.6615 54.7878 84.6615 54.334C84.6615 53.8802 84.2913 53.5123 83.8345 53.5123Z" fill="#14214E"/>
<path d="M30.3791 55.1556H69.8664C70.3231 55.1556 70.6933 54.7878 70.6933 54.334C70.6933 53.8802 70.3231 53.5123 69.8664 53.5123H30.3791C29.9224 53.5123 29.5521 53.8802 29.5521 54.334C29.5521 54.7878 29.9224 55.1556 30.3791 55.1556Z" fill="#14214E" stroke="#14214E" stroke-width="0.5"/>
<path d="M72.2571 65.0157H63.5947C63.138 65.0157 62.7678 65.3836 62.7678 65.8374C62.7678 66.2912 63.138 66.659 63.5947 66.659H72.2571C72.7138 66.659 73.0841 66.2912 73.0841 65.8374C73.0841 65.3836 72.7138 65.0157 72.2571 65.0157Z" fill="#14214E"/>
<path d="M30.3791 66.659H58.9844C59.4411 66.659 59.8114 66.2912 59.8114 65.8374C59.8114 65.3836 59.4411 65.0157 58.9844 65.0157H30.3791C29.9224 65.0157 29.5521 65.3836 29.5521 65.8374C29.5521 66.2912 29.9224 66.659 30.3791 66.659Z" fill="#14214E" stroke="#14214E" stroke-width="0.5"/>
<path d="M66.4684 70.7674H30.3791C29.9224 70.7674 29.5521 71.1353 29.5521 71.5891C29.5521 72.0429 29.9224 72.4107 30.3791 72.4107H66.4684C66.9251 72.4107 67.2953 72.0429 67.2953 71.5891C67.2953 71.1353 66.9251 70.7674 66.4684 70.7674Z" fill="#14214E" stroke="#14214E" stroke-width="0.5"/>
<path d="M69.2461 23.5213H76.482C76.9388 23.5213 77.309 23.1535 77.309 22.6997C77.309 22.2459 76.9388 21.878 76.482 21.878H69.2461C68.7894 21.878 68.4192 22.2459 68.4192 22.6997C68.4192 23.1535 68.7894 23.5213 69.2461 23.5213Z" fill="#14214E"/>
<path d="M113.302 71.8964H111.095C110.675 70.1802 109.989 68.539 109.063 67.0312L110.635 65.4758C111.421 64.6928 111.421 63.4249 110.635 62.6419L107.708 59.7348V14.0721C107.705 11.8043 105.856 9.96649 103.573 9.96378H19.2234C16.941 9.96649 15.0914 11.8043 15.0886 14.0721V86.3791C15.0914 88.647 16.941 90.4848 19.2234 90.4875H78.7644L80.6871 92.3979C81.4746 93.1792 82.7502 93.1792 83.5376 92.3979L85.1089 90.8424C86.6263 91.762 88.2777 92.443 90.0045 92.8613V95.0576C90.0058 96.1586 90.9001 97.0527 92.0082 97.0608H96.2778C97.3907 97.0595 98.2925 96.1634 98.2939 95.0576V92.8613C100.021 92.4425 101.672 91.7616 103.19 90.8424L104.756 92.3979C105.543 93.1792 106.819 93.1792 107.606 92.3979L110.626 89.3988C111.413 88.6161 111.413 87.3483 110.626 86.5656L109.055 85.0094C109.981 83.5016 110.666 81.8605 111.087 80.1443H113.298C114.411 80.1434 115.313 79.2477 115.315 78.1419V73.8988C115.313 72.7946 114.414 71.8995 113.302 71.8964ZM16.7334 86.3791V23.5213H65.2486C65.7053 23.5213 66.0756 23.1535 66.0756 22.6997C66.0756 22.2459 65.7053 21.878 65.2486 21.878H16.7334V14.0721C16.7334 12.7107 17.8442 11.6071 19.2143 11.6071H103.564C104.934 11.6071 106.046 12.7107 106.046 14.0721V21.878H80.6301C80.1733 21.878 79.8031 22.2459 79.8031 22.6997C79.8031 23.1535 80.1733 23.5213 80.6301 23.5213H106.046V59.0693C105.56 59.0984 105.101 59.3029 104.756 59.6444L103.19 61.1999C101.673 60.2804 100.021 59.5997 98.2939 59.1818V56.9839C98.293 55.8777 97.391 54.9812 96.2778 54.9798H92.0082C90.895 54.9812 89.993 55.8777 89.9921 56.9839V59.1818C88.2652 59.5994 86.6137 60.2802 85.0965 61.1999L83.5252 59.6444C82.7378 58.863 81.4622 58.863 80.6747 59.6444L77.6563 62.6435C76.8693 63.4263 76.8693 64.6947 77.6563 65.4775L79.2217 67.0329C78.2961 68.5408 77.6107 70.1819 77.1899 71.898H74.9828C73.8705 71.8998 72.9693 72.7953 72.9675 73.9004V78.1435C72.9693 79.2487 73.8705 80.1441 74.9828 80.1459H77.194C77.6148 81.862 78.3001 83.5032 79.2259 85.011L77.6604 86.5673C77.0578 87.1674 76.9023 88.0803 77.2726 88.8441H19.2143C17.8442 88.8441 16.7334 87.7405 16.7334 86.3791ZM113.665 78.1419C113.664 78.3405 113.502 78.5009 113.302 78.5009H110.434C110.04 78.5005 109.701 78.7754 109.622 79.1583C109.222 81.1263 108.44 82.9982 107.321 84.67C107.104 84.996 107.148 85.429 107.426 85.7053L109.461 87.7267C109.602 87.8674 109.602 88.0953 109.461 88.2361L106.441 91.2352C106.299 91.3751 106.071 91.3751 105.929 91.2352L103.895 89.2139C103.617 88.9376 103.182 88.894 102.854 89.1095C101.171 90.2205 99.2868 90.9973 97.3065 91.3971C96.9214 91.4752 96.6449 91.8118 96.6449 92.2023V95.0568C96.6445 95.2554 96.4826 95.4162 96.2827 95.4167H92.0082C91.8081 95.4167 91.646 95.2555 91.646 95.0568V92.2023C91.6461 91.8118 91.3695 91.4752 90.9844 91.3971C89.004 90.9976 87.1202 90.2208 85.4372 89.1095C85.1093 88.894 84.674 88.9376 84.396 89.2139L82.3609 91.2352C82.2193 91.3751 81.9906 91.3751 81.849 91.2352L78.8306 88.2361C78.6893 88.0953 78.6893 87.8674 78.8306 87.7267L80.8649 85.7053C81.1434 85.429 81.1873 84.996 80.9699 84.67C79.8506 82.9982 79.0687 81.1263 78.6677 79.1583C78.5891 78.7757 78.2503 78.5009 77.8573 78.5009H74.9828C74.7832 78.5009 74.6214 78.3402 74.6214 78.1419V73.8988C74.6214 73.7005 74.7832 73.5397 74.9828 73.5397H77.8564C78.2495 73.5398 78.5883 73.265 78.6669 72.8824C79.0686 70.9143 79.8504 69.0422 80.9691 67.3698C81.1861 67.044 81.1421 66.6115 80.8641 66.3353L78.8298 64.314C78.6885 64.1732 78.6885 63.9453 78.8298 63.8045L81.8482 60.8055C81.9898 60.6656 82.2185 60.6656 82.3601 60.8055L84.3952 62.8268C84.6732 63.103 85.1085 63.1467 85.4363 62.9311C87.1193 61.8197 89.0031 61.0432 90.9836 60.6444C91.369 60.5662 91.6456 60.2292 91.6451 59.8383V56.9839C91.6449 56.8883 91.683 56.7965 91.7509 56.7288C91.8189 56.6612 91.9111 56.6231 92.0074 56.6231H96.2769C96.4771 56.6236 96.6392 56.785 96.6392 56.9839V59.8392C96.6387 60.23 96.9153 60.5671 97.3007 60.6452C99.2811 61.0437 101.165 61.82 102.848 62.9311C103.176 63.1467 103.611 63.103 103.889 62.8268L105.923 60.8055C106.065 60.6656 106.294 60.6656 106.435 60.8055L109.455 63.8045C109.597 63.9453 109.597 64.1732 109.455 64.314L107.42 66.3353C107.142 66.6116 107.098 67.0446 107.315 67.3706C108.434 69.0424 109.216 70.9144 109.617 72.8824C109.695 73.2653 110.035 73.5402 110.428 73.5397H113.301C113.501 73.5397 113.663 73.7002 113.664 73.8988L113.665 78.1419Z" fill="#334750" stroke="#14214E" stroke-width="0.9"/>
<path d="M94.1425 65.5325C88.3132 65.533 83.5881 70.2286 83.5881 76.0206C83.5881 81.8126 88.3138 86.5081 94.1431 86.5081C99.9724 86.5081 104.698 81.8132 104.699 76.0212C104.693 70.2309 99.9701 65.5384 94.1425 65.5325ZM94.1425 84.8648C89.2264 84.8643 85.2415 80.9042 85.242 76.0195C85.2425 71.1349 89.2281 67.1754 94.1442 67.1759C99.0603 67.1763 103.045 71.1365 103.045 76.0212C103.039 80.9037 99.0566 84.8603 94.1425 84.8648Z" fill="#14214E"/>
<path fill-rule="evenodd" clip-rule="evenodd" d="M36.1252 88.3277C36.1252 53.615 64.1073 25.4746 98.6251 25.4746C133.143 25.4746 161.125 53.615 161.125 88.3277C161.125 123.04 133.143 151.181 98.6251 151.181C64.1073 151.181 36.1252 123.04 36.1252 88.3277Z" fill="white"/>
<path d="M157.026 146.852C157.359 146.512 157.899 146.513 158.231 146.854C158.563 147.196 158.562 147.748 158.229 148.088C157.267 149.069 156.281 150.026 155.273 150.956C154.923 151.279 154.384 151.25 154.069 150.893C153.754 150.535 153.782 149.983 154.131 149.66C155.119 148.749 156.084 147.813 157.026 146.852Z" fill="#14214E" stroke="#14214E" stroke-width="0.9"/>
<path d="M147.832 154.625C141.371 159.389 134.238 163.181 126.652 165.861C126.199 166.021 125.962 166.518 126.122 166.97C126.283 167.422 126.78 167.659 127.234 167.499C134.982 164.761 142.268 160.888 148.867 156.022C149.254 155.736 149.335 155.192 149.05 154.807C148.764 154.421 148.219 154.339 147.832 154.625Z" fill="#14214E" stroke="#14214E" stroke-width="0.9"/>
<path d="M102.657 170.824C103.145 170.798 103.56 171.193 103.584 171.705C103.608 172.217 103.232 172.653 102.744 172.678C101.34 172.75 99.9308 172.787 98.5178 172.787C98.0291 172.787 97.633 172.371 97.633 171.858C97.633 171.346 98.0291 170.93 98.5178 170.93C99.9018 170.93 101.282 170.894 102.657 170.824Z" fill="#14214E" stroke="#14214E" stroke-width="0.9"/>
<path d="M126.79 9.02793C126.966 8.57321 127.5 8.33927 127.983 8.50541C129.377 8.98538 130.755 9.49757 132.118 10.0415C132.591 10.2303 132.812 10.7448 132.612 11.1906C132.412 11.6364 131.866 11.8447 131.393 11.6559C130.059 11.1234 128.709 10.622 127.345 10.1521C126.862 9.98596 126.614 9.48265 126.79 9.02793Z" fill="#14214E" stroke="#14214E" stroke-width="0.9"/>
<path d="M138.435 15.9966C145.901 20.085 152.696 25.3038 158.571 31.4504C158.908 31.8027 159.468 31.8165 159.822 31.4813C160.175 31.146 160.189 30.5887 159.853 30.2364C153.852 23.9591 146.913 18.6293 139.288 14.4536C138.86 14.2192 138.322 14.3746 138.086 14.8007C137.851 15.2268 138.007 15.7622 138.435 15.9966ZM173.076 52.2453C176.791 59.8476 179.312 67.9919 180.529 76.4418C180.598 76.9232 181.046 77.2575 181.53 77.1885C182.013 77.1195 182.349 76.6733 182.28 76.1919C181.037 67.5605 178.461 59.2407 174.667 51.475C174.453 51.0377 173.924 50.8556 173.485 51.0683C173.045 51.2811 172.862 51.808 173.076 52.2453Z" fill="#14214E" stroke="#14214E" stroke-width="0.9"/>
<path d="M18.2455 95.9867C19.3867 104.422 21.824 112.635 25.4568 120.323C25.665 120.764 25.4773 121.292 25.0375 121.502C24.5977 121.712 24.0724 121.525 23.8642 121.085C20.1542 113.233 17.665 104.845 16.4994 96.2297C16.434 95.7461 16.7718 95.2997 17.254 95.2326C17.7362 95.1655 18.1801 95.5031 18.2455 95.9867ZM39.6724 141.317C45.4385 147.51 52.1385 152.782 59.591 156.946C60.0156 157.183 60.167 157.721 59.9293 158.148C59.6916 158.575 59.1547 158.728 58.7301 158.491C51.1175 154.237 44.2732 148.852 38.3831 142.526C38.0515 142.17 38.0712 141.611 38.4272 141.277C38.7832 140.943 39.3407 140.961 39.6724 141.317Z" fill="#14214E" stroke="#14214E" stroke-width="0.9"/>
<path d="M181.858 83.091C182.375 83.0673 182.815 83.4397 182.84 83.9228C182.913 85.315 182.95 86.7098 182.95 88.1066C182.95 88.5903 182.53 88.9824 182.013 88.9824C181.495 88.9824 181.075 88.5903 181.075 88.1066C181.075 86.7385 181.039 85.3724 180.967 84.0089C180.942 83.5257 181.34 83.1148 181.858 83.091Z" fill="#14214E" stroke="#14214E" stroke-width="0.9"/>
<path fill-rule="evenodd" clip-rule="evenodd" d="M79.6961 157.195H79.704H79.7165C80.76 157.195 81.6052 156.355 81.6052 155.319C81.6052 154.282 80.76 153.442 79.7165 153.442H79.6819C78.6385 153.442 77.7964 154.29 77.7996 155.326C77.8043 156.36 78.6495 157.195 79.6882 157.195H79.6961ZM86.2099 159.291C87.0236 158.643 87.1305 157.463 86.5009 156.654V156.653C85.8714 155.844 84.666 155.713 83.8509 156.359C83.0355 157.006 82.9058 158.187 83.5574 158.997C83.9304 159.461 84.4784 159.702 85.0324 159.702C85.4463 159.702 85.8607 159.567 86.2099 159.291ZM75.8606 159.012C76.509 158.201 76.3721 157.02 75.5537 156.376C74.7369 155.733 73.5486 155.869 72.9002 156.681C72.2533 157.492 72.3903 158.673 73.2071 159.317C73.5549 159.591 73.9688 159.724 74.3796 159.724C74.9368 159.724 75.4876 159.48 75.8606 159.012ZM88.1965 163.955C88.4262 162.944 87.7888 161.94 86.7705 161.711C85.7538 161.483 84.7418 162.116 84.5121 163.128C84.2823 164.138 84.9213 165.144 85.938 165.372C86.078 165.403 86.2181 165.418 86.3566 165.418C87.2191 165.418 87.9981 164.826 88.1965 163.955ZM73.5093 165.397C74.526 165.164 75.1587 164.157 74.9257 163.147C74.6912 162.137 73.6777 161.508 72.661 161.74C71.6443 161.973 71.01 162.98 71.2445 163.99C71.446 164.858 72.2234 165.446 73.0828 165.446C73.2228 165.446 73.3661 165.43 73.5093 165.397ZM83.5048 169.821C84.4444 169.369 84.7976 168.246 84.3427 167.314C83.8877 166.381 82.7237 165.991 81.7794 166.443V166.445C81.7794 166.895 80.4884 168.018 80.9431 168.952C81.269 169.619 81.962 170.01 82.6639 170.01C82.9393 170.01 83.2388 169.949 83.5048 169.821ZM78.4811 168.956C78.9328 168.021 78.5346 166.902 77.595 166.453C76.6538 166.006 75.5254 166.4 75.0753 167.333C74.6236 168.268 75.0217 169.39 75.9613 169.837C76.2242 169.963 76.5027 170.021 76.7766 170.021C77.4801 170.021 78.1569 169.629 78.4811 168.956Z" fill="#14214E" stroke="#14214E"/>
<path fill-rule="evenodd" clip-rule="evenodd" d="M175.294 116.717H175.302H175.315C176.358 116.717 177.203 115.877 177.203 114.84C177.203 113.803 176.358 112.964 175.315 112.964H175.28C174.237 112.964 173.395 113.811 173.398 114.848C173.402 115.882 174.248 116.717 175.286 116.717H175.294ZM181.808 118.812C182.622 118.165 182.729 116.984 182.099 116.176V116.174C181.47 115.366 180.264 115.234 179.449 115.88C178.634 116.527 178.504 117.708 179.155 118.518C179.528 118.983 180.076 119.223 180.63 119.223C181.044 119.223 181.459 119.089 181.808 118.812ZM171.459 118.534C172.107 117.722 171.97 116.542 171.152 115.897C170.335 115.255 169.147 115.391 168.498 116.202C167.851 117.014 167.988 118.194 168.805 118.839C169.153 119.112 169.567 119.245 169.978 119.245C170.535 119.245 171.086 119.001 171.459 118.534ZM183.795 123.477C184.024 122.465 183.387 121.461 182.369 121.233C181.352 121.005 180.34 121.638 180.11 122.65C179.88 123.66 180.519 124.665 181.536 124.894C181.676 124.925 181.816 124.939 181.955 124.939C182.817 124.939 183.596 124.348 183.795 123.477ZM169.107 124.919C170.124 124.686 170.757 123.679 170.524 122.668C170.289 121.658 169.276 121.03 168.259 121.261C167.242 121.494 166.608 122.501 166.843 123.511C167.044 124.379 167.822 124.967 168.681 124.967C168.821 124.967 168.964 124.952 169.107 124.919ZM179.103 129.343C180.042 128.891 180.396 127.768 179.941 126.836C179.486 125.902 178.322 125.513 177.377 125.965V125.967C177.377 126.417 176.086 127.54 176.541 128.473C176.867 129.141 177.56 129.532 178.262 129.532C178.537 129.532 178.837 129.471 179.103 129.343ZM174.079 128.478C174.531 127.543 174.133 126.423 173.193 125.974C172.252 125.527 171.123 125.921 170.673 126.855C170.222 127.79 170.62 128.911 171.559 129.358C171.822 129.485 172.101 129.543 172.375 129.543C173.078 129.543 173.755 129.15 174.079 128.478Z" fill="#14214E" stroke="#14214E" stroke-width="0.8"/>
<path d="M87.8015 95.289H69.7581C68.5553 95.289 67.7533 94.487 67.7533 93.2842V73.236C67.7533 72.0332 68.5553 71.2312 69.7581 71.2312H87.8015C89.0043 71.2312 89.8063 72.0332 89.8063 73.236V93.2842C89.8063 94.487 89.0045 95.289 87.8015 95.289Z" fill="#0C4F85"/>
<path d="M150.352 118.345C153.726 118.345 156.367 120.985 156.367 124.359C156.367 127.733 153.726 130.374 150.352 130.374H48.1058C44.7337 130.374 42.0914 127.733 42.0914 124.359C42.0914 120.985 44.7337 118.345 48.1058 118.345H150.352ZM105.243 120.349L105.244 121.352C105.244 123.094 103.979 124.359 102.236 124.359H96.2218C94.4795 124.359 93.2144 123.094 93.2144 121.352L93.2144 120.349L48.1058 120.349C45.8565 120.349 44.0962 122.112 44.0962 124.359C44.0962 126.606 45.8565 128.369 48.1058 128.369H150.352C152.599 128.369 154.362 126.606 154.362 124.359C154.362 122.112 152.599 120.349 150.352 120.349L105.243 120.349ZM103.238 120.349H95.2194L95.2195 121.352C95.2195 121.997 95.5762 122.354 96.222 122.354H102.236C102.882 122.354 103.239 121.997 103.239 121.352L103.238 120.349ZM114.265 50.1805C114.818 50.1805 115.268 50.6295 115.268 51.183C115.268 51.7363 114.819 52.1855 114.265 52.1855H57.1276C54.8783 52.1855 53.118 53.9458 53.118 56.1952V115.338C53.118 115.891 52.6687 116.34 52.1155 116.34C51.5622 116.34 51.1129 115.891 51.1129 115.337V56.1949C51.1129 52.8228 53.7553 50.1805 57.1274 50.1805H114.265ZM142.333 67.2213C142.886 67.2213 143.335 67.6703 143.335 68.2238L143.335 81.919L147.825 81.9192C148.294 81.9192 148.728 82.0107 149.112 82.1783L154.592 73.3709C155.476 72.1861 156.783 71.4943 158.05 71.4943C160.221 71.4943 161.859 73.1324 161.859 75.3035V81.9194H172.284C174.117 81.9194 175.63 83.2105 175.883 84.9868C175.883 84.9928 175.885 84.9988 175.885 85.0028C176.013 86.0413 175.718 87.0256 175.055 87.7774C174.824 88.0379 174.558 88.2607 174.265 88.4389C174.776 89.1647 174.999 90.0367 174.88 90.8808C174.702 91.9593 174.08 92.8536 173.222 93.3928C173.764 94.1306 174.002 95.0269 173.878 95.8929C173.699 96.9715 173.078 97.8657 172.22 98.405C172.761 99.1428 173 100.039 172.875 100.905C172.581 102.691 171.067 103.972 169.277 103.972H149.83C149.564 103.972 149.322 103.869 149.143 103.699C148.752 103.876 148.307 103.972 147.825 103.972L143.335 103.972L143.335 115.337C143.335 115.891 142.886 116.34 142.333 116.34C141.78 116.34 141.33 115.891 141.33 115.337L141.33 103.939C139.841 103.729 138.804 102.543 138.804 100.965V84.9265C138.804 83.3491 139.841 82.1629 141.33 81.9525L141.33 68.2238C141.33 67.6706 141.779 67.2213 142.333 67.2213ZM114.265 56.1947C114.818 56.1947 115.268 56.6437 115.268 57.1972C115.268 57.7505 114.819 58.1997 114.265 58.1997H60.1348C59.4892 58.1997 59.1322 58.5565 59.1322 59.2023V107.318C59.1322 107.964 59.489 108.321 60.1348 108.321H134.314C134.959 108.321 135.316 107.964 135.316 107.318V68.2238C135.316 67.6706 135.765 67.2213 136.319 67.2213C136.872 67.2213 137.321 67.6703 137.321 68.2238V107.318C137.321 109.06 136.056 110.325 134.314 110.325H60.1348C58.3924 110.325 57.1274 109.06 57.1274 107.318V59.202C57.1274 57.4317 58.3644 56.1947 60.1348 56.1947H114.265ZM41.9887 98.7619C42.3034 99.0666 42.3837 99.5397 42.1892 99.9307L40.9844 102.336C40.5233 103.261 40.5233 104.323 40.9844 105.25L42.1872 107.655C42.3797 108.04 42.3054 108.507 41.9987 108.812C41.8081 109.006 41.5516 109.107 41.2909 109.107C41.1386 109.107 40.9861 109.073 40.8419 109L38.436 107.798C37.5117 107.335 36.4512 107.335 35.5229 107.798L33.2856 108.816C32.9026 108.993 32.4436 108.904 32.1488 108.6C31.856 108.293 31.784 107.836 31.9743 107.455L33.1771 105.049C33.6401 104.123 33.6401 103.062 33.1771 102.138L31.9903 99.9627C31.7818 99.5776 31.846 99.1026 32.1508 98.7879C32.4516 98.4711 32.9286 98.3909 33.3196 98.5874L35.7254 99.7902C36.6477 100.251 37.7083 100.251 38.6365 99.7902L40.8119 98.6034C41.1949 98.3929 41.6719 98.4571 41.9887 98.7619ZM35.1884 101.747C35.6917 103.086 35.6354 104.531 35.0299 105.823C35.6534 105.57 36.311 105.442 36.9725 105.442C37.6823 105.442 38.3918 105.588 39.0675 105.881C38.4983 104.57 38.486 103.118 39.0255 101.801C37.7645 102.274 36.4152 102.252 35.1884 101.747ZM158.05 73.4991C157.422 73.4991 156.694 73.9022 156.247 74.5017L150.834 83.2087V101.968H169.277C170.233 101.968 170.784 101.258 170.895 100.6C170.945 100.242 170.804 99.8146 170.514 99.4796C170.227 99.1488 169.85 98.9603 169.477 98.9603C168.924 98.9603 168.475 98.5113 168.475 97.9577C168.475 97.4045 168.924 96.9552 169.477 96.9552H170.279C171.235 96.9552 171.787 96.2454 171.897 95.5879C171.947 95.2292 171.807 94.8021 171.516 94.4671C171.229 94.1364 170.852 93.9479 170.479 93.9479C169.926 93.9479 169.477 93.4988 169.477 92.9453C169.477 92.3921 169.926 91.9428 170.479 91.9428H171.281C172.238 91.9428 172.789 91.233 172.899 90.5755C172.949 90.2167 172.809 89.7897 172.518 89.4547C172.232 89.1239 171.855 88.9354 171.482 88.9354C170.928 88.9354 170.479 88.4864 170.479 87.9329C170.479 87.3796 170.928 86.9304 171.482 86.9304H172.484C172.893 86.9304 173.282 86.7559 173.551 86.4511C173.83 86.1383 173.95 85.7153 173.896 85.2603C173.761 84.342 172.967 83.923 172.284 83.923H161.859C160.698 83.923 159.854 83.081 159.854 81.9182V75.3035C159.854 74.2589 159.094 73.4991 158.05 73.4991ZM147.825 83.9243L143.335 83.924V101.967L147.825 101.968C148.463 101.968 148.82 101.619 148.828 100.988L148.827 84.904L148.823 84.7929C148.776 84.2321 148.425 83.9243 147.825 83.9243ZM140.808 84.9268V100.965C140.808 101.426 140.99 101.74 141.33 101.882L141.33 84.01C140.991 84.1517 140.808 84.4655 140.808 84.9268ZM87.8015 70.2287C89.5718 70.2287 90.8088 71.4657 90.8088 73.236V93.2842C90.8088 95.0265 89.5438 96.2916 87.8015 96.2916H69.7581C68.0158 96.2916 66.7507 95.0265 66.7507 93.2842V73.236C66.7507 71.4937 68.0158 70.2287 69.7581 70.2287H87.8015ZM87.8015 72.2335H69.7581C69.1126 72.2335 68.7556 72.5902 68.7556 73.236V93.2842C68.7556 93.9297 69.1123 94.2867 69.7581 94.2867H87.8015C88.447 94.2867 88.804 93.93 88.804 93.2842V73.236C88.804 72.5905 88.4472 72.2335 87.8015 72.2335ZM127.898 88.6728C128.451 88.6728 128.901 89.1218 128.901 89.6753C128.901 90.2289 128.451 90.6779 127.898 90.6779H97.8256C97.2723 90.6779 96.823 90.2289 96.823 89.6753C96.823 89.1221 97.272 88.6728 97.8256 88.6728H127.898ZM101.835 74.238C104.598 74.238 106.848 76.4854 106.848 79.2502C106.847 82.0151 104.598 84.2624 101.835 84.2624C99.0729 84.2624 96.8233 82.0151 96.8233 79.2502C96.8233 76.4856 99.0726 74.238 101.835 74.238ZM122.886 80.2525C123.439 80.2525 123.889 80.7015 123.889 81.255C123.888 81.8086 123.439 82.2576 122.886 82.2576H111.86C111.306 82.2576 110.857 81.8086 110.857 81.255C110.857 80.7018 111.306 80.2525 111.86 80.2525H122.886ZM101.835 76.2431C100.177 76.2431 98.8281 77.5924 98.8281 79.2505C98.8281 80.9085 100.177 82.2578 101.835 82.2578C103.494 82.2578 104.843 80.9085 104.843 79.2505C104.843 77.5924 103.493 76.2431 101.835 76.2431ZM127.898 76.2429C128.451 76.2429 128.901 76.6919 128.901 77.2454C128.901 77.7989 128.451 78.2479 127.898 78.2479H111.86C111.306 78.2479 110.857 77.7989 110.857 77.2454C110.857 76.6921 111.306 76.2429 111.86 76.2429H127.898ZM61.1373 42.1607C61.6906 42.1607 62.1398 42.6097 62.1398 43.1632C62.1398 43.7167 61.6906 44.1657 61.1373 44.1657H59.1325C58.5792 44.1657 58.1299 43.7167 58.1299 43.1632C58.1299 42.6099 58.5789 42.1607 59.1325 42.1607H61.1373ZM96.2218 42.1607C96.775 42.1607 97.2243 42.6097 97.2243 43.1632C97.2243 43.7167 96.775 44.1657 96.2218 44.1657H65.1469C64.5937 44.1657 64.1444 43.7167 64.1444 43.1632C64.1444 42.6099 64.5934 42.1607 65.1469 42.1607H96.2218ZM108.251 38.151C108.804 38.151 109.253 38.6 109.253 39.1536C109.253 39.7071 108.804 40.1561 108.251 40.1561H70.1591C69.6058 40.1561 69.1566 39.7071 69.1566 39.1536C69.1566 38.6 69.6056 38.151 70.1591 38.151H108.251Z" fill="#14214E" stroke="#14214E" stroke-width="0.5"/>
<path d="M147.886 83.799H141.273C140.721 83.799 140.273 84.2468 140.273 84.799V100.885C140.273 101.437 140.721 101.885 141.273 101.885H147.886C148.438 101.885 148.886 101.437 148.886 100.885V84.799C148.886 84.2468 148.438 83.799 147.886 83.799Z" fill="#2570AC"/>
<path d="M135.946 49.6991C134.758 49.6991 133.792 48.733 133.792 47.5449V40.0055C133.792 38.8179 134.758 37.8513 135.946 37.8513C137.134 37.8513 138.1 38.8179 138.1 40.0055V47.5449C138.1 48.733 137.134 49.6991 135.946 49.6991ZM135.946 38.9284C135.353 38.9284 134.869 39.4122 134.869 40.0055V47.5449C134.869 48.1387 135.353 48.622 135.946 48.622C136.539 48.622 137.023 48.1387 137.023 47.5449V40.0055C137.023 39.4122 136.539 38.9284 135.946 38.9284Z" fill="#14214E" stroke="#14214E" stroke-width="0.5"/>
<path d="M140.255 27.6192H131.638C130.747 27.6192 130.022 26.8945 130.022 26.0036V23.8494C130.022 22.9591 130.747 22.2338 131.638 22.2338H140.255C141.145 22.2338 141.87 22.9591 141.87 23.8494V26.0036C141.87 26.8945 141.145 27.6192 140.255 27.6192ZM131.638 23.3109C131.341 23.3109 131.099 23.5523 131.099 23.8494V26.0036C131.099 26.3012 131.341 26.5421 131.638 26.5421H140.255C140.551 26.5421 140.793 26.3012 140.793 26.0036V23.8494C140.793 23.5523 140.551 23.3109 140.255 23.3109H131.638Z" fill="#14214E" stroke="#14214E" stroke-width="0.5"/>
<path d="M132.715 29.2348C132.418 29.2348 132.176 28.9939 132.176 28.6962V27.0806C132.176 26.7835 132.418 26.5421 132.715 26.5421C133.012 26.5421 133.254 26.7835 133.254 27.0806V28.6962C133.254 28.9939 133.012 29.2348 132.715 29.2348Z" fill="#14214E" stroke="#14214E" stroke-width="0.5"/>
<path d="M139.177 29.2348C138.88 29.2348 138.639 28.9939 138.639 28.6962V27.0806C138.639 26.7835 138.88 26.5421 139.177 26.5421C139.475 26.5421 139.716 26.7835 139.716 27.0806V28.6962C139.716 28.9939 139.475 29.2348 139.177 29.2348Z" fill="#14214E" stroke="#14214E" stroke-width="0.5"/>
<path d="M135.946 30.8504C127.024 30.8504 119.79 38.0843 119.79 47.0064C119.79 55.929 127.024 63.1624 135.946 63.1624C144.869 63.1624 152.102 55.929 152.102 47.0064C152.102 38.0843 144.869 30.8504 135.946 30.8504ZM135.946 59.9312C128.809 59.9312 123.021 54.1446 123.021 47.0064C123.021 39.8687 128.809 34.0816 135.946 34.0816C143.084 34.0816 148.871 39.8687 148.871 47.0064C148.871 54.1446 143.084 59.9312 135.946 59.9312Z" fill="#008CFC" stroke="#14214E"/>
<path d="M135.946 63.7009C126.741 63.7009 119.252 56.2125 119.252 47.0064C119.252 37.8008 126.741 30.3118 135.946 30.3118C145.152 30.3118 152.641 37.8008 152.641 47.0064C152.641 56.2125 145.152 63.7009 135.946 63.7009ZM135.946 31.3889C127.335 31.3889 120.329 38.3956 120.329 47.0064C120.329 55.6177 127.335 62.6239 135.946 62.6239C144.558 62.6239 151.564 55.6177 151.564 47.0064C151.564 38.3956 144.558 31.3889 135.946 31.3889ZM135.946 60.4697C128.522 60.4697 122.483 54.4307 122.483 47.0064C122.483 39.5826 128.522 33.543 135.946 33.543C143.371 33.543 149.41 39.5826 149.41 47.0064C149.41 54.4307 143.371 60.4697 135.946 60.4697ZM135.946 34.6201C129.117 34.6201 123.56 40.1769 123.56 47.0064C123.56 53.8364 129.117 59.3927 135.946 59.3927C142.776 59.3927 148.333 53.8364 148.333 47.0064C148.333 40.1769 142.776 34.6201 135.946 34.6201Z" fill="#14214E" stroke="#14214E" stroke-width="0.5"/>
<path d="M150.417 36.1216C150.279 36.1216 150.141 36.069 150.035 35.9643C149.826 35.7545 149.826 35.4132 150.035 35.2028L151.179 34.0605L148.894 31.776L147.751 32.9188C147.541 33.1286 147.2 33.1286 146.989 32.9188C146.78 32.7084 146.78 32.3671 146.989 32.1573L148.512 30.6342C148.722 30.4238 149.064 30.4238 149.274 30.6342L152.321 33.6803C152.422 33.7813 152.478 33.918 152.478 34.0616C152.478 34.2046 152.421 34.3414 152.321 34.4429L150.797 35.9664C150.691 36.069 150.555 36.1216 150.417 36.1216Z" fill="#14214E" stroke="#14214E" stroke-width="0.5"/>
<path d="M121.476 36.1216C121.338 36.1216 121.2 36.069 121.094 35.9643L119.571 34.4403C119.362 34.2304 119.362 33.8891 119.571 33.6793L122.618 30.6332C122.827 30.4228 123.169 30.4228 123.379 30.6332L124.903 32.1562C125.113 32.3661 125.113 32.7074 124.903 32.9177C124.693 33.1276 124.351 33.1276 124.142 32.9177L122.999 31.7749L120.714 34.059L121.857 35.2018C122.067 35.4121 122.067 35.7535 121.857 35.9633C121.751 36.069 121.614 36.1216 121.476 36.1216Z" fill="#14214E" stroke="#14214E" stroke-width="0.5"/>
<path d="M126.253 47.5449H123.021C122.724 47.5449 122.483 47.3041 122.483 47.0064C122.483 46.7093 122.724 46.4679 123.021 46.4679H126.253C126.55 46.4679 126.791 46.7093 126.791 47.0064C126.791 47.3041 126.55 47.5449 126.253 47.5449Z" fill="#14214E" stroke="#14214E" stroke-width="0.5"/>
<path d="M148.871 47.5449H145.64C145.343 47.5449 145.101 47.3041 145.101 47.0064C145.101 46.7093 145.343 46.4679 145.64 46.4679H148.871C149.168 46.4679 149.41 46.7093 149.41 47.0064C149.41 47.3041 149.168 47.5449 148.871 47.5449Z" fill="#14214E" stroke="#14214E" stroke-width="0.5"/>
<path d="M135.946 60.4697C135.649 60.4697 135.408 60.2289 135.408 59.9312V56.7C135.408 56.4029 135.649 56.1615 135.946 56.1615C136.243 56.1615 136.485 56.4029 136.485 56.7V59.9312C136.485 60.2289 136.243 60.4697 135.946 60.4697Z" fill="#14214E" stroke="#14214E" stroke-width="0.5"/>
<defs>
<linearGradient id="paint0_linear_68_2" x1="28" y1="23" x2="122" y2="11" gradientUnits="userSpaceOnUse">
<stop stop-color="#1D344A"/>
<stop offset="0.661458" stop-color="#008CFC"/>
<stop offset="1" stop-color="#17EDD3"/>
</linearGradient>
</defs>
</svg>
