<svg width="76" height="76" viewBox="0 0 76 76" fill="none" xmlns="http://www.w3.org/2000/svg">
<g clip-path="url(#clip0_97_20)">
<path d="M38 76C58.9868 76 76 58.9868 76 38C76 17.0132 58.9868 0 38 0C17.0132 0 0 17.0132 0 38C0 58.9868 17.0132 76 38 76Z" fill="url(#paint0_linear_97_20)"/>
<path d="M42.348 44.957C44.227 44.957 45.826 43.17 45.826 41.478V33.652C45.826 30.78 41.021 29.304 38 29.304C34.98 29.304 30.174 30.78 30.174 33.652V41.478C30.174 43.17 31.773 44.957 33.652 44.957M42.348 58V35.391M33.652 35.391V58M38 44.087V58M18 38H26.696M18 38L21.478 41.478M18 38L21.478 34.522M27.565 30.174L21.478 24.087M21.478 24.087V28.435M21.478 24.087H25.826M27.565 45.826L21.478 51.913M21.478 51.913V47.565M21.478 51.913H25.826M58 38H49.304M58 38L54.522 41.478M58 38L54.522 34.522M48.435 30.174L54.522 24.087M54.522 24.087V28.435M54.522 24.087H50.174M48.435 45.826L54.522 51.913M54.522 51.913V47.565M54.522 51.913H50.174M38 26.696C40.027 26.696 41.478 25.276 41.478 23.217V21.478C41.478 19.42 40.027 18 38 18C35.973 18 34.522 19.42 34.522 21.478V23.218C34.522 25.276 35.973 26.696 38 26.696Z" stroke="white" stroke-width="1.4" stroke-linejoin="round"/>
</g>
<defs>
<linearGradient id="paint0_linear_97_20" x1="0" y1="7600" x2="7600" y2="0" gradientUnits="userSpaceOnUse">
<stop stop-color="#2998FF"/>
<stop offset="1" stop-color="#0BBCE8"/>
</linearGradient>
<clipPath id="clip0_97_20">
<rect width="76" height="76" fill="white"/>
</clipPath>
</defs>
</svg>
