<svg width="52" height="52" viewBox="0 0 52 52" fill="none" xmlns="http://www.w3.org/2000/svg">
<path d="M26 51C39.8071 51 51 39.8071 51 26C51 12.1929 39.8071 1 26 1C12.1929 1 1 12.1929 1 26C1 39.8071 12.1929 51 26 51Z" stroke="#2998FF" stroke-width="1.4" stroke-linejoin="round"/>
<path d="M39.4882 22.531C39.0062 20.6 38.0942 19.144 36.1502 19.144H33.6442V22.106C33.6442 24.406 31.6942 26.344 29.4692 26.344H22.7942C20.9692 26.344 19.4562 27.906 19.4562 29.738V36.1C19.4562 37.913 21.0312 38.975 22.7942 39.494C24.9062 40.113 26.9372 40.225 29.4692 39.494C31.1502 39.006 32.8062 38.025 32.8062 36.1V33.556H26.1372V32.706H36.1502C38.0942 32.706 38.8132 31.35 39.4882 29.319C40.1882 27.225 40.1562 25.213 39.4882 22.531ZM29.8882 35.25C30.5812 35.25 31.1442 35.819 31.1442 36.519C31.1442 37.225 30.5812 37.794 29.8882 37.794C29.2002 37.794 28.6312 37.219 28.6312 36.519C28.6372 35.813 29.2002 35.25 29.8872 35.25H29.8882ZM22.4882 25.506H29.1632C31.0192 25.506 32.5002 23.975 32.5002 22.113V15.743C32.5002 13.931 30.9752 12.575 29.1632 12.269C26.9252 11.9 24.4932 11.919 22.4882 12.275C19.6632 12.775 19.1502 13.819 19.1502 15.75V18.294H25.8312V19.144H16.6442C14.7002 19.144 13.0002 20.312 12.4692 22.53C11.8562 25.074 11.8312 26.661 12.4692 29.318C12.9442 31.293 14.0752 32.705 16.0192 32.705H18.3122V29.655C18.3122 27.449 20.2192 25.506 22.4882 25.506ZM22.0682 16.594C21.3752 16.594 20.8132 16.025 20.8132 15.325C20.8192 14.619 21.3752 14.05 22.0692 14.05C22.7562 14.05 23.3252 14.625 23.3252 15.325C23.3252 16.025 22.7622 16.594 22.0692 16.594H22.0682Z" fill="url(#paint0_linear_5_15)"/>
<defs>
<linearGradient id="paint0_linear_5_15" x1="12" y1="2812.11" x2="2812.11" y2="11.983" gradientUnits="userSpaceOnUse">
<stop stop-color="#2998FF"/>
<stop offset="1" stop-color="#0BBCE8"/>
</linearGradient>
</defs>
</svg>
