<svg width="76" height="76" viewBox="0 0 76 76" fill="none" xmlns="http://www.w3.org/2000/svg">
<g clip-path="url(#clip0_97_30)">
<path d="M38 76C58.9868 76 76 58.9868 76 38C76 17.0132 58.9868 0 38 0C17.0132 0 0 17.0132 0 38C0 58.9868 17.0132 76 38 76Z" fill="url(#paint0_linear_97_30)"/>
<path d="M23.996 57.906L26.068 48.239C26.41 46.639 27.542 45.829 29.315 45.496L34.633 44.61L39.905 39.85C39.905 39.85 41.653 42.837 39.718 44.665L35.915 48.428L30.102 50.205M31.974 57.906L33.736 49.095M57.197 57.906L55.21 50.996C54.867 49.396 53.873 48.156 51.066 48.156H40.429C40.429 48.156 41.019 51.701 43.974 51.701H51.066M50.659 57.906L48.406 51.701M30.329 21.32L18.074 26.565L22.109 29.684L21.562 34.712L33.817 29.467M38.729 40.916L28.905 18.017M41.717 48.149L40.098 44.229M45.747 57.906L43.141 51.597M32.86 39.734C32.86 41.448 31.471 42.837 29.758 42.837C28.044 42.837 26.655 41.447 26.655 39.734C26.655 38.021 28.045 36.632 29.758 36.632C31.471 36.632 32.86 38.021 32.86 39.734ZM46.634 42.394C46.634 44.107 48.023 45.496 49.736 45.496C51.449 45.496 52.838 44.107 52.838 42.394C52.838 40.68 51.449 39.291 49.736 39.291C48.023 39.291 46.634 40.681 46.634 42.394Z" stroke="white" stroke-width="1.4" stroke-linejoin="round"/>
</g>
<defs>
<linearGradient id="paint0_linear_97_30" x1="0" y1="7600" x2="7600" y2="0" gradientUnits="userSpaceOnUse">
<stop stop-color="#2998FF"/>
<stop offset="1" stop-color="#0BBCE8"/>
</linearGradient>
<clipPath id="clip0_97_30">
<rect width="76" height="76" fill="white"/>
</clipPath>
</defs>
</svg>
