<svg width="40" height="34" viewBox="0 0 40 34" fill="none" xmlns="http://www.w3.org/2000/svg">
<g clip-path="url(#clip0_97_35)">
<path d="M29.138 34C36.149 26.52 39.77 18.927 40 11.22C40 5.1 37.701 1.473 33.103 0.34C32.183 0.113 31.322 0 30.517 0C26.839 0 24.31 1.7 22.931 5.1C22.471 6.233 22.241 7.367 22.241 8.5C22.241 12.127 24.081 14.62 27.759 15.98C28.333 16.093 28.793 16.207 29.138 16.32C31.667 17 32.988 17.963 33.103 19.21C32.989 22.27 30.46 26.35 25.517 31.45L29.137 34H29.138ZM6.897 34C13.908 26.52 17.529 18.927 17.759 11.22C17.759 5.1 15.459 1.473 10.862 0.34C9.942 0.113 9.08 0 8.276 0C4.598 0 2.069 1.7 0.690002 5.1C0.230002 6.233 0 7.367 0 8.5C0 12.127 1.84 14.62 5.517 15.98C6.092 16.093 6.552 16.207 6.897 16.32C9.425 17 10.747 17.963 10.862 19.21C10.747 22.27 8.218 26.35 3.276 31.45L6.897 34Z" fill="url(#paint0_linear_97_35)"/>
</g>
<defs>
<linearGradient id="paint0_linear_97_35" x1="-8.28359e-05" y1="2928.25" x2="3534.41" y2="-76.0003" gradientUnits="userSpaceOnUse">
<stop stop-color="#2998FF"/>
<stop offset="1" stop-color="#0BBCE8"/>
</linearGradient>
<clipPath id="clip0_97_35">
<rect width="40" height="34" fill="white"/>
</clipPath>
</defs>
</svg>
