<svg width="50" height="50" viewBox="0 0 50 50" fill="none" xmlns="http://www.w3.org/2000/svg">
<path d="M19.5309 4.44443C15.5009 4.44443 11.7126 6.01387 8.86316 8.86331C6.01373 11.7127 4.44429 15.5011 4.44429 19.5311C4.44429 23.561 6.01373 27.3494 8.86316 30.1988C11.7126 33.0482 15.5009 34.6177 19.5309 34.6177C23.5609 34.6177 27.3492 33.0482 30.1987 30.1988C33.0481 27.3494 34.6175 23.561 34.6175 19.5311C34.6175 15.5011 33.0481 11.7127 30.1987 8.86331C27.3492 6.01387 23.5603 4.44443 19.5309 4.44443ZM19.5309 0C24.5292 0 29.5275 1.90666 33.3414 5.72054C40.9686 13.3477 40.9686 25.7144 33.3414 33.3416C29.5275 37.1554 24.5292 39.0621 19.5309 39.0621C14.5326 39.0621 9.53427 37.1554 5.72039 33.3416C-1.90681 25.7144 -1.90681 13.3477 5.72039 5.72054C9.53371 1.90666 14.5326 0 19.5309 0Z" fill="white"/>
<path d="M47.7775 49.9999C48.3464 49.9999 48.9147 49.7826 49.3492 49.3488C50.2169 48.481 50.2169 47.0738 49.3492 46.2065L33.4109 30.2677C32.5425 29.3994 31.1359 29.3994 30.2681 30.2677C29.4003 31.1355 29.4003 32.5427 30.2681 33.4099L46.2058 49.3488C46.6403 49.7826 47.2086 49.9999 47.7775 49.9999Z" fill="white"/>
<path d="M23.4481 24.5521C23.4481 24.0094 23.8881 23.5694 24.4309 23.5694H27.5687C28.1115 23.5694 28.5515 24.0094 28.5515 24.5521V28.7488C27.052 30.0488 25.3181 30.9971 23.4481 31.5488V24.5521Z" fill="white"/>
<path d="M16.8331 31.8549V20.4816C16.8331 19.9388 17.2731 19.4988 17.8159 19.4988H20.9537C21.4965 19.4988 21.9365 19.9388 21.9365 20.4816V31.901C21.1459 32.0399 20.3381 32.1149 19.5187 32.1149C18.6065 32.1144 17.7081 32.026 16.8331 31.8549Z" fill="white"/>
<path d="M11.2009 13.9016H14.3387C14.8815 13.9016 15.3215 14.3416 15.3215 14.8844V31.4655C13.4431 30.8694 11.7059 29.8727 10.2182 28.5155V14.8844C10.2182 14.3416 10.6582 13.9016 11.2009 13.9016Z" fill="white"/>
</svg>
