<svg width="40" height="38" viewBox="0 0 40 38" fill="none" xmlns="http://www.w3.org/2000/svg">
<path d="M21.667 18.5H24.167V24.333L38.333 12.667L24.167 1V6H8.33301M27.5 31.833H17.5V36.833L5.00001 26L9.16701 21.833M32.5 21.833H40M36.667 26.833H26.667M6.66701 6H5.00001M3.33301 6H1.66701M2.50001 19.333V12.667C2.50001 11.747 3.24701 11 4.16701 11H5.00001C5.92001 11 6.66701 11.747 6.66701 12.667V19.333M2.50001 16H6.66701" stroke="#2998FF" stroke-width="1.362" stroke-linejoin="round"/>
<path d="M10 16H12.5C13.42 16 14.167 15.253 14.167 14.333V12.667C14.167 11.747 13.42 11 12.5 11H10V19.333M18.333 11V18.5M16.667 11H20M16.667 18.5H20M10 1.83299H0M29.167 31.833H30.833M32.5 31.833H34.167" stroke="#2998FF" stroke-width="1.362" stroke-linejoin="round"/>
</svg>
