<svg width="37" height="39" viewBox="0 0 37 39" fill="none" xmlns="http://www.w3.org/2000/svg">
<path d="M34.778 24.489V0.843994H1V33.778H19.578M2.689 5.91099H33.089M3.533 3.37799H5.222M6.067 3.37799H7.756M8.6 3.37799H10.289" stroke="#2998FF" stroke-width="1.4" stroke-linejoin="round"/>
<path fill-rule="evenodd" clip-rule="evenodd" d="M22.793 17.373L21.555 14.384L19.737 14.99C19.232 14.283 18.622 13.68 17.936 13.191L18.541 11.371L15.554 10.134L14.694 11.849C13.864 11.71 13.006 11.704 12.15 11.847L11.292 10.134L8.303 11.371L8.909 13.19C8.203 13.694 7.599 14.304 7.111 14.99L5.291 14.384L4.052 17.373L5.768 18.232C5.628 19.062 5.623 19.921 5.767 20.777L4.052 21.634L5.29 24.622L7.108 24.017C7.613 24.724 8.224 25.326 8.91 25.816L8.303 27.636L11.292 28.873L12.151 27.158C12.981 27.297 13.839 27.303 14.696 27.16L15.554 28.873L18.541 27.635L17.937 25.817C18.643 25.313 19.246 24.703 19.735 24.017L21.555 24.622L22.793 21.634L21.077 20.776C21.217 19.944 21.222 19.086 21.08 18.231L22.793 17.373Z" stroke="#2998FF" stroke-width="1.4" stroke-linejoin="round"/>
<path fill-rule="evenodd" clip-rule="evenodd" d="M16.625 19.623C16.625 21.326 15.244 22.707 13.542 22.707C11.838 22.707 10.458 21.326 10.458 19.623C10.458 17.919 11.838 16.539 13.542 16.539C15.244 16.539 16.625 17.919 16.625 19.623ZM35.46 28.996L34.544 26.786L33.2 27.234C32.828 26.712 32.377 26.266 31.87 25.904L32.317 24.56L30.109 23.644L29.473 24.913C28.86 24.81 28.225 24.805 27.593 24.911L26.959 23.644L24.749 24.56L25.197 25.903C24.675 26.276 24.229 26.727 23.867 27.235L22.523 26.787L21.607 28.996L22.876 29.63C22.774 30.245 22.769 30.879 22.874 31.511L21.607 32.145L22.523 34.355L23.866 33.907C24.24 34.429 24.691 34.875 25.198 35.236L24.75 36.581L26.959 37.497L27.594 36.228C28.208 36.331 28.842 36.336 29.474 36.23L30.109 37.497L32.317 36.581L31.87 35.238C32.392 34.864 32.838 34.414 33.2 33.906L34.544 34.354L35.46 32.145L34.191 31.511C34.294 30.896 34.299 30.262 34.193 29.629L35.46 28.996Z" stroke="#2998FF" stroke-width="1.4" stroke-linejoin="round"/>
<path fill-rule="evenodd" clip-rule="evenodd" d="M30.9 30.659C30.9 31.918 29.88 32.938 28.621 32.938C27.363 32.938 26.341 31.918 26.341 30.658C26.341 29.4 27.363 28.378 28.621 28.378C29.881 28.378 30.901 29.4 30.901 30.658L30.9 30.659Z" stroke="#2998FF" stroke-width="1.4" stroke-linejoin="round"/>
</svg>
