<svg width="38" height="38" viewBox="0 0 38 38" fill="none" xmlns="http://www.w3.org/2000/svg">
<path d="M29.292 22.167H31.667C34.727 22.167 37.208 19.686 37.208 16.625C37.208 13.565 34.728 11.083 31.667 11.083C31.078 11.083 30.512 11.177 29.98 11.346C30.046 11.004 30.083 10.653 30.083 10.292C30.083 7.23001 27.603 4.75001 24.542 4.75001C23.157 4.75001 21.894 5.26001 20.923 6.10001C19.843 3.01201 16.911 0.792007 13.453 0.792007C9.08099 0.792007 5.53599 4.33701 5.53599 8.71001C5.53599 9.54501 5.66599 10.349 5.90599 11.104C3.04599 11.324 0.791992 13.709 0.791992 16.625C0.791992 19.685 3.27199 22.167 6.33299 22.167H8.70799M20.936 6.09601C21.139 6.67401 21.276 7.28301 21.338 7.91401M29.983 11.347C29.858 11.994 29.621 12.601 29.292 13.147M5.90599 11.1C6.59299 11.047 7.29099 11.12 7.96199 11.327M3.16699 37.208H9.49999M6.33299 34.833V37.208M15.833 37.208H22.167M19 34.833V37.208M28.5 37.208H34.833M31.667 34.833V37.208M10.292 26.917V20.583M19 26.917V19M27.708 26.917V21.375M11.875 22.167H17.417M20.583 22.167H26.125M10.292 19V17.417M10.292 15.833V14.25M19 17.417V15.833M19 14.25V12.667M27.708 19.792V18.208M19 11.083V9.50001M1.58299 34.833H11.083V28.5H1.58299V34.833ZM14.25 34.833H23.75V28.5H14.25V34.833ZM26.917 34.833H36.417V28.5H26.917V34.833Z" stroke="#2998FF" stroke-width="1.4" stroke-linejoin="round"/>
</svg>
