<svg width="36" height="40" viewBox="0 0 36 40" fill="none" xmlns="http://www.w3.org/2000/svg">
<rect width="36" height="40" fill="#F5F5F5"/>
<g clip-path="url(#clip0_0_1)">
<path d="M25.489 4.37799V11.978C25.489 13.377 20.007 14.511 13.244 14.511C6.482 14.511 1 13.377 1 11.978V4.37799M19.578 21.746C17.73 21.978 15.562 22.111 13.244 22.111C6.482 22.111 1 20.977 1 19.578V12.822M25.489 12.822V14.511M16.2 29.637C15.253 29.686 14.264 29.711 13.244 29.711C6.482 29.711 1 28.577 1 27.178V20.422" stroke="#2998FF" stroke-width="1.4" stroke-linejoin="round"/>
<path d="M3.533 10.289H5.222M3.533 17.889H5.222M3.533 25.489H5.222M1 3.533C1 2.134 6.482 1 13.244 1C20.007 1 25.49 2.134 25.49 3.533V4.378C25.49 5.777 20.008 6.911 13.245 6.911C6.482 6.911 1 5.777 1 4.378V3.533ZM34.778 38.156C34.778 38.622 34.399 39 33.933 39H18.733C18.267 39 17.889 38.622 17.889 38.156V27.178C17.889 26.712 18.267 26.333 18.733 26.333H33.933C34.399 26.333 34.778 26.712 34.778 27.178V38.156ZM21.267 20.422C21.267 18.091 23.536 16.2 26.333 16.2C29.131 16.2 31.4 18.09 31.4 20.422V26.333H21.267V20.422Z" stroke="#2998FF" stroke-width="1.4" stroke-linejoin="round"/>
</g>
<defs>
<clipPath id="clip0_0_1">
<rect width="36" height="40" fill="white"/>
</clipPath>
</defs>
</svg>
