<svg width="41" height="38" viewBox="0 0 41 38" fill="none" xmlns="http://www.w3.org/2000/svg">
<path d="M27.867 9.28899V0.843994H0.844002V37.156H27.867V28.711" stroke="#2998FF" stroke-width="1.4"/>
<path d="M30.674 14.96C22.663 21.036 18.51 28.73 16.855 33.779M0.844002 5.91099H27.867M3.378 3.37799H5.067M6.756 3.37799H8.444M10.133 3.37799H11.822M16.044 10.133H24.489M16.044 14.356H19.422M3.378 21.956H14.356M3.378 26.178H14.356M3.378 30.4H14.356M18.82 29.218C17.421 26.94 17.839 22.792 18.336 21.282L19.725 20.941C19.725 20.941 19.37 18.838 20.963 16.8C22.876 14.352 28.337 9.48299 38.845 8.90599C35.005 13.189 32.265 20.483 31.58 21.556C30.151 22.526 28.76 23.186 28.76 23.186L30.029 24.422C30.029 24.422 23.1 30.386 18.82 29.218ZM4.222 17.733H13.511V9.28899H4.222V17.733Z" stroke="#2998FF" stroke-width="1.4"/>
</svg>
