<svg width="48" height="37" viewBox="0 0 48 37" fill="none" xmlns="http://www.w3.org/2000/svg">
<path d="M34 16V8H27V16M27 22V34M34 34V22M19 12H16V34M12 34V19H5V34M45 36H0" stroke="#2998FF" stroke-width="1.362" stroke-linejoin="round"/>
<path d="M23 20V34M40 10.5C40 15.747 35.747 20 30.5 20C25.253 20 21 15.747 21 10.5C21 5.253 25.253 1 30.5 1C35.747 1 40 5.253 40 10.5Z" stroke="#2998FF" stroke-width="1.362" stroke-linejoin="round"/>
<path d="M38.28 15.952L45.89 23.56C46.67 24.342 46.67 25.608 45.89 26.39C45.108 27.17 43.842 27.17 43.06 26.39L35.344 18.673" stroke="#2998FF" stroke-width="1.362" stroke-linejoin="round"/>
</svg>
