<svg xmlns="http://www.w3.org/2000/svg" width="37" height="40" viewBox="0 0 37 40">
    <g fill="none" fill-rule="evenodd" stroke="#33CAC0" stroke-width="1.4">
        <path d="M10 35L0 35 0 0 35 0 35 35 28.333 35M0 5L35 5M2.5 2.5L4.167 2.5M5.833 2.5L7.5 2.5" transform="translate(1 1)"/>
        <path d="M13.333 21.667L4.167 21.667 4.167 9.167 30.833 9.167 30.833 21.667 20 21.667" transform="translate(1 1)"/>
        <path d="M24.563 26.693c-.657-.27-6.23-1.701-6.23-1.701V20c0-.92-.746-1.666-1.666-1.666-.921 0-1.667.745-1.667 1.666v10h-.833s-2.188-2.266-3.334-2.5c-1.145-.235-2.435.977-.992 2.95.453.619 4.872 6.601 5.16 7.05h10c.024 0 .832-1.615.832-3.333v-5.833c0-.847-.615-1.371-1.27-1.641zM3.333 25L9.167 25M3.333 28.333L6.667 28.333" transform="translate(1 1)"/>
    </g>
</svg>
