<svg width="36" height="38" viewBox="0 0 36 38" fill="none" xmlns="http://www.w3.org/2000/svg">
<path d="M22.958 30.083V34.833C22.958 36.145 21.895 37.208 20.583 37.208H3.16699C1.85499 37.208 0.791992 36.145 0.791992 34.833V3.167C0.791992 1.855 1.85499 0.792 3.16699 0.792H20.583C21.895 0.792 22.958 1.855 22.958 3.167V7.917M0.791992 5.542H22.958M0.791992 32.458H22.958M10.292 34.833H13.458M11.083 3.167H15.833M7.91699 3.167H9.49999" stroke="#2998FF" stroke-width="1.4"/>
<path d="M11.875 14.25H34.833M14.25 11.875H15.833M17.417 11.875H19M20.583 11.875H22.167M8.70799 11.083V27.708M5.54199 13.458V25.333M11.875 28.5H34.833V9.5H11.875V28.5Z" stroke="#2998FF" stroke-width="1.4"/>
</svg>
