<svg xmlns="http://www.w3.org/2000/svg" width="42" height="42" viewBox="0 0 42 42">
    <g fill="none" fill-rule="evenodd" stroke="#33CAC0" stroke-width="1.4">
        <path d="M13.636 32.727c.349-.348.706-.909 1.819-.909h12.727c1.01 0 6.566-5.572 7.273-6.363.679-.762 3.706-5.31 4.545-7.273-.527-.71-1.952-1.301-3.636-.91-1.608.373-2.553 1.529-3.637 3.637l-4.167 2.164" transform="translate(1 1)"/>
        <path d="M19.09 26.364h7.274c3.636 0 3.636-4.546 0-4.546H21.56c-.757 0-2.177-1.818-3.378-1.818h-4.546c-1.228 0-2.754.997-3.636 1.818l-3.636 3.637" transform="translate(1 1)"/>
        <path d="M10.909 39.091L15.455 34.545 4.545 23.636 0 28.182zM4.545 28.182L6.364 30M11.818 18.182L11.818 0 36.364 0 36.364 15.455M11.818 5.455L36.364 5.455M14.545 2.727L16.364 2.727M18.182 2.727L20 2.727" transform="translate(1 1)"/>
    </g>
</svg>
