<svg width="42" height="42" viewBox="0 0 42 42" fill="none" xmlns="http://www.w3.org/2000/svg">
<path d="M14.636 33.727C14.985 33.379 15.342 32.818 16.455 32.818H29.182C30.192 32.818 35.748 27.246 36.455 26.455C37.134 25.693 40.161 21.145 41 19.182C40.473 18.472 39.048 17.881 37.364 18.272C35.756 18.645 34.811 19.801 33.727 21.909L29.56 24.073" stroke="#2998FF" stroke-width="1.4"/>
<path d="M20.09 27.364H27.364C31 27.364 31 22.818 27.364 22.818H22.56C21.803 22.818 20.383 21 19.182 21H14.636C13.408 21 11.882 21.997 11 22.818L7.364 26.455" stroke="#2998FF" stroke-width="1.4"/>
<path d="M5.545 29.182L7.364 31M12.818 19.182V1H37.364V16.455M12.818 6.455H37.364M15.545 3.727H17.364M19.182 3.727H21M11.909 40.091L16.455 35.545L5.545 24.636L1 29.182L11.909 40.091Z" stroke="#2998FF" stroke-width="1.4"/>
</svg>
