<svg xmlns="http://www.w3.org/2000/svg" width="40" height="38" viewBox="0 0 40 38">
    <g fill="none" fill-rule="evenodd" stroke="#33CAC0" stroke-linejoin="round" stroke-width="1.4">
        <path d="M33.429 8.571V.857c0-.474-.384-.857-.858-.857H.857C.384 0 0 .383 0 .857v30c0 .474.384.857.857.857h19.714" transform="translate(1 1)"/>
        <path d="M23.143 23.143v11.143c0 .946.768 1.714 1.714 1.714H36c.946 0 1.714-.768 1.714-1.714V12.857c0-.946-.768-1.714-1.714-1.714H24.857c-.946 0-1.714.768-1.714 1.714V18M29.143 33.429L31.714 33.429M1.714 5.143L31.714 5.143M2.571 2.571L4.286 2.571M5.143 2.571L6.857 2.571M12 20.571L31.714 20.571" transform="translate(1 1)"/>
        <path d="M28.286 24L31.714 20.571 28.286 17.143M15.429 24L12 20.571 15.429 17.143" transform="translate(1 1)"/>
    </g>
</svg>
