<svg width="40" height="38" viewBox="0 0 40 38" fill="none" xmlns="http://www.w3.org/2000/svg">
<path d="M34.429 9.571V1.857C34.429 1.383 34.045 1 33.571 1H1.857C1.384 1 1 1.383 1 1.857V31.857C1 32.331 1.384 32.714 1.857 32.714H21.571" stroke="#2998FF" stroke-width="1.4" stroke-linejoin="round"/>
<path d="M24.143 24.143V35.286C24.143 36.232 24.911 37 25.857 37H37C37.946 37 38.714 36.232 38.714 35.286V13.857C38.714 12.911 37.946 12.143 37 12.143H25.857C24.911 12.143 24.143 12.911 24.143 13.857V19M30.143 34.429H32.714M2.71399 6.143H32.714M3.57099 3.571H5.28599M6.14299 3.571H7.85699M13 21.571H32.714" stroke="#2998FF" stroke-width="1.4" stroke-linejoin="round"/>
<path d="M29.286 25L32.714 21.571L29.286 18.143M16.429 25L13 21.571L16.429 18.143" stroke="#2998FF" stroke-width="1.4" stroke-linejoin="round"/>
</svg>
