<svg width="37" height="36" viewBox="0 0 37 36" fill="none" xmlns="http://www.w3.org/2000/svg">
<path d="M13 4.28599V0.856995H17.286M36.143 4.28599V0.856995H31.857M19 0.856995H21.571M23.286 0.856995H25.857M27.571 0.856995H30.143M13 14.571V18H17.286M36.143 14.571V18H31.857M19 18H21.571M23.286 18H25.857M27.571 18H30.143M13 5.99999V8.57099M13 10.286V12.857M36.143 5.99999V8.57099M36.143 10.286V12.857M15.571 14.571L21.571 8.57099L27.571 14.571M1 35.143H8.714V0.856995H1V35.143Z" stroke="#2998FF" stroke-width="1.4" stroke-linejoin="round"/>
<path d="M25 12L27.571 9.429L33.571 15.429M29.286 6H31M13 25.714V22.286H17.286M36.143 25.714V22.286H31.857M19 22.286H21.571M23.286 22.286H25.857M27.571 22.286H30.143M13 31.714V35.143H17.286M36.143 31.714V35.143H31.857M19 35.143H21.571M23.286 35.143H25.857M27.571 35.143H30.143M13 27.429V30M36.143 27.429V30M17.286 26.571H31.857M17.286 30H26.714" stroke="#2998FF" stroke-width="1.4" stroke-linejoin="round"/>
</svg>
