<svg width="42" height="32" viewBox="0 0 42 32" fill="none" xmlns="http://www.w3.org/2000/svg">
<g clip-path="url(#clip0_2_103)">
<path d="M35.783 24.478V22.13L32.918 21.87C32.798 21.465 32.64 21.077 32.442 20.713L34.219 18.444L32.251 16.476L29.983 18.254C29.618 18.056 29.23 17.897 28.826 17.777L28.478 14.913H25.696L25.348 17.777C24.943 17.897 24.556 18.056 24.191 18.254L21.923 16.476L19.953 18.444L21.733 20.713C21.535 21.077 21.376 21.465 21.255 21.87L18.391 22.13V24.478" stroke="#2998FF" stroke-width="1.4" stroke-linejoin="round"/>
<path d="M29.696 24.478V23.608C29.696 22.167 28.528 20.999 27.087 20.999C25.647 20.999 24.478 22.167 24.478 23.608V24.478M14.913 2.74C14.913 4.18 16.081 5.348 17.522 5.348C18.962 5.348 20.13 4.18 20.13 2.739" stroke="#2998FF" stroke-width="1.4" stroke-linejoin="round"/>
<path d="M3.609 24.478V2.74C3.609 1.744 4.388 1 5.348 1H36.652C37.612 1 38.392 1.744 38.392 2.74V24.478M41 26.217H25.348L24.478 27.087H18.391L17.521 26.217H1V27.087C1 29.007 2.557 30.565 4.478 30.565H37.522C39.442 30.565 41 29.008 41 27.087V26.217Z" stroke="#2998FF" stroke-width="1.4" stroke-linejoin="round"/>
<path d="M7.08701 2.74001V5.34801H10.793C10.957 5.98401 11.208 6.58401 11.533 7.13801L8.91301 9.75801L11.373 12.218L13.993 9.59701C14.546 9.92301 15.146 10.173 15.783 10.337V14.043H19.261V10.337C19.897 10.173 20.497 9.92301 21.051 9.59701L23.671 12.217L26.13 9.75701L23.51 7.13701C23.836 6.58401 24.086 5.98401 24.25 5.34701H27.957V2.74001" stroke="#2998FF" stroke-width="1.4" stroke-linejoin="round"/>
</g>
<defs>
<clipPath id="clip0_2_103">
<rect width="42" height="32" fill="white"/>
</clipPath>
</defs>
</svg>
